G04 #@! TF.GenerationSoftware,KiCad,Pcbnew,6.0.11+dfsg-1*
G04 #@! TF.CreationDate,2024-04-10T09:55:10+02:00*
G04 #@! TF.ProjectId,Nehari_Chauveliere_kicad_TMS,4e656861-7269-45f4-9368-617576656c69,rev?*
G04 #@! TF.SameCoordinates,Original*
G04 #@! TF.FileFunction,Copper,L2,Bot*
G04 #@! TF.FilePolarity,Positive*
%FSLAX46Y46*%
G04 Gerber Fmt 4.6, Leading zero omitted, Abs format (unit mm)*
G04 Created by KiCad (PCBNEW 6.0.11+dfsg-1) date 2024-04-10 09:55:10*
%MOMM*%
%LPD*%
G01*
G04 APERTURE LIST*
G04 #@! TA.AperFunction,ComponentPad*
%ADD10C,1.500000*%
G04 #@! TD*
G04 #@! TA.AperFunction,ComponentPad*
%ADD11R,1.700000X1.700000*%
G04 #@! TD*
G04 #@! TA.AperFunction,ComponentPad*
%ADD12O,1.700000X1.700000*%
G04 #@! TD*
G04 #@! TA.AperFunction,ViaPad*
%ADD13C,0.800000*%
G04 #@! TD*
G04 #@! TA.AperFunction,Conductor*
%ADD14C,0.250000*%
G04 #@! TD*
G04 #@! TA.AperFunction,Conductor*
%ADD15C,1.000000*%
G04 #@! TD*
G04 APERTURE END LIST*
D10*
X157988000Y-103378000D03*
X166497000Y-103124000D03*
X173482000Y-76200000D03*
X184531000Y-98679000D03*
X143637000Y-84963000D03*
X183261000Y-93980000D03*
X156083000Y-91694000D03*
D11*
X168021000Y-91948000D03*
D12*
X165481000Y-91948000D03*
X162941000Y-91948000D03*
X160401000Y-91948000D03*
D11*
X191389000Y-103378000D03*
D12*
X193929000Y-103378000D03*
D11*
X157988000Y-99192000D03*
D12*
X157988000Y-96652000D03*
D11*
X158115000Y-87757000D03*
D12*
X160655000Y-87757000D03*
D11*
X168529000Y-69773800D03*
D12*
X168529000Y-72313800D03*
X171069000Y-69773800D03*
X171069000Y-72313800D03*
X173609000Y-69773800D03*
X173609000Y-72313800D03*
X176149000Y-69773800D03*
X176149000Y-72313800D03*
X178689000Y-69773800D03*
X178689000Y-72313800D03*
D11*
X167386000Y-96647000D03*
D12*
X167386000Y-99187000D03*
D11*
X178816000Y-86360000D03*
D12*
X181356000Y-86360000D03*
X162433000Y-101727000D03*
X162433000Y-99187000D03*
D11*
X162433000Y-96647000D03*
D13*
X150622000Y-99568000D03*
X162306000Y-104140000D03*
X171323000Y-99695000D03*
X191516000Y-66929000D03*
X150622000Y-95123000D03*
X146304000Y-82804000D03*
X146177000Y-92710000D03*
X144018000Y-87757000D03*
X153035000Y-88138000D03*
X152908000Y-85852000D03*
X167894000Y-76835000D03*
X164973000Y-72898000D03*
X183388000Y-86360000D03*
X152781000Y-74803000D03*
X176149000Y-82804000D03*
X188595000Y-79375000D03*
X186563000Y-89408000D03*
X184150000Y-96266000D03*
X183515000Y-103378000D03*
X197358000Y-103632000D03*
X197612000Y-95631000D03*
X195453000Y-88519000D03*
X195199000Y-80010000D03*
X191262000Y-74676000D03*
X183134000Y-72517000D03*
X179578000Y-81788000D03*
X188087000Y-88519000D03*
X181229000Y-78105000D03*
X164084000Y-88138000D03*
X178943000Y-66929000D03*
X154305000Y-73152000D03*
X153035000Y-105029000D03*
X149860000Y-81407000D03*
X146558000Y-77597000D03*
X168529000Y-103251000D03*
X141097000Y-97536000D03*
X168021000Y-87884000D03*
X171069000Y-78613000D03*
X164846000Y-80010000D03*
X158115000Y-91821000D03*
X150495000Y-70739000D03*
X147193000Y-100965000D03*
X144907000Y-104902000D03*
X155575000Y-77216000D03*
X177800000Y-75692000D03*
X177165000Y-90424000D03*
X145161000Y-71755000D03*
X153924000Y-81153000D03*
X169164000Y-82677000D03*
X165227000Y-67183000D03*
X160655000Y-82042000D03*
X165415351Y-74610351D03*
X154427000Y-86746000D03*
X154686000Y-83439000D03*
D14*
X165415351Y-74610351D02*
X165481000Y-74676000D01*
X178689000Y-73533000D02*
X178689000Y-72313800D01*
X165481000Y-74676000D02*
X177546000Y-74676000D01*
X177546000Y-74676000D02*
X178689000Y-73533000D01*
X181229000Y-81280000D02*
X181229000Y-78105000D01*
X181864000Y-81915000D02*
X181229000Y-81280000D01*
X185547000Y-81915000D02*
X181864000Y-81915000D01*
X185547000Y-81915000D02*
X186690000Y-81915000D01*
X186690000Y-81915000D02*
X188087000Y-83312000D01*
X188087000Y-83312000D02*
X188087000Y-88519000D01*
X154686000Y-83439000D02*
X154686000Y-86487000D01*
X154686000Y-86487000D02*
X154427000Y-86746000D01*
D15*
X167386000Y-96647000D02*
X175006000Y-96647000D01*
X181356000Y-90297000D02*
X181356000Y-86360000D01*
X175006000Y-96647000D02*
X181356000Y-90297000D01*
G04 #@! TA.AperFunction,Conductor*
G36*
X199077621Y-65425502D02*
G01*
X199124114Y-65479158D01*
X199135500Y-65531500D01*
X199135500Y-105410500D01*
X199115498Y-105478621D01*
X199061842Y-105525114D01*
X199009500Y-105536500D01*
X139064500Y-105536500D01*
X138996379Y-105516498D01*
X138949886Y-105462842D01*
X138938500Y-105410500D01*
X138938500Y-103378000D01*
X156724693Y-103378000D01*
X156743885Y-103597371D01*
X156800880Y-103810076D01*
X156803205Y-103815061D01*
X156891618Y-104004666D01*
X156891621Y-104004671D01*
X156893944Y-104009653D01*
X156897100Y-104014160D01*
X156897101Y-104014162D01*
X156948700Y-104087852D01*
X157020251Y-104190038D01*
X157175962Y-104345749D01*
X157180471Y-104348906D01*
X157180473Y-104348908D01*
X157255241Y-104401261D01*
X157356346Y-104472056D01*
X157555924Y-104565120D01*
X157768629Y-104622115D01*
X157988000Y-104641307D01*
X158207371Y-104622115D01*
X158420076Y-104565120D01*
X158619654Y-104472056D01*
X158720759Y-104401261D01*
X158795527Y-104348908D01*
X158795529Y-104348906D01*
X158800038Y-104345749D01*
X158955749Y-104190038D01*
X159027301Y-104087852D01*
X159078899Y-104014162D01*
X159078900Y-104014160D01*
X159082056Y-104009653D01*
X159084379Y-104004671D01*
X159084382Y-104004666D01*
X159172795Y-103815061D01*
X159175120Y-103810076D01*
X159232115Y-103597371D01*
X159251307Y-103378000D01*
X159232115Y-103158629D01*
X159222836Y-103124000D01*
X165233693Y-103124000D01*
X165252885Y-103343371D01*
X165309880Y-103556076D01*
X165312205Y-103561061D01*
X165400618Y-103750666D01*
X165400621Y-103750671D01*
X165402944Y-103755653D01*
X165406100Y-103760160D01*
X165406101Y-103760162D01*
X165493001Y-103884267D01*
X165529251Y-103936038D01*
X165684962Y-104091749D01*
X165865346Y-104218056D01*
X166064924Y-104311120D01*
X166277629Y-104368115D01*
X166497000Y-104387307D01*
X166716371Y-104368115D01*
X166929076Y-104311120D01*
X167004104Y-104276134D01*
X190030500Y-104276134D01*
X190037255Y-104338316D01*
X190088385Y-104474705D01*
X190175739Y-104591261D01*
X190292295Y-104678615D01*
X190428684Y-104729745D01*
X190490866Y-104736500D01*
X192287134Y-104736500D01*
X192349316Y-104729745D01*
X192485705Y-104678615D01*
X192602261Y-104591261D01*
X192689615Y-104474705D01*
X192722559Y-104386828D01*
X192733798Y-104356848D01*
X192776440Y-104300084D01*
X192843001Y-104275384D01*
X192912350Y-104290592D01*
X192947017Y-104318580D01*
X192972218Y-104347673D01*
X192979580Y-104354883D01*
X193143434Y-104490916D01*
X193151881Y-104496831D01*
X193335756Y-104604279D01*
X193345042Y-104608729D01*
X193544001Y-104684703D01*
X193553899Y-104687579D01*
X193657250Y-104708606D01*
X193671299Y-104707410D01*
X193675000Y-104697065D01*
X193675000Y-104696517D01*
X194183000Y-104696517D01*
X194187064Y-104710359D01*
X194200478Y-104712393D01*
X194207184Y-104711534D01*
X194217262Y-104709392D01*
X194421255Y-104648191D01*
X194430842Y-104644433D01*
X194622095Y-104550739D01*
X194630945Y-104545464D01*
X194804328Y-104421792D01*
X194812200Y-104415139D01*
X194963052Y-104264812D01*
X194969730Y-104256965D01*
X195094003Y-104084020D01*
X195099313Y-104075183D01*
X195193670Y-103884267D01*
X195197469Y-103874672D01*
X195259377Y-103670910D01*
X195261555Y-103660837D01*
X195262986Y-103649962D01*
X195260775Y-103635778D01*
X195247617Y-103632000D01*
X194201115Y-103632000D01*
X194185876Y-103636475D01*
X194184671Y-103637865D01*
X194183000Y-103645548D01*
X194183000Y-104696517D01*
X193675000Y-104696517D01*
X193675000Y-103105885D01*
X194183000Y-103105885D01*
X194187475Y-103121124D01*
X194188865Y-103122329D01*
X194196548Y-103124000D01*
X195247344Y-103124000D01*
X195260875Y-103120027D01*
X195262180Y-103110947D01*
X195220214Y-102943875D01*
X195216894Y-102934124D01*
X195131972Y-102738814D01*
X195127105Y-102729739D01*
X195011426Y-102550926D01*
X195005136Y-102542757D01*
X194861806Y-102385240D01*
X194854273Y-102378215D01*
X194687139Y-102246222D01*
X194678552Y-102240517D01*
X194492117Y-102137599D01*
X194482705Y-102133369D01*
X194281959Y-102062280D01*
X194271988Y-102059646D01*
X194200837Y-102046972D01*
X194187540Y-102048432D01*
X194183000Y-102062989D01*
X194183000Y-103105885D01*
X193675000Y-103105885D01*
X193675000Y-102061102D01*
X193671082Y-102047758D01*
X193656806Y-102045771D01*
X193618324Y-102051660D01*
X193608288Y-102054051D01*
X193405868Y-102120212D01*
X193396359Y-102124209D01*
X193207463Y-102222542D01*
X193198738Y-102228036D01*
X193028433Y-102355905D01*
X193020726Y-102362748D01*
X192943478Y-102443584D01*
X192881954Y-102479014D01*
X192811042Y-102475557D01*
X192753255Y-102434311D01*
X192734402Y-102400763D01*
X192692767Y-102289703D01*
X192689615Y-102281295D01*
X192602261Y-102164739D01*
X192485705Y-102077385D01*
X192349316Y-102026255D01*
X192287134Y-102019500D01*
X190490866Y-102019500D01*
X190428684Y-102026255D01*
X190292295Y-102077385D01*
X190175739Y-102164739D01*
X190088385Y-102281295D01*
X190037255Y-102417684D01*
X190030500Y-102479866D01*
X190030500Y-104276134D01*
X167004104Y-104276134D01*
X167128654Y-104218056D01*
X167309038Y-104091749D01*
X167464749Y-103936038D01*
X167501000Y-103884267D01*
X167587899Y-103760162D01*
X167587900Y-103760160D01*
X167591056Y-103755653D01*
X167593379Y-103750671D01*
X167593382Y-103750666D01*
X167681795Y-103561061D01*
X167684120Y-103556076D01*
X167741115Y-103343371D01*
X167760307Y-103124000D01*
X167741115Y-102904629D01*
X167684120Y-102691924D01*
X167618372Y-102550926D01*
X167593382Y-102497334D01*
X167593379Y-102497329D01*
X167591056Y-102492347D01*
X167587899Y-102487838D01*
X167467908Y-102316473D01*
X167467906Y-102316470D01*
X167464749Y-102311962D01*
X167309038Y-102156251D01*
X167282401Y-102137599D01*
X167173152Y-102061102D01*
X167128654Y-102029944D01*
X166929076Y-101936880D01*
X166716371Y-101879885D01*
X166497000Y-101860693D01*
X166277629Y-101879885D01*
X166064924Y-101936880D01*
X165971562Y-101980415D01*
X165870334Y-102027618D01*
X165870329Y-102027621D01*
X165865347Y-102029944D01*
X165860840Y-102033100D01*
X165860838Y-102033101D01*
X165689473Y-102153092D01*
X165689470Y-102153094D01*
X165684962Y-102156251D01*
X165529251Y-102311962D01*
X165526094Y-102316470D01*
X165526092Y-102316473D01*
X165406101Y-102487838D01*
X165402944Y-102492347D01*
X165400621Y-102497329D01*
X165400618Y-102497334D01*
X165375628Y-102550926D01*
X165309880Y-102691924D01*
X165252885Y-102904629D01*
X165233693Y-103124000D01*
X159222836Y-103124000D01*
X159175120Y-102945924D01*
X159090353Y-102764139D01*
X159084382Y-102751334D01*
X159084379Y-102751329D01*
X159082056Y-102746347D01*
X159078899Y-102741838D01*
X158958908Y-102570473D01*
X158958906Y-102570470D01*
X158955749Y-102565962D01*
X158800038Y-102410251D01*
X158619654Y-102283944D01*
X158420076Y-102190880D01*
X158207371Y-102133885D01*
X157988000Y-102114693D01*
X157768629Y-102133885D01*
X157555924Y-102190880D01*
X157465025Y-102233267D01*
X157361334Y-102281618D01*
X157361329Y-102281621D01*
X157356347Y-102283944D01*
X157351840Y-102287100D01*
X157351838Y-102287101D01*
X157180473Y-102407092D01*
X157180470Y-102407094D01*
X157175962Y-102410251D01*
X157020251Y-102565962D01*
X157017094Y-102570470D01*
X157017092Y-102570473D01*
X156897101Y-102741838D01*
X156893944Y-102746347D01*
X156891621Y-102751329D01*
X156891618Y-102751334D01*
X156885647Y-102764139D01*
X156800880Y-102945924D01*
X156743885Y-103158629D01*
X156724693Y-103378000D01*
X138938500Y-103378000D01*
X138938500Y-101994966D01*
X161101257Y-101994966D01*
X161131565Y-102129446D01*
X161134645Y-102139275D01*
X161214770Y-102336603D01*
X161219413Y-102345794D01*
X161330694Y-102527388D01*
X161336777Y-102535699D01*
X161476213Y-102696667D01*
X161483580Y-102703883D01*
X161647434Y-102839916D01*
X161655881Y-102845831D01*
X161839756Y-102953279D01*
X161849042Y-102957729D01*
X162048001Y-103033703D01*
X162057899Y-103036579D01*
X162161250Y-103057606D01*
X162175299Y-103056410D01*
X162179000Y-103046065D01*
X162179000Y-103045517D01*
X162687000Y-103045517D01*
X162691064Y-103059359D01*
X162704478Y-103061393D01*
X162711184Y-103060534D01*
X162721262Y-103058392D01*
X162925255Y-102997191D01*
X162934842Y-102993433D01*
X163126095Y-102899739D01*
X163134945Y-102894464D01*
X163308328Y-102770792D01*
X163316200Y-102764139D01*
X163467052Y-102613812D01*
X163473730Y-102605965D01*
X163598003Y-102433020D01*
X163603313Y-102424183D01*
X163697670Y-102233267D01*
X163701469Y-102223672D01*
X163763377Y-102019910D01*
X163765555Y-102009837D01*
X163766986Y-101998962D01*
X163764775Y-101984778D01*
X163751617Y-101981000D01*
X162705115Y-101981000D01*
X162689876Y-101985475D01*
X162688671Y-101986865D01*
X162687000Y-101994548D01*
X162687000Y-103045517D01*
X162179000Y-103045517D01*
X162179000Y-101999115D01*
X162174525Y-101983876D01*
X162173135Y-101982671D01*
X162165452Y-101981000D01*
X161116225Y-101981000D01*
X161102694Y-101984973D01*
X161101257Y-101994966D01*
X138938500Y-101994966D01*
X138938500Y-96618695D01*
X156625251Y-96618695D01*
X156625548Y-96623848D01*
X156625548Y-96623851D01*
X156631011Y-96718590D01*
X156638110Y-96841715D01*
X156639247Y-96846761D01*
X156639248Y-96846767D01*
X156659119Y-96934939D01*
X156687222Y-97059639D01*
X156771266Y-97266616D01*
X156773965Y-97271020D01*
X156848957Y-97393396D01*
X156887987Y-97457088D01*
X157034250Y-97625938D01*
X157038230Y-97629242D01*
X157042981Y-97633187D01*
X157082616Y-97692090D01*
X157084113Y-97763071D01*
X157046997Y-97823593D01*
X157006725Y-97848112D01*
X156974318Y-97860261D01*
X156891295Y-97891385D01*
X156774739Y-97978739D01*
X156687385Y-98095295D01*
X156636255Y-98231684D01*
X156629500Y-98293866D01*
X156629500Y-100090134D01*
X156636255Y-100152316D01*
X156687385Y-100288705D01*
X156774739Y-100405261D01*
X156891295Y-100492615D01*
X157027684Y-100543745D01*
X157089866Y-100550500D01*
X158886134Y-100550500D01*
X158948316Y-100543745D01*
X159084705Y-100492615D01*
X159201261Y-100405261D01*
X159288615Y-100288705D01*
X159339745Y-100152316D01*
X159346500Y-100090134D01*
X159346500Y-99153695D01*
X161070251Y-99153695D01*
X161070548Y-99158848D01*
X161070548Y-99158851D01*
X161076011Y-99253590D01*
X161083110Y-99376715D01*
X161084247Y-99381761D01*
X161084248Y-99381767D01*
X161104119Y-99469939D01*
X161132222Y-99594639D01*
X161216266Y-99801616D01*
X161332987Y-99992088D01*
X161479250Y-100160938D01*
X161651126Y-100303632D01*
X161724955Y-100346774D01*
X161773679Y-100398412D01*
X161786750Y-100468195D01*
X161760019Y-100533967D01*
X161719562Y-100567327D01*
X161711457Y-100571546D01*
X161702738Y-100577036D01*
X161532433Y-100704905D01*
X161524726Y-100711748D01*
X161377590Y-100865717D01*
X161371104Y-100873727D01*
X161251098Y-101049649D01*
X161246000Y-101058623D01*
X161156338Y-101251783D01*
X161152775Y-101261470D01*
X161097389Y-101461183D01*
X161098912Y-101469607D01*
X161111292Y-101473000D01*
X163751344Y-101473000D01*
X163764875Y-101469027D01*
X163766180Y-101459947D01*
X163724214Y-101292875D01*
X163720894Y-101283124D01*
X163635972Y-101087814D01*
X163631105Y-101078739D01*
X163515426Y-100899926D01*
X163509136Y-100891757D01*
X163365806Y-100734240D01*
X163358273Y-100727215D01*
X163191139Y-100595222D01*
X163182556Y-100589520D01*
X163145602Y-100569120D01*
X163095631Y-100518687D01*
X163080859Y-100449245D01*
X163105975Y-100382839D01*
X163133327Y-100356232D01*
X163156797Y-100339491D01*
X163312860Y-100228173D01*
X163471096Y-100070489D01*
X163530594Y-99987689D01*
X163598435Y-99893277D01*
X163601453Y-99889077D01*
X163700430Y-99688811D01*
X163765370Y-99475069D01*
X163794529Y-99253590D01*
X163796156Y-99187000D01*
X163793418Y-99153695D01*
X166023251Y-99153695D01*
X166023548Y-99158848D01*
X166023548Y-99158851D01*
X166029011Y-99253590D01*
X166036110Y-99376715D01*
X166037247Y-99381761D01*
X166037248Y-99381767D01*
X166057119Y-99469939D01*
X166085222Y-99594639D01*
X166169266Y-99801616D01*
X166285987Y-99992088D01*
X166432250Y-100160938D01*
X166604126Y-100303632D01*
X166797000Y-100416338D01*
X167005692Y-100496030D01*
X167010760Y-100497061D01*
X167010763Y-100497062D01*
X167117054Y-100518687D01*
X167224597Y-100540567D01*
X167229772Y-100540757D01*
X167229774Y-100540757D01*
X167442673Y-100548564D01*
X167442677Y-100548564D01*
X167447837Y-100548753D01*
X167452957Y-100548097D01*
X167452959Y-100548097D01*
X167664288Y-100521025D01*
X167664289Y-100521025D01*
X167669416Y-100520368D01*
X167675019Y-100518687D01*
X167878429Y-100457661D01*
X167878434Y-100457659D01*
X167883384Y-100456174D01*
X168083994Y-100357896D01*
X168265860Y-100228173D01*
X168424096Y-100070489D01*
X168483594Y-99987689D01*
X168551435Y-99893277D01*
X168554453Y-99889077D01*
X168653430Y-99688811D01*
X168718370Y-99475069D01*
X168747529Y-99253590D01*
X168749156Y-99187000D01*
X168730852Y-98964361D01*
X168676431Y-98747702D01*
X168646558Y-98679000D01*
X183267693Y-98679000D01*
X183286885Y-98898371D01*
X183343880Y-99111076D01*
X183346205Y-99116061D01*
X183434618Y-99305666D01*
X183434621Y-99305671D01*
X183436944Y-99310653D01*
X183440100Y-99315160D01*
X183440101Y-99315162D01*
X183486739Y-99381767D01*
X183563251Y-99491038D01*
X183718962Y-99646749D01*
X183899346Y-99773056D01*
X184098924Y-99866120D01*
X184311629Y-99923115D01*
X184531000Y-99942307D01*
X184750371Y-99923115D01*
X184963076Y-99866120D01*
X185162654Y-99773056D01*
X185343038Y-99646749D01*
X185498749Y-99491038D01*
X185575262Y-99381767D01*
X185621899Y-99315162D01*
X185621900Y-99315160D01*
X185625056Y-99310653D01*
X185627379Y-99305671D01*
X185627382Y-99305666D01*
X185715795Y-99116061D01*
X185718120Y-99111076D01*
X185775115Y-98898371D01*
X185794307Y-98679000D01*
X185775115Y-98459629D01*
X185718120Y-98246924D01*
X185649953Y-98100738D01*
X185627382Y-98052334D01*
X185627379Y-98052329D01*
X185625056Y-98047347D01*
X185615365Y-98033507D01*
X185501908Y-97871473D01*
X185501906Y-97871470D01*
X185498749Y-97866962D01*
X185343038Y-97711251D01*
X185315674Y-97692090D01*
X185240892Y-97639727D01*
X185162654Y-97584944D01*
X184963076Y-97491880D01*
X184750371Y-97434885D01*
X184531000Y-97415693D01*
X184311629Y-97434885D01*
X184098924Y-97491880D01*
X184005562Y-97535415D01*
X183904334Y-97582618D01*
X183904329Y-97582621D01*
X183899347Y-97584944D01*
X183894840Y-97588100D01*
X183894838Y-97588101D01*
X183723473Y-97708092D01*
X183723470Y-97708094D01*
X183718962Y-97711251D01*
X183563251Y-97866962D01*
X183560094Y-97871470D01*
X183560092Y-97871473D01*
X183446635Y-98033507D01*
X183436944Y-98047347D01*
X183434621Y-98052329D01*
X183434618Y-98052334D01*
X183412047Y-98100738D01*
X183343880Y-98246924D01*
X183286885Y-98459629D01*
X183267693Y-98679000D01*
X168646558Y-98679000D01*
X168587354Y-98542840D01*
X168466014Y-98355277D01*
X168462532Y-98351450D01*
X168318798Y-98193488D01*
X168287746Y-98129642D01*
X168296141Y-98059143D01*
X168341317Y-98004375D01*
X168367761Y-97990706D01*
X168474297Y-97950767D01*
X168482705Y-97947615D01*
X168599261Y-97860261D01*
X168686615Y-97743705D01*
X168689767Y-97735296D01*
X168694077Y-97727425D01*
X168695741Y-97728336D01*
X168731663Y-97680510D01*
X168798224Y-97655807D01*
X168807009Y-97655500D01*
X174944157Y-97655500D01*
X174957764Y-97656237D01*
X174989262Y-97659659D01*
X174989267Y-97659659D01*
X174995388Y-97660324D01*
X175021638Y-97658027D01*
X175045388Y-97655950D01*
X175050214Y-97655621D01*
X175052686Y-97655500D01*
X175055769Y-97655500D01*
X175067738Y-97654326D01*
X175098506Y-97651310D01*
X175099819Y-97651188D01*
X175144084Y-97647315D01*
X175192413Y-97643087D01*
X175197532Y-97641600D01*
X175202833Y-97641080D01*
X175291834Y-97614209D01*
X175292967Y-97613874D01*
X175376414Y-97589630D01*
X175376418Y-97589628D01*
X175382336Y-97587909D01*
X175387068Y-97585456D01*
X175392169Y-97583916D01*
X175397612Y-97581022D01*
X175474260Y-97540269D01*
X175475426Y-97539657D01*
X175552453Y-97499729D01*
X175557926Y-97496892D01*
X175562089Y-97493569D01*
X175566796Y-97491066D01*
X175638918Y-97432245D01*
X175639774Y-97431554D01*
X175678973Y-97400262D01*
X175681477Y-97397758D01*
X175682195Y-97397116D01*
X175686528Y-97393415D01*
X175720062Y-97366065D01*
X175729980Y-97354077D01*
X175749287Y-97330738D01*
X175757277Y-97321958D01*
X179099234Y-93980000D01*
X181997693Y-93980000D01*
X182016885Y-94199371D01*
X182073880Y-94412076D01*
X182076205Y-94417061D01*
X182164618Y-94606666D01*
X182164621Y-94606671D01*
X182166944Y-94611653D01*
X182293251Y-94792038D01*
X182448962Y-94947749D01*
X182629346Y-95074056D01*
X182828924Y-95167120D01*
X183041629Y-95224115D01*
X183261000Y-95243307D01*
X183480371Y-95224115D01*
X183693076Y-95167120D01*
X183892654Y-95074056D01*
X184073038Y-94947749D01*
X184228749Y-94792038D01*
X184355056Y-94611653D01*
X184357379Y-94606671D01*
X184357382Y-94606666D01*
X184445795Y-94417061D01*
X184448120Y-94412076D01*
X184505115Y-94199371D01*
X184524307Y-93980000D01*
X184505115Y-93760629D01*
X184448120Y-93547924D01*
X184404585Y-93454562D01*
X184357382Y-93353334D01*
X184357379Y-93353329D01*
X184355056Y-93348347D01*
X184327573Y-93309097D01*
X184231908Y-93172473D01*
X184231906Y-93172470D01*
X184228749Y-93167962D01*
X184073038Y-93012251D01*
X184040080Y-92989173D01*
X183993759Y-92956739D01*
X183892654Y-92885944D01*
X183693076Y-92792880D01*
X183480371Y-92735885D01*
X183261000Y-92716693D01*
X183041629Y-92735885D01*
X182828924Y-92792880D01*
X182739000Y-92834812D01*
X182634334Y-92883618D01*
X182634329Y-92883621D01*
X182629347Y-92885944D01*
X182624840Y-92889100D01*
X182624838Y-92889101D01*
X182453473Y-93009092D01*
X182453470Y-93009094D01*
X182448962Y-93012251D01*
X182293251Y-93167962D01*
X182290094Y-93172470D01*
X182290092Y-93172473D01*
X182194427Y-93309097D01*
X182166944Y-93348347D01*
X182164621Y-93353329D01*
X182164618Y-93353334D01*
X182117415Y-93454562D01*
X182073880Y-93547924D01*
X182016885Y-93760629D01*
X181997693Y-93980000D01*
X179099234Y-93980000D01*
X182025379Y-91053855D01*
X182035522Y-91044753D01*
X182060218Y-91024897D01*
X182065025Y-91021032D01*
X182097292Y-90982578D01*
X182100472Y-90978931D01*
X182102115Y-90977119D01*
X182104309Y-90974925D01*
X182131642Y-90941651D01*
X182132348Y-90940800D01*
X182139105Y-90932748D01*
X182192154Y-90869526D01*
X182194722Y-90864856D01*
X182198103Y-90860739D01*
X182241977Y-90778914D01*
X182242606Y-90777755D01*
X182284462Y-90701619D01*
X182284465Y-90701611D01*
X182287433Y-90696213D01*
X182289045Y-90691131D01*
X182291562Y-90686437D01*
X182318762Y-90597469D01*
X182319108Y-90596358D01*
X182319412Y-90595402D01*
X182347235Y-90507694D01*
X182347829Y-90502398D01*
X182349387Y-90497302D01*
X182358790Y-90404743D01*
X182358911Y-90403607D01*
X182364500Y-90353773D01*
X182364500Y-90350246D01*
X182364555Y-90349261D01*
X182365002Y-90343581D01*
X182369374Y-90300538D01*
X182365059Y-90254891D01*
X182364500Y-90243033D01*
X182364500Y-87323970D01*
X182384502Y-87255849D01*
X182392460Y-87245120D01*
X182394096Y-87243489D01*
X182524453Y-87062077D01*
X182586800Y-86935928D01*
X182621136Y-86866453D01*
X182621137Y-86866451D01*
X182623430Y-86861811D01*
X182660022Y-86741373D01*
X182686865Y-86653023D01*
X182686865Y-86653021D01*
X182688370Y-86648069D01*
X182717529Y-86426590D01*
X182718206Y-86398869D01*
X182719074Y-86363365D01*
X182719074Y-86363361D01*
X182719156Y-86360000D01*
X182700852Y-86137361D01*
X182646431Y-85920702D01*
X182557354Y-85715840D01*
X182478955Y-85594653D01*
X182438822Y-85532617D01*
X182438820Y-85532614D01*
X182436014Y-85528277D01*
X182285670Y-85363051D01*
X182281619Y-85359852D01*
X182281615Y-85359848D01*
X182114414Y-85227800D01*
X182114410Y-85227798D01*
X182110359Y-85224598D01*
X181914789Y-85116638D01*
X181909920Y-85114914D01*
X181909916Y-85114912D01*
X181709087Y-85043795D01*
X181709083Y-85043794D01*
X181704212Y-85042069D01*
X181699119Y-85041162D01*
X181699116Y-85041161D01*
X181489373Y-85003800D01*
X181489367Y-85003799D01*
X181484284Y-85002894D01*
X181410452Y-85001992D01*
X181266081Y-85000228D01*
X181266079Y-85000228D01*
X181260911Y-85000165D01*
X181040091Y-85033955D01*
X180827756Y-85103357D01*
X180629607Y-85206507D01*
X180625474Y-85209610D01*
X180625471Y-85209612D01*
X180455100Y-85337530D01*
X180450965Y-85340635D01*
X180394537Y-85399684D01*
X180370283Y-85425064D01*
X180308759Y-85460494D01*
X180237846Y-85457037D01*
X180180060Y-85415791D01*
X180161207Y-85382243D01*
X180119767Y-85271703D01*
X180116615Y-85263295D01*
X180029261Y-85146739D01*
X179912705Y-85059385D01*
X179776316Y-85008255D01*
X179714134Y-85001500D01*
X177917866Y-85001500D01*
X177855684Y-85008255D01*
X177719295Y-85059385D01*
X177602739Y-85146739D01*
X177515385Y-85263295D01*
X177464255Y-85399684D01*
X177457500Y-85461866D01*
X177457500Y-87258134D01*
X177464255Y-87320316D01*
X177515385Y-87456705D01*
X177602739Y-87573261D01*
X177719295Y-87660615D01*
X177855684Y-87711745D01*
X177917866Y-87718500D01*
X179714134Y-87718500D01*
X179776316Y-87711745D01*
X179912705Y-87660615D01*
X180029261Y-87573261D01*
X180116615Y-87456705D01*
X180117771Y-87457571D01*
X180161237Y-87414202D01*
X180230628Y-87399187D01*
X180297120Y-87424071D01*
X180339604Y-87480954D01*
X180347500Y-87524856D01*
X180347500Y-89827075D01*
X180327498Y-89895196D01*
X180310595Y-89916170D01*
X174625171Y-95601595D01*
X174562859Y-95635621D01*
X174536076Y-95638500D01*
X168807009Y-95638500D01*
X168738888Y-95618498D01*
X168692395Y-95564842D01*
X168690097Y-95559306D01*
X168689767Y-95558703D01*
X168686615Y-95550295D01*
X168599261Y-95433739D01*
X168482705Y-95346385D01*
X168346316Y-95295255D01*
X168284134Y-95288500D01*
X166487866Y-95288500D01*
X166425684Y-95295255D01*
X166289295Y-95346385D01*
X166172739Y-95433739D01*
X166085385Y-95550295D01*
X166034255Y-95686684D01*
X166027500Y-95748866D01*
X166027500Y-97545134D01*
X166034255Y-97607316D01*
X166085385Y-97743705D01*
X166172739Y-97860261D01*
X166289295Y-97947615D01*
X166297704Y-97950767D01*
X166297705Y-97950768D01*
X166406451Y-97991535D01*
X166463216Y-98034176D01*
X166487916Y-98100738D01*
X166472709Y-98170087D01*
X166453316Y-98196568D01*
X166326629Y-98329138D01*
X166200743Y-98513680D01*
X166106688Y-98716305D01*
X166046989Y-98931570D01*
X166023251Y-99153695D01*
X163793418Y-99153695D01*
X163777852Y-98964361D01*
X163723431Y-98747702D01*
X163634354Y-98542840D01*
X163513014Y-98355277D01*
X163509532Y-98351450D01*
X163365798Y-98193488D01*
X163334746Y-98129642D01*
X163343141Y-98059143D01*
X163388317Y-98004375D01*
X163414761Y-97990706D01*
X163521297Y-97950767D01*
X163529705Y-97947615D01*
X163646261Y-97860261D01*
X163733615Y-97743705D01*
X163784745Y-97607316D01*
X163791500Y-97545134D01*
X163791500Y-95748866D01*
X163784745Y-95686684D01*
X163733615Y-95550295D01*
X163646261Y-95433739D01*
X163529705Y-95346385D01*
X163393316Y-95295255D01*
X163331134Y-95288500D01*
X161534866Y-95288500D01*
X161472684Y-95295255D01*
X161336295Y-95346385D01*
X161219739Y-95433739D01*
X161132385Y-95550295D01*
X161081255Y-95686684D01*
X161074500Y-95748866D01*
X161074500Y-97545134D01*
X161081255Y-97607316D01*
X161132385Y-97743705D01*
X161219739Y-97860261D01*
X161336295Y-97947615D01*
X161344704Y-97950767D01*
X161344705Y-97950768D01*
X161453451Y-97991535D01*
X161510216Y-98034176D01*
X161534916Y-98100738D01*
X161519709Y-98170087D01*
X161500316Y-98196568D01*
X161373629Y-98329138D01*
X161247743Y-98513680D01*
X161153688Y-98716305D01*
X161093989Y-98931570D01*
X161070251Y-99153695D01*
X159346500Y-99153695D01*
X159346500Y-98293866D01*
X159339745Y-98231684D01*
X159288615Y-98095295D01*
X159201261Y-97978739D01*
X159084705Y-97891385D01*
X159009162Y-97863065D01*
X158966203Y-97846960D01*
X158909439Y-97804318D01*
X158884739Y-97737756D01*
X158899947Y-97668408D01*
X158921493Y-97639727D01*
X159026096Y-97535489D01*
X159054212Y-97496362D01*
X159153435Y-97358277D01*
X159156453Y-97354077D01*
X159170249Y-97326164D01*
X159253136Y-97158453D01*
X159253137Y-97158451D01*
X159255430Y-97153811D01*
X159320370Y-96940069D01*
X159349529Y-96718590D01*
X159351156Y-96652000D01*
X159332852Y-96429361D01*
X159278431Y-96212702D01*
X159189354Y-96007840D01*
X159068014Y-95820277D01*
X158917670Y-95655051D01*
X158913619Y-95651852D01*
X158913615Y-95651848D01*
X158746414Y-95519800D01*
X158746410Y-95519798D01*
X158742359Y-95516598D01*
X158546789Y-95408638D01*
X158541920Y-95406914D01*
X158541916Y-95406912D01*
X158341087Y-95335795D01*
X158341083Y-95335794D01*
X158336212Y-95334069D01*
X158331119Y-95333162D01*
X158331116Y-95333161D01*
X158121373Y-95295800D01*
X158121367Y-95295799D01*
X158116284Y-95294894D01*
X158042452Y-95293992D01*
X157898081Y-95292228D01*
X157898079Y-95292228D01*
X157892911Y-95292165D01*
X157672091Y-95325955D01*
X157459756Y-95395357D01*
X157261607Y-95498507D01*
X157257474Y-95501610D01*
X157257471Y-95501612D01*
X157087100Y-95629530D01*
X157082965Y-95632635D01*
X156928629Y-95794138D01*
X156802743Y-95978680D01*
X156708688Y-96181305D01*
X156648989Y-96396570D01*
X156625251Y-96618695D01*
X138938500Y-96618695D01*
X138938500Y-91694000D01*
X154819693Y-91694000D01*
X154838885Y-91913371D01*
X154895880Y-92126076D01*
X154937796Y-92215966D01*
X154986618Y-92320666D01*
X154986621Y-92320671D01*
X154988944Y-92325653D01*
X154992100Y-92330160D01*
X154992101Y-92330162D01*
X155065986Y-92435680D01*
X155115251Y-92506038D01*
X155270962Y-92661749D01*
X155451346Y-92788056D01*
X155650924Y-92881120D01*
X155863629Y-92938115D01*
X156083000Y-92957307D01*
X156302371Y-92938115D01*
X156515076Y-92881120D01*
X156714654Y-92788056D01*
X156895038Y-92661749D01*
X157050749Y-92506038D01*
X157100015Y-92435680D01*
X157173899Y-92330162D01*
X157173900Y-92330160D01*
X157177056Y-92325653D01*
X157179379Y-92320671D01*
X157179382Y-92320666D01*
X157228204Y-92215966D01*
X159069257Y-92215966D01*
X159099565Y-92350446D01*
X159102645Y-92360275D01*
X159182770Y-92557603D01*
X159187413Y-92566794D01*
X159298694Y-92748388D01*
X159304777Y-92756699D01*
X159444213Y-92917667D01*
X159451580Y-92924883D01*
X159615434Y-93060916D01*
X159623881Y-93066831D01*
X159807756Y-93174279D01*
X159817042Y-93178729D01*
X160016001Y-93254703D01*
X160025899Y-93257579D01*
X160129250Y-93278606D01*
X160143299Y-93277410D01*
X160147000Y-93267065D01*
X160147000Y-93266517D01*
X160655000Y-93266517D01*
X160659064Y-93280359D01*
X160672478Y-93282393D01*
X160679184Y-93281534D01*
X160689262Y-93279392D01*
X160893255Y-93218191D01*
X160902842Y-93214433D01*
X161094095Y-93120739D01*
X161102945Y-93115464D01*
X161276328Y-92991792D01*
X161284200Y-92985139D01*
X161435052Y-92834812D01*
X161441730Y-92826965D01*
X161569022Y-92649819D01*
X161570279Y-92650722D01*
X161617373Y-92607362D01*
X161687311Y-92595145D01*
X161752751Y-92622678D01*
X161780579Y-92654511D01*
X161786950Y-92664908D01*
X161840987Y-92753088D01*
X161987250Y-92921938D01*
X162159126Y-93064632D01*
X162352000Y-93177338D01*
X162560692Y-93257030D01*
X162565760Y-93258061D01*
X162565763Y-93258062D01*
X162660862Y-93277410D01*
X162779597Y-93301567D01*
X162784772Y-93301757D01*
X162784774Y-93301757D01*
X162997673Y-93309564D01*
X162997677Y-93309564D01*
X163002837Y-93309753D01*
X163007957Y-93309097D01*
X163007959Y-93309097D01*
X163219288Y-93282025D01*
X163219289Y-93282025D01*
X163224416Y-93281368D01*
X163229366Y-93279883D01*
X163433429Y-93218661D01*
X163433434Y-93218659D01*
X163438384Y-93217174D01*
X163638994Y-93118896D01*
X163820860Y-92989173D01*
X163979096Y-92831489D01*
X164109453Y-92650077D01*
X164110776Y-92651028D01*
X164157645Y-92607857D01*
X164227580Y-92595625D01*
X164293026Y-92623144D01*
X164320875Y-92654994D01*
X164326950Y-92664908D01*
X164380987Y-92753088D01*
X164527250Y-92921938D01*
X164699126Y-93064632D01*
X164892000Y-93177338D01*
X165100692Y-93257030D01*
X165105760Y-93258061D01*
X165105763Y-93258062D01*
X165200862Y-93277410D01*
X165319597Y-93301567D01*
X165324772Y-93301757D01*
X165324774Y-93301757D01*
X165537673Y-93309564D01*
X165537677Y-93309564D01*
X165542837Y-93309753D01*
X165547957Y-93309097D01*
X165547959Y-93309097D01*
X165759288Y-93282025D01*
X165759289Y-93282025D01*
X165764416Y-93281368D01*
X165769366Y-93279883D01*
X165973429Y-93218661D01*
X165973434Y-93218659D01*
X165978384Y-93217174D01*
X166178994Y-93118896D01*
X166360860Y-92989173D01*
X166469091Y-92881319D01*
X166531462Y-92847404D01*
X166602268Y-92852592D01*
X166659030Y-92895238D01*
X166676012Y-92926341D01*
X166709679Y-93016148D01*
X166720385Y-93044705D01*
X166807739Y-93161261D01*
X166924295Y-93248615D01*
X167060684Y-93299745D01*
X167122866Y-93306500D01*
X168919134Y-93306500D01*
X168981316Y-93299745D01*
X169117705Y-93248615D01*
X169234261Y-93161261D01*
X169321615Y-93044705D01*
X169372745Y-92908316D01*
X169379500Y-92846134D01*
X169379500Y-91049866D01*
X169372745Y-90987684D01*
X169321615Y-90851295D01*
X169234261Y-90734739D01*
X169117705Y-90647385D01*
X168981316Y-90596255D01*
X168919134Y-90589500D01*
X167122866Y-90589500D01*
X167060684Y-90596255D01*
X166924295Y-90647385D01*
X166807739Y-90734739D01*
X166720385Y-90851295D01*
X166717233Y-90859703D01*
X166675919Y-90969907D01*
X166633277Y-91026671D01*
X166566716Y-91051371D01*
X166497367Y-91036163D01*
X166464743Y-91010476D01*
X166414151Y-90954875D01*
X166414142Y-90954866D01*
X166410670Y-90951051D01*
X166406619Y-90947852D01*
X166406615Y-90947848D01*
X166239414Y-90815800D01*
X166239410Y-90815798D01*
X166235359Y-90812598D01*
X166199028Y-90792542D01*
X166172241Y-90777755D01*
X166039789Y-90704638D01*
X166034920Y-90702914D01*
X166034916Y-90702912D01*
X165834087Y-90631795D01*
X165834083Y-90631794D01*
X165829212Y-90630069D01*
X165824119Y-90629162D01*
X165824116Y-90629161D01*
X165614373Y-90591800D01*
X165614367Y-90591799D01*
X165609284Y-90590894D01*
X165535452Y-90589992D01*
X165391081Y-90588228D01*
X165391079Y-90588228D01*
X165385911Y-90588165D01*
X165165091Y-90621955D01*
X164952756Y-90691357D01*
X164754607Y-90794507D01*
X164750474Y-90797610D01*
X164750471Y-90797612D01*
X164580100Y-90925530D01*
X164575965Y-90928635D01*
X164531729Y-90974925D01*
X164482280Y-91026671D01*
X164421629Y-91090138D01*
X164314201Y-91247621D01*
X164259293Y-91292621D01*
X164188768Y-91300792D01*
X164125021Y-91269538D01*
X164104324Y-91245054D01*
X164023822Y-91120617D01*
X164023820Y-91120614D01*
X164021014Y-91116277D01*
X163870670Y-90951051D01*
X163866619Y-90947852D01*
X163866615Y-90947848D01*
X163699414Y-90815800D01*
X163699410Y-90815798D01*
X163695359Y-90812598D01*
X163659028Y-90792542D01*
X163632241Y-90777755D01*
X163499789Y-90704638D01*
X163494920Y-90702914D01*
X163494916Y-90702912D01*
X163294087Y-90631795D01*
X163294083Y-90631794D01*
X163289212Y-90630069D01*
X163284119Y-90629162D01*
X163284116Y-90629161D01*
X163074373Y-90591800D01*
X163074367Y-90591799D01*
X163069284Y-90590894D01*
X162995452Y-90589992D01*
X162851081Y-90588228D01*
X162851079Y-90588228D01*
X162845911Y-90588165D01*
X162625091Y-90621955D01*
X162412756Y-90691357D01*
X162214607Y-90794507D01*
X162210474Y-90797610D01*
X162210471Y-90797612D01*
X162040100Y-90925530D01*
X162035965Y-90928635D01*
X161991729Y-90974925D01*
X161942280Y-91026671D01*
X161881629Y-91090138D01*
X161878720Y-91094403D01*
X161878714Y-91094411D01*
X161866404Y-91112457D01*
X161774204Y-91247618D01*
X161773898Y-91248066D01*
X161718987Y-91293069D01*
X161648462Y-91301240D01*
X161584715Y-91269986D01*
X161564018Y-91245502D01*
X161483426Y-91120926D01*
X161477136Y-91112757D01*
X161333806Y-90955240D01*
X161326273Y-90948215D01*
X161159139Y-90816222D01*
X161150552Y-90810517D01*
X160964117Y-90707599D01*
X160954705Y-90703369D01*
X160753959Y-90632280D01*
X160743988Y-90629646D01*
X160672837Y-90616972D01*
X160659540Y-90618432D01*
X160655000Y-90632989D01*
X160655000Y-93266517D01*
X160147000Y-93266517D01*
X160147000Y-92220115D01*
X160142525Y-92204876D01*
X160141135Y-92203671D01*
X160133452Y-92202000D01*
X159084225Y-92202000D01*
X159070694Y-92205973D01*
X159069257Y-92215966D01*
X157228204Y-92215966D01*
X157270120Y-92126076D01*
X157327115Y-91913371D01*
X157346307Y-91694000D01*
X157345273Y-91682183D01*
X159065389Y-91682183D01*
X159066912Y-91690607D01*
X159079292Y-91694000D01*
X160128885Y-91694000D01*
X160144124Y-91689525D01*
X160145329Y-91688135D01*
X160147000Y-91680452D01*
X160147000Y-90631102D01*
X160143082Y-90617758D01*
X160128806Y-90615771D01*
X160090324Y-90621660D01*
X160080288Y-90624051D01*
X159877868Y-90690212D01*
X159868359Y-90694209D01*
X159679463Y-90792542D01*
X159670738Y-90798036D01*
X159500433Y-90925905D01*
X159492726Y-90932748D01*
X159345590Y-91086717D01*
X159339104Y-91094727D01*
X159219098Y-91270649D01*
X159214000Y-91279623D01*
X159124338Y-91472783D01*
X159120775Y-91482470D01*
X159065389Y-91682183D01*
X157345273Y-91682183D01*
X157327115Y-91474629D01*
X157270120Y-91261924D01*
X157202204Y-91116277D01*
X157179382Y-91067334D01*
X157179379Y-91067329D01*
X157177056Y-91062347D01*
X157171110Y-91053855D01*
X157053908Y-90886473D01*
X157053906Y-90886470D01*
X157050749Y-90881962D01*
X156895038Y-90726251D01*
X156868401Y-90707599D01*
X156760834Y-90632280D01*
X156714654Y-90599944D01*
X156515076Y-90506880D01*
X156302371Y-90449885D01*
X156083000Y-90430693D01*
X155863629Y-90449885D01*
X155650924Y-90506880D01*
X155557562Y-90550415D01*
X155456334Y-90597618D01*
X155456331Y-90597620D01*
X155451347Y-90599944D01*
X155446840Y-90603100D01*
X155446838Y-90603101D01*
X155275473Y-90723092D01*
X155275470Y-90723094D01*
X155270962Y-90726251D01*
X155115251Y-90881962D01*
X155112094Y-90886470D01*
X155112092Y-90886473D01*
X154994890Y-91053855D01*
X154988944Y-91062347D01*
X154986621Y-91067329D01*
X154986618Y-91067334D01*
X154963796Y-91116277D01*
X154895880Y-91261924D01*
X154838885Y-91474629D01*
X154819693Y-91694000D01*
X138938500Y-91694000D01*
X138938500Y-88655134D01*
X156756500Y-88655134D01*
X156763255Y-88717316D01*
X156814385Y-88853705D01*
X156901739Y-88970261D01*
X157018295Y-89057615D01*
X157154684Y-89108745D01*
X157216866Y-89115500D01*
X159013134Y-89115500D01*
X159075316Y-89108745D01*
X159211705Y-89057615D01*
X159328261Y-88970261D01*
X159415615Y-88853705D01*
X159437799Y-88794529D01*
X159459598Y-88736382D01*
X159502240Y-88679618D01*
X159568802Y-88654918D01*
X159638150Y-88670126D01*
X159672817Y-88698114D01*
X159701250Y-88730938D01*
X159873126Y-88873632D01*
X160066000Y-88986338D01*
X160274692Y-89066030D01*
X160279760Y-89067061D01*
X160279763Y-89067062D01*
X160387017Y-89088883D01*
X160493597Y-89110567D01*
X160498772Y-89110757D01*
X160498774Y-89110757D01*
X160711673Y-89118564D01*
X160711677Y-89118564D01*
X160716837Y-89118753D01*
X160721957Y-89118097D01*
X160721959Y-89118097D01*
X160933288Y-89091025D01*
X160933289Y-89091025D01*
X160938416Y-89090368D01*
X160943366Y-89088883D01*
X161147429Y-89027661D01*
X161147434Y-89027659D01*
X161152384Y-89026174D01*
X161352994Y-88927896D01*
X161534860Y-88798173D01*
X161693096Y-88640489D01*
X161823453Y-88459077D01*
X161884462Y-88335635D01*
X161920136Y-88263453D01*
X161920137Y-88263451D01*
X161922430Y-88258811D01*
X161987370Y-88045069D01*
X162016529Y-87823590D01*
X162018156Y-87757000D01*
X161999852Y-87534361D01*
X161945431Y-87317702D01*
X161856354Y-87112840D01*
X161745966Y-86942206D01*
X161737822Y-86929617D01*
X161737820Y-86929614D01*
X161735014Y-86925277D01*
X161584670Y-86760051D01*
X161580619Y-86756852D01*
X161580615Y-86756848D01*
X161413414Y-86624800D01*
X161413410Y-86624798D01*
X161409359Y-86621598D01*
X161213789Y-86513638D01*
X161208920Y-86511914D01*
X161208916Y-86511912D01*
X161008087Y-86440795D01*
X161008083Y-86440794D01*
X161003212Y-86439069D01*
X160998119Y-86438162D01*
X160998116Y-86438161D01*
X160788373Y-86400800D01*
X160788367Y-86400799D01*
X160783284Y-86399894D01*
X160709452Y-86398992D01*
X160565081Y-86397228D01*
X160565079Y-86397228D01*
X160559911Y-86397165D01*
X160339091Y-86430955D01*
X160126756Y-86500357D01*
X159928607Y-86603507D01*
X159924474Y-86606610D01*
X159924471Y-86606612D01*
X159754100Y-86734530D01*
X159749965Y-86737635D01*
X159693537Y-86796684D01*
X159669283Y-86822064D01*
X159607759Y-86857494D01*
X159536846Y-86854037D01*
X159479060Y-86812791D01*
X159460207Y-86779243D01*
X159418767Y-86668703D01*
X159415615Y-86660295D01*
X159328261Y-86543739D01*
X159211705Y-86456385D01*
X159075316Y-86405255D01*
X159013134Y-86398500D01*
X157216866Y-86398500D01*
X157154684Y-86405255D01*
X157018295Y-86456385D01*
X156901739Y-86543739D01*
X156814385Y-86660295D01*
X156763255Y-86796684D01*
X156756500Y-86858866D01*
X156756500Y-88655134D01*
X138938500Y-88655134D01*
X138938500Y-86746000D01*
X153513496Y-86746000D01*
X153514186Y-86752565D01*
X153532339Y-86925277D01*
X153533458Y-86935928D01*
X153592473Y-87117556D01*
X153687960Y-87282944D01*
X153692378Y-87287851D01*
X153692379Y-87287852D01*
X153806145Y-87414202D01*
X153815747Y-87424866D01*
X153970248Y-87537118D01*
X153976276Y-87539802D01*
X153976278Y-87539803D01*
X154138681Y-87612109D01*
X154144712Y-87614794D01*
X154238113Y-87634647D01*
X154325056Y-87653128D01*
X154325061Y-87653128D01*
X154331513Y-87654500D01*
X154522487Y-87654500D01*
X154528939Y-87653128D01*
X154528944Y-87653128D01*
X154615888Y-87634647D01*
X154709288Y-87614794D01*
X154715319Y-87612109D01*
X154877722Y-87539803D01*
X154877724Y-87539802D01*
X154883752Y-87537118D01*
X155038253Y-87424866D01*
X155047855Y-87414202D01*
X155161621Y-87287852D01*
X155161622Y-87287851D01*
X155166040Y-87282944D01*
X155261527Y-87117556D01*
X155320542Y-86935928D01*
X155321662Y-86925277D01*
X155339814Y-86752565D01*
X155340504Y-86746000D01*
X155320646Y-86557062D01*
X155321508Y-86524182D01*
X155322980Y-86514890D01*
X155322980Y-86514885D01*
X155324220Y-86507057D01*
X155320059Y-86463038D01*
X155319500Y-86451181D01*
X155319500Y-84141524D01*
X155339502Y-84073403D01*
X155351858Y-84057221D01*
X155425040Y-83975944D01*
X155520527Y-83810556D01*
X155579542Y-83628928D01*
X155589152Y-83537499D01*
X155598814Y-83445565D01*
X155599504Y-83439000D01*
X155579542Y-83249072D01*
X155520527Y-83067444D01*
X155515310Y-83058407D01*
X155460694Y-82963811D01*
X155425040Y-82902056D01*
X155415336Y-82891278D01*
X155301675Y-82765045D01*
X155301674Y-82765044D01*
X155297253Y-82760134D01*
X155142752Y-82647882D01*
X155136724Y-82645198D01*
X155136722Y-82645197D01*
X154974319Y-82572891D01*
X154974318Y-82572891D01*
X154968288Y-82570206D01*
X154866170Y-82548500D01*
X154787944Y-82531872D01*
X154787939Y-82531872D01*
X154781487Y-82530500D01*
X154590513Y-82530500D01*
X154584061Y-82531872D01*
X154584056Y-82531872D01*
X154505830Y-82548500D01*
X154403712Y-82570206D01*
X154397682Y-82572891D01*
X154397681Y-82572891D01*
X154235278Y-82645197D01*
X154235276Y-82645198D01*
X154229248Y-82647882D01*
X154074747Y-82760134D01*
X154070326Y-82765044D01*
X154070325Y-82765045D01*
X153956665Y-82891278D01*
X153946960Y-82902056D01*
X153911306Y-82963811D01*
X153856691Y-83058407D01*
X153851473Y-83067444D01*
X153792458Y-83249072D01*
X153772496Y-83439000D01*
X153773186Y-83445565D01*
X153782849Y-83537499D01*
X153792458Y-83628928D01*
X153851473Y-83810556D01*
X153946960Y-83975944D01*
X154020137Y-84057215D01*
X154050853Y-84121221D01*
X154052500Y-84141524D01*
X154052500Y-85836435D01*
X154032498Y-85904556D01*
X153981615Y-85948225D01*
X153982001Y-85948893D01*
X153978445Y-85950946D01*
X153977753Y-85951540D01*
X153976282Y-85952195D01*
X153976278Y-85952197D01*
X153970248Y-85954882D01*
X153815747Y-86067134D01*
X153811326Y-86072044D01*
X153811325Y-86072045D01*
X153743120Y-86147795D01*
X153687960Y-86209056D01*
X153592473Y-86374444D01*
X153533458Y-86556072D01*
X153532768Y-86562633D01*
X153532768Y-86562635D01*
X153528472Y-86603507D01*
X153513496Y-86746000D01*
X138938500Y-86746000D01*
X138938500Y-84963000D01*
X142373693Y-84963000D01*
X142392885Y-85182371D01*
X142449880Y-85395076D01*
X142452205Y-85400061D01*
X142540618Y-85589666D01*
X142540621Y-85589671D01*
X142542944Y-85594653D01*
X142546100Y-85599160D01*
X142546101Y-85599162D01*
X142624756Y-85711492D01*
X142669251Y-85775038D01*
X142824962Y-85930749D01*
X143005346Y-86057056D01*
X143204924Y-86150120D01*
X143417629Y-86207115D01*
X143637000Y-86226307D01*
X143856371Y-86207115D01*
X144069076Y-86150120D01*
X144268654Y-86057056D01*
X144449038Y-85930749D01*
X144604749Y-85775038D01*
X144649245Y-85711492D01*
X144727899Y-85599162D01*
X144727900Y-85599160D01*
X144731056Y-85594653D01*
X144733379Y-85589671D01*
X144733382Y-85589666D01*
X144821795Y-85400061D01*
X144824120Y-85395076D01*
X144881115Y-85182371D01*
X144900307Y-84963000D01*
X144881115Y-84743629D01*
X144824120Y-84530924D01*
X144780585Y-84437562D01*
X144733382Y-84336334D01*
X144733379Y-84336329D01*
X144731056Y-84331347D01*
X144604749Y-84150962D01*
X144449038Y-83995251D01*
X144268654Y-83868944D01*
X144069076Y-83775880D01*
X143856371Y-83718885D01*
X143637000Y-83699693D01*
X143417629Y-83718885D01*
X143204924Y-83775880D01*
X143144039Y-83804271D01*
X143010334Y-83866618D01*
X143010329Y-83866621D01*
X143005347Y-83868944D01*
X143000840Y-83872100D01*
X143000838Y-83872101D01*
X142829473Y-83992092D01*
X142829470Y-83992094D01*
X142824962Y-83995251D01*
X142669251Y-84150962D01*
X142542944Y-84331347D01*
X142540621Y-84336329D01*
X142540618Y-84336334D01*
X142493415Y-84437562D01*
X142449880Y-84530924D01*
X142392885Y-84743629D01*
X142373693Y-84963000D01*
X138938500Y-84963000D01*
X138938500Y-78105000D01*
X180315496Y-78105000D01*
X180335458Y-78294928D01*
X180394473Y-78476556D01*
X180489960Y-78641944D01*
X180563137Y-78723215D01*
X180593853Y-78787221D01*
X180595500Y-78807524D01*
X180595500Y-81201233D01*
X180594973Y-81212416D01*
X180593298Y-81219909D01*
X180593547Y-81227835D01*
X180593547Y-81227836D01*
X180595438Y-81287986D01*
X180595500Y-81291945D01*
X180595500Y-81319856D01*
X180595997Y-81323790D01*
X180595997Y-81323791D01*
X180596005Y-81323856D01*
X180596938Y-81335693D01*
X180598327Y-81379889D01*
X180602599Y-81394593D01*
X180603978Y-81399339D01*
X180607987Y-81418700D01*
X180610526Y-81438797D01*
X180613445Y-81446168D01*
X180613445Y-81446170D01*
X180626804Y-81479912D01*
X180630649Y-81491142D01*
X180638017Y-81516502D01*
X180642982Y-81533593D01*
X180647015Y-81540412D01*
X180647017Y-81540417D01*
X180653293Y-81551028D01*
X180661988Y-81568776D01*
X180669448Y-81587617D01*
X180674110Y-81594033D01*
X180674110Y-81594034D01*
X180695436Y-81623387D01*
X180701952Y-81633307D01*
X180724458Y-81671362D01*
X180738779Y-81685683D01*
X180751619Y-81700716D01*
X180763528Y-81717107D01*
X180769634Y-81722158D01*
X180797605Y-81745298D01*
X180806384Y-81753288D01*
X181360343Y-82307247D01*
X181367887Y-82315537D01*
X181372000Y-82322018D01*
X181377777Y-82327443D01*
X181421667Y-82368658D01*
X181424509Y-82371413D01*
X181444231Y-82391135D01*
X181447355Y-82393558D01*
X181447359Y-82393562D01*
X181447424Y-82393612D01*
X181456445Y-82401317D01*
X181488679Y-82431586D01*
X181495627Y-82435405D01*
X181495629Y-82435407D01*
X181506432Y-82441346D01*
X181522959Y-82452202D01*
X181532698Y-82459757D01*
X181532700Y-82459758D01*
X181538960Y-82464614D01*
X181579540Y-82482174D01*
X181590188Y-82487391D01*
X181628940Y-82508695D01*
X181636616Y-82510666D01*
X181636619Y-82510667D01*
X181648562Y-82513733D01*
X181667267Y-82520137D01*
X181685855Y-82528181D01*
X181693678Y-82529420D01*
X181693688Y-82529423D01*
X181729524Y-82535099D01*
X181741144Y-82537505D01*
X181776289Y-82546528D01*
X181783970Y-82548500D01*
X181804224Y-82548500D01*
X181823934Y-82550051D01*
X181843943Y-82553220D01*
X181851835Y-82552474D01*
X181887961Y-82549059D01*
X181899819Y-82548500D01*
X186375406Y-82548500D01*
X186443527Y-82568502D01*
X186464501Y-82585405D01*
X187416595Y-83537499D01*
X187450621Y-83599811D01*
X187453500Y-83626594D01*
X187453500Y-87816476D01*
X187433498Y-87884597D01*
X187421142Y-87900779D01*
X187347960Y-87982056D01*
X187252473Y-88147444D01*
X187193458Y-88329072D01*
X187173496Y-88519000D01*
X187174186Y-88525565D01*
X187192322Y-88698115D01*
X187193458Y-88708928D01*
X187252473Y-88890556D01*
X187347960Y-89055944D01*
X187352378Y-89060851D01*
X187352379Y-89060852D01*
X187396270Y-89109598D01*
X187475747Y-89197866D01*
X187630248Y-89310118D01*
X187636276Y-89312802D01*
X187636278Y-89312803D01*
X187798681Y-89385109D01*
X187804712Y-89387794D01*
X187898112Y-89407647D01*
X187985056Y-89426128D01*
X187985061Y-89426128D01*
X187991513Y-89427500D01*
X188182487Y-89427500D01*
X188188939Y-89426128D01*
X188188944Y-89426128D01*
X188275888Y-89407647D01*
X188369288Y-89387794D01*
X188375319Y-89385109D01*
X188537722Y-89312803D01*
X188537724Y-89312802D01*
X188543752Y-89310118D01*
X188698253Y-89197866D01*
X188777730Y-89109598D01*
X188821621Y-89060852D01*
X188821622Y-89060851D01*
X188826040Y-89055944D01*
X188921527Y-88890556D01*
X188980542Y-88708928D01*
X188981679Y-88698115D01*
X188999814Y-88525565D01*
X189000504Y-88519000D01*
X188980542Y-88329072D01*
X188921527Y-88147444D01*
X188826040Y-87982056D01*
X188752863Y-87900785D01*
X188722147Y-87836779D01*
X188720500Y-87816476D01*
X188720500Y-83390763D01*
X188721027Y-83379579D01*
X188722701Y-83372091D01*
X188720562Y-83304032D01*
X188720500Y-83300075D01*
X188720500Y-83272144D01*
X188719994Y-83268138D01*
X188719061Y-83256292D01*
X188719041Y-83255635D01*
X188717673Y-83212110D01*
X188712022Y-83192658D01*
X188708014Y-83173306D01*
X188706467Y-83161063D01*
X188705474Y-83153203D01*
X188702556Y-83145832D01*
X188689200Y-83112097D01*
X188685355Y-83100870D01*
X188684721Y-83098687D01*
X188673018Y-83058407D01*
X188668984Y-83051585D01*
X188668981Y-83051579D01*
X188662706Y-83040968D01*
X188654010Y-83023218D01*
X188649472Y-83011756D01*
X188649469Y-83011751D01*
X188646552Y-83004383D01*
X188620573Y-82968625D01*
X188614057Y-82958707D01*
X188595575Y-82927457D01*
X188591542Y-82920637D01*
X188577218Y-82906313D01*
X188564376Y-82891278D01*
X188552472Y-82874893D01*
X188518406Y-82846711D01*
X188509627Y-82838722D01*
X187193652Y-81522747D01*
X187186112Y-81514461D01*
X187182000Y-81507982D01*
X187132348Y-81461356D01*
X187129507Y-81458602D01*
X187109770Y-81438865D01*
X187106573Y-81436385D01*
X187097551Y-81428680D01*
X187065321Y-81398414D01*
X187058375Y-81394595D01*
X187058372Y-81394593D01*
X187047566Y-81388652D01*
X187031047Y-81377801D01*
X187023529Y-81371970D01*
X187015041Y-81365386D01*
X187007772Y-81362241D01*
X187007768Y-81362238D01*
X186974463Y-81347826D01*
X186963813Y-81342609D01*
X186925060Y-81321305D01*
X186905437Y-81316267D01*
X186886734Y-81309863D01*
X186875420Y-81304967D01*
X186875419Y-81304967D01*
X186868145Y-81301819D01*
X186860322Y-81300580D01*
X186860312Y-81300577D01*
X186824476Y-81294901D01*
X186812856Y-81292495D01*
X186777711Y-81283472D01*
X186777710Y-81283472D01*
X186770030Y-81281500D01*
X186749776Y-81281500D01*
X186730065Y-81279949D01*
X186717886Y-81278020D01*
X186710057Y-81276780D01*
X186702165Y-81277526D01*
X186666039Y-81280941D01*
X186654181Y-81281500D01*
X182178595Y-81281500D01*
X182110474Y-81261498D01*
X182089499Y-81244595D01*
X181899404Y-81054499D01*
X181865379Y-80992187D01*
X181862500Y-80965404D01*
X181862500Y-78807524D01*
X181882502Y-78739403D01*
X181894858Y-78723221D01*
X181968040Y-78641944D01*
X182063527Y-78476556D01*
X182122542Y-78294928D01*
X182142504Y-78105000D01*
X182122542Y-77915072D01*
X182063527Y-77733444D01*
X181968040Y-77568056D01*
X181873293Y-77462828D01*
X181844675Y-77431045D01*
X181844674Y-77431044D01*
X181840253Y-77426134D01*
X181685752Y-77313882D01*
X181679724Y-77311198D01*
X181679722Y-77311197D01*
X181517319Y-77238891D01*
X181517318Y-77238891D01*
X181511288Y-77236206D01*
X181417887Y-77216353D01*
X181330944Y-77197872D01*
X181330939Y-77197872D01*
X181324487Y-77196500D01*
X181133513Y-77196500D01*
X181127061Y-77197872D01*
X181127056Y-77197872D01*
X181040113Y-77216353D01*
X180946712Y-77236206D01*
X180940682Y-77238891D01*
X180940681Y-77238891D01*
X180778278Y-77311197D01*
X180778276Y-77311198D01*
X180772248Y-77313882D01*
X180617747Y-77426134D01*
X180613326Y-77431044D01*
X180613325Y-77431045D01*
X180584708Y-77462828D01*
X180489960Y-77568056D01*
X180394473Y-77733444D01*
X180335458Y-77915072D01*
X180315496Y-78105000D01*
X138938500Y-78105000D01*
X138938500Y-74610351D01*
X164501847Y-74610351D01*
X164521809Y-74800279D01*
X164580824Y-74981907D01*
X164676311Y-75147295D01*
X164680729Y-75152202D01*
X164680730Y-75152203D01*
X164792206Y-75276010D01*
X164804098Y-75289217D01*
X164958599Y-75401469D01*
X164964627Y-75404153D01*
X164964629Y-75404154D01*
X165075310Y-75453432D01*
X165133063Y-75479145D01*
X165226464Y-75498998D01*
X165313407Y-75517479D01*
X165313412Y-75517479D01*
X165319864Y-75518851D01*
X165510838Y-75518851D01*
X165517290Y-75517479D01*
X165517295Y-75517479D01*
X165604238Y-75498998D01*
X165697639Y-75479145D01*
X165755392Y-75453432D01*
X165866073Y-75404154D01*
X165866075Y-75404153D01*
X165872103Y-75401469D01*
X165965566Y-75333564D01*
X166032434Y-75309706D01*
X166039627Y-75309500D01*
X172327147Y-75309500D01*
X172395268Y-75329502D01*
X172441761Y-75383158D01*
X172451865Y-75453432D01*
X172430360Y-75507770D01*
X172387944Y-75568347D01*
X172385621Y-75573329D01*
X172385618Y-75573334D01*
X172338415Y-75674562D01*
X172294880Y-75767924D01*
X172237885Y-75980629D01*
X172218693Y-76200000D01*
X172237885Y-76419371D01*
X172294880Y-76632076D01*
X172297205Y-76637061D01*
X172385618Y-76826666D01*
X172385621Y-76826671D01*
X172387944Y-76831653D01*
X172514251Y-77012038D01*
X172669962Y-77167749D01*
X172850346Y-77294056D01*
X173049924Y-77387120D01*
X173262629Y-77444115D01*
X173482000Y-77463307D01*
X173701371Y-77444115D01*
X173914076Y-77387120D01*
X174113654Y-77294056D01*
X174294038Y-77167749D01*
X174449749Y-77012038D01*
X174576056Y-76831653D01*
X174578379Y-76826671D01*
X174578382Y-76826666D01*
X174666795Y-76637061D01*
X174669120Y-76632076D01*
X174726115Y-76419371D01*
X174745307Y-76200000D01*
X174726115Y-75980629D01*
X174669120Y-75767924D01*
X174625585Y-75674562D01*
X174578382Y-75573334D01*
X174578379Y-75573329D01*
X174576056Y-75568347D01*
X174533640Y-75507770D01*
X174510952Y-75440497D01*
X174528237Y-75371637D01*
X174580006Y-75323052D01*
X174636853Y-75309500D01*
X177467233Y-75309500D01*
X177478416Y-75310027D01*
X177485909Y-75311702D01*
X177493835Y-75311453D01*
X177493836Y-75311453D01*
X177553986Y-75309562D01*
X177557945Y-75309500D01*
X177585856Y-75309500D01*
X177589791Y-75309003D01*
X177589856Y-75308995D01*
X177601693Y-75308062D01*
X177633951Y-75307048D01*
X177637970Y-75306922D01*
X177645889Y-75306673D01*
X177665343Y-75301021D01*
X177684700Y-75297013D01*
X177696930Y-75295468D01*
X177696931Y-75295468D01*
X177704797Y-75294474D01*
X177712168Y-75291555D01*
X177712170Y-75291555D01*
X177745912Y-75278196D01*
X177757142Y-75274351D01*
X177791983Y-75264229D01*
X177791984Y-75264229D01*
X177799593Y-75262018D01*
X177806412Y-75257985D01*
X177806417Y-75257983D01*
X177817028Y-75251707D01*
X177834776Y-75243012D01*
X177853617Y-75235552D01*
X177889387Y-75209564D01*
X177899307Y-75203048D01*
X177930535Y-75184580D01*
X177930538Y-75184578D01*
X177937362Y-75180542D01*
X177951683Y-75166221D01*
X177966717Y-75153380D01*
X177976694Y-75146131D01*
X177983107Y-75141472D01*
X178011298Y-75107395D01*
X178019288Y-75098616D01*
X179081253Y-74036652D01*
X179089539Y-74029112D01*
X179096018Y-74025000D01*
X179142644Y-73975348D01*
X179145398Y-73972507D01*
X179165135Y-73952770D01*
X179167615Y-73949573D01*
X179175320Y-73940551D01*
X179179222Y-73936396D01*
X179205586Y-73908321D01*
X179209405Y-73901375D01*
X179209407Y-73901372D01*
X179215348Y-73890566D01*
X179226199Y-73874047D01*
X179233758Y-73864301D01*
X179238614Y-73858041D01*
X179241759Y-73850772D01*
X179241762Y-73850768D01*
X179256174Y-73817463D01*
X179261391Y-73806813D01*
X179282695Y-73768060D01*
X179287733Y-73748437D01*
X179294137Y-73729734D01*
X179299033Y-73718420D01*
X179299033Y-73718419D01*
X179302181Y-73711145D01*
X179303420Y-73703322D01*
X179303423Y-73703312D01*
X179309099Y-73667476D01*
X179311505Y-73655856D01*
X179320528Y-73620711D01*
X179320528Y-73620710D01*
X179322500Y-73613030D01*
X179322500Y-73594227D01*
X179342502Y-73526106D01*
X179383618Y-73486350D01*
X179386994Y-73484696D01*
X179568860Y-73354973D01*
X179727096Y-73197289D01*
X179786594Y-73114489D01*
X179854435Y-73020077D01*
X179857453Y-73015877D01*
X179878320Y-72973657D01*
X179954136Y-72820253D01*
X179954137Y-72820251D01*
X179956430Y-72815611D01*
X180021370Y-72601869D01*
X180050529Y-72380390D01*
X180052156Y-72313800D01*
X180033852Y-72091161D01*
X179979431Y-71874502D01*
X179890354Y-71669640D01*
X179769014Y-71482077D01*
X179618670Y-71316851D01*
X179614619Y-71313652D01*
X179614615Y-71313648D01*
X179447414Y-71181600D01*
X179447410Y-71181598D01*
X179443359Y-71178398D01*
X179401569Y-71155329D01*
X179351598Y-71104897D01*
X179336826Y-71035454D01*
X179361942Y-70969048D01*
X179389294Y-70942441D01*
X179564328Y-70817592D01*
X179572200Y-70810939D01*
X179723052Y-70660612D01*
X179729730Y-70652765D01*
X179854003Y-70479820D01*
X179859313Y-70470983D01*
X179953670Y-70280067D01*
X179957469Y-70270472D01*
X180019377Y-70066710D01*
X180021555Y-70056637D01*
X180022986Y-70045762D01*
X180020775Y-70031578D01*
X180007617Y-70027800D01*
X178561000Y-70027800D01*
X178492879Y-70007798D01*
X178446386Y-69954142D01*
X178435000Y-69901800D01*
X178435000Y-69501685D01*
X178943000Y-69501685D01*
X178947475Y-69516924D01*
X178948865Y-69518129D01*
X178956548Y-69519800D01*
X180007344Y-69519800D01*
X180020875Y-69515827D01*
X180022180Y-69506747D01*
X179980214Y-69339675D01*
X179976894Y-69329924D01*
X179891972Y-69134614D01*
X179887105Y-69125539D01*
X179771426Y-68946726D01*
X179765136Y-68938557D01*
X179621806Y-68781040D01*
X179614273Y-68774015D01*
X179447139Y-68642022D01*
X179438552Y-68636317D01*
X179252117Y-68533399D01*
X179242705Y-68529169D01*
X179041959Y-68458080D01*
X179031988Y-68455446D01*
X178960837Y-68442772D01*
X178947540Y-68444232D01*
X178943000Y-68458789D01*
X178943000Y-69501685D01*
X178435000Y-69501685D01*
X178435000Y-68456902D01*
X178431082Y-68443558D01*
X178416806Y-68441571D01*
X178378324Y-68447460D01*
X178368288Y-68449851D01*
X178165868Y-68516012D01*
X178156359Y-68520009D01*
X177967463Y-68618342D01*
X177958738Y-68623836D01*
X177788433Y-68751705D01*
X177780726Y-68758548D01*
X177633590Y-68912517D01*
X177627109Y-68920522D01*
X177522498Y-69073874D01*
X177467587Y-69118876D01*
X177397062Y-69127047D01*
X177333315Y-69095793D01*
X177312618Y-69071309D01*
X177231822Y-68946417D01*
X177231820Y-68946414D01*
X177229014Y-68942077D01*
X177078670Y-68776851D01*
X177074619Y-68773652D01*
X177074615Y-68773648D01*
X176907414Y-68641600D01*
X176907410Y-68641598D01*
X176903359Y-68638398D01*
X176867028Y-68618342D01*
X176851136Y-68609569D01*
X176707789Y-68530438D01*
X176702920Y-68528714D01*
X176702916Y-68528712D01*
X176502087Y-68457595D01*
X176502083Y-68457594D01*
X176497212Y-68455869D01*
X176492119Y-68454962D01*
X176492116Y-68454961D01*
X176282373Y-68417600D01*
X176282367Y-68417599D01*
X176277284Y-68416694D01*
X176203452Y-68415792D01*
X176059081Y-68414028D01*
X176059079Y-68414028D01*
X176053911Y-68413965D01*
X175833091Y-68447755D01*
X175620756Y-68517157D01*
X175422607Y-68620307D01*
X175418474Y-68623410D01*
X175418471Y-68623412D01*
X175248100Y-68751330D01*
X175243965Y-68754435D01*
X175089629Y-68915938D01*
X175086715Y-68920210D01*
X175086714Y-68920211D01*
X175074404Y-68938257D01*
X174983337Y-69071757D01*
X174981898Y-69073866D01*
X174926987Y-69118869D01*
X174856462Y-69127040D01*
X174792715Y-69095786D01*
X174772018Y-69071302D01*
X174691426Y-68946726D01*
X174685136Y-68938557D01*
X174541806Y-68781040D01*
X174534273Y-68774015D01*
X174367139Y-68642022D01*
X174358552Y-68636317D01*
X174172117Y-68533399D01*
X174162705Y-68529169D01*
X173961959Y-68458080D01*
X173951988Y-68455446D01*
X173880837Y-68442772D01*
X173867540Y-68444232D01*
X173863000Y-68458789D01*
X173863000Y-69901800D01*
X173842998Y-69969921D01*
X173789342Y-70016414D01*
X173737000Y-70027800D01*
X170941000Y-70027800D01*
X170872879Y-70007798D01*
X170826386Y-69954142D01*
X170815000Y-69901800D01*
X170815000Y-69501685D01*
X171323000Y-69501685D01*
X171327475Y-69516924D01*
X171328865Y-69518129D01*
X171336548Y-69519800D01*
X173336885Y-69519800D01*
X173352124Y-69515325D01*
X173353329Y-69513935D01*
X173355000Y-69506252D01*
X173355000Y-68456902D01*
X173351082Y-68443558D01*
X173336806Y-68441571D01*
X173298324Y-68447460D01*
X173288288Y-68449851D01*
X173085868Y-68516012D01*
X173076359Y-68520009D01*
X172887463Y-68618342D01*
X172878738Y-68623836D01*
X172708433Y-68751705D01*
X172700726Y-68758548D01*
X172553590Y-68912517D01*
X172547104Y-68920527D01*
X172442193Y-69074321D01*
X172387282Y-69119324D01*
X172316757Y-69127495D01*
X172253010Y-69096241D01*
X172232313Y-69071757D01*
X172151427Y-68946726D01*
X172145136Y-68938557D01*
X172001806Y-68781040D01*
X171994273Y-68774015D01*
X171827139Y-68642022D01*
X171818552Y-68636317D01*
X171632117Y-68533399D01*
X171622705Y-68529169D01*
X171421959Y-68458080D01*
X171411988Y-68455446D01*
X171340837Y-68442772D01*
X171327540Y-68444232D01*
X171323000Y-68458789D01*
X171323000Y-69501685D01*
X170815000Y-69501685D01*
X170815000Y-68456902D01*
X170811082Y-68443558D01*
X170796806Y-68441571D01*
X170758324Y-68447460D01*
X170748288Y-68449851D01*
X170545868Y-68516012D01*
X170536359Y-68520009D01*
X170347463Y-68618342D01*
X170338738Y-68623836D01*
X170168433Y-68751705D01*
X170160726Y-68758548D01*
X170083478Y-68839384D01*
X170021954Y-68874814D01*
X169951042Y-68871357D01*
X169893255Y-68830111D01*
X169874402Y-68796563D01*
X169832767Y-68685503D01*
X169829615Y-68677095D01*
X169742261Y-68560539D01*
X169625705Y-68473185D01*
X169489316Y-68422055D01*
X169427134Y-68415300D01*
X167630866Y-68415300D01*
X167568684Y-68422055D01*
X167432295Y-68473185D01*
X167315739Y-68560539D01*
X167228385Y-68677095D01*
X167177255Y-68813484D01*
X167170500Y-68875666D01*
X167170500Y-70671934D01*
X167177255Y-70734116D01*
X167228385Y-70870505D01*
X167315739Y-70987061D01*
X167432295Y-71074415D01*
X167440704Y-71077567D01*
X167440705Y-71077568D01*
X167549451Y-71118335D01*
X167606216Y-71160976D01*
X167630916Y-71227538D01*
X167615709Y-71296887D01*
X167596316Y-71323368D01*
X167469629Y-71455938D01*
X167343743Y-71640480D01*
X167249688Y-71843105D01*
X167189989Y-72058370D01*
X167166251Y-72280495D01*
X167166548Y-72285648D01*
X167166548Y-72285651D01*
X167172011Y-72380390D01*
X167179110Y-72503515D01*
X167180247Y-72508561D01*
X167180248Y-72508567D01*
X167200119Y-72596739D01*
X167228222Y-72721439D01*
X167312266Y-72928416D01*
X167363019Y-73011238D01*
X167426291Y-73114488D01*
X167428987Y-73118888D01*
X167575250Y-73287738D01*
X167747126Y-73430432D01*
X167940000Y-73543138D01*
X168148692Y-73622830D01*
X168153760Y-73623861D01*
X168153763Y-73623862D01*
X168261017Y-73645683D01*
X168367597Y-73667367D01*
X168372772Y-73667557D01*
X168372774Y-73667557D01*
X168585673Y-73675364D01*
X168585677Y-73675364D01*
X168590837Y-73675553D01*
X168595957Y-73674897D01*
X168595959Y-73674897D01*
X168807288Y-73647825D01*
X168807289Y-73647825D01*
X168812416Y-73647168D01*
X168817366Y-73645683D01*
X169021429Y-73584461D01*
X169021434Y-73584459D01*
X169026384Y-73582974D01*
X169226994Y-73484696D01*
X169408860Y-73354973D01*
X169567096Y-73197289D01*
X169626594Y-73114489D01*
X169697453Y-73015877D01*
X169698776Y-73016828D01*
X169745645Y-72973657D01*
X169815580Y-72961425D01*
X169881026Y-72988944D01*
X169908875Y-73020794D01*
X169968987Y-73118888D01*
X170115250Y-73287738D01*
X170287126Y-73430432D01*
X170480000Y-73543138D01*
X170688692Y-73622830D01*
X170693760Y-73623861D01*
X170693763Y-73623862D01*
X170801017Y-73645683D01*
X170907597Y-73667367D01*
X170912772Y-73667557D01*
X170912774Y-73667557D01*
X171125673Y-73675364D01*
X171125677Y-73675364D01*
X171130837Y-73675553D01*
X171135957Y-73674897D01*
X171135959Y-73674897D01*
X171347288Y-73647825D01*
X171347289Y-73647825D01*
X171352416Y-73647168D01*
X171357366Y-73645683D01*
X171561429Y-73584461D01*
X171561434Y-73584459D01*
X171566384Y-73582974D01*
X171766994Y-73484696D01*
X171948860Y-73354973D01*
X172107096Y-73197289D01*
X172166594Y-73114489D01*
X172237453Y-73015877D01*
X172238776Y-73016828D01*
X172285645Y-72973657D01*
X172355580Y-72961425D01*
X172421026Y-72988944D01*
X172448875Y-73020794D01*
X172508987Y-73118888D01*
X172655250Y-73287738D01*
X172827126Y-73430432D01*
X173020000Y-73543138D01*
X173228692Y-73622830D01*
X173233760Y-73623861D01*
X173233763Y-73623862D01*
X173341017Y-73645683D01*
X173447597Y-73667367D01*
X173452772Y-73667557D01*
X173452774Y-73667557D01*
X173665673Y-73675364D01*
X173665677Y-73675364D01*
X173670837Y-73675553D01*
X173675957Y-73674897D01*
X173675959Y-73674897D01*
X173887288Y-73647825D01*
X173887289Y-73647825D01*
X173892416Y-73647168D01*
X173897366Y-73645683D01*
X174101429Y-73584461D01*
X174101434Y-73584459D01*
X174106384Y-73582974D01*
X174306994Y-73484696D01*
X174488860Y-73354973D01*
X174647096Y-73197289D01*
X174706594Y-73114489D01*
X174777453Y-73015877D01*
X174778776Y-73016828D01*
X174825645Y-72973657D01*
X174895580Y-72961425D01*
X174961026Y-72988944D01*
X174988875Y-73020794D01*
X175048987Y-73118888D01*
X175195250Y-73287738D01*
X175367126Y-73430432D01*
X175560000Y-73543138D01*
X175768692Y-73622830D01*
X175773760Y-73623861D01*
X175773763Y-73623862D01*
X175881017Y-73645683D01*
X175987597Y-73667367D01*
X175992772Y-73667557D01*
X175992774Y-73667557D01*
X176205673Y-73675364D01*
X176205677Y-73675364D01*
X176210837Y-73675553D01*
X176215957Y-73674897D01*
X176215959Y-73674897D01*
X176427288Y-73647825D01*
X176427289Y-73647825D01*
X176432416Y-73647168D01*
X176437366Y-73645683D01*
X176641429Y-73584461D01*
X176641434Y-73584459D01*
X176646384Y-73582974D01*
X176846994Y-73484696D01*
X177028860Y-73354973D01*
X177187096Y-73197289D01*
X177246594Y-73114489D01*
X177317453Y-73015877D01*
X177318776Y-73016828D01*
X177365645Y-72973657D01*
X177435580Y-72961425D01*
X177501026Y-72988944D01*
X177528875Y-73020794D01*
X177588987Y-73118888D01*
X177735250Y-73287738D01*
X177794510Y-73336937D01*
X177834145Y-73395838D01*
X177835643Y-73466819D01*
X177803120Y-73522976D01*
X177558035Y-73768060D01*
X177320499Y-74005596D01*
X177258187Y-74039621D01*
X177231404Y-74042500D01*
X166182660Y-74042500D01*
X166114539Y-74022498D01*
X166089028Y-74000815D01*
X166026604Y-73931485D01*
X165872103Y-73819233D01*
X165866075Y-73816549D01*
X165866073Y-73816548D01*
X165703670Y-73744242D01*
X165703669Y-73744242D01*
X165697639Y-73741557D01*
X165588789Y-73718420D01*
X165517295Y-73703223D01*
X165517290Y-73703223D01*
X165510838Y-73701851D01*
X165319864Y-73701851D01*
X165313412Y-73703223D01*
X165313407Y-73703223D01*
X165241913Y-73718420D01*
X165133063Y-73741557D01*
X165127033Y-73744242D01*
X165127032Y-73744242D01*
X164964629Y-73816548D01*
X164964627Y-73816549D01*
X164958599Y-73819233D01*
X164804098Y-73931485D01*
X164799677Y-73936395D01*
X164799676Y-73936396D01*
X164716599Y-74028663D01*
X164676311Y-74073407D01*
X164580824Y-74238795D01*
X164521809Y-74420423D01*
X164501847Y-74610351D01*
X138938500Y-74610351D01*
X138938500Y-65531500D01*
X138958502Y-65463379D01*
X139012158Y-65416886D01*
X139064500Y-65405500D01*
X199009500Y-65405500D01*
X199077621Y-65425502D01*
G37*
G04 #@! TD.AperFunction*
M02*
