M48
; DRILL file {KiCad 6.0.11+dfsg-1} date mer. 10 avril 2024 09:55:30
; FORMAT={-:-/ absolute / metric / decimal}
; #@! TF.CreationDate,2024-04-10T09:55:30+02:00
; #@! TF.GenerationSoftware,Kicad,Pcbnew,6.0.11+dfsg-1
; #@! TF.FileFunction,Plated,1,2,PTH
FMAT,2
METRIC
; #@! TA.AperFunction,Plated,PTH,ViaDrill
T1C0.400
; #@! TA.AperFunction,Plated,PTH,ComponentDrill
T2C0.700
; #@! TA.AperFunction,Plated,PTH,ComponentDrill
T3C1.000
%
G90
G05
T1
X141.097Y-97.536
X144.018Y-87.757
X144.907Y-104.902
X145.161Y-71.755
X146.177Y-92.71
X146.304Y-82.804
X146.558Y-77.597
X147.193Y-100.965
X149.86Y-81.407
X150.495Y-70.739
X150.622Y-95.123
X150.622Y-99.568
X152.781Y-74.803
X152.908Y-85.852
X153.035Y-88.138
X153.035Y-105.029
X153.924Y-81.153
X154.305Y-73.152
X154.427Y-86.746
X154.686Y-83.439
X155.575Y-77.216
X158.115Y-91.821
X160.655Y-82.042
X162.306Y-104.14
X164.084Y-88.138
X164.846Y-80.01
X164.973Y-72.898
X165.227Y-67.183
X165.415Y-74.61
X167.894Y-76.835
X168.021Y-87.884
X168.529Y-103.251
X169.164Y-82.677
X171.069Y-78.613
X171.323Y-99.695
X176.149Y-82.804
X177.165Y-90.424
X177.8Y-75.692
X178.943Y-66.929
X179.578Y-81.788
X181.229Y-78.105
X183.134Y-72.517
X183.388Y-86.36
X183.515Y-103.378
X184.15Y-96.266
X186.563Y-89.408
X188.087Y-88.519
X188.595Y-79.375
X191.262Y-74.676
X191.516Y-66.929
X195.199Y-80.01
X195.453Y-88.519
X197.358Y-103.632
X197.612Y-95.631
T2
X143.637Y-84.963
X156.083Y-91.694
X157.988Y-103.378
X166.497Y-103.124
X173.482Y-76.2
X183.261Y-93.98
X184.531Y-98.679
T3
X157.988Y-96.652
X157.988Y-99.192
X158.115Y-87.757
X160.401Y-91.948
X160.655Y-87.757
X162.433Y-96.647
X162.433Y-99.187
X162.433Y-101.727
X162.941Y-91.948
X165.481Y-91.948
X167.386Y-96.647
X167.386Y-99.187
X168.021Y-91.948
X168.529Y-69.774
X168.529Y-72.314
X171.069Y-69.774
X171.069Y-72.314
X173.609Y-69.774
X173.609Y-72.314
X176.149Y-69.774
X176.149Y-72.314
X178.689Y-69.774
X178.689Y-72.314
X178.816Y-86.36
X181.356Y-86.36
X191.389Y-103.378
X193.929Y-103.378
T0
M30
