G04 #@! TF.GenerationSoftware,KiCad,Pcbnew,6.0.11+dfsg-1*
G04 #@! TF.CreationDate,2024-04-10T09:55:10+02:00*
G04 #@! TF.ProjectId,Nehari_Chauveliere_kicad_TMS,4e656861-7269-45f4-9368-617576656c69,rev?*
G04 #@! TF.SameCoordinates,Original*
G04 #@! TF.FileFunction,Legend,Top*
G04 #@! TF.FilePolarity,Positive*
%FSLAX46Y46*%
G04 Gerber Fmt 4.6, Leading zero omitted, Abs format (unit mm)*
G04 Created by KiCad (PCBNEW 6.0.11+dfsg-1) date 2024-04-10 09:55:10*
%MOMM*%
%LPD*%
G01*
G04 APERTURE LIST*
G04 Aperture macros list*
%AMRoundRect*
0 Rectangle with rounded corners*
0 $1 Rounding radius*
0 $2 $3 $4 $5 $6 $7 $8 $9 X,Y pos of 4 corners*
0 Add a 4 corners polygon primitive as box body*
4,1,4,$2,$3,$4,$5,$6,$7,$8,$9,$2,$3,0*
0 Add four circle primitives for the rounded corners*
1,1,$1+$1,$2,$3*
1,1,$1+$1,$4,$5*
1,1,$1+$1,$6,$7*
1,1,$1+$1,$8,$9*
0 Add four rect primitives between the rounded corners*
20,1,$1+$1,$2,$3,$4,$5,0*
20,1,$1+$1,$4,$5,$6,$7,0*
20,1,$1+$1,$6,$7,$8,$9,0*
20,1,$1+$1,$8,$9,$2,$3,0*%
%AMFreePoly0*
4,1,9,5.362500,-0.866500,1.237500,-0.866500,1.237500,-0.450000,-1.237500,-0.450000,-1.237500,0.450000,1.237500,0.450000,1.237500,0.866500,5.362500,0.866500,5.362500,-0.866500,5.362500,-0.866500,$1*%
G04 Aperture macros list end*
%ADD10C,0.200000*%
%ADD11C,0.150000*%
%ADD12C,0.100000*%
%ADD13C,0.125000*%
%ADD14C,0.110000*%
%ADD15C,0.120000*%
%ADD16C,0.203200*%
%ADD17C,1.500000*%
%ADD18RoundRect,0.237500X-0.237500X0.300000X-0.237500X-0.300000X0.237500X-0.300000X0.237500X0.300000X0*%
%ADD19RoundRect,0.237500X0.250000X0.237500X-0.250000X0.237500X-0.250000X-0.237500X0.250000X-0.237500X0*%
%ADD20RoundRect,0.237500X0.300000X0.237500X-0.300000X0.237500X-0.300000X-0.237500X0.300000X-0.237500X0*%
%ADD21RoundRect,0.101600X-0.762000X0.381000X-0.762000X-0.381000X0.762000X-0.381000X0.762000X0.381000X0*%
%ADD22R,1.500000X2.000000*%
%ADD23R,3.800000X2.000000*%
%ADD24R,1.700000X1.700000*%
%ADD25O,1.700000X1.700000*%
%ADD26RoundRect,0.237500X-0.250000X-0.237500X0.250000X-0.237500X0.250000X0.237500X-0.250000X0.237500X0*%
%ADD27R,7.500000X3.000000*%
%ADD28RoundRect,0.237500X0.237500X-0.250000X0.237500X0.250000X-0.237500X0.250000X-0.237500X-0.250000X0*%
%ADD29R,1.500000X1.950000*%
%ADD30R,0.900000X2.300000*%
%ADD31FreePoly0,90.000000*%
%ADD32RoundRect,0.237500X-0.300000X-0.237500X0.300000X-0.237500X0.300000X0.237500X-0.300000X0.237500X0*%
%ADD33RoundRect,0.237500X-0.237500X0.250000X-0.237500X-0.250000X0.237500X-0.250000X0.237500X0.250000X0*%
%ADD34RoundRect,0.050000X-0.840000X0.760000X-0.840000X-0.760000X0.840000X-0.760000X0.840000X0.760000X0*%
%ADD35RoundRect,0.237500X-0.287500X-0.237500X0.287500X-0.237500X0.287500X0.237500X-0.287500X0.237500X0*%
%ADD36RoundRect,0.150000X-0.512500X-0.150000X0.512500X-0.150000X0.512500X0.150000X-0.512500X0.150000X0*%
%ADD37RoundRect,0.100000X-0.637500X-0.100000X0.637500X-0.100000X0.637500X0.100000X-0.637500X0.100000X0*%
%ADD38RoundRect,0.150000X0.587500X0.150000X-0.587500X0.150000X-0.587500X-0.150000X0.587500X-0.150000X0*%
%ADD39R,2.300000X0.900000*%
%ADD40FreePoly0,0.000000*%
%ADD41R,1.500000X0.400000*%
%ADD42RoundRect,0.237500X0.237500X-0.300000X0.237500X0.300000X-0.237500X0.300000X-0.237500X-0.300000X0*%
G04 APERTURE END LIST*
D10*
X190444619Y-69286380D02*
X190111285Y-68810190D01*
X189873190Y-69286380D02*
X189873190Y-68286380D01*
X190254142Y-68286380D01*
X190349380Y-68334000D01*
X190397000Y-68381619D01*
X190444619Y-68476857D01*
X190444619Y-68619714D01*
X190397000Y-68714952D01*
X190349380Y-68762571D01*
X190254142Y-68810190D01*
X189873190Y-68810190D01*
X190873190Y-68762571D02*
X191206523Y-68762571D01*
X191349380Y-69286380D02*
X190873190Y-69286380D01*
X190873190Y-68286380D01*
X191349380Y-68286380D01*
X191730333Y-69238761D02*
X191873190Y-69286380D01*
X192111285Y-69286380D01*
X192206523Y-69238761D01*
X192254142Y-69191142D01*
X192301761Y-69095904D01*
X192301761Y-69000666D01*
X192254142Y-68905428D01*
X192206523Y-68857809D01*
X192111285Y-68810190D01*
X191920809Y-68762571D01*
X191825571Y-68714952D01*
X191777952Y-68667333D01*
X191730333Y-68572095D01*
X191730333Y-68476857D01*
X191777952Y-68381619D01*
X191825571Y-68334000D01*
X191920809Y-68286380D01*
X192158904Y-68286380D01*
X192301761Y-68334000D01*
X192730333Y-68762571D02*
X193063666Y-68762571D01*
X193206523Y-69286380D02*
X192730333Y-69286380D01*
X192730333Y-68286380D01*
X193206523Y-68286380D01*
X193492238Y-68286380D02*
X194063666Y-68286380D01*
X193777952Y-69286380D02*
X193777952Y-68286380D01*
X157043666Y-66476571D02*
X157186523Y-66524190D01*
X157234142Y-66571809D01*
X157281761Y-66667047D01*
X157281761Y-66809904D01*
X157234142Y-66905142D01*
X157186523Y-66952761D01*
X157091285Y-67000380D01*
X156710333Y-67000380D01*
X156710333Y-66000380D01*
X157043666Y-66000380D01*
X157138904Y-66048000D01*
X157186523Y-66095619D01*
X157234142Y-66190857D01*
X157234142Y-66286095D01*
X157186523Y-66381333D01*
X157138904Y-66428952D01*
X157043666Y-66476571D01*
X156710333Y-66476571D01*
X157900809Y-66000380D02*
X158091285Y-66000380D01*
X158186523Y-66048000D01*
X158281761Y-66143238D01*
X158329380Y-66333714D01*
X158329380Y-66667047D01*
X158281761Y-66857523D01*
X158186523Y-66952761D01*
X158091285Y-67000380D01*
X157900809Y-67000380D01*
X157805571Y-66952761D01*
X157710333Y-66857523D01*
X157662714Y-66667047D01*
X157662714Y-66333714D01*
X157710333Y-66143238D01*
X157805571Y-66048000D01*
X157900809Y-66000380D01*
X158948428Y-66000380D02*
X159138904Y-66000380D01*
X159234142Y-66048000D01*
X159329380Y-66143238D01*
X159377000Y-66333714D01*
X159377000Y-66667047D01*
X159329380Y-66857523D01*
X159234142Y-66952761D01*
X159138904Y-67000380D01*
X158948428Y-67000380D01*
X158853190Y-66952761D01*
X158757952Y-66857523D01*
X158710333Y-66667047D01*
X158710333Y-66333714D01*
X158757952Y-66143238D01*
X158853190Y-66048000D01*
X158948428Y-66000380D01*
X159662714Y-66000380D02*
X160234142Y-66000380D01*
X159948428Y-67000380D02*
X159948428Y-66000380D01*
X160757952Y-66000380D02*
X160853190Y-66000380D01*
X160948428Y-66048000D01*
X160996047Y-66095619D01*
X161043666Y-66190857D01*
X161091285Y-66381333D01*
X161091285Y-66619428D01*
X161043666Y-66809904D01*
X160996047Y-66905142D01*
X160948428Y-66952761D01*
X160853190Y-67000380D01*
X160757952Y-67000380D01*
X160662714Y-66952761D01*
X160615095Y-66905142D01*
X160567476Y-66809904D01*
X160519857Y-66619428D01*
X160519857Y-66381333D01*
X160567476Y-66190857D01*
X160615095Y-66095619D01*
X160662714Y-66048000D01*
X160757952Y-66000380D01*
D11*
X153403476Y-103943142D02*
X154013000Y-103943142D01*
X154813000Y-104247904D02*
X154355857Y-104247904D01*
X154584428Y-104247904D02*
X154584428Y-103447904D01*
X154508238Y-103562190D01*
X154432047Y-103638380D01*
X154355857Y-103676476D01*
X155536809Y-103447904D02*
X155155857Y-103447904D01*
X155117761Y-103828857D01*
X155155857Y-103790761D01*
X155232047Y-103752666D01*
X155422523Y-103752666D01*
X155498714Y-103790761D01*
X155536809Y-103828857D01*
X155574904Y-103905047D01*
X155574904Y-104095523D01*
X155536809Y-104171714D01*
X155498714Y-104209809D01*
X155422523Y-104247904D01*
X155232047Y-104247904D01*
X155155857Y-104209809D01*
X155117761Y-104171714D01*
X155803476Y-103447904D02*
X156070142Y-104247904D01*
X156336809Y-103447904D01*
X167119476Y-101657142D02*
X167729000Y-101657142D01*
X167424238Y-101961904D02*
X167424238Y-101352380D01*
X168529000Y-101961904D02*
X168071857Y-101961904D01*
X168300428Y-101961904D02*
X168300428Y-101161904D01*
X168224238Y-101276190D01*
X168148047Y-101352380D01*
X168071857Y-101390476D01*
X169252809Y-101161904D02*
X168871857Y-101161904D01*
X168833761Y-101542857D01*
X168871857Y-101504761D01*
X168948047Y-101466666D01*
X169138523Y-101466666D01*
X169214714Y-101504761D01*
X169252809Y-101542857D01*
X169290904Y-101619047D01*
X169290904Y-101809523D01*
X169252809Y-101885714D01*
X169214714Y-101923809D01*
X169138523Y-101961904D01*
X168948047Y-101961904D01*
X168871857Y-101923809D01*
X168833761Y-101885714D01*
X169519476Y-101161904D02*
X169786142Y-101961904D01*
X170052809Y-101161904D01*
X172005809Y-77684380D02*
X172624857Y-77684380D01*
X172291523Y-78065333D01*
X172434380Y-78065333D01*
X172529619Y-78112952D01*
X172577238Y-78160571D01*
X172624857Y-78255809D01*
X172624857Y-78493904D01*
X172577238Y-78589142D01*
X172529619Y-78636761D01*
X172434380Y-78684380D01*
X172148666Y-78684380D01*
X172053428Y-78636761D01*
X172005809Y-78589142D01*
X173053428Y-78589142D02*
X173101047Y-78636761D01*
X173053428Y-78684380D01*
X173005809Y-78636761D01*
X173053428Y-78589142D01*
X173053428Y-78684380D01*
X173434380Y-77684380D02*
X174053428Y-77684380D01*
X173720095Y-78065333D01*
X173862952Y-78065333D01*
X173958190Y-78112952D01*
X174005809Y-78160571D01*
X174053428Y-78255809D01*
X174053428Y-78493904D01*
X174005809Y-78589142D01*
X173958190Y-78636761D01*
X173862952Y-78684380D01*
X173577238Y-78684380D01*
X173482000Y-78636761D01*
X173434380Y-78589142D01*
X174339142Y-77684380D02*
X174672476Y-78684380D01*
X175005809Y-77684380D01*
X185578857Y-101925380D02*
X185007428Y-101925380D01*
X185293142Y-101925380D02*
X185293142Y-100925380D01*
X185197904Y-101068238D01*
X185102666Y-101163476D01*
X185007428Y-101211095D01*
X186007428Y-101830142D02*
X186055047Y-101877761D01*
X186007428Y-101925380D01*
X185959809Y-101877761D01*
X186007428Y-101830142D01*
X186007428Y-101925380D01*
X186626476Y-101353952D02*
X186531238Y-101306333D01*
X186483619Y-101258714D01*
X186436000Y-101163476D01*
X186436000Y-101115857D01*
X186483619Y-101020619D01*
X186531238Y-100973000D01*
X186626476Y-100925380D01*
X186816952Y-100925380D01*
X186912190Y-100973000D01*
X186959809Y-101020619D01*
X187007428Y-101115857D01*
X187007428Y-101163476D01*
X186959809Y-101258714D01*
X186912190Y-101306333D01*
X186816952Y-101353952D01*
X186626476Y-101353952D01*
X186531238Y-101401571D01*
X186483619Y-101449190D01*
X186436000Y-101544428D01*
X186436000Y-101734904D01*
X186483619Y-101830142D01*
X186531238Y-101877761D01*
X186626476Y-101925380D01*
X186816952Y-101925380D01*
X186912190Y-101877761D01*
X186959809Y-101830142D01*
X187007428Y-101734904D01*
X187007428Y-101544428D01*
X186959809Y-101449190D01*
X186912190Y-101401571D01*
X186816952Y-101353952D01*
X187293142Y-100925380D02*
X187626476Y-101925380D01*
X187959809Y-100925380D01*
X141827476Y-82256380D02*
X142398904Y-82256380D01*
X142113190Y-83256380D02*
X142113190Y-82256380D01*
X142732238Y-82732571D02*
X143065571Y-82732571D01*
X143208428Y-83256380D02*
X142732238Y-83256380D01*
X142732238Y-82256380D01*
X143208428Y-82256380D01*
X143637000Y-83256380D02*
X143637000Y-82256380D01*
X143970333Y-82970666D01*
X144303666Y-82256380D01*
X144303666Y-83256380D01*
X144779857Y-83256380D02*
X144779857Y-82256380D01*
X145160809Y-82256380D01*
X145256047Y-82304000D01*
X145303666Y-82351619D01*
X145351285Y-82446857D01*
X145351285Y-82589714D01*
X145303666Y-82684952D01*
X145256047Y-82732571D01*
X145160809Y-82780190D01*
X144779857Y-82780190D01*
X181975285Y-91892428D02*
X182737190Y-91892428D01*
X182356238Y-92273380D02*
X182356238Y-91511476D01*
X183356238Y-91701952D02*
X183261000Y-91654333D01*
X183213380Y-91606714D01*
X183165761Y-91511476D01*
X183165761Y-91463857D01*
X183213380Y-91368619D01*
X183261000Y-91321000D01*
X183356238Y-91273380D01*
X183546714Y-91273380D01*
X183641952Y-91321000D01*
X183689571Y-91368619D01*
X183737190Y-91463857D01*
X183737190Y-91511476D01*
X183689571Y-91606714D01*
X183641952Y-91654333D01*
X183546714Y-91701952D01*
X183356238Y-91701952D01*
X183261000Y-91749571D01*
X183213380Y-91797190D01*
X183165761Y-91892428D01*
X183165761Y-92082904D01*
X183213380Y-92178142D01*
X183261000Y-92225761D01*
X183356238Y-92273380D01*
X183546714Y-92273380D01*
X183641952Y-92225761D01*
X183689571Y-92178142D01*
X183737190Y-92082904D01*
X183737190Y-91892428D01*
X183689571Y-91797190D01*
X183641952Y-91749571D01*
X183546714Y-91701952D01*
X184022904Y-91273380D02*
X184356238Y-92273380D01*
X184689571Y-91273380D01*
X155181428Y-89973142D02*
X155790952Y-89973142D01*
X156286190Y-89820761D02*
X156210000Y-89782666D01*
X156171904Y-89744571D01*
X156133809Y-89668380D01*
X156133809Y-89630285D01*
X156171904Y-89554095D01*
X156210000Y-89516000D01*
X156286190Y-89477904D01*
X156438571Y-89477904D01*
X156514761Y-89516000D01*
X156552857Y-89554095D01*
X156590952Y-89630285D01*
X156590952Y-89668380D01*
X156552857Y-89744571D01*
X156514761Y-89782666D01*
X156438571Y-89820761D01*
X156286190Y-89820761D01*
X156210000Y-89858857D01*
X156171904Y-89896952D01*
X156133809Y-89973142D01*
X156133809Y-90125523D01*
X156171904Y-90201714D01*
X156210000Y-90239809D01*
X156286190Y-90277904D01*
X156438571Y-90277904D01*
X156514761Y-90239809D01*
X156552857Y-90201714D01*
X156590952Y-90125523D01*
X156590952Y-89973142D01*
X156552857Y-89896952D01*
X156514761Y-89858857D01*
X156438571Y-89820761D01*
X156819523Y-89477904D02*
X157086190Y-90277904D01*
X157352857Y-89477904D01*
X153044142Y-88299357D02*
X153091761Y-88346976D01*
X153139380Y-88489833D01*
X153139380Y-88585071D01*
X153091761Y-88727928D01*
X152996523Y-88823166D01*
X152901285Y-88870785D01*
X152710809Y-88918404D01*
X152567952Y-88918404D01*
X152377476Y-88870785D01*
X152282238Y-88823166D01*
X152187000Y-88727928D01*
X152139380Y-88585071D01*
X152139380Y-88489833D01*
X152187000Y-88346976D01*
X152234619Y-88299357D01*
X153139380Y-87346976D02*
X153139380Y-87918404D01*
X153139380Y-87632690D02*
X152139380Y-87632690D01*
X152282238Y-87727928D01*
X152377476Y-87823166D01*
X152425095Y-87918404D01*
X152234619Y-86966023D02*
X152187000Y-86918404D01*
X152139380Y-86823166D01*
X152139380Y-86585071D01*
X152187000Y-86489833D01*
X152234619Y-86442214D01*
X152329857Y-86394595D01*
X152425095Y-86394595D01*
X152567952Y-86442214D01*
X153139380Y-87013642D01*
X153139380Y-86394595D01*
D12*
X153459666Y-78712190D02*
X153293000Y-78474095D01*
X153173952Y-78712190D02*
X153173952Y-78212190D01*
X153364428Y-78212190D01*
X153412047Y-78236000D01*
X153435857Y-78259809D01*
X153459666Y-78307428D01*
X153459666Y-78378857D01*
X153435857Y-78426476D01*
X153412047Y-78450285D01*
X153364428Y-78474095D01*
X153173952Y-78474095D01*
X153935857Y-78712190D02*
X153650142Y-78712190D01*
X153793000Y-78712190D02*
X153793000Y-78212190D01*
X153745380Y-78283619D01*
X153697761Y-78331238D01*
X153650142Y-78355047D01*
X166794666Y-83236571D02*
X166770857Y-83260380D01*
X166699428Y-83284190D01*
X166651809Y-83284190D01*
X166580380Y-83260380D01*
X166532761Y-83212761D01*
X166508952Y-83165142D01*
X166485142Y-83069904D01*
X166485142Y-82998476D01*
X166508952Y-82903238D01*
X166532761Y-82855619D01*
X166580380Y-82808000D01*
X166651809Y-82784190D01*
X166699428Y-82784190D01*
X166770857Y-82808000D01*
X166794666Y-82831809D01*
X166985142Y-82831809D02*
X167008952Y-82808000D01*
X167056571Y-82784190D01*
X167175619Y-82784190D01*
X167223238Y-82808000D01*
X167247047Y-82831809D01*
X167270857Y-82879428D01*
X167270857Y-82927047D01*
X167247047Y-82998476D01*
X166961333Y-83284190D01*
X167270857Y-83284190D01*
D11*
X172729142Y-96914166D02*
X172776761Y-96961785D01*
X172824380Y-97104642D01*
X172824380Y-97199880D01*
X172776761Y-97342738D01*
X172681523Y-97437976D01*
X172586285Y-97485595D01*
X172395809Y-97533214D01*
X172252952Y-97533214D01*
X172062476Y-97485595D01*
X171967238Y-97437976D01*
X171872000Y-97342738D01*
X171824380Y-97199880D01*
X171824380Y-97104642D01*
X171872000Y-96961785D01*
X171919619Y-96914166D01*
X172824380Y-95961785D02*
X172824380Y-96533214D01*
X172824380Y-96247500D02*
X171824380Y-96247500D01*
X171967238Y-96342738D01*
X172062476Y-96437976D01*
X172110095Y-96533214D01*
X164853952Y-90368380D02*
X164520619Y-89892190D01*
X164282523Y-90368380D02*
X164282523Y-89368380D01*
X164663476Y-89368380D01*
X164758714Y-89416000D01*
X164806333Y-89463619D01*
X164853952Y-89558857D01*
X164853952Y-89701714D01*
X164806333Y-89796952D01*
X164758714Y-89844571D01*
X164663476Y-89892190D01*
X164282523Y-89892190D01*
X165615857Y-89844571D02*
X165282523Y-89844571D01*
X165282523Y-90368380D02*
X165282523Y-89368380D01*
X165758714Y-89368380D01*
D12*
X180907571Y-77061190D02*
X180740904Y-76823095D01*
X180621857Y-77061190D02*
X180621857Y-76561190D01*
X180812333Y-76561190D01*
X180859952Y-76585000D01*
X180883761Y-76608809D01*
X180907571Y-76656428D01*
X180907571Y-76727857D01*
X180883761Y-76775476D01*
X180859952Y-76799285D01*
X180812333Y-76823095D01*
X180621857Y-76823095D01*
X181383761Y-77061190D02*
X181098047Y-77061190D01*
X181240904Y-77061190D02*
X181240904Y-76561190D01*
X181193285Y-76632619D01*
X181145666Y-76680238D01*
X181098047Y-76704047D01*
X181574238Y-76608809D02*
X181598047Y-76585000D01*
X181645666Y-76561190D01*
X181764714Y-76561190D01*
X181812333Y-76585000D01*
X181836142Y-76608809D01*
X181859952Y-76656428D01*
X181859952Y-76704047D01*
X181836142Y-76775476D01*
X181550428Y-77061190D01*
X181859952Y-77061190D01*
D13*
X163040190Y-75267333D02*
X162802095Y-75434000D01*
X163040190Y-75553047D02*
X162540190Y-75553047D01*
X162540190Y-75362571D01*
X162564000Y-75314952D01*
X162587809Y-75291142D01*
X162635428Y-75267333D01*
X162706857Y-75267333D01*
X162754476Y-75291142D01*
X162778285Y-75314952D01*
X162802095Y-75362571D01*
X162802095Y-75553047D01*
X162587809Y-75076857D02*
X162564000Y-75053047D01*
X162540190Y-75005428D01*
X162540190Y-74886380D01*
X162564000Y-74838761D01*
X162587809Y-74814952D01*
X162635428Y-74791142D01*
X162683047Y-74791142D01*
X162754476Y-74814952D01*
X163040190Y-75100666D01*
X163040190Y-74791142D01*
D11*
X186682142Y-83637380D02*
X186348809Y-83161190D01*
X186110714Y-83637380D02*
X186110714Y-82637380D01*
X186491666Y-82637380D01*
X186586904Y-82685000D01*
X186634523Y-82732619D01*
X186682142Y-82827857D01*
X186682142Y-82970714D01*
X186634523Y-83065952D01*
X186586904Y-83113571D01*
X186491666Y-83161190D01*
X186110714Y-83161190D01*
X187634523Y-83637380D02*
X187063095Y-83637380D01*
X187348809Y-83637380D02*
X187348809Y-82637380D01*
X187253571Y-82780238D01*
X187158333Y-82875476D01*
X187063095Y-82923095D01*
X188539285Y-82637380D02*
X188063095Y-82637380D01*
X188015476Y-83113571D01*
X188063095Y-83065952D01*
X188158333Y-83018333D01*
X188396428Y-83018333D01*
X188491666Y-83065952D01*
X188539285Y-83113571D01*
X188586904Y-83208809D01*
X188586904Y-83446904D01*
X188539285Y-83542142D01*
X188491666Y-83589761D01*
X188396428Y-83637380D01*
X188158333Y-83637380D01*
X188063095Y-83589761D01*
X188015476Y-83542142D01*
X149312333Y-94083142D02*
X149264714Y-94130761D01*
X149121857Y-94178380D01*
X149026619Y-94178380D01*
X148883761Y-94130761D01*
X148788523Y-94035523D01*
X148740904Y-93940285D01*
X148693285Y-93749809D01*
X148693285Y-93606952D01*
X148740904Y-93416476D01*
X148788523Y-93321238D01*
X148883761Y-93226000D01*
X149026619Y-93178380D01*
X149121857Y-93178380D01*
X149264714Y-93226000D01*
X149312333Y-93273619D01*
X149788523Y-94178380D02*
X149979000Y-94178380D01*
X150074238Y-94130761D01*
X150121857Y-94083142D01*
X150217095Y-93940285D01*
X150264714Y-93749809D01*
X150264714Y-93368857D01*
X150217095Y-93273619D01*
X150169476Y-93226000D01*
X150074238Y-93178380D01*
X149883761Y-93178380D01*
X149788523Y-93226000D01*
X149740904Y-93273619D01*
X149693285Y-93368857D01*
X149693285Y-93606952D01*
X149740904Y-93702190D01*
X149788523Y-93749809D01*
X149883761Y-93797428D01*
X150074238Y-93797428D01*
X150169476Y-93749809D01*
X150217095Y-93702190D01*
X150264714Y-93606952D01*
D12*
X147871666Y-71044571D02*
X147847857Y-71068380D01*
X147776428Y-71092190D01*
X147728809Y-71092190D01*
X147657380Y-71068380D01*
X147609761Y-71020761D01*
X147585952Y-70973142D01*
X147562142Y-70877904D01*
X147562142Y-70806476D01*
X147585952Y-70711238D01*
X147609761Y-70663619D01*
X147657380Y-70616000D01*
X147728809Y-70592190D01*
X147776428Y-70592190D01*
X147847857Y-70616000D01*
X147871666Y-70639809D01*
X148300238Y-70592190D02*
X148205000Y-70592190D01*
X148157380Y-70616000D01*
X148133571Y-70639809D01*
X148085952Y-70711238D01*
X148062142Y-70806476D01*
X148062142Y-70996952D01*
X148085952Y-71044571D01*
X148109761Y-71068380D01*
X148157380Y-71092190D01*
X148252619Y-71092190D01*
X148300238Y-71068380D01*
X148324047Y-71044571D01*
X148347857Y-70996952D01*
X148347857Y-70877904D01*
X148324047Y-70830285D01*
X148300238Y-70806476D01*
X148252619Y-70782666D01*
X148157380Y-70782666D01*
X148109761Y-70806476D01*
X148085952Y-70830285D01*
X148062142Y-70877904D01*
X165707190Y-86069928D02*
X165469095Y-86236595D01*
X165707190Y-86355642D02*
X165207190Y-86355642D01*
X165207190Y-86165166D01*
X165231000Y-86117547D01*
X165254809Y-86093738D01*
X165302428Y-86069928D01*
X165373857Y-86069928D01*
X165421476Y-86093738D01*
X165445285Y-86117547D01*
X165469095Y-86165166D01*
X165469095Y-86355642D01*
X165707190Y-85593738D02*
X165707190Y-85879452D01*
X165707190Y-85736595D02*
X165207190Y-85736595D01*
X165278619Y-85784214D01*
X165326238Y-85831833D01*
X165350047Y-85879452D01*
X165373857Y-85165166D02*
X165707190Y-85165166D01*
X165183380Y-85284214D02*
X165540523Y-85403261D01*
X165540523Y-85093738D01*
X147490666Y-80061571D02*
X147466857Y-80085380D01*
X147395428Y-80109190D01*
X147347809Y-80109190D01*
X147276380Y-80085380D01*
X147228761Y-80037761D01*
X147204952Y-79990142D01*
X147181142Y-79894904D01*
X147181142Y-79823476D01*
X147204952Y-79728238D01*
X147228761Y-79680619D01*
X147276380Y-79633000D01*
X147347809Y-79609190D01*
X147395428Y-79609190D01*
X147466857Y-79633000D01*
X147490666Y-79656809D01*
X147657333Y-79609190D02*
X147990666Y-79609190D01*
X147776380Y-80109190D01*
D11*
X150242142Y-102720380D02*
X149908809Y-102244190D01*
X149670714Y-102720380D02*
X149670714Y-101720380D01*
X150051666Y-101720380D01*
X150146904Y-101768000D01*
X150194523Y-101815619D01*
X150242142Y-101910857D01*
X150242142Y-102053714D01*
X150194523Y-102148952D01*
X150146904Y-102196571D01*
X150051666Y-102244190D01*
X149670714Y-102244190D01*
X151194523Y-102720380D02*
X150623095Y-102720380D01*
X150908809Y-102720380D02*
X150908809Y-101720380D01*
X150813571Y-101863238D01*
X150718333Y-101958476D01*
X150623095Y-102006095D01*
X151813571Y-101720380D02*
X151908809Y-101720380D01*
X152004047Y-101768000D01*
X152051666Y-101815619D01*
X152099285Y-101910857D01*
X152146904Y-102101333D01*
X152146904Y-102339428D01*
X152099285Y-102529904D01*
X152051666Y-102625142D01*
X152004047Y-102672761D01*
X151908809Y-102720380D01*
X151813571Y-102720380D01*
X151718333Y-102672761D01*
X151670714Y-102625142D01*
X151623095Y-102529904D01*
X151575476Y-102339428D01*
X151575476Y-102101333D01*
X151623095Y-101910857D01*
X151670714Y-101815619D01*
X151718333Y-101768000D01*
X151813571Y-101720380D01*
X194254380Y-79683095D02*
X193254380Y-79683095D01*
X193254380Y-79445000D01*
X193302000Y-79302142D01*
X193397238Y-79206904D01*
X193492476Y-79159285D01*
X193682952Y-79111666D01*
X193825809Y-79111666D01*
X194016285Y-79159285D01*
X194111523Y-79206904D01*
X194206761Y-79302142D01*
X194254380Y-79445000D01*
X194254380Y-79683095D01*
X193349619Y-78730714D02*
X193302000Y-78683095D01*
X193254380Y-78587857D01*
X193254380Y-78349761D01*
X193302000Y-78254523D01*
X193349619Y-78206904D01*
X193444857Y-78159285D01*
X193540095Y-78159285D01*
X193682952Y-78206904D01*
X194254380Y-78778333D01*
X194254380Y-78159285D01*
X175474333Y-105227380D02*
X175141000Y-104751190D01*
X174902904Y-105227380D02*
X174902904Y-104227380D01*
X175283857Y-104227380D01*
X175379095Y-104275000D01*
X175426714Y-104322619D01*
X175474333Y-104417857D01*
X175474333Y-104560714D01*
X175426714Y-104655952D01*
X175379095Y-104703571D01*
X175283857Y-104751190D01*
X174902904Y-104751190D01*
X176331476Y-104227380D02*
X176141000Y-104227380D01*
X176045761Y-104275000D01*
X175998142Y-104322619D01*
X175902904Y-104465476D01*
X175855285Y-104655952D01*
X175855285Y-105036904D01*
X175902904Y-105132142D01*
X175950523Y-105179761D01*
X176045761Y-105227380D01*
X176236238Y-105227380D01*
X176331476Y-105179761D01*
X176379095Y-105132142D01*
X176426714Y-105036904D01*
X176426714Y-104798809D01*
X176379095Y-104703571D01*
X176331476Y-104655952D01*
X176236238Y-104608333D01*
X176045761Y-104608333D01*
X175950523Y-104655952D01*
X175902904Y-104703571D01*
X175855285Y-104798809D01*
D12*
X166794666Y-77902571D02*
X166770857Y-77926380D01*
X166699428Y-77950190D01*
X166651809Y-77950190D01*
X166580380Y-77926380D01*
X166532761Y-77878761D01*
X166508952Y-77831142D01*
X166485142Y-77735904D01*
X166485142Y-77664476D01*
X166508952Y-77569238D01*
X166532761Y-77521619D01*
X166580380Y-77474000D01*
X166651809Y-77450190D01*
X166699428Y-77450190D01*
X166770857Y-77474000D01*
X166794666Y-77497809D01*
X167223238Y-77616857D02*
X167223238Y-77950190D01*
X167104190Y-77426380D02*
X166985142Y-77783523D01*
X167294666Y-77783523D01*
X149877166Y-82728571D02*
X149853357Y-82752380D01*
X149781928Y-82776190D01*
X149734309Y-82776190D01*
X149662880Y-82752380D01*
X149615261Y-82704761D01*
X149591452Y-82657142D01*
X149567642Y-82561904D01*
X149567642Y-82490476D01*
X149591452Y-82395238D01*
X149615261Y-82347619D01*
X149662880Y-82300000D01*
X149734309Y-82276190D01*
X149781928Y-82276190D01*
X149853357Y-82300000D01*
X149877166Y-82323809D01*
X150043833Y-82276190D02*
X150353357Y-82276190D01*
X150186690Y-82466666D01*
X150258119Y-82466666D01*
X150305738Y-82490476D01*
X150329547Y-82514285D01*
X150353357Y-82561904D01*
X150353357Y-82680952D01*
X150329547Y-82728571D01*
X150305738Y-82752380D01*
X150258119Y-82776190D01*
X150115261Y-82776190D01*
X150067642Y-82752380D01*
X150043833Y-82728571D01*
D14*
X185098571Y-88872190D02*
X184931904Y-88634095D01*
X184812857Y-88872190D02*
X184812857Y-88372190D01*
X185003333Y-88372190D01*
X185050952Y-88396000D01*
X185074761Y-88419809D01*
X185098571Y-88467428D01*
X185098571Y-88538857D01*
X185074761Y-88586476D01*
X185050952Y-88610285D01*
X185003333Y-88634095D01*
X184812857Y-88634095D01*
X185574761Y-88872190D02*
X185289047Y-88872190D01*
X185431904Y-88872190D02*
X185431904Y-88372190D01*
X185384285Y-88443619D01*
X185336666Y-88491238D01*
X185289047Y-88515047D01*
X186003333Y-88372190D02*
X185908095Y-88372190D01*
X185860476Y-88396000D01*
X185836666Y-88419809D01*
X185789047Y-88491238D01*
X185765238Y-88586476D01*
X185765238Y-88776952D01*
X185789047Y-88824571D01*
X185812857Y-88848380D01*
X185860476Y-88872190D01*
X185955714Y-88872190D01*
X186003333Y-88848380D01*
X186027142Y-88824571D01*
X186050952Y-88776952D01*
X186050952Y-88657904D01*
X186027142Y-88610285D01*
X186003333Y-88586476D01*
X185955714Y-88562666D01*
X185860476Y-88562666D01*
X185812857Y-88586476D01*
X185789047Y-88610285D01*
X185765238Y-88657904D01*
D12*
X158301619Y-89761190D02*
X158134952Y-89523095D01*
X158015904Y-89761190D02*
X158015904Y-89261190D01*
X158206380Y-89261190D01*
X158254000Y-89285000D01*
X158277809Y-89308809D01*
X158301619Y-89356428D01*
X158301619Y-89427857D01*
X158277809Y-89475476D01*
X158254000Y-89499285D01*
X158206380Y-89523095D01*
X158015904Y-89523095D01*
X158468285Y-89261190D02*
X158801619Y-89761190D01*
X158801619Y-89261190D02*
X158468285Y-89761190D01*
X158873047Y-89808809D02*
X159254000Y-89808809D01*
X159301619Y-89261190D02*
X159587333Y-89261190D01*
X159444476Y-89761190D02*
X159444476Y-89261190D01*
X159706380Y-89261190D02*
X160039714Y-89761190D01*
X160039714Y-89261190D02*
X159706380Y-89761190D01*
D11*
X146835904Y-93289380D02*
X146835904Y-92289380D01*
X147074000Y-92289380D01*
X147216857Y-92337000D01*
X147312095Y-92432238D01*
X147359714Y-92527476D01*
X147407333Y-92717952D01*
X147407333Y-92860809D01*
X147359714Y-93051285D01*
X147312095Y-93146523D01*
X147216857Y-93241761D01*
X147074000Y-93289380D01*
X146835904Y-93289380D01*
X148359714Y-93289380D02*
X147788285Y-93289380D01*
X148074000Y-93289380D02*
X148074000Y-92289380D01*
X147978761Y-92432238D01*
X147883523Y-92527476D01*
X147788285Y-92575095D01*
X171129833Y-105005142D02*
X171082214Y-105052761D01*
X170939357Y-105100380D01*
X170844119Y-105100380D01*
X170701261Y-105052761D01*
X170606023Y-104957523D01*
X170558404Y-104862285D01*
X170510785Y-104671809D01*
X170510785Y-104528952D01*
X170558404Y-104338476D01*
X170606023Y-104243238D01*
X170701261Y-104148000D01*
X170844119Y-104100380D01*
X170939357Y-104100380D01*
X171082214Y-104148000D01*
X171129833Y-104195619D01*
X171701261Y-104528952D02*
X171606023Y-104481333D01*
X171558404Y-104433714D01*
X171510785Y-104338476D01*
X171510785Y-104290857D01*
X171558404Y-104195619D01*
X171606023Y-104148000D01*
X171701261Y-104100380D01*
X171891738Y-104100380D01*
X171986976Y-104148000D01*
X172034595Y-104195619D01*
X172082214Y-104290857D01*
X172082214Y-104338476D01*
X172034595Y-104433714D01*
X171986976Y-104481333D01*
X171891738Y-104528952D01*
X171701261Y-104528952D01*
X171606023Y-104576571D01*
X171558404Y-104624190D01*
X171510785Y-104719428D01*
X171510785Y-104909904D01*
X171558404Y-105005142D01*
X171606023Y-105052761D01*
X171701261Y-105100380D01*
X171891738Y-105100380D01*
X171986976Y-105052761D01*
X172034595Y-105005142D01*
X172082214Y-104909904D01*
X172082214Y-104719428D01*
X172034595Y-104624190D01*
X171986976Y-104576571D01*
X171891738Y-104528952D01*
D12*
X150030666Y-85443190D02*
X149864000Y-85205095D01*
X149744952Y-85443190D02*
X149744952Y-84943190D01*
X149935428Y-84943190D01*
X149983047Y-84967000D01*
X150006857Y-84990809D01*
X150030666Y-85038428D01*
X150030666Y-85109857D01*
X150006857Y-85157476D01*
X149983047Y-85181285D01*
X149935428Y-85205095D01*
X149744952Y-85205095D01*
X150197333Y-84943190D02*
X150530666Y-84943190D01*
X150316380Y-85443190D01*
D11*
X156027380Y-96051666D02*
X155551190Y-96385000D01*
X156027380Y-96623095D02*
X155027380Y-96623095D01*
X155027380Y-96242142D01*
X155075000Y-96146904D01*
X155122619Y-96099285D01*
X155217857Y-96051666D01*
X155360714Y-96051666D01*
X155455952Y-96099285D01*
X155503571Y-96146904D01*
X155551190Y-96242142D01*
X155551190Y-96623095D01*
X156027380Y-95575476D02*
X156027380Y-95385000D01*
X155979761Y-95289761D01*
X155932142Y-95242142D01*
X155789285Y-95146904D01*
X155598809Y-95099285D01*
X155217857Y-95099285D01*
X155122619Y-95146904D01*
X155075000Y-95194523D01*
X155027380Y-95289761D01*
X155027380Y-95480238D01*
X155075000Y-95575476D01*
X155122619Y-95623095D01*
X155217857Y-95670714D01*
X155455952Y-95670714D01*
X155551190Y-95623095D01*
X155598809Y-95575476D01*
X155646428Y-95480238D01*
X155646428Y-95289761D01*
X155598809Y-95194523D01*
X155551190Y-95146904D01*
X155455952Y-95099285D01*
X170370904Y-67603666D02*
X170847095Y-67603666D01*
X170275666Y-67889380D02*
X170609000Y-66889380D01*
X170942333Y-67889380D01*
X171847095Y-67889380D02*
X171513761Y-67413190D01*
X171275666Y-67889380D02*
X171275666Y-66889380D01*
X171656619Y-66889380D01*
X171751857Y-66937000D01*
X171799476Y-66984619D01*
X171847095Y-67079857D01*
X171847095Y-67222714D01*
X171799476Y-67317952D01*
X171751857Y-67365571D01*
X171656619Y-67413190D01*
X171275666Y-67413190D01*
X172275666Y-67889380D02*
X172275666Y-66889380D01*
X172609000Y-67603666D01*
X172942333Y-66889380D01*
X172942333Y-67889380D01*
X173180428Y-67984619D02*
X173942333Y-67984619D01*
X174132809Y-67841761D02*
X174275666Y-67889380D01*
X174513761Y-67889380D01*
X174609000Y-67841761D01*
X174656619Y-67794142D01*
X174704238Y-67698904D01*
X174704238Y-67603666D01*
X174656619Y-67508428D01*
X174609000Y-67460809D01*
X174513761Y-67413190D01*
X174323285Y-67365571D01*
X174228047Y-67317952D01*
X174180428Y-67270333D01*
X174132809Y-67175095D01*
X174132809Y-67079857D01*
X174180428Y-66984619D01*
X174228047Y-66937000D01*
X174323285Y-66889380D01*
X174561380Y-66889380D01*
X174704238Y-66937000D01*
X175037571Y-66889380D02*
X175275666Y-67889380D01*
X175466142Y-67175095D01*
X175656619Y-67889380D01*
X175894714Y-66889380D01*
X176275666Y-67889380D02*
X176275666Y-66889380D01*
X176513761Y-66889380D01*
X176656619Y-66937000D01*
X176751857Y-67032238D01*
X176799476Y-67127476D01*
X176847095Y-67317952D01*
X176847095Y-67460809D01*
X176799476Y-67651285D01*
X176751857Y-67746523D01*
X176656619Y-67841761D01*
X176513761Y-67889380D01*
X176275666Y-67889380D01*
X171696142Y-83161142D02*
X171648523Y-83208761D01*
X171505666Y-83256380D01*
X171410428Y-83256380D01*
X171267571Y-83208761D01*
X171172333Y-83113523D01*
X171124714Y-83018285D01*
X171077095Y-82827809D01*
X171077095Y-82684952D01*
X171124714Y-82494476D01*
X171172333Y-82399238D01*
X171267571Y-82304000D01*
X171410428Y-82256380D01*
X171505666Y-82256380D01*
X171648523Y-82304000D01*
X171696142Y-82351619D01*
X172648523Y-83256380D02*
X172077095Y-83256380D01*
X172362809Y-83256380D02*
X172362809Y-82256380D01*
X172267571Y-82399238D01*
X172172333Y-82494476D01*
X172077095Y-82542095D01*
X173267571Y-82256380D02*
X173362809Y-82256380D01*
X173458047Y-82304000D01*
X173505666Y-82351619D01*
X173553285Y-82446857D01*
X173600904Y-82637333D01*
X173600904Y-82875428D01*
X173553285Y-83065904D01*
X173505666Y-83161142D01*
X173458047Y-83208761D01*
X173362809Y-83256380D01*
X173267571Y-83256380D01*
X173172333Y-83208761D01*
X173124714Y-83161142D01*
X173077095Y-83065904D01*
X173029476Y-82875428D01*
X173029476Y-82637333D01*
X173077095Y-82446857D01*
X173124714Y-82351619D01*
X173172333Y-82304000D01*
X173267571Y-82256380D01*
D12*
X184209571Y-78933190D02*
X184042904Y-78695095D01*
X183923857Y-78933190D02*
X183923857Y-78433190D01*
X184114333Y-78433190D01*
X184161952Y-78457000D01*
X184185761Y-78480809D01*
X184209571Y-78528428D01*
X184209571Y-78599857D01*
X184185761Y-78647476D01*
X184161952Y-78671285D01*
X184114333Y-78695095D01*
X183923857Y-78695095D01*
X184685761Y-78933190D02*
X184400047Y-78933190D01*
X184542904Y-78933190D02*
X184542904Y-78433190D01*
X184495285Y-78504619D01*
X184447666Y-78552238D01*
X184400047Y-78576047D01*
X185161952Y-78933190D02*
X184876238Y-78933190D01*
X185019095Y-78933190D02*
X185019095Y-78433190D01*
X184971476Y-78504619D01*
X184923857Y-78552238D01*
X184876238Y-78576047D01*
X178022476Y-84435904D02*
X177755809Y-84054952D01*
X177565333Y-84435904D02*
X177565333Y-83635904D01*
X177870095Y-83635904D01*
X177946285Y-83674000D01*
X177984380Y-83712095D01*
X178022476Y-83788285D01*
X178022476Y-83902571D01*
X177984380Y-83978761D01*
X177946285Y-84016857D01*
X177870095Y-84054952D01*
X177565333Y-84054952D01*
X178365333Y-84016857D02*
X178632000Y-84016857D01*
X178746285Y-84435904D02*
X178365333Y-84435904D01*
X178365333Y-83635904D01*
X178746285Y-83635904D01*
X179051047Y-84397809D02*
X179165333Y-84435904D01*
X179355809Y-84435904D01*
X179432000Y-84397809D01*
X179470095Y-84359714D01*
X179508190Y-84283523D01*
X179508190Y-84207333D01*
X179470095Y-84131142D01*
X179432000Y-84093047D01*
X179355809Y-84054952D01*
X179203428Y-84016857D01*
X179127238Y-83978761D01*
X179089142Y-83940666D01*
X179051047Y-83864476D01*
X179051047Y-83788285D01*
X179089142Y-83712095D01*
X179127238Y-83674000D01*
X179203428Y-83635904D01*
X179393904Y-83635904D01*
X179508190Y-83674000D01*
X179660571Y-84512095D02*
X180270095Y-84512095D01*
X180460571Y-84435904D02*
X180460571Y-83635904D01*
X180765333Y-83635904D01*
X180841523Y-83674000D01*
X180879619Y-83712095D01*
X180917714Y-83788285D01*
X180917714Y-83902571D01*
X180879619Y-83978761D01*
X180841523Y-84016857D01*
X180765333Y-84054952D01*
X180460571Y-84054952D01*
X181260571Y-83635904D02*
X181260571Y-84283523D01*
X181298666Y-84359714D01*
X181336761Y-84397809D01*
X181412952Y-84435904D01*
X181565333Y-84435904D01*
X181641523Y-84397809D01*
X181679619Y-84359714D01*
X181717714Y-84283523D01*
X181717714Y-83635904D01*
X182098666Y-84435904D02*
X182098666Y-83635904D01*
D11*
X186682142Y-73731380D02*
X186348809Y-73255190D01*
X186110714Y-73731380D02*
X186110714Y-72731380D01*
X186491666Y-72731380D01*
X186586904Y-72779000D01*
X186634523Y-72826619D01*
X186682142Y-72921857D01*
X186682142Y-73064714D01*
X186634523Y-73159952D01*
X186586904Y-73207571D01*
X186491666Y-73255190D01*
X186110714Y-73255190D01*
X187634523Y-73731380D02*
X187063095Y-73731380D01*
X187348809Y-73731380D02*
X187348809Y-72731380D01*
X187253571Y-72874238D01*
X187158333Y-72969476D01*
X187063095Y-73017095D01*
X187967857Y-72731380D02*
X188586904Y-72731380D01*
X188253571Y-73112333D01*
X188396428Y-73112333D01*
X188491666Y-73159952D01*
X188539285Y-73207571D01*
X188586904Y-73302809D01*
X188586904Y-73540904D01*
X188539285Y-73636142D01*
X188491666Y-73683761D01*
X188396428Y-73731380D01*
X188110714Y-73731380D01*
X188015476Y-73683761D01*
X187967857Y-73636142D01*
X146835904Y-83256380D02*
X146835904Y-82256380D01*
X147074000Y-82256380D01*
X147216857Y-82304000D01*
X147312095Y-82399238D01*
X147359714Y-82494476D01*
X147407333Y-82684952D01*
X147407333Y-82827809D01*
X147359714Y-83018285D01*
X147312095Y-83113523D01*
X147216857Y-83208761D01*
X147074000Y-83256380D01*
X146835904Y-83256380D01*
X147740666Y-82256380D02*
X148359714Y-82256380D01*
X148026380Y-82637333D01*
X148169238Y-82637333D01*
X148264476Y-82684952D01*
X148312095Y-82732571D01*
X148359714Y-82827809D01*
X148359714Y-83065904D01*
X148312095Y-83161142D01*
X148264476Y-83208761D01*
X148169238Y-83256380D01*
X147883523Y-83256380D01*
X147788285Y-83208761D01*
X147740666Y-83161142D01*
X155519380Y-75477666D02*
X155043190Y-75811000D01*
X155519380Y-76049095D02*
X154519380Y-76049095D01*
X154519380Y-75668142D01*
X154567000Y-75572904D01*
X154614619Y-75525285D01*
X154709857Y-75477666D01*
X154852714Y-75477666D01*
X154947952Y-75525285D01*
X154995571Y-75572904D01*
X155043190Y-75668142D01*
X155043190Y-76049095D01*
X154852714Y-74620523D02*
X155519380Y-74620523D01*
X154471761Y-74858619D02*
X155186047Y-75096714D01*
X155186047Y-74477666D01*
X147583142Y-99353666D02*
X147630761Y-99401285D01*
X147678380Y-99544142D01*
X147678380Y-99639380D01*
X147630761Y-99782238D01*
X147535523Y-99877476D01*
X147440285Y-99925095D01*
X147249809Y-99972714D01*
X147106952Y-99972714D01*
X146916476Y-99925095D01*
X146821238Y-99877476D01*
X146726000Y-99782238D01*
X146678380Y-99639380D01*
X146678380Y-99544142D01*
X146726000Y-99401285D01*
X146773619Y-99353666D01*
X146678380Y-98448904D02*
X146678380Y-98925095D01*
X147154571Y-98972714D01*
X147106952Y-98925095D01*
X147059333Y-98829857D01*
X147059333Y-98591761D01*
X147106952Y-98496523D01*
X147154571Y-98448904D01*
X147249809Y-98401285D01*
X147487904Y-98401285D01*
X147583142Y-98448904D01*
X147630761Y-98496523D01*
X147678380Y-98591761D01*
X147678380Y-98829857D01*
X147630761Y-98925095D01*
X147583142Y-98972714D01*
D12*
X152189666Y-90396190D02*
X152023000Y-90158095D01*
X151903952Y-90396190D02*
X151903952Y-89896190D01*
X152094428Y-89896190D01*
X152142047Y-89920000D01*
X152165857Y-89943809D01*
X152189666Y-89991428D01*
X152189666Y-90062857D01*
X152165857Y-90110476D01*
X152142047Y-90134285D01*
X152094428Y-90158095D01*
X151903952Y-90158095D01*
X152642047Y-89896190D02*
X152403952Y-89896190D01*
X152380142Y-90134285D01*
X152403952Y-90110476D01*
X152451571Y-90086666D01*
X152570619Y-90086666D01*
X152618238Y-90110476D01*
X152642047Y-90134285D01*
X152665857Y-90181904D01*
X152665857Y-90300952D01*
X152642047Y-90348571D01*
X152618238Y-90372380D01*
X152570619Y-90396190D01*
X152451571Y-90396190D01*
X152403952Y-90372380D01*
X152380142Y-90348571D01*
D11*
X180173333Y-102052380D02*
X179840000Y-101576190D01*
X179601904Y-102052380D02*
X179601904Y-101052380D01*
X179982857Y-101052380D01*
X180078095Y-101100000D01*
X180125714Y-101147619D01*
X180173333Y-101242857D01*
X180173333Y-101385714D01*
X180125714Y-101480952D01*
X180078095Y-101528571D01*
X179982857Y-101576190D01*
X179601904Y-101576190D01*
X180744761Y-101480952D02*
X180649523Y-101433333D01*
X180601904Y-101385714D01*
X180554285Y-101290476D01*
X180554285Y-101242857D01*
X180601904Y-101147619D01*
X180649523Y-101100000D01*
X180744761Y-101052380D01*
X180935238Y-101052380D01*
X181030476Y-101100000D01*
X181078095Y-101147619D01*
X181125714Y-101242857D01*
X181125714Y-101290476D01*
X181078095Y-101385714D01*
X181030476Y-101433333D01*
X180935238Y-101480952D01*
X180744761Y-101480952D01*
X180649523Y-101528571D01*
X180601904Y-101576190D01*
X180554285Y-101671428D01*
X180554285Y-101861904D01*
X180601904Y-101957142D01*
X180649523Y-102004761D01*
X180744761Y-102052380D01*
X180935238Y-102052380D01*
X181030476Y-102004761D01*
X181078095Y-101957142D01*
X181125714Y-101861904D01*
X181125714Y-101671428D01*
X181078095Y-101576190D01*
X181030476Y-101528571D01*
X180935238Y-101480952D01*
X186777034Y-77020718D02*
X186824653Y-77068337D01*
X186872272Y-77211194D01*
X186872272Y-77306432D01*
X186824653Y-77449289D01*
X186729415Y-77544527D01*
X186634177Y-77592146D01*
X186443701Y-77639765D01*
X186300844Y-77639765D01*
X186110368Y-77592146D01*
X186015130Y-77544527D01*
X185919892Y-77449289D01*
X185872272Y-77306432D01*
X185872272Y-77211194D01*
X185919892Y-77068337D01*
X185967511Y-77020718D01*
X186872272Y-76068337D02*
X186872272Y-76639765D01*
X186872272Y-76354051D02*
X185872272Y-76354051D01*
X186015130Y-76449289D01*
X186110368Y-76544527D01*
X186157987Y-76639765D01*
X186872272Y-75115956D02*
X186872272Y-75687384D01*
X186872272Y-75401670D02*
X185872272Y-75401670D01*
X186015130Y-75496908D01*
X186110368Y-75592146D01*
X186157987Y-75687384D01*
D15*
X158938000Y-103378000D02*
G75*
G03*
X158938000Y-103378000I-950000J0D01*
G01*
X167447000Y-103124000D02*
G75*
G03*
X167447000Y-103124000I-950000J0D01*
G01*
X174432000Y-76200000D02*
G75*
G03*
X174432000Y-76200000I-950000J0D01*
G01*
X185481000Y-98679000D02*
G75*
G03*
X185481000Y-98679000I-950000J0D01*
G01*
X144587000Y-84963000D02*
G75*
G03*
X144587000Y-84963000I-950000J0D01*
G01*
X184211000Y-93980000D02*
G75*
G03*
X184211000Y-93980000I-950000J0D01*
G01*
X157033000Y-91694000D02*
G75*
G03*
X157033000Y-91694000I-950000J0D01*
G01*
X151767000Y-87510233D02*
X151767000Y-87802767D01*
X150747000Y-87510233D02*
X150747000Y-87802767D01*
X154051724Y-80278500D02*
X153542276Y-80278500D01*
X154051724Y-79233500D02*
X153542276Y-79233500D01*
X167050767Y-81663000D02*
X166758233Y-81663000D01*
X167050767Y-80643000D02*
X166758233Y-80643000D01*
D16*
X161442400Y-68839080D02*
X161442400Y-71348600D01*
X156362400Y-71318120D02*
X156362400Y-68839080D01*
X157363160Y-67538600D02*
X160441640Y-67538600D01*
X160441640Y-72618600D02*
X157363160Y-72618600D01*
X160172400Y-70078600D02*
G75*
G03*
X160172400Y-70078600I-1270000J0D01*
G01*
D15*
X173374000Y-94518000D02*
X173374000Y-98278000D01*
X173374000Y-98278000D02*
X174634000Y-98278000D01*
X180194000Y-92268000D02*
X180194000Y-98278000D01*
X180194000Y-98278000D02*
X178934000Y-98278000D01*
X171452000Y-96601233D02*
X171452000Y-96893767D01*
X170432000Y-96601233D02*
X170432000Y-96893767D01*
X166751000Y-90618000D02*
X159071000Y-90618000D01*
X159071000Y-90618000D02*
X159071000Y-93278000D01*
X168021000Y-90618000D02*
X169351000Y-90618000D01*
X169351000Y-90618000D02*
X169351000Y-91948000D01*
X166751000Y-90618000D02*
X166751000Y-93278000D01*
X166751000Y-93278000D02*
X159071000Y-93278000D01*
X183791776Y-77738500D02*
X184301224Y-77738500D01*
X183791776Y-76693500D02*
X184301224Y-76693500D01*
X161939500Y-75542224D02*
X161939500Y-75032776D01*
X160894500Y-75542224D02*
X160894500Y-75032776D01*
X185952224Y-84948500D02*
X185442776Y-84948500D01*
X185952224Y-85993500D02*
X185442776Y-85993500D01*
X152572767Y-93216000D02*
X152280233Y-93216000D01*
X152572767Y-94236000D02*
X152280233Y-94236000D01*
X192659000Y-104708000D02*
X192659000Y-102048000D01*
X190059000Y-104708000D02*
X190059000Y-103378000D01*
X192659000Y-102048000D02*
X195259000Y-102048000D01*
X192659000Y-104708000D02*
X195259000Y-104708000D01*
X191389000Y-104708000D02*
X190059000Y-104708000D01*
X195259000Y-104708000D02*
X195259000Y-102048000D01*
X147860500Y-73600000D02*
X147860500Y-78800000D01*
X152060500Y-73600000D02*
X147860500Y-73600000D01*
X189029000Y-84669500D02*
X190339000Y-84669500D01*
X192439000Y-84669500D02*
X193749000Y-84669500D01*
X189029000Y-87389500D02*
X189029000Y-84669500D01*
X189029000Y-87389500D02*
X189259000Y-87389500D01*
X193749000Y-87389500D02*
X193519000Y-87389500D01*
X193749000Y-84669500D02*
X193749000Y-87389500D01*
X189259000Y-88529500D02*
X189259000Y-87389500D01*
X147909233Y-72900000D02*
X148201767Y-72900000D01*
X147909233Y-71880000D02*
X148201767Y-71880000D01*
X166228500Y-85493776D02*
X166228500Y-86003224D01*
X167273500Y-85493776D02*
X167273500Y-86003224D01*
X149840733Y-79373000D02*
X150133267Y-79373000D01*
X149840733Y-80393000D02*
X150133267Y-80393000D01*
X151139724Y-100315500D02*
X150630276Y-100315500D01*
X151139724Y-101360500D02*
X150630276Y-101360500D01*
D11*
X192639000Y-76195000D02*
X190139000Y-76195000D01*
D15*
X175463276Y-103646500D02*
X175972724Y-103646500D01*
X175463276Y-102601500D02*
X175972724Y-102601500D01*
X159318000Y-97922000D02*
X156658000Y-97922000D01*
X159318000Y-100522000D02*
X157988000Y-100522000D01*
X156658000Y-97922000D02*
X156658000Y-95322000D01*
X159318000Y-99192000D02*
X159318000Y-100522000D01*
X159318000Y-97922000D02*
X159318000Y-95322000D01*
X159318000Y-95322000D02*
X156658000Y-95322000D01*
D16*
X187467240Y-71374000D02*
X184388760Y-71374000D01*
X184388760Y-66294000D02*
X187467240Y-66294000D01*
X188468000Y-67594480D02*
X188468000Y-70104000D01*
X183388000Y-70073520D02*
X183388000Y-67594480D01*
X187198000Y-68834000D02*
G75*
G03*
X187198000Y-68834000I-1270000J0D01*
G01*
D15*
X167050767Y-78484000D02*
X166758233Y-78484000D01*
X167050767Y-79504000D02*
X166758233Y-79504000D01*
X152419267Y-83060000D02*
X152126733Y-83060000D01*
X152419267Y-82040000D02*
X152126733Y-82040000D01*
X185442776Y-87898500D02*
X185952224Y-87898500D01*
X185442776Y-86853500D02*
X185952224Y-86853500D01*
X156785000Y-89087000D02*
X156785000Y-87757000D01*
X161985000Y-89087000D02*
X161985000Y-86427000D01*
X158115000Y-89087000D02*
X156785000Y-89087000D01*
X159385000Y-89087000D02*
X159385000Y-86427000D01*
X159385000Y-86427000D02*
X161985000Y-86427000D01*
X159385000Y-89087000D02*
X161985000Y-89087000D01*
X145480018Y-90505060D02*
X145480018Y-91975060D01*
X145480018Y-91975060D02*
X147940018Y-91975060D01*
X147940018Y-90505060D02*
X145480018Y-90505060D01*
X171442767Y-102614000D02*
X171150233Y-102614000D01*
X171442767Y-103634000D02*
X171150233Y-103634000D01*
X152567645Y-83916369D02*
X152058197Y-83916369D01*
X152567645Y-84961369D02*
X152058197Y-84961369D01*
X153655500Y-96270776D02*
X153655500Y-96780224D01*
X154700500Y-96270776D02*
X154700500Y-96780224D01*
X150627500Y-98969000D02*
X151427500Y-98969000D01*
X150627500Y-95849000D02*
X148827500Y-95849000D01*
X150627500Y-95849000D02*
X151427500Y-95849000D01*
X150627500Y-98969000D02*
X149827500Y-98969000D01*
X169799000Y-71043800D02*
X169799000Y-68443800D01*
X167199000Y-73643800D02*
X180019000Y-73643800D01*
X180019000Y-73643800D02*
X180019000Y-68443800D01*
X167199000Y-69773800D02*
X167199000Y-68443800D01*
X167199000Y-73643800D02*
X167199000Y-71043800D01*
X167199000Y-68443800D02*
X168529000Y-68443800D01*
X169799000Y-68443800D02*
X180019000Y-68443800D01*
X167199000Y-71043800D02*
X169799000Y-71043800D01*
X166056000Y-95317000D02*
X167386000Y-95317000D01*
X168716000Y-97917000D02*
X168716000Y-100517000D01*
X166056000Y-96647000D02*
X166056000Y-95317000D01*
X166056000Y-97917000D02*
X166056000Y-100517000D01*
X166056000Y-97917000D02*
X168716000Y-97917000D01*
X166056000Y-100517000D02*
X168716000Y-100517000D01*
X160020000Y-77895000D02*
X162220000Y-77895000D01*
X160020000Y-84665000D02*
X157820000Y-84665000D01*
X160020000Y-84665000D02*
X162220000Y-84665000D01*
X160020000Y-77895000D02*
X156420000Y-77895000D01*
X172219233Y-80643000D02*
X172511767Y-80643000D01*
X172219233Y-81663000D02*
X172511767Y-81663000D01*
X146987500Y-89190000D02*
X146337500Y-89190000D01*
X146987500Y-89190000D02*
X148662500Y-89190000D01*
X146987500Y-86070000D02*
X146337500Y-86070000D01*
X146987500Y-86070000D02*
X147637500Y-86070000D01*
X183791776Y-79614500D02*
X184301224Y-79614500D01*
X183791776Y-80659500D02*
X184301224Y-80659500D01*
X178816000Y-87690000D02*
X177486000Y-87690000D01*
X182686000Y-87690000D02*
X182686000Y-85030000D01*
X180086000Y-85030000D02*
X182686000Y-85030000D01*
X180086000Y-87690000D02*
X180086000Y-85030000D01*
X180086000Y-87690000D02*
X182686000Y-87690000D01*
X177486000Y-87690000D02*
X177486000Y-86360000D01*
X184217724Y-74817500D02*
X183708276Y-74817500D01*
X184217724Y-73772500D02*
X183708276Y-73772500D01*
X148388000Y-83720000D02*
X145928000Y-83720000D01*
X145928000Y-85190000D02*
X148388000Y-85190000D01*
X145928000Y-83720000D02*
X145928000Y-85190000D01*
X156576500Y-75542224D02*
X156576500Y-75032776D01*
X157621500Y-75542224D02*
X157621500Y-75032776D01*
X171279000Y-84000000D02*
X173999000Y-84000000D01*
X173999000Y-87410000D02*
X173999000Y-88720000D01*
X171279000Y-88720000D02*
X171279000Y-88490000D01*
X171279000Y-84000000D02*
X171279000Y-84230000D01*
X173999000Y-84000000D02*
X173999000Y-85310000D01*
X173999000Y-88720000D02*
X171279000Y-88720000D01*
X170139000Y-84230000D02*
X171279000Y-84230000D01*
X146306000Y-97236233D02*
X146306000Y-97528767D01*
X145286000Y-97236233D02*
X145286000Y-97528767D01*
X152631224Y-90729500D02*
X152121776Y-90729500D01*
X152631224Y-91774500D02*
X152121776Y-91774500D01*
X177414000Y-80520000D02*
X178814000Y-80520000D01*
X178814000Y-78200000D02*
X176914000Y-78200000D01*
X161103000Y-97917000D02*
X161103000Y-103057000D01*
X161103000Y-97917000D02*
X163763000Y-97917000D01*
X161103000Y-96647000D02*
X161103000Y-95317000D01*
X161103000Y-103057000D02*
X163763000Y-103057000D01*
X163763000Y-97917000D02*
X163763000Y-103057000D01*
X161103000Y-95317000D02*
X162433000Y-95317000D01*
X180082276Y-103646500D02*
X180591724Y-103646500D01*
X180082276Y-102601500D02*
X180591724Y-102601500D01*
X188359892Y-76524128D02*
X188359892Y-76231594D01*
X187339892Y-76524128D02*
X187339892Y-76231594D01*
%LPC*%
D17*
X157988000Y-103378000D03*
X166497000Y-103124000D03*
X173482000Y-76200000D03*
X184531000Y-98679000D03*
X143637000Y-84963000D03*
X183261000Y-93980000D03*
X156083000Y-91694000D03*
D18*
X151257000Y-86794000D03*
X151257000Y-88519000D03*
D19*
X154709500Y-79756000D03*
X152884500Y-79756000D03*
D20*
X167767000Y-81153000D03*
X166042000Y-81153000D03*
D21*
X161696400Y-71983600D03*
X156108400Y-71983600D03*
X161696400Y-68173600D03*
X156108400Y-68173600D03*
D22*
X179084000Y-93218000D03*
D23*
X176784000Y-99518000D03*
D22*
X176784000Y-93218000D03*
X174484000Y-93218000D03*
D18*
X170942000Y-95885000D03*
X170942000Y-97610000D03*
D24*
X168021000Y-91948000D03*
D25*
X165481000Y-91948000D03*
X162941000Y-91948000D03*
X160401000Y-91948000D03*
D26*
X183134000Y-77216000D03*
X184959000Y-77216000D03*
D27*
X191389000Y-93726000D03*
X191389000Y-98726000D03*
D28*
X161417000Y-76200000D03*
X161417000Y-74375000D03*
D19*
X186610000Y-85471000D03*
X184785000Y-85471000D03*
D20*
X153289000Y-93726000D03*
X151564000Y-93726000D03*
D24*
X191389000Y-103378000D03*
D25*
X193929000Y-103378000D03*
D29*
X148810500Y-74775000D03*
X148810500Y-77625000D03*
X151110500Y-77625000D03*
X151110500Y-74775000D03*
D30*
X189889000Y-88479500D03*
D31*
X191389000Y-88392000D03*
D30*
X192889000Y-88479500D03*
D32*
X147193000Y-72390000D03*
X148918000Y-72390000D03*
D33*
X166751000Y-84836000D03*
X166751000Y-86661000D03*
D32*
X149124500Y-79883000D03*
X150849500Y-79883000D03*
D19*
X151797500Y-100838000D03*
X149972500Y-100838000D03*
D34*
X191389000Y-77245000D03*
X191389000Y-80645000D03*
D26*
X174805500Y-103124000D03*
X176630500Y-103124000D03*
D24*
X157988000Y-99192000D03*
D25*
X157988000Y-96652000D03*
D21*
X188722000Y-70739000D03*
X183134000Y-70739000D03*
X188722000Y-66929000D03*
X183134000Y-66929000D03*
D20*
X167767000Y-78994000D03*
X166042000Y-78994000D03*
X153135500Y-82550000D03*
X151410500Y-82550000D03*
D26*
X184785000Y-87376000D03*
X186610000Y-87376000D03*
D24*
X158115000Y-87757000D03*
D25*
X160655000Y-87757000D03*
D35*
X146265018Y-91240060D03*
X148015018Y-91240060D03*
D20*
X172159000Y-103124000D03*
X170434000Y-103124000D03*
D19*
X153225421Y-84438869D03*
X151400421Y-84438869D03*
D33*
X154178000Y-95613000D03*
X154178000Y-97438000D03*
D36*
X149490000Y-96459000D03*
X149490000Y-97409000D03*
X149490000Y-98359000D03*
X151765000Y-98359000D03*
X151765000Y-96459000D03*
D24*
X168529000Y-69773800D03*
D25*
X168529000Y-72313800D03*
X171069000Y-69773800D03*
X171069000Y-72313800D03*
X173609000Y-69773800D03*
X173609000Y-72313800D03*
X176149000Y-69773800D03*
X176149000Y-72313800D03*
X178689000Y-69773800D03*
X178689000Y-72313800D03*
D24*
X167386000Y-96647000D03*
D25*
X167386000Y-99187000D03*
D37*
X157157500Y-78355000D03*
X157157500Y-79005000D03*
X157157500Y-79655000D03*
X157157500Y-80305000D03*
X157157500Y-80955000D03*
X157157500Y-81605000D03*
X157157500Y-82255000D03*
X157157500Y-82905000D03*
X157157500Y-83555000D03*
X157157500Y-84205000D03*
X162882500Y-84205000D03*
X162882500Y-83555000D03*
X162882500Y-82905000D03*
X162882500Y-82255000D03*
X162882500Y-81605000D03*
X162882500Y-80955000D03*
X162882500Y-80305000D03*
X162882500Y-79655000D03*
X162882500Y-79005000D03*
X162882500Y-78355000D03*
D32*
X171503000Y-81153000D03*
X173228000Y-81153000D03*
D38*
X147925000Y-88580000D03*
X147925000Y-86680000D03*
X146050000Y-87630000D03*
D26*
X183134000Y-80137000D03*
X184959000Y-80137000D03*
D24*
X178816000Y-86360000D03*
D25*
X181356000Y-86360000D03*
D19*
X183050500Y-74295000D03*
X184875500Y-74295000D03*
D35*
X146713000Y-84455000D03*
X148463000Y-84455000D03*
D28*
X157099000Y-76200000D03*
X157099000Y-74375000D03*
D39*
X170189000Y-84860000D03*
D40*
X170276500Y-86360000D03*
D39*
X170189000Y-87860000D03*
D18*
X145796000Y-96520000D03*
X145796000Y-98245000D03*
D19*
X153289000Y-91252000D03*
X151464000Y-91252000D03*
D41*
X176784000Y-78710000D03*
X176784000Y-79360000D03*
X176784000Y-80010000D03*
X179444000Y-80010000D03*
X179444000Y-78710000D03*
D25*
X162433000Y-101727000D03*
X162433000Y-99187000D03*
D24*
X162433000Y-96647000D03*
D26*
X179424500Y-103124000D03*
X181249500Y-103124000D03*
D42*
X187849892Y-75515361D03*
X187849892Y-77240361D03*
M02*
