%TF.GenerationSoftware,KiCad,Pcbnew,6.0.11+dfsg-1*%
%TF.CreationDate,2024-04-10T09:56:28+02:00*%
%TF.ProjectId,Nehari_Chauveliere_kicad_TMS,4e656861-7269-45f4-9368-617576656c69,rev?*%
%TF.SameCoordinates,Original*%
%TF.FileFunction,Drillmap*%
%TF.FilePolarity,Positive*%
%FSLAX45Y45*%
G04 Gerber Fmt 4.5, Leading zero omitted, Abs format (unit mm)*
G04 Created by KiCad (PCBNEW 6.0.11+dfsg-1) date 2024-04-10 09:56:28*
%MOMM*%
%LPD*%
G01*
G04 APERTURE LIST*
%ADD10C,0.100000*%
%ADD11C,0.200000*%
%ADD12C,0.040000*%
%ADD13C,0.070000*%
G04 APERTURE END LIST*
D10*
X19964400Y-6489700D02*
X13843000Y-6489700D01*
X13843000Y-6489700D02*
X13843000Y-10604500D01*
X13843000Y-10604500D02*
X19964400Y-10604500D01*
X19964400Y-10604500D02*
X19964400Y-6489700D01*
D11*
D12*
X14089700Y-9733600D02*
X14129700Y-9773600D01*
X14129700Y-9733600D02*
X14089700Y-9773600D01*
X14381800Y-8755700D02*
X14421800Y-8795700D01*
X14421800Y-8755700D02*
X14381800Y-8795700D01*
X14470700Y-10470200D02*
X14510700Y-10510200D01*
X14510700Y-10470200D02*
X14470700Y-10510200D01*
X14496100Y-7155500D02*
X14536100Y-7195500D01*
X14536100Y-7155500D02*
X14496100Y-7195500D01*
X14597700Y-9251000D02*
X14637700Y-9291000D01*
X14637700Y-9251000D02*
X14597700Y-9291000D01*
X14610400Y-8260400D02*
X14650400Y-8300400D01*
X14650400Y-8260400D02*
X14610400Y-8300400D01*
X14635800Y-7739700D02*
X14675800Y-7779700D01*
X14675800Y-7739700D02*
X14635800Y-7779700D01*
X14699300Y-10076500D02*
X14739300Y-10116500D01*
X14739300Y-10076500D02*
X14699300Y-10116500D01*
X14966000Y-8120700D02*
X15006000Y-8160700D01*
X15006000Y-8120700D02*
X14966000Y-8160700D01*
X15029500Y-7053900D02*
X15069500Y-7093900D01*
X15069500Y-7053900D02*
X15029500Y-7093900D01*
X15042200Y-9492300D02*
X15082200Y-9532300D01*
X15082200Y-9492300D02*
X15042200Y-9532300D01*
X15042200Y-9936800D02*
X15082200Y-9976800D01*
X15082200Y-9936800D02*
X15042200Y-9976800D01*
X15258100Y-7460300D02*
X15298100Y-7500300D01*
X15298100Y-7460300D02*
X15258100Y-7500300D01*
X15270800Y-8565200D02*
X15310800Y-8605200D01*
X15310800Y-8565200D02*
X15270800Y-8605200D01*
X15283500Y-8793800D02*
X15323500Y-8833800D01*
X15323500Y-8793800D02*
X15283500Y-8833800D01*
X15283500Y-10482900D02*
X15323500Y-10522900D01*
X15323500Y-10482900D02*
X15283500Y-10522900D01*
X15372400Y-8095300D02*
X15412400Y-8135300D01*
X15412400Y-8095300D02*
X15372400Y-8135300D01*
X15410500Y-7295200D02*
X15450500Y-7335200D01*
X15450500Y-7295200D02*
X15410500Y-7335200D01*
X15422700Y-8654600D02*
X15462700Y-8694600D01*
X15462700Y-8654600D02*
X15422700Y-8694600D01*
X15448600Y-8323900D02*
X15488600Y-8363900D01*
X15488600Y-8323900D02*
X15448600Y-8363900D01*
X15537500Y-7701600D02*
X15577500Y-7741600D01*
X15577500Y-7701600D02*
X15537500Y-7741600D01*
X15791500Y-9162100D02*
X15831500Y-9202100D01*
X15831500Y-9162100D02*
X15791500Y-9202100D01*
X16045500Y-8184200D02*
X16085500Y-8224200D01*
X16085500Y-8184200D02*
X16045500Y-8224200D01*
X16210600Y-10394000D02*
X16250600Y-10434000D01*
X16250600Y-10394000D02*
X16210600Y-10434000D01*
X16388400Y-8793800D02*
X16428400Y-8833800D01*
X16428400Y-8793800D02*
X16388400Y-8833800D01*
X16464600Y-7981000D02*
X16504600Y-8021000D01*
X16504600Y-7981000D02*
X16464600Y-8021000D01*
X16477300Y-7269800D02*
X16517300Y-7309800D01*
X16517300Y-7269800D02*
X16477300Y-7309800D01*
X16502700Y-6698300D02*
X16542700Y-6738300D01*
X16542700Y-6698300D02*
X16502700Y-6738300D01*
X16521535Y-7441035D02*
X16561535Y-7481035D01*
X16561535Y-7441035D02*
X16521535Y-7481035D01*
X16769400Y-7663500D02*
X16809400Y-7703500D01*
X16809400Y-7663500D02*
X16769400Y-7703500D01*
X16782100Y-8768400D02*
X16822100Y-8808400D01*
X16822100Y-8768400D02*
X16782100Y-8808400D01*
X16832900Y-10305100D02*
X16872900Y-10345100D01*
X16872900Y-10305100D02*
X16832900Y-10345100D01*
X16896400Y-8247700D02*
X16936400Y-8287700D01*
X16936400Y-8247700D02*
X16896400Y-8287700D01*
X17086900Y-7841300D02*
X17126900Y-7881300D01*
X17126900Y-7841300D02*
X17086900Y-7881300D01*
X17112300Y-9949500D02*
X17152300Y-9989500D01*
X17152300Y-9949500D02*
X17112300Y-9989500D01*
X17594900Y-8260400D02*
X17634900Y-8300400D01*
X17634900Y-8260400D02*
X17594900Y-8300400D01*
X17696500Y-9022400D02*
X17736500Y-9062400D01*
X17736500Y-9022400D02*
X17696500Y-9062400D01*
X17760000Y-7549200D02*
X17800000Y-7589200D01*
X17800000Y-7549200D02*
X17760000Y-7589200D01*
X17874300Y-6672900D02*
X17914300Y-6712900D01*
X17914300Y-6672900D02*
X17874300Y-6712900D01*
X17937800Y-8158800D02*
X17977800Y-8198800D01*
X17977800Y-8158800D02*
X17937800Y-8198800D01*
X18102900Y-7790500D02*
X18142900Y-7830500D01*
X18142900Y-7790500D02*
X18102900Y-7830500D01*
X18293400Y-7231700D02*
X18333400Y-7271700D01*
X18333400Y-7231700D02*
X18293400Y-7271700D01*
X18318800Y-8616000D02*
X18358800Y-8656000D01*
X18358800Y-8616000D02*
X18318800Y-8656000D01*
X18331500Y-10317800D02*
X18371500Y-10357800D01*
X18371500Y-10317800D02*
X18331500Y-10357800D01*
X18395000Y-9606600D02*
X18435000Y-9646600D01*
X18435000Y-9606600D02*
X18395000Y-9646600D01*
X18636300Y-8920800D02*
X18676300Y-8960800D01*
X18676300Y-8920800D02*
X18636300Y-8960800D01*
X18788700Y-8831900D02*
X18828700Y-8871900D01*
X18828700Y-8831900D02*
X18788700Y-8871900D01*
X18839500Y-7917500D02*
X18879500Y-7957500D01*
X18879500Y-7917500D02*
X18839500Y-7957500D01*
X19106200Y-7447600D02*
X19146200Y-7487600D01*
X19146200Y-7447600D02*
X19106200Y-7487600D01*
X19131600Y-6672900D02*
X19171600Y-6712900D01*
X19171600Y-6672900D02*
X19131600Y-6712900D01*
X19499900Y-7981000D02*
X19539900Y-8021000D01*
X19539900Y-7981000D02*
X19499900Y-8021000D01*
X19525300Y-8831900D02*
X19565300Y-8871900D01*
X19565300Y-8831900D02*
X19525300Y-8871900D01*
X19715800Y-10343200D02*
X19755800Y-10383200D01*
X19755800Y-10343200D02*
X19715800Y-10383200D01*
X19741200Y-9543100D02*
X19781200Y-9583100D01*
X19781200Y-9543100D02*
X19741200Y-9583100D01*
D13*
X14398700Y-8496300D02*
G75*
G03*
X14398700Y-8496300I-35000J0D01*
G01*
X15643300Y-9169400D02*
G75*
G03*
X15643300Y-9169400I-35000J0D01*
G01*
X15833800Y-10337800D02*
G75*
G03*
X15833800Y-10337800I-35000J0D01*
G01*
X16684700Y-10312400D02*
G75*
G03*
X16684700Y-10312400I-35000J0D01*
G01*
X17383200Y-7620000D02*
G75*
G03*
X17383200Y-7620000I-35000J0D01*
G01*
X18361100Y-9398000D02*
G75*
G03*
X18361100Y-9398000I-35000J0D01*
G01*
X18488100Y-9867900D02*
G75*
G03*
X18488100Y-9867900I-35000J0D01*
G01*
D10*
X15798800Y-9615200D02*
X15798800Y-9715200D01*
X15748800Y-9665200D02*
X15848800Y-9665200D01*
X15798800Y-9869200D02*
X15798800Y-9969200D01*
X15748800Y-9919200D02*
X15848800Y-9919200D01*
X15811500Y-8725700D02*
X15811500Y-8825700D01*
X15761500Y-8775700D02*
X15861500Y-8775700D01*
X16040100Y-9144800D02*
X16040100Y-9244800D01*
X15990100Y-9194800D02*
X16090100Y-9194800D01*
X16065500Y-8725700D02*
X16065500Y-8825700D01*
X16015500Y-8775700D02*
X16115500Y-8775700D01*
X16243300Y-9614700D02*
X16243300Y-9714700D01*
X16193300Y-9664700D02*
X16293300Y-9664700D01*
X16243300Y-9868700D02*
X16243300Y-9968700D01*
X16193300Y-9918700D02*
X16293300Y-9918700D01*
X16243300Y-10122700D02*
X16243300Y-10222700D01*
X16193300Y-10172700D02*
X16293300Y-10172700D01*
X16294100Y-9144800D02*
X16294100Y-9244800D01*
X16244100Y-9194800D02*
X16344100Y-9194800D01*
X16548100Y-9144800D02*
X16548100Y-9244800D01*
X16498100Y-9194800D02*
X16598100Y-9194800D01*
X16738600Y-9614700D02*
X16738600Y-9714700D01*
X16688600Y-9664700D02*
X16788600Y-9664700D01*
X16738600Y-9868700D02*
X16738600Y-9968700D01*
X16688600Y-9918700D02*
X16788600Y-9918700D01*
X16802100Y-9144800D02*
X16802100Y-9244800D01*
X16752100Y-9194800D02*
X16852100Y-9194800D01*
X16852900Y-6927380D02*
X16852900Y-7027380D01*
X16802900Y-6977380D02*
X16902900Y-6977380D01*
X16852900Y-7181380D02*
X16852900Y-7281380D01*
X16802900Y-7231380D02*
X16902900Y-7231380D01*
X17106900Y-6927380D02*
X17106900Y-7027380D01*
X17056900Y-6977380D02*
X17156900Y-6977380D01*
X17106900Y-7181380D02*
X17106900Y-7281380D01*
X17056900Y-7231380D02*
X17156900Y-7231380D01*
X17360900Y-6927380D02*
X17360900Y-7027380D01*
X17310900Y-6977380D02*
X17410900Y-6977380D01*
X17360900Y-7181380D02*
X17360900Y-7281380D01*
X17310900Y-7231380D02*
X17410900Y-7231380D01*
X17614900Y-6927380D02*
X17614900Y-7027380D01*
X17564900Y-6977380D02*
X17664900Y-6977380D01*
X17614900Y-7181380D02*
X17614900Y-7281380D01*
X17564900Y-7231380D02*
X17664900Y-7231380D01*
X17868900Y-6927380D02*
X17868900Y-7027380D01*
X17818900Y-6977380D02*
X17918900Y-6977380D01*
X17868900Y-7181380D02*
X17868900Y-7281380D01*
X17818900Y-7231380D02*
X17918900Y-7231380D01*
X17881600Y-8586000D02*
X17881600Y-8686000D01*
X17831600Y-8636000D02*
X17931600Y-8636000D01*
X18135600Y-8586000D02*
X18135600Y-8686000D01*
X18085600Y-8636000D02*
X18185600Y-8636000D01*
X19138900Y-10287800D02*
X19138900Y-10387800D01*
X19088900Y-10337800D02*
X19188900Y-10337800D01*
X19392900Y-10287800D02*
X19392900Y-10387800D01*
X19342900Y-10337800D02*
X19442900Y-10337800D01*
D11*
X14095619Y-10919976D02*
X14095619Y-10719976D01*
X14143238Y-10719976D01*
X14171809Y-10729500D01*
X14190857Y-10748548D01*
X14200381Y-10767595D01*
X14209905Y-10805690D01*
X14209905Y-10834262D01*
X14200381Y-10872357D01*
X14190857Y-10891405D01*
X14171809Y-10910452D01*
X14143238Y-10919976D01*
X14095619Y-10919976D01*
X14295619Y-10919976D02*
X14295619Y-10786643D01*
X14295619Y-10824738D02*
X14305143Y-10805690D01*
X14314667Y-10796167D01*
X14333714Y-10786643D01*
X14352762Y-10786643D01*
X14419428Y-10919976D02*
X14419428Y-10786643D01*
X14419428Y-10719976D02*
X14409905Y-10729500D01*
X14419428Y-10739024D01*
X14428952Y-10729500D01*
X14419428Y-10719976D01*
X14419428Y-10739024D01*
X14543238Y-10919976D02*
X14524190Y-10910452D01*
X14514667Y-10891405D01*
X14514667Y-10719976D01*
X14648000Y-10919976D02*
X14628952Y-10910452D01*
X14619428Y-10891405D01*
X14619428Y-10719976D01*
X14876571Y-10919976D02*
X14876571Y-10719976D01*
X14943238Y-10862833D01*
X15009905Y-10719976D01*
X15009905Y-10919976D01*
X15190857Y-10919976D02*
X15190857Y-10815214D01*
X15181333Y-10796167D01*
X15162286Y-10786643D01*
X15124190Y-10786643D01*
X15105143Y-10796167D01*
X15190857Y-10910452D02*
X15171809Y-10919976D01*
X15124190Y-10919976D01*
X15105143Y-10910452D01*
X15095619Y-10891405D01*
X15095619Y-10872357D01*
X15105143Y-10853310D01*
X15124190Y-10843786D01*
X15171809Y-10843786D01*
X15190857Y-10834262D01*
X15286095Y-10786643D02*
X15286095Y-10986643D01*
X15286095Y-10796167D02*
X15305143Y-10786643D01*
X15343238Y-10786643D01*
X15362286Y-10796167D01*
X15371809Y-10805690D01*
X15381333Y-10824738D01*
X15381333Y-10881881D01*
X15371809Y-10900929D01*
X15362286Y-10910452D01*
X15343238Y-10919976D01*
X15305143Y-10919976D01*
X15286095Y-10910452D01*
X15467048Y-10900929D02*
X15476571Y-10910452D01*
X15467048Y-10919976D01*
X15457524Y-10910452D01*
X15467048Y-10900929D01*
X15467048Y-10919976D01*
X15467048Y-10796167D02*
X15476571Y-10805690D01*
X15467048Y-10815214D01*
X15457524Y-10805690D01*
X15467048Y-10796167D01*
X15467048Y-10815214D01*
D12*
X13798000Y-11229500D02*
X13838000Y-11269500D01*
X13838000Y-11229500D02*
X13798000Y-11269500D01*
D11*
X14133714Y-11139976D02*
X14152762Y-11139976D01*
X14171809Y-11149500D01*
X14181333Y-11159024D01*
X14190857Y-11178071D01*
X14200381Y-11216167D01*
X14200381Y-11263786D01*
X14190857Y-11301881D01*
X14181333Y-11320928D01*
X14171809Y-11330452D01*
X14152762Y-11339976D01*
X14133714Y-11339976D01*
X14114667Y-11330452D01*
X14105143Y-11320928D01*
X14095619Y-11301881D01*
X14086095Y-11263786D01*
X14086095Y-11216167D01*
X14095619Y-11178071D01*
X14105143Y-11159024D01*
X14114667Y-11149500D01*
X14133714Y-11139976D01*
X14286095Y-11320928D02*
X14295619Y-11330452D01*
X14286095Y-11339976D01*
X14276571Y-11330452D01*
X14286095Y-11320928D01*
X14286095Y-11339976D01*
X14467048Y-11206643D02*
X14467048Y-11339976D01*
X14419428Y-11130452D02*
X14371809Y-11273309D01*
X14495619Y-11273309D01*
X14609905Y-11139976D02*
X14628952Y-11139976D01*
X14648000Y-11149500D01*
X14657524Y-11159024D01*
X14667048Y-11178071D01*
X14676571Y-11216167D01*
X14676571Y-11263786D01*
X14667048Y-11301881D01*
X14657524Y-11320928D01*
X14648000Y-11330452D01*
X14628952Y-11339976D01*
X14609905Y-11339976D01*
X14590857Y-11330452D01*
X14581333Y-11320928D01*
X14571809Y-11301881D01*
X14562286Y-11263786D01*
X14562286Y-11216167D01*
X14571809Y-11178071D01*
X14581333Y-11159024D01*
X14590857Y-11149500D01*
X14609905Y-11139976D01*
X14800381Y-11139976D02*
X14819428Y-11139976D01*
X14838476Y-11149500D01*
X14848000Y-11159024D01*
X14857524Y-11178071D01*
X14867048Y-11216167D01*
X14867048Y-11263786D01*
X14857524Y-11301881D01*
X14848000Y-11320928D01*
X14838476Y-11330452D01*
X14819428Y-11339976D01*
X14800381Y-11339976D01*
X14781333Y-11330452D01*
X14771809Y-11320928D01*
X14762286Y-11301881D01*
X14752762Y-11263786D01*
X14752762Y-11216167D01*
X14762286Y-11178071D01*
X14771809Y-11159024D01*
X14781333Y-11149500D01*
X14800381Y-11139976D01*
X14952762Y-11339976D02*
X14952762Y-11206643D01*
X14952762Y-11225690D02*
X14962286Y-11216167D01*
X14981333Y-11206643D01*
X15009905Y-11206643D01*
X15028952Y-11216167D01*
X15038476Y-11235214D01*
X15038476Y-11339976D01*
X15038476Y-11235214D02*
X15048000Y-11216167D01*
X15067048Y-11206643D01*
X15095619Y-11206643D01*
X15114667Y-11216167D01*
X15124190Y-11235214D01*
X15124190Y-11339976D01*
X15219428Y-11339976D02*
X15219428Y-11206643D01*
X15219428Y-11225690D02*
X15228952Y-11216167D01*
X15248000Y-11206643D01*
X15276571Y-11206643D01*
X15295619Y-11216167D01*
X15305143Y-11235214D01*
X15305143Y-11339976D01*
X15305143Y-11235214D02*
X15314667Y-11216167D01*
X15333714Y-11206643D01*
X15362286Y-11206643D01*
X15381333Y-11216167D01*
X15390857Y-11235214D01*
X15390857Y-11339976D01*
X15781333Y-11130452D02*
X15609905Y-11387595D01*
X16038476Y-11139976D02*
X16057524Y-11139976D01*
X16076571Y-11149500D01*
X16086095Y-11159024D01*
X16095619Y-11178071D01*
X16105143Y-11216167D01*
X16105143Y-11263786D01*
X16095619Y-11301881D01*
X16086095Y-11320928D01*
X16076571Y-11330452D01*
X16057524Y-11339976D01*
X16038476Y-11339976D01*
X16019428Y-11330452D01*
X16009905Y-11320928D01*
X16000381Y-11301881D01*
X15990857Y-11263786D01*
X15990857Y-11216167D01*
X16000381Y-11178071D01*
X16009905Y-11159024D01*
X16019428Y-11149500D01*
X16038476Y-11139976D01*
X16190857Y-11320928D02*
X16200381Y-11330452D01*
X16190857Y-11339976D01*
X16181333Y-11330452D01*
X16190857Y-11320928D01*
X16190857Y-11339976D01*
X16324190Y-11139976D02*
X16343238Y-11139976D01*
X16362286Y-11149500D01*
X16371809Y-11159024D01*
X16381333Y-11178071D01*
X16390857Y-11216167D01*
X16390857Y-11263786D01*
X16381333Y-11301881D01*
X16371809Y-11320928D01*
X16362286Y-11330452D01*
X16343238Y-11339976D01*
X16324190Y-11339976D01*
X16305143Y-11330452D01*
X16295619Y-11320928D01*
X16286095Y-11301881D01*
X16276571Y-11263786D01*
X16276571Y-11216167D01*
X16286095Y-11178071D01*
X16295619Y-11159024D01*
X16305143Y-11149500D01*
X16324190Y-11139976D01*
X16581333Y-11339976D02*
X16467048Y-11339976D01*
X16524190Y-11339976D02*
X16524190Y-11139976D01*
X16505143Y-11168548D01*
X16486095Y-11187595D01*
X16467048Y-11197119D01*
X16762286Y-11139976D02*
X16667048Y-11139976D01*
X16657524Y-11235214D01*
X16667048Y-11225690D01*
X16686095Y-11216167D01*
X16733714Y-11216167D01*
X16752762Y-11225690D01*
X16762286Y-11235214D01*
X16771809Y-11254262D01*
X16771809Y-11301881D01*
X16762286Y-11320928D01*
X16752762Y-11330452D01*
X16733714Y-11339976D01*
X16686095Y-11339976D01*
X16667048Y-11330452D01*
X16657524Y-11320928D01*
X16838476Y-11139976D02*
X16971810Y-11139976D01*
X16886095Y-11339976D01*
X17038476Y-11139976D02*
X17038476Y-11178071D01*
X17114667Y-11139976D02*
X17114667Y-11178071D01*
X17409905Y-11416167D02*
X17400381Y-11406643D01*
X17381333Y-11378071D01*
X17371810Y-11359024D01*
X17362286Y-11330452D01*
X17352762Y-11282833D01*
X17352762Y-11244738D01*
X17362286Y-11197119D01*
X17371810Y-11168548D01*
X17381333Y-11149500D01*
X17400381Y-11120929D01*
X17409905Y-11111405D01*
X17581333Y-11139976D02*
X17486095Y-11139976D01*
X17476571Y-11235214D01*
X17486095Y-11225690D01*
X17505143Y-11216167D01*
X17552762Y-11216167D01*
X17571810Y-11225690D01*
X17581333Y-11235214D01*
X17590857Y-11254262D01*
X17590857Y-11301881D01*
X17581333Y-11320928D01*
X17571810Y-11330452D01*
X17552762Y-11339976D01*
X17505143Y-11339976D01*
X17486095Y-11330452D01*
X17476571Y-11320928D01*
X17762286Y-11206643D02*
X17762286Y-11339976D01*
X17714667Y-11130452D02*
X17667048Y-11273309D01*
X17790857Y-11273309D01*
X18019429Y-11339976D02*
X18019429Y-11139976D01*
X18105143Y-11339976D02*
X18105143Y-11235214D01*
X18095619Y-11216167D01*
X18076571Y-11206643D01*
X18048000Y-11206643D01*
X18028952Y-11216167D01*
X18019429Y-11225690D01*
X18228952Y-11339976D02*
X18209905Y-11330452D01*
X18200381Y-11320928D01*
X18190857Y-11301881D01*
X18190857Y-11244738D01*
X18200381Y-11225690D01*
X18209905Y-11216167D01*
X18228952Y-11206643D01*
X18257524Y-11206643D01*
X18276571Y-11216167D01*
X18286095Y-11225690D01*
X18295619Y-11244738D01*
X18295619Y-11301881D01*
X18286095Y-11320928D01*
X18276571Y-11330452D01*
X18257524Y-11339976D01*
X18228952Y-11339976D01*
X18409905Y-11339976D02*
X18390857Y-11330452D01*
X18381333Y-11311405D01*
X18381333Y-11139976D01*
X18562286Y-11330452D02*
X18543238Y-11339976D01*
X18505143Y-11339976D01*
X18486095Y-11330452D01*
X18476571Y-11311405D01*
X18476571Y-11235214D01*
X18486095Y-11216167D01*
X18505143Y-11206643D01*
X18543238Y-11206643D01*
X18562286Y-11216167D01*
X18571810Y-11235214D01*
X18571810Y-11254262D01*
X18476571Y-11273309D01*
X18648000Y-11330452D02*
X18667048Y-11339976D01*
X18705143Y-11339976D01*
X18724190Y-11330452D01*
X18733714Y-11311405D01*
X18733714Y-11301881D01*
X18724190Y-11282833D01*
X18705143Y-11273309D01*
X18676571Y-11273309D01*
X18657524Y-11263786D01*
X18648000Y-11244738D01*
X18648000Y-11235214D01*
X18657524Y-11216167D01*
X18676571Y-11206643D01*
X18705143Y-11206643D01*
X18724190Y-11216167D01*
X18800381Y-11416167D02*
X18809905Y-11406643D01*
X18828952Y-11378071D01*
X18838476Y-11359024D01*
X18848000Y-11330452D01*
X18857524Y-11282833D01*
X18857524Y-11244738D01*
X18848000Y-11197119D01*
X18838476Y-11168548D01*
X18828952Y-11149500D01*
X18809905Y-11120929D01*
X18800381Y-11111405D01*
D13*
X13838000Y-11513500D02*
G75*
G03*
X13838000Y-11513500I-35000J0D01*
G01*
D11*
X14133714Y-11403976D02*
X14152762Y-11403976D01*
X14171809Y-11413500D01*
X14181333Y-11423024D01*
X14190857Y-11442071D01*
X14200381Y-11480167D01*
X14200381Y-11527786D01*
X14190857Y-11565881D01*
X14181333Y-11584928D01*
X14171809Y-11594452D01*
X14152762Y-11603976D01*
X14133714Y-11603976D01*
X14114667Y-11594452D01*
X14105143Y-11584928D01*
X14095619Y-11565881D01*
X14086095Y-11527786D01*
X14086095Y-11480167D01*
X14095619Y-11442071D01*
X14105143Y-11423024D01*
X14114667Y-11413500D01*
X14133714Y-11403976D01*
X14286095Y-11584928D02*
X14295619Y-11594452D01*
X14286095Y-11603976D01*
X14276571Y-11594452D01*
X14286095Y-11584928D01*
X14286095Y-11603976D01*
X14362286Y-11403976D02*
X14495619Y-11403976D01*
X14409905Y-11603976D01*
X14609905Y-11403976D02*
X14628952Y-11403976D01*
X14648000Y-11413500D01*
X14657524Y-11423024D01*
X14667048Y-11442071D01*
X14676571Y-11480167D01*
X14676571Y-11527786D01*
X14667048Y-11565881D01*
X14657524Y-11584928D01*
X14648000Y-11594452D01*
X14628952Y-11603976D01*
X14609905Y-11603976D01*
X14590857Y-11594452D01*
X14581333Y-11584928D01*
X14571809Y-11565881D01*
X14562286Y-11527786D01*
X14562286Y-11480167D01*
X14571809Y-11442071D01*
X14581333Y-11423024D01*
X14590857Y-11413500D01*
X14609905Y-11403976D01*
X14800381Y-11403976D02*
X14819428Y-11403976D01*
X14838476Y-11413500D01*
X14848000Y-11423024D01*
X14857524Y-11442071D01*
X14867048Y-11480167D01*
X14867048Y-11527786D01*
X14857524Y-11565881D01*
X14848000Y-11584928D01*
X14838476Y-11594452D01*
X14819428Y-11603976D01*
X14800381Y-11603976D01*
X14781333Y-11594452D01*
X14771809Y-11584928D01*
X14762286Y-11565881D01*
X14752762Y-11527786D01*
X14752762Y-11480167D01*
X14762286Y-11442071D01*
X14771809Y-11423024D01*
X14781333Y-11413500D01*
X14800381Y-11403976D01*
X14952762Y-11603976D02*
X14952762Y-11470643D01*
X14952762Y-11489690D02*
X14962286Y-11480167D01*
X14981333Y-11470643D01*
X15009905Y-11470643D01*
X15028952Y-11480167D01*
X15038476Y-11499214D01*
X15038476Y-11603976D01*
X15038476Y-11499214D02*
X15048000Y-11480167D01*
X15067048Y-11470643D01*
X15095619Y-11470643D01*
X15114667Y-11480167D01*
X15124190Y-11499214D01*
X15124190Y-11603976D01*
X15219428Y-11603976D02*
X15219428Y-11470643D01*
X15219428Y-11489690D02*
X15228952Y-11480167D01*
X15248000Y-11470643D01*
X15276571Y-11470643D01*
X15295619Y-11480167D01*
X15305143Y-11499214D01*
X15305143Y-11603976D01*
X15305143Y-11499214D02*
X15314667Y-11480167D01*
X15333714Y-11470643D01*
X15362286Y-11470643D01*
X15381333Y-11480167D01*
X15390857Y-11499214D01*
X15390857Y-11603976D01*
X15781333Y-11394452D02*
X15609905Y-11651595D01*
X16038476Y-11403976D02*
X16057524Y-11403976D01*
X16076571Y-11413500D01*
X16086095Y-11423024D01*
X16095619Y-11442071D01*
X16105143Y-11480167D01*
X16105143Y-11527786D01*
X16095619Y-11565881D01*
X16086095Y-11584928D01*
X16076571Y-11594452D01*
X16057524Y-11603976D01*
X16038476Y-11603976D01*
X16019428Y-11594452D01*
X16009905Y-11584928D01*
X16000381Y-11565881D01*
X15990857Y-11527786D01*
X15990857Y-11480167D01*
X16000381Y-11442071D01*
X16009905Y-11423024D01*
X16019428Y-11413500D01*
X16038476Y-11403976D01*
X16190857Y-11584928D02*
X16200381Y-11594452D01*
X16190857Y-11603976D01*
X16181333Y-11594452D01*
X16190857Y-11584928D01*
X16190857Y-11603976D01*
X16324190Y-11403976D02*
X16343238Y-11403976D01*
X16362286Y-11413500D01*
X16371809Y-11423024D01*
X16381333Y-11442071D01*
X16390857Y-11480167D01*
X16390857Y-11527786D01*
X16381333Y-11565881D01*
X16371809Y-11584928D01*
X16362286Y-11594452D01*
X16343238Y-11603976D01*
X16324190Y-11603976D01*
X16305143Y-11594452D01*
X16295619Y-11584928D01*
X16286095Y-11565881D01*
X16276571Y-11527786D01*
X16276571Y-11480167D01*
X16286095Y-11442071D01*
X16295619Y-11423024D01*
X16305143Y-11413500D01*
X16324190Y-11403976D01*
X16467048Y-11423024D02*
X16476571Y-11413500D01*
X16495619Y-11403976D01*
X16543238Y-11403976D01*
X16562286Y-11413500D01*
X16571809Y-11423024D01*
X16581333Y-11442071D01*
X16581333Y-11461119D01*
X16571809Y-11489690D01*
X16457524Y-11603976D01*
X16581333Y-11603976D01*
X16648000Y-11403976D02*
X16781333Y-11403976D01*
X16695619Y-11603976D01*
X16943238Y-11403976D02*
X16905143Y-11403976D01*
X16886095Y-11413500D01*
X16876571Y-11423024D01*
X16857524Y-11451595D01*
X16848000Y-11489690D01*
X16848000Y-11565881D01*
X16857524Y-11584928D01*
X16867048Y-11594452D01*
X16886095Y-11603976D01*
X16924190Y-11603976D01*
X16943238Y-11594452D01*
X16952762Y-11584928D01*
X16962286Y-11565881D01*
X16962286Y-11518262D01*
X16952762Y-11499214D01*
X16943238Y-11489690D01*
X16924190Y-11480167D01*
X16886095Y-11480167D01*
X16867048Y-11489690D01*
X16857524Y-11499214D01*
X16848000Y-11518262D01*
X17038476Y-11403976D02*
X17038476Y-11442071D01*
X17114667Y-11403976D02*
X17114667Y-11442071D01*
X17409905Y-11680167D02*
X17400381Y-11670643D01*
X17381333Y-11642071D01*
X17371810Y-11623024D01*
X17362286Y-11594452D01*
X17352762Y-11546833D01*
X17352762Y-11508738D01*
X17362286Y-11461119D01*
X17371810Y-11432548D01*
X17381333Y-11413500D01*
X17400381Y-11384928D01*
X17409905Y-11375405D01*
X17467048Y-11403976D02*
X17600381Y-11403976D01*
X17514667Y-11603976D01*
X17828952Y-11603976D02*
X17828952Y-11403976D01*
X17914667Y-11603976D02*
X17914667Y-11499214D01*
X17905143Y-11480167D01*
X17886095Y-11470643D01*
X17857524Y-11470643D01*
X17838476Y-11480167D01*
X17828952Y-11489690D01*
X18038476Y-11603976D02*
X18019429Y-11594452D01*
X18009905Y-11584928D01*
X18000381Y-11565881D01*
X18000381Y-11508738D01*
X18009905Y-11489690D01*
X18019429Y-11480167D01*
X18038476Y-11470643D01*
X18067048Y-11470643D01*
X18086095Y-11480167D01*
X18095619Y-11489690D01*
X18105143Y-11508738D01*
X18105143Y-11565881D01*
X18095619Y-11584928D01*
X18086095Y-11594452D01*
X18067048Y-11603976D01*
X18038476Y-11603976D01*
X18219429Y-11603976D02*
X18200381Y-11594452D01*
X18190857Y-11575405D01*
X18190857Y-11403976D01*
X18371810Y-11594452D02*
X18352762Y-11603976D01*
X18314667Y-11603976D01*
X18295619Y-11594452D01*
X18286095Y-11575405D01*
X18286095Y-11499214D01*
X18295619Y-11480167D01*
X18314667Y-11470643D01*
X18352762Y-11470643D01*
X18371810Y-11480167D01*
X18381333Y-11499214D01*
X18381333Y-11518262D01*
X18286095Y-11537309D01*
X18457524Y-11594452D02*
X18476571Y-11603976D01*
X18514667Y-11603976D01*
X18533714Y-11594452D01*
X18543238Y-11575405D01*
X18543238Y-11565881D01*
X18533714Y-11546833D01*
X18514667Y-11537309D01*
X18486095Y-11537309D01*
X18467048Y-11527786D01*
X18457524Y-11508738D01*
X18457524Y-11499214D01*
X18467048Y-11480167D01*
X18486095Y-11470643D01*
X18514667Y-11470643D01*
X18533714Y-11480167D01*
X18609905Y-11680167D02*
X18619429Y-11670643D01*
X18638476Y-11642071D01*
X18648000Y-11623024D01*
X18657524Y-11594452D01*
X18667048Y-11546833D01*
X18667048Y-11508738D01*
X18657524Y-11461119D01*
X18648000Y-11432548D01*
X18638476Y-11413500D01*
X18619429Y-11384928D01*
X18609905Y-11375405D01*
D10*
X13788000Y-11727500D02*
X13788000Y-11827500D01*
X13738000Y-11777500D02*
X13838000Y-11777500D01*
D11*
X14200381Y-11867976D02*
X14086095Y-11867976D01*
X14143238Y-11867976D02*
X14143238Y-11667976D01*
X14124190Y-11696548D01*
X14105143Y-11715595D01*
X14086095Y-11725119D01*
X14286095Y-11848928D02*
X14295619Y-11858452D01*
X14286095Y-11867976D01*
X14276571Y-11858452D01*
X14286095Y-11848928D01*
X14286095Y-11867976D01*
X14419428Y-11667976D02*
X14438476Y-11667976D01*
X14457524Y-11677500D01*
X14467048Y-11687024D01*
X14476571Y-11706071D01*
X14486095Y-11744167D01*
X14486095Y-11791786D01*
X14476571Y-11829881D01*
X14467048Y-11848928D01*
X14457524Y-11858452D01*
X14438476Y-11867976D01*
X14419428Y-11867976D01*
X14400381Y-11858452D01*
X14390857Y-11848928D01*
X14381333Y-11829881D01*
X14371809Y-11791786D01*
X14371809Y-11744167D01*
X14381333Y-11706071D01*
X14390857Y-11687024D01*
X14400381Y-11677500D01*
X14419428Y-11667976D01*
X14609905Y-11667976D02*
X14628952Y-11667976D01*
X14648000Y-11677500D01*
X14657524Y-11687024D01*
X14667048Y-11706071D01*
X14676571Y-11744167D01*
X14676571Y-11791786D01*
X14667048Y-11829881D01*
X14657524Y-11848928D01*
X14648000Y-11858452D01*
X14628952Y-11867976D01*
X14609905Y-11867976D01*
X14590857Y-11858452D01*
X14581333Y-11848928D01*
X14571809Y-11829881D01*
X14562286Y-11791786D01*
X14562286Y-11744167D01*
X14571809Y-11706071D01*
X14581333Y-11687024D01*
X14590857Y-11677500D01*
X14609905Y-11667976D01*
X14800381Y-11667976D02*
X14819428Y-11667976D01*
X14838476Y-11677500D01*
X14848000Y-11687024D01*
X14857524Y-11706071D01*
X14867048Y-11744167D01*
X14867048Y-11791786D01*
X14857524Y-11829881D01*
X14848000Y-11848928D01*
X14838476Y-11858452D01*
X14819428Y-11867976D01*
X14800381Y-11867976D01*
X14781333Y-11858452D01*
X14771809Y-11848928D01*
X14762286Y-11829881D01*
X14752762Y-11791786D01*
X14752762Y-11744167D01*
X14762286Y-11706071D01*
X14771809Y-11687024D01*
X14781333Y-11677500D01*
X14800381Y-11667976D01*
X14952762Y-11867976D02*
X14952762Y-11734643D01*
X14952762Y-11753690D02*
X14962286Y-11744167D01*
X14981333Y-11734643D01*
X15009905Y-11734643D01*
X15028952Y-11744167D01*
X15038476Y-11763214D01*
X15038476Y-11867976D01*
X15038476Y-11763214D02*
X15048000Y-11744167D01*
X15067048Y-11734643D01*
X15095619Y-11734643D01*
X15114667Y-11744167D01*
X15124190Y-11763214D01*
X15124190Y-11867976D01*
X15219428Y-11867976D02*
X15219428Y-11734643D01*
X15219428Y-11753690D02*
X15228952Y-11744167D01*
X15248000Y-11734643D01*
X15276571Y-11734643D01*
X15295619Y-11744167D01*
X15305143Y-11763214D01*
X15305143Y-11867976D01*
X15305143Y-11763214D02*
X15314667Y-11744167D01*
X15333714Y-11734643D01*
X15362286Y-11734643D01*
X15381333Y-11744167D01*
X15390857Y-11763214D01*
X15390857Y-11867976D01*
X15781333Y-11658452D02*
X15609905Y-11915595D01*
X16038476Y-11667976D02*
X16057524Y-11667976D01*
X16076571Y-11677500D01*
X16086095Y-11687024D01*
X16095619Y-11706071D01*
X16105143Y-11744167D01*
X16105143Y-11791786D01*
X16095619Y-11829881D01*
X16086095Y-11848928D01*
X16076571Y-11858452D01*
X16057524Y-11867976D01*
X16038476Y-11867976D01*
X16019428Y-11858452D01*
X16009905Y-11848928D01*
X16000381Y-11829881D01*
X15990857Y-11791786D01*
X15990857Y-11744167D01*
X16000381Y-11706071D01*
X16009905Y-11687024D01*
X16019428Y-11677500D01*
X16038476Y-11667976D01*
X16190857Y-11848928D02*
X16200381Y-11858452D01*
X16190857Y-11867976D01*
X16181333Y-11858452D01*
X16190857Y-11848928D01*
X16190857Y-11867976D01*
X16324190Y-11667976D02*
X16343238Y-11667976D01*
X16362286Y-11677500D01*
X16371809Y-11687024D01*
X16381333Y-11706071D01*
X16390857Y-11744167D01*
X16390857Y-11791786D01*
X16381333Y-11829881D01*
X16371809Y-11848928D01*
X16362286Y-11858452D01*
X16343238Y-11867976D01*
X16324190Y-11867976D01*
X16305143Y-11858452D01*
X16295619Y-11848928D01*
X16286095Y-11829881D01*
X16276571Y-11791786D01*
X16276571Y-11744167D01*
X16286095Y-11706071D01*
X16295619Y-11687024D01*
X16305143Y-11677500D01*
X16324190Y-11667976D01*
X16457524Y-11667976D02*
X16581333Y-11667976D01*
X16514667Y-11744167D01*
X16543238Y-11744167D01*
X16562286Y-11753690D01*
X16571809Y-11763214D01*
X16581333Y-11782262D01*
X16581333Y-11829881D01*
X16571809Y-11848928D01*
X16562286Y-11858452D01*
X16543238Y-11867976D01*
X16486095Y-11867976D01*
X16467048Y-11858452D01*
X16457524Y-11848928D01*
X16676571Y-11867976D02*
X16714667Y-11867976D01*
X16733714Y-11858452D01*
X16743238Y-11848928D01*
X16762286Y-11820357D01*
X16771809Y-11782262D01*
X16771809Y-11706071D01*
X16762286Y-11687024D01*
X16752762Y-11677500D01*
X16733714Y-11667976D01*
X16695619Y-11667976D01*
X16676571Y-11677500D01*
X16667048Y-11687024D01*
X16657524Y-11706071D01*
X16657524Y-11753690D01*
X16667048Y-11772738D01*
X16676571Y-11782262D01*
X16695619Y-11791786D01*
X16733714Y-11791786D01*
X16752762Y-11782262D01*
X16762286Y-11772738D01*
X16771809Y-11753690D01*
X16943238Y-11734643D02*
X16943238Y-11867976D01*
X16895619Y-11658452D02*
X16848000Y-11801309D01*
X16971810Y-11801309D01*
X17038476Y-11667976D02*
X17038476Y-11706071D01*
X17114667Y-11667976D02*
X17114667Y-11706071D01*
X17409905Y-11944167D02*
X17400381Y-11934643D01*
X17381333Y-11906071D01*
X17371810Y-11887024D01*
X17362286Y-11858452D01*
X17352762Y-11810833D01*
X17352762Y-11772738D01*
X17362286Y-11725119D01*
X17371810Y-11696548D01*
X17381333Y-11677500D01*
X17400381Y-11648928D01*
X17409905Y-11639405D01*
X17476571Y-11687024D02*
X17486095Y-11677500D01*
X17505143Y-11667976D01*
X17552762Y-11667976D01*
X17571810Y-11677500D01*
X17581333Y-11687024D01*
X17590857Y-11706071D01*
X17590857Y-11725119D01*
X17581333Y-11753690D01*
X17467048Y-11867976D01*
X17590857Y-11867976D01*
X17657524Y-11667976D02*
X17790857Y-11667976D01*
X17705143Y-11867976D01*
X18019429Y-11867976D02*
X18019429Y-11667976D01*
X18105143Y-11867976D02*
X18105143Y-11763214D01*
X18095619Y-11744167D01*
X18076571Y-11734643D01*
X18048000Y-11734643D01*
X18028952Y-11744167D01*
X18019429Y-11753690D01*
X18228952Y-11867976D02*
X18209905Y-11858452D01*
X18200381Y-11848928D01*
X18190857Y-11829881D01*
X18190857Y-11772738D01*
X18200381Y-11753690D01*
X18209905Y-11744167D01*
X18228952Y-11734643D01*
X18257524Y-11734643D01*
X18276571Y-11744167D01*
X18286095Y-11753690D01*
X18295619Y-11772738D01*
X18295619Y-11829881D01*
X18286095Y-11848928D01*
X18276571Y-11858452D01*
X18257524Y-11867976D01*
X18228952Y-11867976D01*
X18409905Y-11867976D02*
X18390857Y-11858452D01*
X18381333Y-11839405D01*
X18381333Y-11667976D01*
X18562286Y-11858452D02*
X18543238Y-11867976D01*
X18505143Y-11867976D01*
X18486095Y-11858452D01*
X18476571Y-11839405D01*
X18476571Y-11763214D01*
X18486095Y-11744167D01*
X18505143Y-11734643D01*
X18543238Y-11734643D01*
X18562286Y-11744167D01*
X18571810Y-11763214D01*
X18571810Y-11782262D01*
X18476571Y-11801309D01*
X18648000Y-11858452D02*
X18667048Y-11867976D01*
X18705143Y-11867976D01*
X18724190Y-11858452D01*
X18733714Y-11839405D01*
X18733714Y-11829881D01*
X18724190Y-11810833D01*
X18705143Y-11801309D01*
X18676571Y-11801309D01*
X18657524Y-11791786D01*
X18648000Y-11772738D01*
X18648000Y-11763214D01*
X18657524Y-11744167D01*
X18676571Y-11734643D01*
X18705143Y-11734643D01*
X18724190Y-11744167D01*
X18800381Y-11944167D02*
X18809905Y-11934643D01*
X18828952Y-11906071D01*
X18838476Y-11887024D01*
X18848000Y-11858452D01*
X18857524Y-11810833D01*
X18857524Y-11772738D01*
X18848000Y-11725119D01*
X18838476Y-11696548D01*
X18828952Y-11677500D01*
X18809905Y-11648928D01*
X18800381Y-11639405D01*
M02*
