%TF.GenerationSoftware,KiCad,Pcbnew,6.0.11+dfsg-1*%
%TF.CreationDate,2024-04-10T09:56:28+02:00*%
%TF.ProjectId,Nehari_Chauveliere_kicad_TMS,4e656861-7269-45f4-9368-617576656c69,rev?*%
%TF.SameCoordinates,Original*%
%TF.FileFunction,Drillmap*%
%TF.FilePolarity,Positive*%
%FSLAX45Y45*%
G04 Gerber Fmt 4.5, Leading zero omitted, Abs format (unit mm)*
G04 Created by KiCad (PCBNEW 6.0.11+dfsg-1) date 2024-04-10 09:56:28*
%MOMM*%
%LPD*%
G01*
G04 APERTURE LIST*
%ADD10C,0.100000*%
%ADD11C,0.200000*%
G04 APERTURE END LIST*
D10*
X19964400Y-6489700D02*
X13843000Y-6489700D01*
X13843000Y-6489700D02*
X13843000Y-10604500D01*
X13843000Y-10604500D02*
X19964400Y-10604500D01*
X19964400Y-10604500D02*
X19964400Y-6489700D01*
D11*
X14095619Y-10919976D02*
X14095619Y-10719976D01*
X14143238Y-10719976D01*
X14171809Y-10729500D01*
X14190857Y-10748548D01*
X14200381Y-10767595D01*
X14209905Y-10805690D01*
X14209905Y-10834262D01*
X14200381Y-10872357D01*
X14190857Y-10891405D01*
X14171809Y-10910452D01*
X14143238Y-10919976D01*
X14095619Y-10919976D01*
X14295619Y-10919976D02*
X14295619Y-10786643D01*
X14295619Y-10824738D02*
X14305143Y-10805690D01*
X14314667Y-10796167D01*
X14333714Y-10786643D01*
X14352762Y-10786643D01*
X14419428Y-10919976D02*
X14419428Y-10786643D01*
X14419428Y-10719976D02*
X14409905Y-10729500D01*
X14419428Y-10739024D01*
X14428952Y-10729500D01*
X14419428Y-10719976D01*
X14419428Y-10739024D01*
X14543238Y-10919976D02*
X14524190Y-10910452D01*
X14514667Y-10891405D01*
X14514667Y-10719976D01*
X14648000Y-10919976D02*
X14628952Y-10910452D01*
X14619428Y-10891405D01*
X14619428Y-10719976D01*
X14876571Y-10919976D02*
X14876571Y-10719976D01*
X14943238Y-10862833D01*
X15009905Y-10719976D01*
X15009905Y-10919976D01*
X15190857Y-10919976D02*
X15190857Y-10815214D01*
X15181333Y-10796167D01*
X15162286Y-10786643D01*
X15124190Y-10786643D01*
X15105143Y-10796167D01*
X15190857Y-10910452D02*
X15171809Y-10919976D01*
X15124190Y-10919976D01*
X15105143Y-10910452D01*
X15095619Y-10891405D01*
X15095619Y-10872357D01*
X15105143Y-10853310D01*
X15124190Y-10843786D01*
X15171809Y-10843786D01*
X15190857Y-10834262D01*
X15286095Y-10786643D02*
X15286095Y-10986643D01*
X15286095Y-10796167D02*
X15305143Y-10786643D01*
X15343238Y-10786643D01*
X15362286Y-10796167D01*
X15371809Y-10805690D01*
X15381333Y-10824738D01*
X15381333Y-10881881D01*
X15371809Y-10900929D01*
X15362286Y-10910452D01*
X15343238Y-10919976D01*
X15305143Y-10919976D01*
X15286095Y-10910452D01*
X15467048Y-10900929D02*
X15476571Y-10910452D01*
X15467048Y-10919976D01*
X15457524Y-10910452D01*
X15467048Y-10900929D01*
X15467048Y-10919976D01*
X15467048Y-10796167D02*
X15476571Y-10805690D01*
X15467048Y-10815214D01*
X15457524Y-10805690D01*
X15467048Y-10796167D01*
X15467048Y-10815214D01*
M02*
