M48
; DRILL file {KiCad 7.0.1-3b83917a11~172~ubuntu20.04.1} date Fri Aug 11 21:00:50 2023
; FORMAT={-:-/ absolute / inch / decimal}
; #@! TF.CreationDate,2023-08-11T21:00:50+02:00
; #@! TF.GenerationSoftware,Kicad,Pcbnew,7.0.1-3b83917a11~172~ubuntu20.04.1
; #@! TF.FileFunction,MixedPlating,1,2
FMAT,2
INCH
; #@! TA.AperFunction,Plated,PTH,ViaDrill
T1C0.0157
; #@! TA.AperFunction,Plated,PTH,ComponentDrill
T2C0.0394
%
G90
G05
T1
X5.14Y-1.05
X5.14Y-1.56
X5.15Y-2.4
X5.15Y-2.75
X5.16Y-3.08
X5.26Y-1.17
X5.27Y-1.39
X5.274Y-2.014
X5.34Y-1.44
X5.39Y-1.82
X5.41Y-1.2
X5.44Y-1.72
X5.44Y-3.08
X5.46Y-1.065
X5.49Y-2.4
X5.54Y-2.84
X5.58Y-1.89
X5.58Y-2.13
X5.615Y-1.165
X5.665Y-1.065
X5.718Y-1.21
X5.74Y-2.4
X5.78Y-1.89
X5.78Y-2.13
X5.79Y-1.75
X5.82Y-1.242
X5.83Y-1.9
X5.83Y-2.85
X5.865Y-1.065
X5.87Y-2.02
X5.89Y-2.288
X5.94Y-1.57
X5.964Y-1.274
X5.98Y-1.19
X5.98Y-2.18
X5.99Y-1.69
X5.99Y-1.93
X6.0Y-2.44
X6.01Y-1.528
X6.03Y-1.04
X6.03Y-1.446
X6.045Y-1.357
X6.068Y-1.8
X6.068Y-2.592
X6.068Y-2.732
X6.08Y-1.98
X6.08Y-2.49
X6.09Y-2.13
X6.138Y-1.756
X6.138Y-2.63
X6.138Y-2.714
X6.1411Y-2.0951
X6.15Y-2.24
X6.15Y-2.55
X6.16Y-1.04
X6.18Y-3.08
X6.208Y-1.712
X6.208Y-2.688
X6.22Y-2.36
X6.23Y-2.61
X6.25Y-1.46
X6.26Y-2.44
X6.29Y-1.04
X6.29Y-1.18
X6.31Y-2.52
X6.334Y-2.03
X6.36Y-2.72
X6.394Y-1.898
X6.44Y-1.84
X6.44Y-2.09
X6.45Y-1.65
X6.46Y-2.43
X6.48Y-3.0
X6.61Y-1.03
X6.61Y-1.84
X6.61Y-3.08
X6.62Y-2.08
X6.62Y-2.29
X6.78Y-1.33
X6.78Y-1.83
X6.79Y-2.5
X6.85Y-1.84
X6.89Y-2.5
X6.92Y-1.04
X7.07Y-2.25
X7.1Y-2.14
X7.12Y-1.2
X7.12Y-1.53
X7.12Y-3.08
X7.14Y-2.44
X7.15Y-2.68
X7.15Y-2.95
X7.24Y-2.35
X7.24Y-2.62
X7.24Y-2.87
X7.25Y-1.69
T2
X5.3152Y-1.108
X5.4152Y-1.108
X5.426Y-1.424
X5.426Y-1.524
X5.442Y-2.592
X5.442Y-2.692
X5.5152Y-1.108
X5.526Y-1.424
X5.526Y-1.524
X5.542Y-2.592
X5.542Y-2.692
X5.6152Y-1.108
X5.626Y-1.424
X5.626Y-1.524
X5.642Y-2.592
X5.642Y-2.692
X5.675Y-3.008
X5.7152Y-1.108
X5.726Y-1.424
X5.726Y-1.524
X5.742Y-2.592
X5.742Y-2.692
X5.775Y-3.008
X5.8152Y-1.108
X5.875Y-3.008
X5.9152Y-1.108
X5.975Y-3.008
X6.0152Y-1.108
X6.075Y-3.008
X6.1152Y-1.108
X6.175Y-3.008
X6.2152Y-1.108
X6.275Y-3.008
X6.375Y-1.108
X6.375Y-3.008
X6.475Y-1.108
X6.478Y-2.588
X6.478Y-2.688
X6.486Y-1.422
X6.486Y-1.522
X6.575Y-1.108
X6.575Y-3.008
X6.578Y-2.588
X6.578Y-2.688
X6.586Y-1.422
X6.586Y-1.522
X6.675Y-1.108
X6.675Y-3.008
X6.678Y-2.588
X6.678Y-2.688
X6.686Y-1.422
X6.686Y-1.522
X6.775Y-1.108
X6.775Y-3.008
X6.778Y-2.588
X6.778Y-2.688
X6.786Y-1.422
X6.786Y-1.522
X6.875Y-1.108
X6.875Y-3.008
X6.884Y-1.908
X6.884Y-2.008
X6.884Y-2.108
X6.884Y-2.208
X6.975Y-1.108
X6.975Y-3.008
X6.984Y-1.908
X6.984Y-2.008
X6.984Y-2.108
X6.984Y-2.208
X7.075Y-1.108
X7.075Y-3.008
T0
M30
