%TF.GenerationSoftware,KiCad,Pcbnew,7.0.1-3b83917a11~172~ubuntu20.04.1*%
%TF.CreationDate,2023-08-11T21:00:57+02:00*%
%TF.ProjectId,PicoShield,5069636f-5368-4696-956c-642e6b696361,rev?*%
%TF.SameCoordinates,Original*%
%TF.FileFunction,Soldermask,Top*%
%TF.FilePolarity,Negative*%
%FSLAX46Y46*%
G04 Gerber Fmt 4.6, Leading zero omitted, Abs format (unit mm)*
G04 Created by KiCad (PCBNEW 7.0.1-3b83917a11~172~ubuntu20.04.1) date 2023-08-11 21:00:57*
%MOMM*%
%LPD*%
G01*
G04 APERTURE LIST*
G04 Aperture macros list*
%AMRoundRect*
0 Rectangle with rounded corners*
0 $1 Rounding radius*
0 $2 $3 $4 $5 $6 $7 $8 $9 X,Y pos of 4 corners*
0 Add a 4 corners polygon primitive as box body*
4,1,4,$2,$3,$4,$5,$6,$7,$8,$9,$2,$3,0*
0 Add four circle primitives for the rounded corners*
1,1,$1+$1,$2,$3*
1,1,$1+$1,$4,$5*
1,1,$1+$1,$6,$7*
1,1,$1+$1,$8,$9*
0 Add four rect primitives between the rounded corners*
20,1,$1+$1,$2,$3,$4,$5,0*
20,1,$1+$1,$4,$5,$6,$7,0*
20,1,$1+$1,$6,$7,$8,$9,0*
20,1,$1+$1,$8,$9,$2,$3,0*%
G04 Aperture macros list end*
%ADD10RoundRect,0.237500X0.237500X-0.250000X0.237500X0.250000X-0.237500X0.250000X-0.237500X-0.250000X0*%
%ADD11RoundRect,0.237500X0.250000X0.237500X-0.250000X0.237500X-0.250000X-0.237500X0.250000X-0.237500X0*%
%ADD12R,1.700000X1.700000*%
%ADD13O,1.700000X1.700000*%
%ADD14RoundRect,0.237500X0.287500X0.237500X-0.287500X0.237500X-0.287500X-0.237500X0.287500X-0.237500X0*%
%ADD15RoundRect,0.150000X-0.150000X0.825000X-0.150000X-0.825000X0.150000X-0.825000X0.150000X0.825000X0*%
%ADD16RoundRect,0.237500X-0.287500X-0.237500X0.287500X-0.237500X0.287500X0.237500X-0.287500X0.237500X0*%
%ADD17R,1.750000X0.700000*%
%ADD18R,1.000000X1.450000*%
%ADD19R,1.550000X1.000000*%
%ADD20R,1.500000X0.800000*%
%ADD21R,1.500000X1.300000*%
%ADD22R,1.500000X1.500000*%
%ADD23R,1.400000X0.800000*%
%ADD24RoundRect,0.237500X-0.250000X-0.237500X0.250000X-0.237500X0.250000X0.237500X-0.250000X0.237500X0*%
%ADD25R,1.600000X1.600000*%
%ADD26O,1.600000X1.600000*%
G04 APERTURE END LIST*
D10*
%TO.C,R4*%
X149606000Y-57554500D03*
X149606000Y-55729500D03*
%TD*%
D11*
%TO.C,R7*%
X171801800Y-48463200D03*
X169976800Y-48463200D03*
%TD*%
D12*
%TO.C,J1*%
X138226800Y-68376800D03*
D13*
X138226800Y-65836800D03*
X140766800Y-68376800D03*
X140766800Y-65836800D03*
X143306800Y-68376800D03*
X143306800Y-65836800D03*
X145846800Y-68376800D03*
X145846800Y-65836800D03*
%TD*%
D12*
%TO.C,J5*%
X172364400Y-36118800D03*
D13*
X172364400Y-38658800D03*
X169824400Y-36118800D03*
X169824400Y-38658800D03*
X167284400Y-36118800D03*
X167284400Y-38658800D03*
X164744400Y-36118800D03*
X164744400Y-38658800D03*
%TD*%
D12*
%TO.C,J2*%
X164541200Y-68275200D03*
D13*
X164541200Y-65735200D03*
X167081200Y-68275200D03*
X167081200Y-65735200D03*
X169621200Y-68275200D03*
X169621200Y-65735200D03*
X172161200Y-68275200D03*
X172161200Y-65735200D03*
%TD*%
D11*
%TO.C,R3*%
X152702900Y-45669200D03*
X150877900Y-45669200D03*
%TD*%
%TO.C,R1*%
X159865700Y-47142400D03*
X158040700Y-47142400D03*
%TD*%
D14*
%TO.C,D5*%
X134885400Y-40894000D03*
X133135400Y-40894000D03*
%TD*%
D15*
%TO.C,U1*%
X155983400Y-48266000D03*
X154713400Y-48266000D03*
X153443400Y-48266000D03*
X152173400Y-48266000D03*
X150903400Y-48266000D03*
X149633400Y-48266000D03*
X148363400Y-48266000D03*
X148363400Y-53216000D03*
X149633400Y-53216000D03*
X150903400Y-53216000D03*
X152173400Y-53216000D03*
X153443400Y-53216000D03*
X154713400Y-53216000D03*
X155983400Y-53216000D03*
%TD*%
D14*
%TO.C,D4*%
X161860200Y-40741600D03*
X160110200Y-40741600D03*
%TD*%
D12*
%TO.C,J6*%
X145440400Y-36169600D03*
D13*
X145440400Y-38709600D03*
X142900400Y-36169600D03*
X142900400Y-38709600D03*
X140360400Y-36169600D03*
X140360400Y-38709600D03*
X137820400Y-36169600D03*
X137820400Y-38709600D03*
%TD*%
D12*
%TO.C,J4*%
X177393600Y-56083200D03*
D13*
X174853600Y-56083200D03*
X177393600Y-53543200D03*
X174853600Y-53543200D03*
X177393600Y-51003200D03*
X174853600Y-51003200D03*
X177393600Y-48463200D03*
X174853600Y-48463200D03*
%TD*%
D16*
%TO.C,D2*%
X175045400Y-63601600D03*
X176795400Y-63601600D03*
%TD*%
D17*
%TO.C,J3*%
X133987000Y-54496800D03*
X133987000Y-53396800D03*
X133987000Y-52296800D03*
X133987000Y-51196800D03*
X133987000Y-50096800D03*
X133987000Y-48996800D03*
X133987000Y-47896800D03*
X133987000Y-46796800D03*
D18*
X143212000Y-45671800D03*
D19*
X144787000Y-56896800D03*
D20*
X141712000Y-45346800D03*
D21*
X134112000Y-45596800D03*
D22*
X134112000Y-56946800D03*
D23*
X142362000Y-57296800D03*
%TD*%
D24*
%TO.C,R2*%
X148642700Y-65836800D03*
X150467700Y-65836800D03*
%TD*%
%TO.C,R6*%
X174957100Y-65684400D03*
X176782100Y-65684400D03*
%TD*%
D14*
%TO.C,D3*%
X171715400Y-46482000D03*
X169965400Y-46482000D03*
%TD*%
D16*
%TO.C,D1*%
X148680200Y-63906400D03*
X150430200Y-63906400D03*
%TD*%
D11*
%TO.C,R9*%
X134922900Y-38709600D03*
X133097900Y-38709600D03*
%TD*%
%TO.C,R8*%
X161948500Y-38658800D03*
X160123500Y-38658800D03*
%TD*%
D10*
%TO.C,R5*%
X153466800Y-57706900D03*
X153466800Y-55881900D03*
%TD*%
D25*
%TO.C,A1*%
X144145000Y-76403200D03*
D26*
X146685000Y-76403200D03*
X149225000Y-76403200D03*
X151765000Y-76403200D03*
X154305000Y-76403200D03*
X156845000Y-76403200D03*
X159385000Y-76403200D03*
X161925000Y-76403200D03*
X167005000Y-76403200D03*
X169545000Y-76403200D03*
X172085000Y-76403200D03*
X174625000Y-76403200D03*
X177165000Y-76403200D03*
X179705000Y-76403200D03*
X179705000Y-28143200D03*
X177165000Y-28143200D03*
X174625000Y-28143200D03*
X172085000Y-28143200D03*
X169545000Y-28143200D03*
X167005000Y-28143200D03*
X164465000Y-28143200D03*
X161925000Y-28143200D03*
X157865000Y-28143200D03*
X155325000Y-28143200D03*
X152785000Y-28143200D03*
X150245000Y-28143200D03*
X147705000Y-28143200D03*
X145165000Y-28143200D03*
X142625000Y-28143200D03*
X140085000Y-28143200D03*
X137545000Y-28143200D03*
X135005000Y-28143200D03*
%TD*%
M02*
