%TF.GenerationSoftware,KiCad,Pcbnew,7.0.1-3b83917a11~172~ubuntu20.04.1*%
%TF.CreationDate,2023-08-11T21:00:57+02:00*%
%TF.ProjectId,PicoShield,5069636f-5368-4696-956c-642e6b696361,rev?*%
%TF.SameCoordinates,Original*%
%TF.FileFunction,Paste,Top*%
%TF.FilePolarity,Positive*%
%FSLAX46Y46*%
G04 Gerber Fmt 4.6, Leading zero omitted, Abs format (unit mm)*
G04 Created by KiCad (PCBNEW 7.0.1-3b83917a11~172~ubuntu20.04.1) date 2023-08-11 21:00:57*
%MOMM*%
%LPD*%
G01*
G04 APERTURE LIST*
G04 Aperture macros list*
%AMRoundRect*
0 Rectangle with rounded corners*
0 $1 Rounding radius*
0 $2 $3 $4 $5 $6 $7 $8 $9 X,Y pos of 4 corners*
0 Add a 4 corners polygon primitive as box body*
4,1,4,$2,$3,$4,$5,$6,$7,$8,$9,$2,$3,0*
0 Add four circle primitives for the rounded corners*
1,1,$1+$1,$2,$3*
1,1,$1+$1,$4,$5*
1,1,$1+$1,$6,$7*
1,1,$1+$1,$8,$9*
0 Add four rect primitives between the rounded corners*
20,1,$1+$1,$2,$3,$4,$5,0*
20,1,$1+$1,$4,$5,$6,$7,0*
20,1,$1+$1,$6,$7,$8,$9,0*
20,1,$1+$1,$8,$9,$2,$3,0*%
G04 Aperture macros list end*
%ADD10RoundRect,0.237500X0.237500X-0.250000X0.237500X0.250000X-0.237500X0.250000X-0.237500X-0.250000X0*%
%ADD11RoundRect,0.237500X0.250000X0.237500X-0.250000X0.237500X-0.250000X-0.237500X0.250000X-0.237500X0*%
%ADD12RoundRect,0.237500X0.287500X0.237500X-0.287500X0.237500X-0.287500X-0.237500X0.287500X-0.237500X0*%
%ADD13RoundRect,0.150000X-0.150000X0.825000X-0.150000X-0.825000X0.150000X-0.825000X0.150000X0.825000X0*%
%ADD14RoundRect,0.237500X-0.287500X-0.237500X0.287500X-0.237500X0.287500X0.237500X-0.287500X0.237500X0*%
%ADD15R,1.750000X0.700000*%
%ADD16R,1.000000X1.450000*%
%ADD17R,1.550000X1.000000*%
%ADD18R,1.500000X0.800000*%
%ADD19R,1.500000X1.300000*%
%ADD20R,1.500000X1.500000*%
%ADD21R,1.400000X0.800000*%
%ADD22RoundRect,0.237500X-0.250000X-0.237500X0.250000X-0.237500X0.250000X0.237500X-0.250000X0.237500X0*%
G04 APERTURE END LIST*
D10*
%TO.C,R4*%
X149606000Y-57554500D03*
X149606000Y-55729500D03*
%TD*%
D11*
%TO.C,R7*%
X171801800Y-48463200D03*
X169976800Y-48463200D03*
%TD*%
%TO.C,R3*%
X152702900Y-45669200D03*
X150877900Y-45669200D03*
%TD*%
%TO.C,R1*%
X159865700Y-47142400D03*
X158040700Y-47142400D03*
%TD*%
D12*
%TO.C,D5*%
X134885400Y-40894000D03*
X133135400Y-40894000D03*
%TD*%
D13*
%TO.C,U1*%
X155983400Y-48266000D03*
X154713400Y-48266000D03*
X153443400Y-48266000D03*
X152173400Y-48266000D03*
X150903400Y-48266000D03*
X149633400Y-48266000D03*
X148363400Y-48266000D03*
X148363400Y-53216000D03*
X149633400Y-53216000D03*
X150903400Y-53216000D03*
X152173400Y-53216000D03*
X153443400Y-53216000D03*
X154713400Y-53216000D03*
X155983400Y-53216000D03*
%TD*%
D12*
%TO.C,D4*%
X161860200Y-40741600D03*
X160110200Y-40741600D03*
%TD*%
D14*
%TO.C,D2*%
X175045400Y-63601600D03*
X176795400Y-63601600D03*
%TD*%
D15*
%TO.C,J3*%
X133987000Y-54496800D03*
X133987000Y-53396800D03*
X133987000Y-52296800D03*
X133987000Y-51196800D03*
X133987000Y-50096800D03*
X133987000Y-48996800D03*
X133987000Y-47896800D03*
X133987000Y-46796800D03*
D16*
X143212000Y-45671800D03*
D17*
X144787000Y-56896800D03*
D18*
X141712000Y-45346800D03*
D19*
X134112000Y-45596800D03*
D20*
X134112000Y-56946800D03*
D21*
X142362000Y-57296800D03*
%TD*%
D22*
%TO.C,R2*%
X148642700Y-65836800D03*
X150467700Y-65836800D03*
%TD*%
%TO.C,R6*%
X174957100Y-65684400D03*
X176782100Y-65684400D03*
%TD*%
D12*
%TO.C,D3*%
X171715400Y-46482000D03*
X169965400Y-46482000D03*
%TD*%
D14*
%TO.C,D1*%
X148680200Y-63906400D03*
X150430200Y-63906400D03*
%TD*%
D11*
%TO.C,R9*%
X134922900Y-38709600D03*
X133097900Y-38709600D03*
%TD*%
%TO.C,R8*%
X161948500Y-38658800D03*
X160123500Y-38658800D03*
%TD*%
D10*
%TO.C,R5*%
X153466800Y-57706900D03*
X153466800Y-55881900D03*
%TD*%
M02*
