%TF.GenerationSoftware,KiCad,Pcbnew,7.0.1-3b83917a11~172~ubuntu20.04.1*%
%TF.CreationDate,2023-08-11T21:00:57+02:00*%
%TF.ProjectId,PicoShield,5069636f-5368-4696-956c-642e6b696361,rev?*%
%TF.SameCoordinates,Original*%
%TF.FileFunction,Legend,Bot*%
%TF.FilePolarity,Positive*%
%FSLAX46Y46*%
G04 Gerber Fmt 4.6, Leading zero omitted, Abs format (unit mm)*
G04 Created by KiCad (PCBNEW 7.0.1-3b83917a11~172~ubuntu20.04.1) date 2023-08-11 21:00:57*
%MOMM*%
%LPD*%
G01*
G04 APERTURE LIST*
%ADD10C,0.150000*%
%ADD11C,0.120000*%
G04 APERTURE END LIST*
D10*
%TO.C,A1*%
X141506485Y-76580104D02*
X141030295Y-76580104D01*
X141601723Y-76865819D02*
X141268390Y-75865819D01*
X141268390Y-75865819D02*
X140935057Y-76865819D01*
X140077914Y-76865819D02*
X140649342Y-76865819D01*
X140363628Y-76865819D02*
X140363628Y-75865819D01*
X140363628Y-75865819D02*
X140458866Y-76008676D01*
X140458866Y-76008676D02*
X140554104Y-76103914D01*
X140554104Y-76103914D02*
X140649342Y-76151533D01*
D11*
X109725000Y-35003200D02*
X116075000Y-35003200D01*
X109725000Y-46683200D02*
X109725000Y-35003200D01*
X114175000Y-66753200D02*
X116075000Y-66753200D01*
X114175000Y-75893200D02*
X114175000Y-66753200D01*
X116075000Y-25473200D02*
X180725000Y-25473200D01*
X116075000Y-35003200D02*
X116075000Y-25473200D01*
X116075000Y-46683200D02*
X109725000Y-46683200D01*
X116075000Y-66753200D02*
X116075000Y-46683200D01*
X116075000Y-75893200D02*
X114175000Y-75893200D01*
X116075000Y-79073200D02*
X116075000Y-75893200D01*
X180725000Y-25473200D02*
X182375000Y-27123200D01*
X182375000Y-27123200D02*
X182375000Y-38553200D01*
X182375000Y-38553200D02*
X184915000Y-41093200D01*
X182375000Y-76403200D02*
X182375000Y-79073200D01*
X182375000Y-79073200D02*
X116075000Y-79073200D01*
X184915000Y-41093200D02*
X184915000Y-73863200D01*
X184915000Y-73863200D02*
X182375000Y-76403200D01*
%TD*%
M02*
