%TF.GenerationSoftware,KiCad,Pcbnew,7.0.1-3b83917a11~172~ubuntu20.04.1*%
%TF.CreationDate,2023-08-11T21:00:56+02:00*%
%TF.ProjectId,PicoShield,5069636f-5368-4696-956c-642e6b696361,rev?*%
%TF.SameCoordinates,Original*%
%TF.FileFunction,Copper,L1,Top*%
%TF.FilePolarity,Positive*%
%FSLAX46Y46*%
G04 Gerber Fmt 4.6, Leading zero omitted, Abs format (unit mm)*
G04 Created by KiCad (PCBNEW 7.0.1-3b83917a11~172~ubuntu20.04.1) date 2023-08-11 21:00:56*
%MOMM*%
%LPD*%
G01*
G04 APERTURE LIST*
G04 Aperture macros list*
%AMRoundRect*
0 Rectangle with rounded corners*
0 $1 Rounding radius*
0 $2 $3 $4 $5 $6 $7 $8 $9 X,Y pos of 4 corners*
0 Add a 4 corners polygon primitive as box body*
4,1,4,$2,$3,$4,$5,$6,$7,$8,$9,$2,$3,0*
0 Add four circle primitives for the rounded corners*
1,1,$1+$1,$2,$3*
1,1,$1+$1,$4,$5*
1,1,$1+$1,$6,$7*
1,1,$1+$1,$8,$9*
0 Add four rect primitives between the rounded corners*
20,1,$1+$1,$2,$3,$4,$5,0*
20,1,$1+$1,$4,$5,$6,$7,0*
20,1,$1+$1,$6,$7,$8,$9,0*
20,1,$1+$1,$8,$9,$2,$3,0*%
G04 Aperture macros list end*
%TA.AperFunction,SMDPad,CuDef*%
%ADD10RoundRect,0.237500X0.237500X-0.250000X0.237500X0.250000X-0.237500X0.250000X-0.237500X-0.250000X0*%
%TD*%
%TA.AperFunction,SMDPad,CuDef*%
%ADD11RoundRect,0.237500X0.250000X0.237500X-0.250000X0.237500X-0.250000X-0.237500X0.250000X-0.237500X0*%
%TD*%
%TA.AperFunction,ComponentPad*%
%ADD12R,1.700000X1.700000*%
%TD*%
%TA.AperFunction,ComponentPad*%
%ADD13O,1.700000X1.700000*%
%TD*%
%TA.AperFunction,SMDPad,CuDef*%
%ADD14RoundRect,0.237500X0.287500X0.237500X-0.287500X0.237500X-0.287500X-0.237500X0.287500X-0.237500X0*%
%TD*%
%TA.AperFunction,SMDPad,CuDef*%
%ADD15RoundRect,0.150000X-0.150000X0.825000X-0.150000X-0.825000X0.150000X-0.825000X0.150000X0.825000X0*%
%TD*%
%TA.AperFunction,SMDPad,CuDef*%
%ADD16RoundRect,0.237500X-0.287500X-0.237500X0.287500X-0.237500X0.287500X0.237500X-0.287500X0.237500X0*%
%TD*%
%TA.AperFunction,SMDPad,CuDef*%
%ADD17R,1.750000X0.700000*%
%TD*%
%TA.AperFunction,SMDPad,CuDef*%
%ADD18R,1.000000X1.450000*%
%TD*%
%TA.AperFunction,SMDPad,CuDef*%
%ADD19R,1.550000X1.000000*%
%TD*%
%TA.AperFunction,SMDPad,CuDef*%
%ADD20R,1.500000X0.800000*%
%TD*%
%TA.AperFunction,SMDPad,CuDef*%
%ADD21R,1.500000X1.300000*%
%TD*%
%TA.AperFunction,SMDPad,CuDef*%
%ADD22R,1.500000X1.500000*%
%TD*%
%TA.AperFunction,SMDPad,CuDef*%
%ADD23R,1.400000X0.800000*%
%TD*%
%TA.AperFunction,SMDPad,CuDef*%
%ADD24RoundRect,0.237500X-0.250000X-0.237500X0.250000X-0.237500X0.250000X0.237500X-0.250000X0.237500X0*%
%TD*%
%TA.AperFunction,ComponentPad*%
%ADD25R,1.600000X1.600000*%
%TD*%
%TA.AperFunction,ComponentPad*%
%ADD26O,1.600000X1.600000*%
%TD*%
%TA.AperFunction,ViaPad*%
%ADD27C,0.800000*%
%TD*%
%TA.AperFunction,Conductor*%
%ADD28C,0.250000*%
%TD*%
%TA.AperFunction,Conductor*%
%ADD29C,0.600000*%
%TD*%
G04 APERTURE END LIST*
D10*
%TO.P,R4,1*%
%TO.N,CS1*%
X149606000Y-57554500D03*
%TO.P,R4,2*%
%TO.N,Net-(R4-Pad2)*%
X149606000Y-55729500D03*
%TD*%
D11*
%TO.P,R7,1*%
%TO.N,CS4*%
X171801800Y-48463200D03*
%TO.P,R7,2*%
%TO.N,Net-(D3-A)*%
X169976800Y-48463200D03*
%TD*%
D12*
%TO.P,J1,1,Pin_1*%
%TO.N,GND*%
X138226800Y-68376800D03*
D13*
%TO.P,J1,2,Pin_2*%
%TO.N,+5V*%
X138226800Y-65836800D03*
%TO.P,J1,3,Pin_3*%
%TO.N,MOSI*%
X140766800Y-68376800D03*
%TO.P,J1,4,Pin_4*%
%TO.N,INT1*%
X140766800Y-65836800D03*
%TO.P,J1,5,Pin_5*%
%TO.N,MISO*%
X143306800Y-68376800D03*
%TO.P,J1,6,Pin_6*%
%TO.N,RST1*%
X143306800Y-65836800D03*
%TO.P,J1,7,Pin_7*%
%TO.N,SCK*%
X145846800Y-68376800D03*
%TO.P,J1,8,Pin_8*%
%TO.N,CS2*%
X145846800Y-65836800D03*
%TD*%
D12*
%TO.P,J5,1,Pin_1*%
%TO.N,GND*%
X172364400Y-36118800D03*
D13*
%TO.P,J5,2,Pin_2*%
%TO.N,+5V*%
X172364400Y-38658800D03*
%TO.P,J5,3,Pin_3*%
%TO.N,MOSI*%
X169824400Y-36118800D03*
%TO.P,J5,4,Pin_4*%
%TO.N,INT4*%
X169824400Y-38658800D03*
%TO.P,J5,5,Pin_5*%
%TO.N,MISO*%
X167284400Y-36118800D03*
%TO.P,J5,6,Pin_6*%
%TO.N,RST4*%
X167284400Y-38658800D03*
%TO.P,J5,7,Pin_7*%
%TO.N,SCK*%
X164744400Y-36118800D03*
%TO.P,J5,8,Pin_8*%
%TO.N,CS5*%
X164744400Y-38658800D03*
%TD*%
D12*
%TO.P,J2,1,Pin_1*%
%TO.N,GND*%
X164541200Y-68275200D03*
D13*
%TO.P,J2,2,Pin_2*%
%TO.N,+5V*%
X164541200Y-65735200D03*
%TO.P,J2,3,Pin_3*%
%TO.N,MOSI*%
X167081200Y-68275200D03*
%TO.P,J2,4,Pin_4*%
%TO.N,INT2*%
X167081200Y-65735200D03*
%TO.P,J2,5,Pin_5*%
%TO.N,MISO*%
X169621200Y-68275200D03*
%TO.P,J2,6,Pin_6*%
%TO.N,RST2*%
X169621200Y-65735200D03*
%TO.P,J2,7,Pin_7*%
%TO.N,SCK*%
X172161200Y-68275200D03*
%TO.P,J2,8,Pin_8*%
%TO.N,CS3*%
X172161200Y-65735200D03*
%TD*%
D11*
%TO.P,R3,1*%
%TO.N,SCK*%
X152702900Y-45669200D03*
%TO.P,R3,2*%
%TO.N,Net-(R3-Pad2)*%
X150877900Y-45669200D03*
%TD*%
%TO.P,R1,1*%
%TO.N,MOSI*%
X159865700Y-47142400D03*
%TO.P,R1,2*%
%TO.N,Net-(R1-Pad2)*%
X158040700Y-47142400D03*
%TD*%
D14*
%TO.P,D5,1,K*%
%TO.N,GND*%
X134885400Y-40894000D03*
%TO.P,D5,2,A*%
%TO.N,Net-(D5-A)*%
X133135400Y-40894000D03*
%TD*%
D15*
%TO.P,U1,1*%
%TO.N,GND*%
X155983400Y-48266000D03*
%TO.P,U1,2*%
%TO.N,Net-(R1-Pad2)*%
X154713400Y-48266000D03*
%TO.P,U1,3*%
%TO.N,MOSI_1*%
X153443400Y-48266000D03*
%TO.P,U1,4*%
%TO.N,GND*%
X152173400Y-48266000D03*
%TO.P,U1,5*%
%TO.N,Net-(R3-Pad2)*%
X150903400Y-48266000D03*
%TO.P,U1,6*%
%TO.N,SCK_1*%
X149633400Y-48266000D03*
%TO.P,U1,7,GND*%
%TO.N,GND*%
X148363400Y-48266000D03*
%TO.P,U1,8*%
%TO.N,CS1_1*%
X148363400Y-53216000D03*
%TO.P,U1,9*%
%TO.N,Net-(R4-Pad2)*%
X149633400Y-53216000D03*
%TO.P,U1,10*%
%TO.N,GND*%
X150903400Y-53216000D03*
%TO.P,U1,11*%
%TO.N,MISO*%
X152173400Y-53216000D03*
%TO.P,U1,12*%
%TO.N,Net-(R5-Pad2)*%
X153443400Y-53216000D03*
%TO.P,U1,13*%
%TO.N,GND*%
X154713400Y-53216000D03*
%TO.P,U1,14,VCC*%
%TO.N,+3V3*%
X155983400Y-53216000D03*
%TD*%
D14*
%TO.P,D4,1,K*%
%TO.N,GND*%
X161860200Y-40741600D03*
%TO.P,D4,2,A*%
%TO.N,Net-(D4-A)*%
X160110200Y-40741600D03*
%TD*%
D12*
%TO.P,J6,1,Pin_1*%
%TO.N,GND*%
X145440400Y-36169600D03*
D13*
%TO.P,J6,2,Pin_2*%
%TO.N,+5V*%
X145440400Y-38709600D03*
%TO.P,J6,3,Pin_3*%
%TO.N,MOSI*%
X142900400Y-36169600D03*
%TO.P,J6,4,Pin_4*%
%TO.N,INT5*%
X142900400Y-38709600D03*
%TO.P,J6,5,Pin_5*%
%TO.N,MISO*%
X140360400Y-36169600D03*
%TO.P,J6,6,Pin_6*%
%TO.N,RST5*%
X140360400Y-38709600D03*
%TO.P,J6,7,Pin_7*%
%TO.N,SCK*%
X137820400Y-36169600D03*
%TO.P,J6,8,Pin_8*%
%TO.N,CS6*%
X137820400Y-38709600D03*
%TD*%
D12*
%TO.P,J4,1,Pin_1*%
%TO.N,GND*%
X177393600Y-56083200D03*
D13*
%TO.P,J4,2,Pin_2*%
%TO.N,+5V*%
X174853600Y-56083200D03*
%TO.P,J4,3,Pin_3*%
%TO.N,MOSI*%
X177393600Y-53543200D03*
%TO.P,J4,4,Pin_4*%
%TO.N,INT3*%
X174853600Y-53543200D03*
%TO.P,J4,5,Pin_5*%
%TO.N,MISO*%
X177393600Y-51003200D03*
%TO.P,J4,6,Pin_6*%
%TO.N,RST3*%
X174853600Y-51003200D03*
%TO.P,J4,7,Pin_7*%
%TO.N,SCK*%
X177393600Y-48463200D03*
%TO.P,J4,8,Pin_8*%
%TO.N,CS4*%
X174853600Y-48463200D03*
%TD*%
D16*
%TO.P,D2,1,K*%
%TO.N,GND*%
X175045400Y-63601600D03*
%TO.P,D2,2,A*%
%TO.N,Net-(D2-A)*%
X176795400Y-63601600D03*
%TD*%
D17*
%TO.P,J3,1,DAT2*%
%TO.N,unconnected-(J3-DAT2-Pad1)*%
X133987000Y-54496800D03*
%TO.P,J3,2,DAT3/CD*%
%TO.N,CS1_1*%
X133987000Y-53396800D03*
%TO.P,J3,3,CMD*%
%TO.N,MOSI_1*%
X133987000Y-52296800D03*
%TO.P,J3,4,VDD*%
%TO.N,+3V3*%
X133987000Y-51196800D03*
%TO.P,J3,5,CLK*%
%TO.N,SCK_1*%
X133987000Y-50096800D03*
%TO.P,J3,6,VSS*%
%TO.N,GND*%
X133987000Y-48996800D03*
%TO.P,J3,7,DAT0*%
%TO.N,MISO_1*%
X133987000Y-47896800D03*
%TO.P,J3,8,DAT1*%
%TO.N,unconnected-(J3-DAT1-Pad8)*%
X133987000Y-46796800D03*
D18*
%TO.P,J3,9,SHIELD*%
%TO.N,GND*%
X143212000Y-45671800D03*
D19*
%TO.P,J3,10*%
%TO.N,N/C*%
X144787000Y-56896800D03*
D20*
%TO.P,J3,11*%
X141712000Y-45346800D03*
D21*
X134112000Y-45596800D03*
D22*
X134112000Y-56946800D03*
D23*
X142362000Y-57296800D03*
%TD*%
D24*
%TO.P,R2,1*%
%TO.N,CS2*%
X148642700Y-65836800D03*
%TO.P,R2,2*%
%TO.N,Net-(D1-A)*%
X150467700Y-65836800D03*
%TD*%
%TO.P,R6,1*%
%TO.N,CS3*%
X174957100Y-65684400D03*
%TO.P,R6,2*%
%TO.N,Net-(D2-A)*%
X176782100Y-65684400D03*
%TD*%
D14*
%TO.P,D3,1,K*%
%TO.N,GND*%
X171715400Y-46482000D03*
%TO.P,D3,2,A*%
%TO.N,Net-(D3-A)*%
X169965400Y-46482000D03*
%TD*%
D16*
%TO.P,D1,1,K*%
%TO.N,GND*%
X148680200Y-63906400D03*
%TO.P,D1,2,A*%
%TO.N,Net-(D1-A)*%
X150430200Y-63906400D03*
%TD*%
D11*
%TO.P,R9,1*%
%TO.N,CS6*%
X134922900Y-38709600D03*
%TO.P,R9,2*%
%TO.N,Net-(D5-A)*%
X133097900Y-38709600D03*
%TD*%
%TO.P,R8,1*%
%TO.N,CS5*%
X161948500Y-38658800D03*
%TO.P,R8,2*%
%TO.N,Net-(D4-A)*%
X160123500Y-38658800D03*
%TD*%
D10*
%TO.P,R5,1*%
%TO.N,MISO_1*%
X153466800Y-57706900D03*
%TO.P,R5,2*%
%TO.N,Net-(R5-Pad2)*%
X153466800Y-55881900D03*
%TD*%
D25*
%TO.P,A1,1,NC*%
%TO.N,unconnected-(A1-NC-Pad1)*%
X144145000Y-76403200D03*
D26*
%TO.P,A1,2,IOREF*%
%TO.N,unconnected-(A1-IOREF-Pad2)*%
X146685000Y-76403200D03*
%TO.P,A1,3,~{RESET}*%
%TO.N,unconnected-(A1-~{RESET}-Pad3)*%
X149225000Y-76403200D03*
%TO.P,A1,4,3V3*%
%TO.N,+3V3*%
X151765000Y-76403200D03*
%TO.P,A1,5,+5V*%
%TO.N,+5V*%
X154305000Y-76403200D03*
%TO.P,A1,6,GND*%
%TO.N,GND*%
X156845000Y-76403200D03*
%TO.P,A1,7,GND*%
X159385000Y-76403200D03*
%TO.P,A1,8,VIN*%
%TO.N,unconnected-(A1-VIN-Pad8)*%
X161925000Y-76403200D03*
%TO.P,A1,9,A0*%
%TO.N,CS2*%
X167005000Y-76403200D03*
%TO.P,A1,10,A1*%
%TO.N,RST1*%
X169545000Y-76403200D03*
%TO.P,A1,11,A2*%
%TO.N,INT1*%
X172085000Y-76403200D03*
%TO.P,A1,12,A3*%
%TO.N,CS3*%
X174625000Y-76403200D03*
%TO.P,A1,13,SDA/A4*%
%TO.N,RST2*%
X177165000Y-76403200D03*
%TO.P,A1,14,SCL/A5*%
%TO.N,INT2*%
X179705000Y-76403200D03*
%TO.P,A1,15,D0/RX*%
%TO.N,unconnected-(A1-D0{slash}RX-Pad15)*%
X179705000Y-28143200D03*
%TO.P,A1,16,D1/TX*%
%TO.N,CS4*%
X177165000Y-28143200D03*
%TO.P,A1,17,D2*%
%TO.N,RST3*%
X174625000Y-28143200D03*
%TO.P,A1,18,D3*%
%TO.N,INT3*%
X172085000Y-28143200D03*
%TO.P,A1,19,D4*%
%TO.N,CS5*%
X169545000Y-28143200D03*
%TO.P,A1,20,D5*%
%TO.N,RST4*%
X167005000Y-28143200D03*
%TO.P,A1,21,D6*%
%TO.N,INT4*%
X164465000Y-28143200D03*
%TO.P,A1,22,D7*%
%TO.N,CS6*%
X161925000Y-28143200D03*
%TO.P,A1,23,D8*%
%TO.N,RST5*%
X157865000Y-28143200D03*
%TO.P,A1,24,D9*%
%TO.N,INT5*%
X155325000Y-28143200D03*
%TO.P,A1,25,D10*%
%TO.N,CS1*%
X152785000Y-28143200D03*
%TO.P,A1,26,D11*%
%TO.N,MOSI*%
X150245000Y-28143200D03*
%TO.P,A1,27,D12*%
%TO.N,MISO*%
X147705000Y-28143200D03*
%TO.P,A1,28,D13*%
%TO.N,SCK*%
X145165000Y-28143200D03*
%TO.P,A1,29,GND*%
%TO.N,GND*%
X142625000Y-28143200D03*
%TO.P,A1,30,AREF*%
%TO.N,unconnected-(A1-AREF-Pad30)*%
X140085000Y-28143200D03*
%TO.P,A1,31,SDA/A4*%
%TO.N,unconnected-(A1-SDA{slash}A4-Pad31)*%
X137545000Y-28143200D03*
%TO.P,A1,32,SCL/A5*%
%TO.N,unconnected-(A1-SCL{slash}A5-Pad32)*%
X135005000Y-28143200D03*
%TD*%
D27*
%TO.N,+3V3*%
X133959600Y-51155600D03*
X155983400Y-53216000D03*
%TO.N,GND*%
X160274000Y-64008000D03*
X153162000Y-26416000D03*
X156210000Y-64770000D03*
X138176000Y-78232000D03*
X168148000Y-58166000D03*
X163576000Y-46736000D03*
X152400000Y-61976000D03*
X175768000Y-26416000D03*
X181610000Y-74930000D03*
X152146000Y-49022000D03*
X164592000Y-76200000D03*
X146812000Y-54102000D03*
X149098000Y-51308000D03*
X154686000Y-54102000D03*
X159766000Y-29972000D03*
X148971000Y-27051000D03*
X133858000Y-35306000D03*
X133604000Y-29718000D03*
X156972000Y-78232000D03*
X157988000Y-59944000D03*
X159004000Y-61976000D03*
X180848000Y-78232000D03*
X142621000Y-29591000D03*
X181356000Y-61976000D03*
X172212000Y-46482000D03*
X163576000Y-53086000D03*
X130556000Y-26670000D03*
X154432000Y-63246000D03*
X141732000Y-48006000D03*
X141732000Y-54102000D03*
X151892000Y-55372000D03*
X143891000Y-27051000D03*
X154432000Y-50292000D03*
X148082000Y-48260000D03*
X158242000Y-66294000D03*
X139446000Y-60960000D03*
X135636000Y-36576000D03*
X183896000Y-72898000D03*
X167894000Y-46736000D03*
X164084000Y-61722000D03*
X172212000Y-33782000D03*
X184150000Y-42926000D03*
X163830000Y-41910000D03*
X168148000Y-52832000D03*
X173990000Y-46736000D03*
X151892000Y-30226000D03*
X156210000Y-56896000D03*
X145796000Y-60960000D03*
X156464000Y-26416000D03*
X146812000Y-48006000D03*
X150876000Y-39878000D03*
X152146000Y-42926000D03*
X159766000Y-26416000D03*
X147066000Y-44450000D03*
X130810000Y-69850000D03*
X148082000Y-72390000D03*
X167894000Y-78232000D03*
X131064000Y-78232000D03*
X175006000Y-63500000D03*
X138684000Y-27051000D03*
X130810000Y-60960000D03*
X137414000Y-30480000D03*
X183896000Y-59690000D03*
X136906000Y-46228000D03*
X138176000Y-43688000D03*
X180340000Y-54356000D03*
X180848000Y-38862000D03*
X140716000Y-72136000D03*
X183896000Y-66548000D03*
X180848000Y-30480000D03*
X172466000Y-63500000D03*
X179578000Y-57150000D03*
X130556000Y-39624000D03*
X161544000Y-69088000D03*
X167894000Y-26162000D03*
X158750000Y-37084000D03*
X181610000Y-68072000D03*
%TO.N,CS1*%
X149606000Y-58115200D03*
%TO.N,MOSI*%
X153543000Y-34467800D03*
X162407600Y-48209200D03*
X157683200Y-68275200D03*
X157683200Y-43484800D03*
X151485600Y-32359600D03*
%TO.N,MISO*%
X153162000Y-36728400D03*
X160883600Y-51562000D03*
X147828000Y-31546800D03*
X155905200Y-68935600D03*
X155905200Y-44602400D03*
X155905200Y-66802000D03*
%TO.N,SCK*%
X145237200Y-30734000D03*
X152654000Y-38811200D03*
X154127200Y-45720000D03*
X154127200Y-65836800D03*
X154127200Y-69392800D03*
%TD*%
D28*
%TO.N,GND*%
X148590000Y-49936400D02*
X151892000Y-49936400D01*
X153101596Y-50836400D02*
X153137996Y-50800000D01*
X148363400Y-48266000D02*
X148363400Y-48994600D01*
X148363400Y-49049400D02*
X148363400Y-49709800D01*
X152146000Y-49022000D02*
X152173400Y-48994600D01*
X155983400Y-49756600D02*
X155983400Y-48266000D01*
X142544800Y-44196000D02*
X143212000Y-44863200D01*
X140055600Y-44196000D02*
X142544800Y-44196000D01*
X152173400Y-49049400D02*
X152146000Y-49022000D01*
X152173400Y-48994600D02*
X152173400Y-48266000D01*
X148336000Y-49022000D02*
X148363400Y-49049400D01*
X151892000Y-49936400D02*
X152173400Y-49655000D01*
X150903400Y-51687000D02*
X151754000Y-50836400D01*
X148363400Y-48994600D02*
X148336000Y-49022000D01*
X148363400Y-49709800D02*
X148590000Y-49936400D01*
X133987000Y-48996800D02*
X135254800Y-48996800D01*
X135254800Y-48996800D02*
X140055600Y-44196000D01*
X151754000Y-50836400D02*
X153101596Y-50836400D01*
X154432000Y-50292000D02*
X155448000Y-50292000D01*
X152173400Y-49655000D02*
X152173400Y-49049400D01*
X150903400Y-53216000D02*
X150903400Y-51687000D01*
X143212000Y-44863200D02*
X143212000Y-45671800D01*
X155448000Y-50292000D02*
X155983400Y-49756600D01*
X153137996Y-50800000D02*
X154432000Y-50292000D01*
%TO.N,RST4*%
X175666400Y-40792400D02*
X174599600Y-41859200D01*
X167005000Y-31470600D02*
X167436800Y-31902400D01*
X174244000Y-31902400D02*
X175666400Y-33324800D01*
X167436800Y-31902400D02*
X174244000Y-31902400D01*
X169011600Y-41859200D02*
X167284400Y-40132000D01*
X167284400Y-40132000D02*
X167284400Y-38658800D01*
X174599600Y-41859200D02*
X169011600Y-41859200D01*
X175666400Y-33324800D02*
X175666400Y-40792400D01*
X167005000Y-28143200D02*
X167005000Y-31470600D01*
%TO.N,RST5*%
X157865000Y-28143200D02*
X157865000Y-29587000D01*
X142080400Y-42004400D02*
X140360400Y-40284400D01*
X157066400Y-30385600D02*
X155542400Y-30385600D01*
X148793200Y-39979600D02*
X146768400Y-42004400D01*
X148793200Y-37134800D02*
X148793200Y-39979600D01*
X155542400Y-30385600D02*
X148793200Y-37134800D01*
X140360400Y-40284400D02*
X140360400Y-38709600D01*
X146768400Y-42004400D02*
X142080400Y-42004400D01*
X157865000Y-29587000D02*
X157066400Y-30385600D01*
D29*
%TO.N,MOSI*%
X144221200Y-33172400D02*
X150622000Y-33172400D01*
X180492400Y-45567600D02*
X178308000Y-43383200D01*
X153416000Y-67818000D02*
X157226000Y-67818000D01*
X157784800Y-43383200D02*
X157683200Y-43484800D01*
X157226000Y-67818000D02*
X157683200Y-68275200D01*
X168554400Y-33477200D02*
X154533600Y-33477200D01*
X142900400Y-36169600D02*
X142900400Y-34493200D01*
X140766800Y-68376800D02*
X140766800Y-69799200D01*
X169824400Y-34747200D02*
X168554400Y-33477200D01*
X142303600Y-71336000D02*
X149898000Y-71336000D01*
X166217600Y-70815200D02*
X160223200Y-70815200D01*
X142900400Y-34493200D02*
X144221200Y-33172400D01*
X161340800Y-47142400D02*
X162407600Y-48209200D01*
X167081200Y-69951600D02*
X166217600Y-70815200D01*
X159865700Y-47142400D02*
X161340800Y-47142400D01*
X178968400Y-53543200D02*
X180492400Y-52019200D01*
X140766800Y-69799200D02*
X142303600Y-71336000D01*
X167081200Y-68275200D02*
X167081200Y-69951600D01*
X149898000Y-71336000D02*
X153416000Y-67818000D01*
X160223200Y-70815200D02*
X157683200Y-68275200D01*
X180492400Y-52019200D02*
X180492400Y-45567600D01*
X169824400Y-36118800D02*
X169824400Y-34747200D01*
X177393600Y-53543200D02*
X178968400Y-53543200D01*
X154533600Y-33477200D02*
X153543000Y-34467800D01*
X178308000Y-43383200D02*
X157784800Y-43383200D01*
X150622000Y-33172400D02*
X151434800Y-32359600D01*
%TO.N,MISO*%
X152173400Y-52296600D02*
X152908000Y-51562000D01*
X149606000Y-70104000D02*
X152857200Y-66852800D01*
X166776400Y-34442400D02*
X155448000Y-34442400D01*
X152857200Y-66852800D02*
X155854400Y-66852800D01*
X140360400Y-36169600D02*
X140360400Y-33782000D01*
X155448000Y-34442400D02*
X153162000Y-36728400D01*
X143306800Y-69545200D02*
X143865600Y-70104000D01*
X158445200Y-44348400D02*
X158191200Y-44602400D01*
X179527200Y-46532800D02*
X177342800Y-44348400D01*
X179527200Y-50596800D02*
X179527200Y-46532800D01*
X155854400Y-66852800D02*
X155905200Y-66802000D01*
X167284400Y-36118800D02*
X167284400Y-34950400D01*
X167284400Y-34950400D02*
X166776400Y-34442400D01*
X179120800Y-51003200D02*
X179527200Y-50596800D01*
X140360400Y-33782000D02*
X142189200Y-31953200D01*
X168097200Y-71831200D02*
X158800800Y-71831200D01*
X142189200Y-31953200D02*
X147421600Y-31953200D01*
X147421600Y-31953200D02*
X147828000Y-31546800D01*
X169621200Y-68275200D02*
X169621200Y-70307200D01*
X169621200Y-70307200D02*
X168097200Y-71831200D01*
X177342800Y-44348400D02*
X158445200Y-44348400D01*
X152173400Y-53216000D02*
X152173400Y-52296600D01*
X158191200Y-44602400D02*
X155905200Y-44602400D01*
X177393600Y-51003200D02*
X179120800Y-51003200D01*
X143306800Y-68376800D02*
X143306800Y-69545200D01*
X152908000Y-51562000D02*
X160883600Y-51562000D01*
X143865600Y-70104000D02*
X149606000Y-70104000D01*
X158800800Y-71831200D02*
X155905200Y-68935600D01*
%TO.N,SCK*%
X172161200Y-70764400D02*
X170180000Y-72745600D01*
X176225200Y-45364400D02*
X158560571Y-45364400D01*
X137820400Y-33262905D02*
X140349305Y-30734000D01*
X154076400Y-45669200D02*
X154127200Y-45720000D01*
X137820400Y-36169600D02*
X137820400Y-33262905D01*
X157480000Y-72745600D02*
X154127200Y-69392800D01*
X177393600Y-48463200D02*
X177393600Y-46532800D01*
X152501600Y-65836800D02*
X153619200Y-65836800D01*
X172161200Y-68275200D02*
X172161200Y-70764400D01*
X158204971Y-45720000D02*
X154127200Y-45720000D01*
X149961600Y-68376800D02*
X152501600Y-65836800D01*
X158560571Y-45364400D02*
X158204971Y-45720000D01*
X164185600Y-35560000D02*
X155905200Y-35560000D01*
X164744400Y-36118800D02*
X164185600Y-35560000D01*
X177393600Y-46532800D02*
X176225200Y-45364400D01*
X152702900Y-45669200D02*
X154076400Y-45669200D01*
X155905200Y-35560000D02*
X152654000Y-38811200D01*
X170180000Y-72745600D02*
X157480000Y-72745600D01*
X140349305Y-30734000D02*
X145237200Y-30734000D01*
X145846800Y-68376800D02*
X149961600Y-68376800D01*
D28*
%TO.N,Net-(D1-A)*%
X150467700Y-63943900D02*
X150430200Y-63906400D01*
X150467700Y-65836800D02*
X150467700Y-63943900D01*
%TO.N,CS1_1*%
X133987000Y-53396800D02*
X135845200Y-53396800D01*
X138328400Y-55880000D02*
X147370800Y-55880000D01*
X135845200Y-53396800D02*
X138328400Y-55880000D01*
X147370800Y-55880000D02*
X148363400Y-54887400D01*
X148363400Y-54887400D02*
X148363400Y-53898800D01*
%TO.N,MOSI_1*%
X153443400Y-49858200D02*
X152915200Y-50386400D01*
X138684000Y-55321200D02*
X135659600Y-52296800D01*
X143468804Y-55321200D02*
X138684000Y-55321200D01*
X148403604Y-50386400D02*
X143468804Y-55321200D01*
X135659600Y-52296800D02*
X133987000Y-52296800D01*
X152915200Y-50386400D02*
X148403604Y-50386400D01*
X153443400Y-48266000D02*
X153443400Y-49858200D01*
%TO.N,SCK_1*%
X149430200Y-46786800D02*
X149633400Y-46990000D01*
X133987000Y-50096800D02*
X134985222Y-50096800D01*
X134985222Y-50096800D02*
X138955622Y-46126400D01*
X142240000Y-46786800D02*
X149430200Y-46786800D01*
X141579600Y-46126400D02*
X142240000Y-46786800D01*
X149633400Y-46990000D02*
X149633400Y-48266000D01*
X138955622Y-46126400D02*
X141579600Y-46126400D01*
D29*
%TO.N,MISO_1*%
X153466800Y-57706900D02*
X153466800Y-58978800D01*
X132478800Y-47896800D02*
X133987000Y-47896800D01*
X132537200Y-59486800D02*
X131826000Y-58775600D01*
X131826000Y-58775600D02*
X131826000Y-48463200D01*
X153466800Y-58978800D02*
X152958800Y-59486800D01*
X152958800Y-59486800D02*
X132537200Y-59486800D01*
X132435600Y-47853600D02*
X132478800Y-47896800D01*
X131826000Y-48463200D02*
X132435600Y-47853600D01*
%TO.N,Net-(R1-Pad2)*%
X154713400Y-46810200D02*
X154713400Y-48266000D01*
X158040700Y-47142400D02*
X157431100Y-46532800D01*
X154990800Y-46532800D02*
X154713400Y-46810200D01*
X157431100Y-46532800D02*
X154990800Y-46532800D01*
D28*
%TO.N,CS2*%
X135483600Y-62026800D02*
X144119600Y-62026800D01*
X144119600Y-62026800D02*
X145846800Y-63754000D01*
X145846800Y-65836800D02*
X148642700Y-65836800D01*
X166573200Y-74726800D02*
X138684000Y-74726800D01*
X134162800Y-63347600D02*
X135483600Y-62026800D01*
X138684000Y-74726800D02*
X134162800Y-70205600D01*
X167005000Y-75158600D02*
X166573200Y-74726800D01*
X167005000Y-76403200D02*
X167005000Y-75158600D01*
X145846800Y-63754000D02*
X145846800Y-65836800D01*
X134162800Y-70205600D02*
X134162800Y-63347600D01*
%TO.N,Net-(R3-Pad2)*%
X150903400Y-45694700D02*
X150877900Y-45669200D01*
D29*
X150903400Y-48266000D02*
X150903400Y-45694700D01*
D28*
%TO.N,Net-(R4-Pad2)*%
X149606000Y-55729500D02*
X149606000Y-53243400D01*
X149606000Y-53243400D02*
X149633400Y-53216000D01*
%TO.N,Net-(R5-Pad2)*%
X153466800Y-53239400D02*
X153443400Y-53216000D01*
D29*
X153466800Y-55881900D02*
X153466800Y-53239400D01*
D28*
%TO.N,Net-(D2-A)*%
X176782100Y-63614900D02*
X176795400Y-63601600D01*
X176782100Y-65684400D02*
X176782100Y-63614900D01*
%TO.N,Net-(D3-A)*%
X169976800Y-46493400D02*
X169965400Y-46482000D01*
X169976800Y-48463200D02*
X169976800Y-46493400D01*
%TO.N,Net-(D4-A)*%
X160123500Y-40728300D02*
X160110200Y-40741600D01*
X160123500Y-38658800D02*
X160123500Y-40728300D01*
%TO.N,Net-(D5-A)*%
X133097900Y-40856500D02*
X133135400Y-40894000D01*
X133097900Y-38709600D02*
X133097900Y-40856500D01*
%TO.N,INT1*%
X139446000Y-73507600D02*
X135636000Y-69697600D01*
X172085000Y-74904600D02*
X170688000Y-73507600D01*
X135636000Y-63601600D02*
X136042400Y-63195200D01*
X172085000Y-76403200D02*
X172085000Y-74904600D01*
X135636000Y-69697600D02*
X135636000Y-63601600D01*
X140208000Y-63195200D02*
X140766800Y-63754000D01*
X140766800Y-63754000D02*
X140766800Y-65836800D01*
X136042400Y-63195200D02*
X140208000Y-63195200D01*
X170688000Y-73507600D02*
X139446000Y-73507600D01*
%TO.N,CS3*%
X174625000Y-67335400D02*
X173024800Y-65735200D01*
X174906300Y-65735200D02*
X174957100Y-65684400D01*
X173024800Y-65735200D02*
X174906300Y-65735200D01*
X174625000Y-76403200D02*
X174625000Y-67335400D01*
X172161200Y-65735200D02*
X173024800Y-65735200D01*
%TO.N,INT2*%
X167792400Y-61366400D02*
X167081200Y-62077600D01*
X167081200Y-62077600D02*
X167081200Y-65735200D01*
X179705000Y-62763400D02*
X178308000Y-61366400D01*
X178308000Y-61366400D02*
X167792400Y-61366400D01*
X179705000Y-76403200D02*
X179705000Y-62763400D01*
%TO.N,INT3*%
X181363200Y-57193600D02*
X179781200Y-58775600D01*
X177190400Y-32410400D02*
X177190400Y-40538400D01*
X181363200Y-44711200D02*
X181363200Y-57193600D01*
X172923200Y-58775600D02*
X172872400Y-58826400D01*
X173024800Y-53543200D02*
X174853600Y-53543200D01*
X172085000Y-29946600D02*
X172720000Y-30581600D01*
X172872400Y-58826400D02*
X172262800Y-58216800D01*
X172262800Y-58216800D02*
X172262800Y-54305200D01*
X179781200Y-58775600D02*
X172923200Y-58775600D01*
X177190400Y-40538400D02*
X181363200Y-44711200D01*
X172720000Y-30581600D02*
X175361600Y-30581600D01*
X172085000Y-28143200D02*
X172085000Y-29946600D01*
X172262800Y-54305200D02*
X173024800Y-53543200D01*
X175361600Y-30581600D02*
X177190400Y-32410400D01*
%TO.N,CS4*%
X178765200Y-39420800D02*
X183337200Y-43992800D01*
X177165000Y-28143200D02*
X177165000Y-29946600D01*
X170891200Y-51308000D02*
X173736000Y-48463200D01*
X171801800Y-48463200D02*
X174853600Y-48463200D01*
X170891200Y-59232800D02*
X170891200Y-51308000D01*
X183337200Y-43992800D02*
X183337200Y-57658000D01*
X178765200Y-31546800D02*
X178765200Y-39420800D01*
X171907200Y-60248800D02*
X170891200Y-59232800D01*
X177165000Y-29946600D02*
X178765200Y-31546800D01*
X180746400Y-60248800D02*
X171907200Y-60248800D01*
X183337200Y-57658000D02*
X180746400Y-60248800D01*
%TO.N,INT4*%
X174904400Y-40284400D02*
X174091600Y-41097200D01*
X164465000Y-28143200D02*
X164465000Y-31470600D01*
X174904400Y-33985200D02*
X174904400Y-40284400D01*
X169875200Y-40538400D02*
X169824400Y-40538400D01*
X170434000Y-41097200D02*
X169875200Y-40538400D01*
X164465000Y-31470600D02*
X165608000Y-32613600D01*
X173532800Y-32613600D02*
X174904400Y-33985200D01*
X174091600Y-41097200D02*
X170434000Y-41097200D01*
X169824400Y-40538400D02*
X169824400Y-38658800D01*
X165608000Y-32613600D02*
X173532800Y-32613600D01*
%TO.N,CS5*%
X175056800Y-42570400D02*
X166573200Y-42570400D01*
X169545000Y-30861000D02*
X169976800Y-31292800D01*
X161948500Y-38658800D02*
X164744400Y-38658800D01*
X166573200Y-42570400D02*
X164744400Y-40741600D01*
X169545000Y-28143200D02*
X169545000Y-30861000D01*
X176428400Y-32867600D02*
X176428400Y-41198800D01*
X176428400Y-41198800D02*
X175056800Y-42570400D01*
X174853600Y-31292800D02*
X176428400Y-32867600D01*
X164744400Y-40741600D02*
X164744400Y-38658800D01*
X169976800Y-31292800D02*
X174853600Y-31292800D01*
%TO.N,INT5*%
X142900400Y-40386000D02*
X142900400Y-38709600D01*
X155325000Y-29545505D02*
X148082000Y-36788505D01*
X143713200Y-41198800D02*
X142900400Y-40386000D01*
X148082000Y-36788505D02*
X148082000Y-39674800D01*
X155325000Y-28143200D02*
X155325000Y-29545505D01*
X148082000Y-39674800D02*
X146558000Y-41198800D01*
X146558000Y-41198800D02*
X143713200Y-41198800D01*
%TO.N,CS6*%
X155540295Y-31445200D02*
X149606000Y-37379495D01*
X137871200Y-41097200D02*
X137820400Y-41046400D01*
X161925000Y-28143200D02*
X161925000Y-30200600D01*
X149606000Y-37379495D02*
X149606000Y-40284400D01*
X161925000Y-30200600D02*
X160680400Y-31445200D01*
X137820400Y-41046400D02*
X137820400Y-38709600D01*
X137820400Y-38709600D02*
X134922900Y-38709600D01*
X160680400Y-31445200D02*
X155540295Y-31445200D01*
X147218400Y-42672000D02*
X139547600Y-42672000D01*
X137972800Y-41097200D02*
X137871200Y-41097200D01*
X139547600Y-42672000D02*
X137972800Y-41097200D01*
X149606000Y-40284400D02*
X147218400Y-42672000D01*
%TO.N,RST3*%
X177952400Y-31953200D02*
X177952400Y-40030400D01*
X175869600Y-29870400D02*
X177952400Y-31953200D01*
X172618400Y-51003200D02*
X174853600Y-51003200D01*
X172364400Y-59486800D02*
X171551600Y-58674000D01*
X171551600Y-52070000D02*
X172618400Y-51003200D01*
X182321200Y-44399200D02*
X182321200Y-57404000D01*
X180238400Y-59486800D02*
X172364400Y-59486800D01*
X174625000Y-29387800D02*
X175107600Y-29870400D01*
X175107600Y-29870400D02*
X175869600Y-29870400D01*
X171551600Y-58674000D02*
X171551600Y-52070000D01*
X182321200Y-57404000D02*
X180238400Y-59486800D01*
X177952400Y-40030400D02*
X182321200Y-44399200D01*
X174625000Y-28143200D02*
X174625000Y-29387800D01*
%TO.N,RST1*%
X169214800Y-74117200D02*
X138938000Y-74117200D01*
X138938000Y-74117200D02*
X134924800Y-70104000D01*
X169545000Y-74447400D02*
X169214800Y-74117200D01*
X134924800Y-70104000D02*
X134924800Y-63449200D01*
X134924800Y-63449200D02*
X135839200Y-62534800D01*
X142189200Y-62534800D02*
X143306800Y-63652400D01*
X169545000Y-76403200D02*
X169545000Y-74447400D01*
X135839200Y-62534800D02*
X142189200Y-62534800D01*
X143306800Y-63652400D02*
X143306800Y-65836800D01*
%TO.N,RST2*%
X169621200Y-63449200D02*
X169621200Y-65735200D01*
X178003200Y-62077600D02*
X170992800Y-62077600D01*
X170992800Y-62077600D02*
X169621200Y-63449200D01*
X178562000Y-67259200D02*
X178562000Y-62636400D01*
X177165000Y-68656200D02*
X178562000Y-67259200D01*
X177165000Y-76403200D02*
X177165000Y-68656200D01*
X178562000Y-62636400D02*
X178003200Y-62077600D01*
%TD*%
%TA.AperFunction,Conductor*%
%TO.N,GND*%
G36*
X139945001Y-63830139D02*
G01*
X139985229Y-63857019D01*
X140104981Y-63976771D01*
X140131861Y-64016999D01*
X140141300Y-64064452D01*
X140141300Y-64561574D01*
X140127289Y-64618831D01*
X140088423Y-64663148D01*
X140040495Y-64696708D01*
X139895398Y-64798305D01*
X139728305Y-64965398D01*
X139598375Y-65150959D01*
X139554057Y-65189825D01*
X139496800Y-65203836D01*
X139439543Y-65189825D01*
X139395225Y-65150959D01*
X139329694Y-65057371D01*
X139265295Y-64965399D01*
X139098201Y-64798305D01*
X138904630Y-64662765D01*
X138690463Y-64562897D01*
X138629301Y-64546509D01*
X138462207Y-64501736D01*
X138226800Y-64481140D01*
X137991392Y-64501736D01*
X137763136Y-64562897D01*
X137548970Y-64662765D01*
X137355398Y-64798305D01*
X137188305Y-64965398D01*
X137052765Y-65158970D01*
X136952897Y-65373136D01*
X136891736Y-65601392D01*
X136871140Y-65836800D01*
X136891736Y-66072207D01*
X136906984Y-66129112D01*
X136952897Y-66300463D01*
X137052765Y-66514630D01*
X137188305Y-66708201D01*
X137188307Y-66708203D01*
X137188308Y-66708204D01*
X137310618Y-66830514D01*
X137341914Y-66883260D01*
X137344103Y-66944553D01*
X137316650Y-66999397D01*
X137266272Y-67034376D01*
X137134713Y-67083446D01*
X137019611Y-67169611D01*
X136933447Y-67284710D01*
X136883202Y-67419424D01*
X136876800Y-67478976D01*
X136876800Y-68126800D01*
X138352800Y-68126800D01*
X138414800Y-68143413D01*
X138460187Y-68188800D01*
X138476800Y-68250800D01*
X138476800Y-69726800D01*
X139124624Y-69726800D01*
X139184175Y-69720397D01*
X139318889Y-69670152D01*
X139433988Y-69583988D01*
X139520152Y-69468888D01*
X139569221Y-69337329D01*
X139604200Y-69286949D01*
X139659045Y-69259496D01*
X139720338Y-69261685D01*
X139773084Y-69292981D01*
X139895397Y-69415294D01*
X139913423Y-69427916D01*
X139952289Y-69472234D01*
X139966300Y-69529491D01*
X139966300Y-69889396D01*
X139974817Y-69926718D01*
X139977145Y-69940419D01*
X139981431Y-69978452D01*
X139994072Y-70014580D01*
X139997919Y-70027936D01*
X140006438Y-70065258D01*
X140023050Y-70099753D01*
X140028370Y-70112598D01*
X140041009Y-70148720D01*
X140051570Y-70165527D01*
X140061376Y-70181133D01*
X140068098Y-70193295D01*
X140084708Y-70227786D01*
X140084709Y-70227787D01*
X140105568Y-70253944D01*
X140108572Y-70257710D01*
X140116618Y-70269050D01*
X140136984Y-70301462D01*
X140168973Y-70333451D01*
X140168974Y-70333452D01*
X140913324Y-71077802D01*
X141656342Y-71820819D01*
X141656343Y-71820821D01*
X141801338Y-71965816D01*
X141833743Y-71986177D01*
X141845086Y-71994225D01*
X141875011Y-72018090D01*
X141875012Y-72018090D01*
X141875013Y-72018091D01*
X141909496Y-72034697D01*
X141921658Y-72041418D01*
X141954078Y-72061789D01*
X141990220Y-72074435D01*
X142003058Y-72079754D01*
X142037539Y-72096359D01*
X142072437Y-72104324D01*
X142074849Y-72104875D01*
X142088211Y-72108724D01*
X142124345Y-72121368D01*
X142162400Y-72125655D01*
X142176081Y-72127980D01*
X142199075Y-72133229D01*
X142213404Y-72136500D01*
X142213405Y-72136500D01*
X142258646Y-72136500D01*
X142393794Y-72136500D01*
X149807806Y-72136500D01*
X149942954Y-72136500D01*
X149988194Y-72136500D01*
X149988195Y-72136500D01*
X149999009Y-72134031D01*
X150025520Y-72127980D01*
X150039197Y-72125655D01*
X150077255Y-72121368D01*
X150113399Y-72108720D01*
X150126721Y-72104882D01*
X150164061Y-72096360D01*
X150198549Y-72079750D01*
X150211391Y-72074431D01*
X150247522Y-72061789D01*
X150279932Y-72041423D01*
X150292103Y-72034697D01*
X150326587Y-72018091D01*
X150356515Y-71994222D01*
X150367834Y-71986190D01*
X150400262Y-71965816D01*
X150527816Y-71838262D01*
X150527816Y-71838261D01*
X153014283Y-69351793D01*
X153074595Y-69318534D01*
X153143354Y-69322588D01*
X153199341Y-69362708D01*
X153225283Y-69426514D01*
X153241526Y-69581057D01*
X153300020Y-69761084D01*
X153394666Y-69925016D01*
X153521329Y-70065689D01*
X153674465Y-70176949D01*
X153697103Y-70187028D01*
X153842392Y-70251716D01*
X153879635Y-70277313D01*
X156272741Y-72670419D01*
X156302991Y-72719782D01*
X156307533Y-72777498D01*
X156285378Y-72830985D01*
X156241355Y-72868585D01*
X156185060Y-72882100D01*
X139756452Y-72882100D01*
X139708999Y-72872661D01*
X139668771Y-72845781D01*
X136297819Y-69474828D01*
X136270939Y-69434600D01*
X136261500Y-69387147D01*
X136261500Y-68626800D01*
X136876800Y-68626800D01*
X136876800Y-69274624D01*
X136883202Y-69334175D01*
X136933447Y-69468889D01*
X137019611Y-69583988D01*
X137134710Y-69670152D01*
X137269424Y-69720397D01*
X137328976Y-69726800D01*
X137976800Y-69726800D01*
X137976800Y-68626800D01*
X136876800Y-68626800D01*
X136261500Y-68626800D01*
X136261500Y-63944700D01*
X136278113Y-63882700D01*
X136323500Y-63837313D01*
X136385500Y-63820700D01*
X139897548Y-63820700D01*
X139945001Y-63830139D01*
G37*
%TD.AperFunction*%
%TA.AperFunction,Conductor*%
G36*
X174139705Y-62720167D02*
G01*
X174185203Y-62766668D01*
X174200896Y-62829805D01*
X174182465Y-62892197D01*
X174084946Y-63050298D01*
X174030718Y-63213948D01*
X174020400Y-63314953D01*
X174020400Y-63351600D01*
X175171400Y-63351600D01*
X175233400Y-63368213D01*
X175278787Y-63413600D01*
X175295400Y-63475600D01*
X175295400Y-63727600D01*
X175278787Y-63789600D01*
X175233400Y-63834987D01*
X175171400Y-63851600D01*
X174020401Y-63851600D01*
X174020401Y-63888247D01*
X174030718Y-63989250D01*
X174084946Y-64152901D01*
X174175456Y-64299640D01*
X174297359Y-64421543D01*
X174444099Y-64512053D01*
X174457862Y-64516614D01*
X174509546Y-64549752D01*
X174538999Y-64603622D01*
X174538999Y-64665017D01*
X174509547Y-64718887D01*
X174457863Y-64752026D01*
X174393085Y-64773491D01*
X174246247Y-64864061D01*
X174124261Y-64986047D01*
X174115564Y-65000148D01*
X174086577Y-65047145D01*
X174084324Y-65050797D01*
X174039217Y-65093977D01*
X173978785Y-65109700D01*
X173436426Y-65109700D01*
X173379169Y-65095689D01*
X173334851Y-65056823D01*
X173199695Y-64863799D01*
X173032601Y-64696705D01*
X172839030Y-64561165D01*
X172624863Y-64461297D01*
X172563701Y-64444909D01*
X172396607Y-64400136D01*
X172161200Y-64379540D01*
X171925792Y-64400136D01*
X171697536Y-64461297D01*
X171483370Y-64561165D01*
X171289798Y-64696705D01*
X171122705Y-64863798D01*
X170992775Y-65049359D01*
X170948457Y-65088225D01*
X170891200Y-65102236D01*
X170833943Y-65088225D01*
X170789625Y-65049359D01*
X170723461Y-64954867D01*
X170659695Y-64863799D01*
X170492601Y-64696705D01*
X170299574Y-64561546D01*
X170260711Y-64517230D01*
X170246700Y-64459973D01*
X170246700Y-63759652D01*
X170256139Y-63712199D01*
X170283019Y-63671971D01*
X171215572Y-62739419D01*
X171255800Y-62712539D01*
X171303253Y-62703100D01*
X174076926Y-62703100D01*
X174139705Y-62720167D01*
G37*
%TD.AperFunction*%
%TA.AperFunction,Conductor*%
G36*
X152082954Y-51025415D02*
G01*
X152126977Y-51063015D01*
X152149132Y-51116502D01*
X152144590Y-51174218D01*
X152114340Y-51223581D01*
X151612552Y-51725367D01*
X151612550Y-51725371D01*
X151533705Y-51804216D01*
X151532018Y-51802529D01*
X151501528Y-51831069D01*
X151440199Y-51845933D01*
X151379495Y-51828689D01*
X151313600Y-51789719D01*
X151155888Y-51743900D01*
X151153400Y-51743704D01*
X151153400Y-54688295D01*
X151155888Y-54688099D01*
X151313600Y-54642280D01*
X151468440Y-54550709D01*
X151469379Y-54552296D01*
X151505940Y-54531182D01*
X151570133Y-54531178D01*
X151607186Y-54552569D01*
X151608052Y-54551107D01*
X151621534Y-54559080D01*
X151621535Y-54559081D01*
X151673243Y-54589661D01*
X151763002Y-54642744D01*
X151920827Y-54688597D01*
X151920831Y-54688598D01*
X151957706Y-54691500D01*
X152389092Y-54691500D01*
X152389094Y-54691500D01*
X152425969Y-54688598D01*
X152439155Y-54684767D01*
X152507705Y-54664852D01*
X152564578Y-54661946D01*
X152616752Y-54684767D01*
X152653224Y-54728503D01*
X152666300Y-54783928D01*
X152666300Y-55103717D01*
X152647839Y-55168814D01*
X152555891Y-55317884D01*
X152501625Y-55481646D01*
X152491300Y-55582723D01*
X152491300Y-56181076D01*
X152501625Y-56282152D01*
X152555891Y-56445915D01*
X152625507Y-56558780D01*
X152646460Y-56592750D01*
X152760429Y-56706719D01*
X152792522Y-56762305D01*
X152792522Y-56826492D01*
X152760429Y-56882080D01*
X152646460Y-56996049D01*
X152555891Y-57142884D01*
X152501625Y-57306646D01*
X152491300Y-57407723D01*
X152491300Y-58006076D01*
X152501625Y-58107152D01*
X152555891Y-58270915D01*
X152647839Y-58419986D01*
X152666300Y-58485083D01*
X152666300Y-58562300D01*
X152649687Y-58624300D01*
X152604300Y-58669687D01*
X152542300Y-58686300D01*
X150530858Y-58686300D01*
X150468858Y-58669687D01*
X150423471Y-58624300D01*
X150406858Y-58562301D01*
X150423470Y-58500301D01*
X150425367Y-58497013D01*
X150433179Y-58483484D01*
X150491674Y-58303456D01*
X150507017Y-58157456D01*
X150512632Y-58131416D01*
X150516905Y-58118520D01*
X150516908Y-58118516D01*
X150571174Y-57954753D01*
X150581500Y-57853677D01*
X150581499Y-57255324D01*
X150571174Y-57154247D01*
X150516908Y-56990484D01*
X150426340Y-56843650D01*
X150426339Y-56843649D01*
X150426338Y-56843647D01*
X150312372Y-56729681D01*
X150280278Y-56674094D01*
X150280278Y-56609906D01*
X150312372Y-56554319D01*
X150426338Y-56440352D01*
X150426340Y-56440350D01*
X150516908Y-56293516D01*
X150571174Y-56129753D01*
X150581500Y-56028677D01*
X150581499Y-55430324D01*
X150571174Y-55329247D01*
X150516908Y-55165484D01*
X150426340Y-55018650D01*
X150426339Y-55018649D01*
X150426338Y-55018647D01*
X150304352Y-54896661D01*
X150290405Y-54888059D01*
X150247223Y-54842952D01*
X150231500Y-54782519D01*
X150231500Y-54704907D01*
X150248276Y-54642626D01*
X150294063Y-54597197D01*
X150356474Y-54580911D01*
X150418621Y-54598175D01*
X150493199Y-54642280D01*
X150650911Y-54688099D01*
X150653399Y-54688295D01*
X150653400Y-54688295D01*
X150653400Y-51743705D01*
X150653399Y-51743704D01*
X150650911Y-51743900D01*
X150493199Y-51789719D01*
X150338361Y-51881291D01*
X150337422Y-51879703D01*
X150300840Y-51900821D01*
X150236656Y-51900819D01*
X150199612Y-51879430D01*
X150198748Y-51880893D01*
X150043797Y-51789255D01*
X149885972Y-51743402D01*
X149863844Y-51741660D01*
X149849094Y-51740500D01*
X149417706Y-51740500D01*
X149405414Y-51741467D01*
X149380827Y-51743402D01*
X149223002Y-51789255D01*
X149068052Y-51880893D01*
X149067121Y-51879319D01*
X149030494Y-51900467D01*
X148966306Y-51900467D01*
X148929678Y-51879319D01*
X148928748Y-51880893D01*
X148773797Y-51789255D01*
X148615972Y-51743402D01*
X148593844Y-51741660D01*
X148579094Y-51740500D01*
X148233457Y-51740500D01*
X148177162Y-51726985D01*
X148133139Y-51689385D01*
X148110984Y-51635898D01*
X148115526Y-51578182D01*
X148145776Y-51528819D01*
X148626376Y-51048219D01*
X148666604Y-51021339D01*
X148714057Y-51011900D01*
X152026659Y-51011900D01*
X152082954Y-51025415D01*
G37*
%TD.AperFunction*%
%TA.AperFunction,Conductor*%
G36*
X180686585Y-53105022D02*
G01*
X180724185Y-53149045D01*
X180737700Y-53205340D01*
X180737700Y-56883148D01*
X180728261Y-56930601D01*
X180701381Y-56970829D01*
X179558428Y-58113781D01*
X179518200Y-58140661D01*
X179470747Y-58150100D01*
X173132052Y-58150100D01*
X173084599Y-58140661D01*
X173044373Y-58113783D01*
X172924616Y-57994025D01*
X172897739Y-57953800D01*
X172888300Y-57906347D01*
X172888300Y-54615652D01*
X172897739Y-54568199D01*
X172924619Y-54527971D01*
X173247571Y-54205019D01*
X173287799Y-54178139D01*
X173335252Y-54168700D01*
X173578373Y-54168700D01*
X173635630Y-54182711D01*
X173679946Y-54221574D01*
X173815105Y-54414601D01*
X173982199Y-54581695D01*
X174167760Y-54711626D01*
X174206624Y-54755943D01*
X174220635Y-54813200D01*
X174206624Y-54870457D01*
X174167760Y-54914774D01*
X173984893Y-55042819D01*
X173982195Y-55044708D01*
X173815105Y-55211798D01*
X173679565Y-55405370D01*
X173579697Y-55619536D01*
X173518536Y-55847792D01*
X173497940Y-56083199D01*
X173518536Y-56318607D01*
X173553321Y-56448425D01*
X173579697Y-56546863D01*
X173679565Y-56761030D01*
X173815105Y-56954601D01*
X173982199Y-57121695D01*
X174175770Y-57257235D01*
X174389937Y-57357103D01*
X174618192Y-57418263D01*
X174853600Y-57438859D01*
X175089008Y-57418263D01*
X175317263Y-57357103D01*
X175531430Y-57257235D01*
X175725001Y-57121695D01*
X175847317Y-56999378D01*
X175900060Y-56968085D01*
X175961352Y-56965896D01*
X176016197Y-56993349D01*
X176051177Y-57043728D01*
X176100247Y-57175288D01*
X176186411Y-57290388D01*
X176301510Y-57376552D01*
X176436224Y-57426797D01*
X176495776Y-57433200D01*
X177143600Y-57433200D01*
X177143600Y-56333200D01*
X177643600Y-56333200D01*
X177643600Y-57433200D01*
X178291424Y-57433200D01*
X178350975Y-57426797D01*
X178485689Y-57376552D01*
X178600788Y-57290388D01*
X178686952Y-57175289D01*
X178737197Y-57040575D01*
X178743600Y-56981024D01*
X178743600Y-56333200D01*
X177643600Y-56333200D01*
X177143600Y-56333200D01*
X177143600Y-55957200D01*
X177160213Y-55895200D01*
X177205600Y-55849813D01*
X177267600Y-55833200D01*
X178743600Y-55833200D01*
X178743600Y-55185376D01*
X178737197Y-55125824D01*
X178686952Y-54991110D01*
X178600788Y-54876011D01*
X178485689Y-54789847D01*
X178354128Y-54740778D01*
X178303749Y-54705799D01*
X178276296Y-54650954D01*
X178278485Y-54589661D01*
X178309779Y-54536916D01*
X178432095Y-54414601D01*
X178434005Y-54411873D01*
X178444716Y-54396577D01*
X178489034Y-54357711D01*
X178546291Y-54343700D01*
X179058595Y-54343700D01*
X179069409Y-54341231D01*
X179095920Y-54335180D01*
X179109597Y-54332855D01*
X179147655Y-54328568D01*
X179183799Y-54315920D01*
X179197121Y-54312082D01*
X179234461Y-54303560D01*
X179268949Y-54286950D01*
X179281791Y-54281631D01*
X179317922Y-54268989D01*
X179350332Y-54248623D01*
X179362503Y-54241897D01*
X179396987Y-54225291D01*
X179426915Y-54201422D01*
X179438234Y-54193390D01*
X179470662Y-54173016D01*
X179598216Y-54045462D01*
X180526019Y-53117659D01*
X180575382Y-53087409D01*
X180633098Y-53082867D01*
X180686585Y-53105022D01*
G37*
%TD.AperFunction*%
%TA.AperFunction,Conductor*%
G36*
X147511785Y-52310739D02*
G01*
X147549385Y-52354762D01*
X147562900Y-52411057D01*
X147562900Y-54106692D01*
X147565802Y-54143572D01*
X147611655Y-54301397D01*
X147695319Y-54442865D01*
X147701581Y-54449127D01*
X147728461Y-54489355D01*
X147737900Y-54536808D01*
X147737900Y-54576947D01*
X147728461Y-54624400D01*
X147701581Y-54664628D01*
X147148028Y-55218181D01*
X147107800Y-55245061D01*
X147060347Y-55254500D01*
X144719456Y-55254500D01*
X144663161Y-55240985D01*
X144619138Y-55203385D01*
X144596983Y-55149898D01*
X144601525Y-55092182D01*
X144631775Y-55042819D01*
X147351219Y-52323376D01*
X147400582Y-52293126D01*
X147458298Y-52288584D01*
X147511785Y-52310739D01*
G37*
%TD.AperFunction*%
%TA.AperFunction,Conductor*%
G36*
X141316601Y-46761339D02*
G01*
X141356829Y-46788219D01*
X141739197Y-47170587D01*
X141752098Y-47186689D01*
X141754212Y-47188674D01*
X141754214Y-47188677D01*
X141799202Y-47230924D01*
X141803240Y-47234716D01*
X141806036Y-47237426D01*
X141825530Y-47256920D01*
X141828704Y-47259382D01*
X141837568Y-47266953D01*
X141869418Y-47296862D01*
X141878660Y-47301943D01*
X141886974Y-47306514D01*
X141903231Y-47317192D01*
X141919064Y-47329474D01*
X141927906Y-47333300D01*
X141959156Y-47346823D01*
X141969643Y-47351960D01*
X142007908Y-47372997D01*
X142027316Y-47377980D01*
X142045710Y-47384278D01*
X142064105Y-47392238D01*
X142107254Y-47399071D01*
X142118680Y-47401438D01*
X142119077Y-47401540D01*
X142160980Y-47412300D01*
X142160981Y-47412300D01*
X142181016Y-47412300D01*
X142200413Y-47413826D01*
X142220196Y-47416960D01*
X142263674Y-47412850D01*
X142275344Y-47412300D01*
X147439400Y-47412300D01*
X147501400Y-47428913D01*
X147546787Y-47474300D01*
X147563400Y-47536300D01*
X147563400Y-48016000D01*
X148489400Y-48016000D01*
X148551400Y-48032613D01*
X148596787Y-48078000D01*
X148613400Y-48140000D01*
X148613400Y-48392000D01*
X148596787Y-48454000D01*
X148551400Y-48499387D01*
X148489400Y-48516000D01*
X147563400Y-48516000D01*
X147563400Y-49156639D01*
X147566300Y-49193493D01*
X147612117Y-49351197D01*
X147695717Y-49492557D01*
X147811842Y-49608682D01*
X147953198Y-49692279D01*
X147953264Y-49692299D01*
X147955134Y-49693424D01*
X147966685Y-49700256D01*
X147966631Y-49700346D01*
X148007718Y-49725081D01*
X148038777Y-49780537D01*
X148038278Y-49844096D01*
X148006354Y-49899058D01*
X148003020Y-49902392D01*
X147988228Y-49915026D01*
X147972017Y-49926804D01*
X147944176Y-49960458D01*
X147936315Y-49969097D01*
X143246032Y-54659381D01*
X143205804Y-54686261D01*
X143158351Y-54695700D01*
X140986000Y-54695700D01*
X140924000Y-54679087D01*
X140878613Y-54633700D01*
X140862000Y-54571700D01*
X140862000Y-49346800D01*
X143212000Y-49346800D01*
X143212000Y-51846800D01*
X145062000Y-51846800D01*
X145062000Y-49346800D01*
X143212000Y-49346800D01*
X140862000Y-49346800D01*
X140862000Y-46875900D01*
X140878613Y-46813900D01*
X140924000Y-46768513D01*
X140986000Y-46751900D01*
X141269148Y-46751900D01*
X141316601Y-46761339D01*
G37*
%TD.AperFunction*%
%TA.AperFunction,Conductor*%
G36*
X175889713Y-46174339D02*
G01*
X175929941Y-46201219D01*
X176556781Y-46828059D01*
X176583661Y-46868287D01*
X176593100Y-46915740D01*
X176593100Y-47310509D01*
X176579089Y-47367766D01*
X176540223Y-47412084D01*
X176522197Y-47424705D01*
X176355105Y-47591797D01*
X176225175Y-47777359D01*
X176180857Y-47816225D01*
X176123600Y-47830236D01*
X176066343Y-47816225D01*
X176022025Y-47777359D01*
X175998031Y-47743092D01*
X175892095Y-47591799D01*
X175725001Y-47424705D01*
X175531430Y-47289165D01*
X175317263Y-47189297D01*
X175250869Y-47171507D01*
X175089007Y-47128136D01*
X174853600Y-47107540D01*
X174618192Y-47128136D01*
X174389936Y-47189297D01*
X174175770Y-47289165D01*
X173982198Y-47424705D01*
X173815105Y-47591798D01*
X173679949Y-47784823D01*
X173635631Y-47823689D01*
X173578374Y-47837700D01*
X172748781Y-47837700D01*
X172688348Y-47821977D01*
X172643241Y-47778795D01*
X172642355Y-47777359D01*
X172634640Y-47764850D01*
X172634639Y-47764849D01*
X172634638Y-47764847D01*
X172512652Y-47642861D01*
X172382794Y-47562764D01*
X172339613Y-47517657D01*
X172323891Y-47457225D01*
X172339614Y-47396793D01*
X172382795Y-47351686D01*
X172463439Y-47301944D01*
X172585343Y-47180040D01*
X172675853Y-47033301D01*
X172730081Y-46869651D01*
X172740400Y-46768647D01*
X172740400Y-46732000D01*
X171589400Y-46732000D01*
X171527400Y-46715387D01*
X171482013Y-46670000D01*
X171465400Y-46608000D01*
X171465400Y-46356000D01*
X171482013Y-46294000D01*
X171527400Y-46248613D01*
X171589400Y-46232000D01*
X172740399Y-46232000D01*
X172771180Y-46201219D01*
X172811408Y-46174339D01*
X172858861Y-46164900D01*
X175842260Y-46164900D01*
X175889713Y-46174339D01*
G37*
%TD.AperFunction*%
%TA.AperFunction,Conductor*%
G36*
X149769947Y-33986415D02*
G01*
X149813970Y-34024015D01*
X149836125Y-34077502D01*
X149831583Y-34135218D01*
X149801333Y-34184581D01*
X147698208Y-36287704D01*
X147682110Y-36300601D01*
X147634096Y-36351730D01*
X147631391Y-36354522D01*
X147611874Y-36374039D01*
X147609415Y-36377210D01*
X147601842Y-36386077D01*
X147571935Y-36417925D01*
X147562285Y-36435479D01*
X147551609Y-36451733D01*
X147539326Y-36467568D01*
X147521975Y-36507663D01*
X147516838Y-36518149D01*
X147495802Y-36556412D01*
X147490821Y-36575814D01*
X147484520Y-36594216D01*
X147476561Y-36612607D01*
X147469728Y-36655747D01*
X147467360Y-36667179D01*
X147456500Y-36709483D01*
X147456500Y-36729521D01*
X147454973Y-36748918D01*
X147454249Y-36753488D01*
X147451840Y-36768699D01*
X147455950Y-36812180D01*
X147456500Y-36823849D01*
X147456500Y-39364347D01*
X147447061Y-39411800D01*
X147420181Y-39452028D01*
X146335228Y-40536981D01*
X146295000Y-40563861D01*
X146247547Y-40573300D01*
X144023652Y-40573300D01*
X143976199Y-40563861D01*
X143935971Y-40536981D01*
X143562219Y-40163228D01*
X143535339Y-40123000D01*
X143525900Y-40075547D01*
X143525900Y-39984827D01*
X143539911Y-39927570D01*
X143578774Y-39883253D01*
X143771801Y-39748095D01*
X143938895Y-39581001D01*
X144068826Y-39395439D01*
X144113143Y-39356575D01*
X144170400Y-39342564D01*
X144227657Y-39356575D01*
X144271973Y-39395439D01*
X144401905Y-39581001D01*
X144568999Y-39748095D01*
X144762570Y-39883635D01*
X144976737Y-39983503D01*
X145204992Y-40044663D01*
X145440400Y-40065259D01*
X145675808Y-40044663D01*
X145904063Y-39983503D01*
X146118230Y-39883635D01*
X146311801Y-39748095D01*
X146478895Y-39581001D01*
X146614435Y-39387430D01*
X146714303Y-39173263D01*
X146775463Y-38945008D01*
X146796059Y-38709600D01*
X146775463Y-38474192D01*
X146714303Y-38245937D01*
X146614435Y-38031771D01*
X146478895Y-37838199D01*
X146356581Y-37715885D01*
X146325285Y-37663139D01*
X146323096Y-37601846D01*
X146350549Y-37547001D01*
X146400928Y-37512022D01*
X146532489Y-37462952D01*
X146647588Y-37376788D01*
X146733752Y-37261689D01*
X146783997Y-37126975D01*
X146790400Y-37067424D01*
X146790400Y-36419600D01*
X145314400Y-36419600D01*
X145252400Y-36402987D01*
X145207013Y-36357600D01*
X145190400Y-36295600D01*
X145190400Y-34819600D01*
X145690400Y-34819600D01*
X145690400Y-35919600D01*
X146790400Y-35919600D01*
X146790400Y-35271776D01*
X146783997Y-35212224D01*
X146733752Y-35077510D01*
X146647588Y-34962411D01*
X146532489Y-34876247D01*
X146397775Y-34826002D01*
X146338224Y-34819600D01*
X145690400Y-34819600D01*
X145190400Y-34819600D01*
X144542576Y-34819600D01*
X144483024Y-34826002D01*
X144348310Y-34876247D01*
X144233211Y-34962411D01*
X144147047Y-35077511D01*
X144097978Y-35209071D01*
X144062999Y-35259450D01*
X144008154Y-35286903D01*
X143946861Y-35284714D01*
X143894115Y-35253418D01*
X143771802Y-35131105D01*
X143753777Y-35118484D01*
X143714911Y-35074166D01*
X143700900Y-35016909D01*
X143700900Y-34876140D01*
X143710339Y-34828687D01*
X143737219Y-34788459D01*
X144516459Y-34009219D01*
X144556687Y-33982339D01*
X144604140Y-33972900D01*
X149713652Y-33972900D01*
X149769947Y-33986415D01*
G37*
%TD.AperFunction*%
%TA.AperFunction,Conductor*%
G36*
X173269801Y-33248539D02*
G01*
X173310029Y-33275419D01*
X174242581Y-34207972D01*
X174269461Y-34248200D01*
X174278900Y-34295653D01*
X174278900Y-39973948D01*
X174269461Y-40021401D01*
X174242581Y-40061629D01*
X173868828Y-40435381D01*
X173828600Y-40462261D01*
X173781147Y-40471700D01*
X170744452Y-40471700D01*
X170696999Y-40462261D01*
X170656771Y-40435381D01*
X170486219Y-40264828D01*
X170459339Y-40224600D01*
X170449900Y-40177147D01*
X170449900Y-39934027D01*
X170463911Y-39876770D01*
X170502774Y-39832453D01*
X170695801Y-39697295D01*
X170862895Y-39530201D01*
X170992826Y-39344639D01*
X171037143Y-39305775D01*
X171094400Y-39291764D01*
X171151657Y-39305775D01*
X171195973Y-39344639D01*
X171325905Y-39530201D01*
X171492999Y-39697295D01*
X171686570Y-39832835D01*
X171900737Y-39932703D01*
X172128992Y-39993863D01*
X172364400Y-40014459D01*
X172599808Y-39993863D01*
X172828063Y-39932703D01*
X173042230Y-39832835D01*
X173235801Y-39697295D01*
X173402895Y-39530201D01*
X173538435Y-39336630D01*
X173638303Y-39122463D01*
X173699463Y-38894208D01*
X173720059Y-38658800D01*
X173699463Y-38423392D01*
X173638303Y-38195137D01*
X173538435Y-37980971D01*
X173402895Y-37787399D01*
X173280580Y-37665084D01*
X173249285Y-37612339D01*
X173247096Y-37551046D01*
X173274549Y-37496201D01*
X173324928Y-37461222D01*
X173456489Y-37412152D01*
X173571588Y-37325988D01*
X173657752Y-37210889D01*
X173707997Y-37076175D01*
X173714400Y-37016624D01*
X173714400Y-36368800D01*
X172238400Y-36368800D01*
X172176400Y-36352187D01*
X172131013Y-36306800D01*
X172114400Y-36244800D01*
X172114400Y-34768800D01*
X172614400Y-34768800D01*
X172614400Y-35868800D01*
X173714400Y-35868800D01*
X173714400Y-35220976D01*
X173707997Y-35161424D01*
X173657752Y-35026710D01*
X173571588Y-34911611D01*
X173456489Y-34825447D01*
X173321775Y-34775202D01*
X173262224Y-34768800D01*
X172614400Y-34768800D01*
X172114400Y-34768800D01*
X171466576Y-34768800D01*
X171407024Y-34775202D01*
X171272310Y-34825447D01*
X171157211Y-34911611D01*
X171071047Y-35026711D01*
X171021978Y-35158271D01*
X170986999Y-35208650D01*
X170932154Y-35236103D01*
X170870861Y-35233914D01*
X170818115Y-35202618D01*
X170695802Y-35080305D01*
X170677777Y-35067684D01*
X170638911Y-35023366D01*
X170624900Y-34966109D01*
X170624900Y-34657007D01*
X170624900Y-34657006D01*
X170616381Y-34619681D01*
X170614053Y-34605976D01*
X170609768Y-34567945D01*
X170597125Y-34531811D01*
X170593276Y-34518450D01*
X170584760Y-34481139D01*
X170578273Y-34467668D01*
X170568150Y-34446650D01*
X170562832Y-34433808D01*
X170550190Y-34397680D01*
X170529823Y-34365266D01*
X170523097Y-34353095D01*
X170506492Y-34318614D01*
X170482625Y-34288686D01*
X170474577Y-34277343D01*
X170454216Y-34244938D01*
X170401931Y-34192653D01*
X170344100Y-34134822D01*
X170344098Y-34134819D01*
X170072662Y-33863383D01*
X169660058Y-33450780D01*
X169629809Y-33401418D01*
X169625267Y-33343702D01*
X169647422Y-33290215D01*
X169691445Y-33252615D01*
X169747740Y-33239100D01*
X173222348Y-33239100D01*
X173269801Y-33248539D01*
G37*
%TD.AperFunction*%
%TA.AperFunction,Conductor*%
G36*
X180336834Y-25408423D02*
G01*
X180374874Y-25431179D01*
X182182743Y-27013065D01*
X182329155Y-27141175D01*
X182360418Y-27183256D01*
X182371500Y-27234495D01*
X182371500Y-38604167D01*
X182371409Y-38607988D01*
X182371576Y-38608422D01*
X182374272Y-38611243D01*
X184857307Y-41342581D01*
X184879253Y-41366721D01*
X184903158Y-41405418D01*
X184911500Y-41450132D01*
X184911500Y-73862431D01*
X184902061Y-73909884D01*
X184875181Y-73950112D01*
X182388995Y-76436295D01*
X182388819Y-76436413D01*
X182371617Y-76453615D01*
X182371457Y-76453997D01*
X182371461Y-76478665D01*
X182371500Y-76478855D01*
X182371500Y-78869500D01*
X182354887Y-78931500D01*
X182309500Y-78976887D01*
X182247500Y-78993500D01*
X129664500Y-78993500D01*
X129602500Y-78976887D01*
X129557113Y-78931500D01*
X129540500Y-78869500D01*
X129540500Y-58865796D01*
X131025500Y-58865796D01*
X131034017Y-58903118D01*
X131036345Y-58916819D01*
X131040631Y-58954852D01*
X131053272Y-58990980D01*
X131057119Y-59004336D01*
X131065638Y-59041658D01*
X131082250Y-59076153D01*
X131087570Y-59088998D01*
X131100209Y-59125120D01*
X131110770Y-59141927D01*
X131120576Y-59157533D01*
X131127298Y-59169695D01*
X131143908Y-59204186D01*
X131167772Y-59234110D01*
X131175818Y-59245450D01*
X131196184Y-59277862D01*
X131228174Y-59309852D01*
X131566497Y-59648175D01*
X131898700Y-59980377D01*
X131898702Y-59980380D01*
X131907384Y-59989061D01*
X131907384Y-59989062D01*
X132034938Y-60116616D01*
X132067356Y-60136985D01*
X132078690Y-60145028D01*
X132108614Y-60168892D01*
X132143098Y-60185499D01*
X132155268Y-60192224D01*
X132155270Y-60192226D01*
X132187680Y-60212590D01*
X132223797Y-60225228D01*
X132236641Y-60230548D01*
X132267699Y-60245503D01*
X132271139Y-60247160D01*
X132308476Y-60255681D01*
X132321813Y-60259525D01*
X132357945Y-60272168D01*
X132395976Y-60276453D01*
X132409681Y-60278781D01*
X132447006Y-60287300D01*
X132492246Y-60287300D01*
X132627395Y-60287300D01*
X152868606Y-60287300D01*
X153003754Y-60287300D01*
X153048994Y-60287300D01*
X153048995Y-60287300D01*
X153059809Y-60284831D01*
X153086320Y-60278780D01*
X153099997Y-60276455D01*
X153138055Y-60272168D01*
X153174199Y-60259520D01*
X153187521Y-60255682D01*
X153224861Y-60247160D01*
X153259349Y-60230550D01*
X153272191Y-60225231D01*
X153308322Y-60212589D01*
X153340732Y-60192223D01*
X153352903Y-60185497D01*
X153387387Y-60168891D01*
X153417315Y-60145022D01*
X153428634Y-60136990D01*
X153461062Y-60116616D01*
X153588616Y-59989062D01*
X153647194Y-59930484D01*
X153647196Y-59930480D01*
X154064626Y-59513052D01*
X154064625Y-59513052D01*
X154096616Y-59481062D01*
X154096619Y-59481056D01*
X154101405Y-59476271D01*
X154103429Y-59470218D01*
X154116986Y-59448642D01*
X154125016Y-59437323D01*
X154148891Y-59407387D01*
X154165504Y-59372888D01*
X154172213Y-59360748D01*
X154192589Y-59328322D01*
X154205232Y-59292188D01*
X154210552Y-59279345D01*
X154214017Y-59272150D01*
X154227159Y-59244861D01*
X154235676Y-59207542D01*
X154239520Y-59194198D01*
X154252168Y-59158055D01*
X154256455Y-59120001D01*
X154258782Y-59106312D01*
X154267300Y-59068996D01*
X154267300Y-58485083D01*
X154285761Y-58419986D01*
X154306246Y-58386774D01*
X154377708Y-58270916D01*
X154431974Y-58107153D01*
X154442300Y-58006077D01*
X154442299Y-57407724D01*
X154431974Y-57306647D01*
X154377708Y-57142884D01*
X154287140Y-56996050D01*
X154287139Y-56996049D01*
X154287138Y-56996047D01*
X154173171Y-56882080D01*
X154141077Y-56826492D01*
X154141077Y-56762305D01*
X154173168Y-56706721D01*
X154287140Y-56592750D01*
X154377708Y-56445916D01*
X154431974Y-56282153D01*
X154442300Y-56181077D01*
X154442299Y-55582724D01*
X154431974Y-55481647D01*
X154377708Y-55317884D01*
X154307677Y-55204345D01*
X154285761Y-55168814D01*
X154267300Y-55103717D01*
X154267300Y-54797004D01*
X154280376Y-54741579D01*
X154316847Y-54697843D01*
X154369021Y-54675022D01*
X154425894Y-54677927D01*
X154460909Y-54688099D01*
X154463399Y-54688295D01*
X154463400Y-54688295D01*
X154463400Y-53090000D01*
X154480013Y-53028000D01*
X154525400Y-52982613D01*
X154587400Y-52966000D01*
X154839400Y-52966000D01*
X154901400Y-52982613D01*
X154946787Y-53028000D01*
X154963400Y-53090000D01*
X154963400Y-54688295D01*
X154965888Y-54688099D01*
X155123600Y-54642280D01*
X155278440Y-54550709D01*
X155279379Y-54552296D01*
X155315940Y-54531182D01*
X155380133Y-54531178D01*
X155417186Y-54552569D01*
X155418052Y-54551107D01*
X155431534Y-54559080D01*
X155431535Y-54559081D01*
X155483243Y-54589661D01*
X155573002Y-54642744D01*
X155730827Y-54688597D01*
X155730831Y-54688598D01*
X155767706Y-54691500D01*
X156199092Y-54691500D01*
X156199094Y-54691500D01*
X156235969Y-54688598D01*
X156393798Y-54642744D01*
X156535265Y-54559081D01*
X156651481Y-54442865D01*
X156735144Y-54301398D01*
X156780998Y-54143569D01*
X156783900Y-54106694D01*
X156783900Y-53663718D01*
X156800513Y-53601718D01*
X156810579Y-53584284D01*
X156869074Y-53404256D01*
X156888860Y-53216000D01*
X156869074Y-53027744D01*
X156810579Y-52847716D01*
X156800512Y-52830280D01*
X156783900Y-52768282D01*
X156783900Y-52486500D01*
X156800513Y-52424500D01*
X156845900Y-52379113D01*
X156907900Y-52362500D01*
X160441233Y-52362500D01*
X160491669Y-52373221D01*
X160603797Y-52423144D01*
X160788952Y-52462500D01*
X160788954Y-52462500D01*
X160978246Y-52462500D01*
X160978248Y-52462500D01*
X161157023Y-52424500D01*
X161163403Y-52423144D01*
X161336330Y-52346151D01*
X161409802Y-52292771D01*
X161489470Y-52234889D01*
X161616133Y-52094216D01*
X161710779Y-51930284D01*
X161721622Y-51896913D01*
X161769274Y-51750256D01*
X161789060Y-51562000D01*
X161769274Y-51373744D01*
X161735050Y-51268415D01*
X161710779Y-51193715D01*
X161616133Y-51029783D01*
X161489470Y-50889110D01*
X161336330Y-50777848D01*
X161163402Y-50700855D01*
X160978248Y-50661500D01*
X160978246Y-50661500D01*
X160788954Y-50661500D01*
X160788952Y-50661500D01*
X160603797Y-50700855D01*
X160491669Y-50750779D01*
X160441233Y-50761500D01*
X153724051Y-50761500D01*
X153667756Y-50747985D01*
X153623733Y-50710385D01*
X153601578Y-50656898D01*
X153606120Y-50599182D01*
X153636370Y-50549819D01*
X153672091Y-50514098D01*
X153827186Y-50359002D01*
X153843287Y-50346104D01*
X153845274Y-50343987D01*
X153845277Y-50343986D01*
X153891332Y-50294941D01*
X153894013Y-50292176D01*
X153913520Y-50272670D01*
X153915981Y-50269495D01*
X153923552Y-50260631D01*
X153953462Y-50228782D01*
X153963113Y-50211226D01*
X153973793Y-50194967D01*
X153986074Y-50179136D01*
X154003418Y-50139051D01*
X154008560Y-50128556D01*
X154029597Y-50090292D01*
X154034578Y-50070888D01*
X154040880Y-50052483D01*
X154048838Y-50034095D01*
X154055670Y-49990948D01*
X154058039Y-49979516D01*
X154068900Y-49937220D01*
X154068900Y-49917184D01*
X154070427Y-49897785D01*
X154071940Y-49888230D01*
X154073560Y-49878004D01*
X154069450Y-49834525D01*
X154068900Y-49822856D01*
X154068900Y-49771692D01*
X154085675Y-49709411D01*
X154131463Y-49663982D01*
X154193874Y-49647696D01*
X154256021Y-49664960D01*
X154303002Y-49692744D01*
X154460827Y-49738597D01*
X154460831Y-49738598D01*
X154497706Y-49741500D01*
X154929092Y-49741500D01*
X154929094Y-49741500D01*
X154965969Y-49738598D01*
X155123798Y-49692744D01*
X155253087Y-49616283D01*
X155278749Y-49601107D01*
X155279613Y-49602569D01*
X155316654Y-49581182D01*
X155380844Y-49581179D01*
X155417420Y-49602296D01*
X155418360Y-49600709D01*
X155573199Y-49692280D01*
X155730911Y-49738099D01*
X155733399Y-49738295D01*
X155733400Y-49738295D01*
X155733400Y-48516000D01*
X156233400Y-48516000D01*
X156233400Y-49738295D01*
X156235888Y-49738099D01*
X156393600Y-49692280D01*
X156534957Y-49608682D01*
X156651082Y-49492557D01*
X156734682Y-49351197D01*
X156780499Y-49193493D01*
X156783400Y-49156639D01*
X156783400Y-48516000D01*
X156233400Y-48516000D01*
X155733400Y-48516000D01*
X155733400Y-48140000D01*
X155750013Y-48078000D01*
X155795400Y-48032613D01*
X155857400Y-48016000D01*
X156783400Y-48016000D01*
X156783400Y-47457300D01*
X156800013Y-47395300D01*
X156845400Y-47349913D01*
X156907400Y-47333300D01*
X156930939Y-47333300D01*
X156989260Y-47347871D01*
X157033875Y-47388161D01*
X157054297Y-47444699D01*
X157063025Y-47530152D01*
X157117291Y-47693915D01*
X157207861Y-47840752D01*
X157329847Y-47962738D01*
X157329849Y-47962739D01*
X157329850Y-47962740D01*
X157397860Y-48004689D01*
X157476684Y-48053308D01*
X157640446Y-48107574D01*
X157649814Y-48108531D01*
X157741523Y-48117900D01*
X158339876Y-48117899D01*
X158440953Y-48107574D01*
X158604716Y-48053308D01*
X158751550Y-47962740D01*
X158802606Y-47911684D01*
X158865519Y-47848772D01*
X158921106Y-47816678D01*
X158985294Y-47816678D01*
X159040881Y-47848772D01*
X159154847Y-47962738D01*
X159154849Y-47962739D01*
X159154850Y-47962740D01*
X159222860Y-48004689D01*
X159301684Y-48053308D01*
X159465446Y-48107574D01*
X159474814Y-48108531D01*
X159566523Y-48117900D01*
X160164876Y-48117899D01*
X160265953Y-48107574D01*
X160429716Y-48053308D01*
X160576550Y-47962740D01*
X160576549Y-47962740D01*
X160578786Y-47961361D01*
X160643883Y-47942900D01*
X160957860Y-47942900D01*
X161005313Y-47952339D01*
X161045541Y-47979219D01*
X161528862Y-48462540D01*
X161559112Y-48511903D01*
X161580420Y-48577484D01*
X161675066Y-48741416D01*
X161801729Y-48882089D01*
X161954869Y-48993351D01*
X162127797Y-49070344D01*
X162312952Y-49109700D01*
X162312954Y-49109700D01*
X162502246Y-49109700D01*
X162502248Y-49109700D01*
X162625683Y-49083462D01*
X162687403Y-49070344D01*
X162860330Y-48993351D01*
X163013471Y-48882088D01*
X163140133Y-48741416D01*
X163234779Y-48577484D01*
X163293274Y-48397456D01*
X163313060Y-48209200D01*
X163293274Y-48020944D01*
X163252027Y-47893999D01*
X163234779Y-47840915D01*
X163140133Y-47676983D01*
X163013470Y-47536310D01*
X162860330Y-47425048D01*
X162692409Y-47350284D01*
X162655164Y-47324686D01*
X161843062Y-46512584D01*
X161810650Y-46492218D01*
X161799310Y-46484172D01*
X161769386Y-46460308D01*
X161734895Y-46443698D01*
X161722733Y-46436976D01*
X161701667Y-46423739D01*
X161690321Y-46416610D01*
X161659830Y-46405941D01*
X161603838Y-46366212D01*
X161577566Y-46302783D01*
X161589066Y-46235098D01*
X161634814Y-46183906D01*
X161700786Y-46164900D01*
X168815900Y-46164900D01*
X168877900Y-46181513D01*
X168923287Y-46226900D01*
X168939900Y-46288900D01*
X168939900Y-46768676D01*
X168950225Y-46869752D01*
X169004491Y-47033515D01*
X169095061Y-47180352D01*
X169217047Y-47302338D01*
X169217049Y-47302339D01*
X169217050Y-47302340D01*
X169292397Y-47348814D01*
X169335577Y-47393921D01*
X169351300Y-47454353D01*
X169351300Y-47521009D01*
X169335577Y-47581441D01*
X169292396Y-47626548D01*
X169265948Y-47642860D01*
X169143961Y-47764847D01*
X169053391Y-47911684D01*
X168999125Y-48075446D01*
X168988800Y-48176523D01*
X168988800Y-48749876D01*
X168999125Y-48850952D01*
X169053391Y-49014715D01*
X169143961Y-49161552D01*
X169265947Y-49283538D01*
X169412784Y-49374108D01*
X169576546Y-49428374D01*
X169585914Y-49429331D01*
X169677623Y-49438700D01*
X170275976Y-49438699D01*
X170377053Y-49428374D01*
X170540816Y-49374108D01*
X170687650Y-49283540D01*
X170735175Y-49236015D01*
X170801619Y-49169572D01*
X170857206Y-49137478D01*
X170921394Y-49137478D01*
X170976981Y-49169572D01*
X171090947Y-49283538D01*
X171237784Y-49374108D01*
X171401546Y-49428374D01*
X171411872Y-49429428D01*
X171502623Y-49438700D01*
X171576548Y-49438699D01*
X171632841Y-49452214D01*
X171676865Y-49489813D01*
X171699020Y-49543301D01*
X171694478Y-49601017D01*
X171664228Y-49650380D01*
X170507408Y-50807199D01*
X170491310Y-50820096D01*
X170443296Y-50871225D01*
X170440591Y-50874017D01*
X170421074Y-50893534D01*
X170418615Y-50896705D01*
X170411042Y-50905572D01*
X170381135Y-50937420D01*
X170371485Y-50954974D01*
X170360809Y-50971228D01*
X170348526Y-50987063D01*
X170331175Y-51027158D01*
X170326038Y-51037644D01*
X170305002Y-51075907D01*
X170300021Y-51095309D01*
X170293720Y-51113711D01*
X170285761Y-51132102D01*
X170278928Y-51175242D01*
X170276560Y-51186674D01*
X170265700Y-51228978D01*
X170265700Y-51249016D01*
X170264173Y-51268415D01*
X170261040Y-51288194D01*
X170265150Y-51331675D01*
X170265700Y-51343344D01*
X170265700Y-59150056D01*
X170263435Y-59170562D01*
X170265639Y-59240673D01*
X170265700Y-59244568D01*
X170265700Y-59272149D01*
X170266203Y-59276134D01*
X170267118Y-59287767D01*
X170268490Y-59331426D01*
X170274079Y-59350660D01*
X170278025Y-59369716D01*
X170280535Y-59389592D01*
X170296614Y-59430204D01*
X170300397Y-59441251D01*
X170312582Y-59483191D01*
X170322780Y-59500435D01*
X170331336Y-59517900D01*
X170338714Y-59536532D01*
X170338715Y-59536533D01*
X170364380Y-59571859D01*
X170370793Y-59581622D01*
X170393026Y-59619216D01*
X170393029Y-59619219D01*
X170393030Y-59619220D01*
X170407195Y-59633385D01*
X170419827Y-59648175D01*
X170431606Y-59664387D01*
X170465258Y-59692226D01*
X170473899Y-59700089D01*
X171303028Y-60529219D01*
X171333278Y-60578582D01*
X171337820Y-60636298D01*
X171315665Y-60689785D01*
X171271642Y-60727385D01*
X171215347Y-60740900D01*
X167875144Y-60740900D01*
X167854636Y-60738635D01*
X167784513Y-60740839D01*
X167780619Y-60740900D01*
X167753050Y-60740900D01*
X167749071Y-60741402D01*
X167737441Y-60742317D01*
X167693772Y-60743689D01*
X167674528Y-60749280D01*
X167655484Y-60753224D01*
X167635608Y-60755735D01*
X167595000Y-60771813D01*
X167583954Y-60775594D01*
X167542010Y-60787782D01*
X167542007Y-60787783D01*
X167524765Y-60797979D01*
X167507304Y-60806533D01*
X167488667Y-60813912D01*
X167453331Y-60839585D01*
X167443574Y-60845995D01*
X167405980Y-60868229D01*
X167391813Y-60882396D01*
X167377024Y-60895026D01*
X167360813Y-60906804D01*
X167332972Y-60940458D01*
X167325111Y-60949097D01*
X166697408Y-61576799D01*
X166681310Y-61589696D01*
X166633296Y-61640825D01*
X166630591Y-61643617D01*
X166611074Y-61663134D01*
X166608615Y-61666305D01*
X166601042Y-61675172D01*
X166571135Y-61707020D01*
X166561485Y-61724574D01*
X166550809Y-61740828D01*
X166538526Y-61756663D01*
X166521175Y-61796758D01*
X166516038Y-61807244D01*
X166495002Y-61845507D01*
X166490021Y-61864909D01*
X166483720Y-61883311D01*
X166475761Y-61901702D01*
X166468928Y-61944842D01*
X166466560Y-61956274D01*
X166455700Y-61998578D01*
X166455700Y-62018616D01*
X166454173Y-62038015D01*
X166451040Y-62057794D01*
X166455150Y-62101275D01*
X166455700Y-62112944D01*
X166455700Y-64459974D01*
X166441689Y-64517231D01*
X166402823Y-64561548D01*
X166383434Y-64575125D01*
X166209798Y-64696705D01*
X166042705Y-64863798D01*
X165912775Y-65049359D01*
X165868457Y-65088225D01*
X165811200Y-65102236D01*
X165753943Y-65088225D01*
X165709625Y-65049359D01*
X165643461Y-64954867D01*
X165579695Y-64863799D01*
X165412601Y-64696705D01*
X165219030Y-64561165D01*
X165004863Y-64461297D01*
X164943701Y-64444909D01*
X164776607Y-64400136D01*
X164541200Y-64379540D01*
X164305792Y-64400136D01*
X164077536Y-64461297D01*
X163863370Y-64561165D01*
X163669798Y-64696705D01*
X163502705Y-64863798D01*
X163367165Y-65057370D01*
X163267297Y-65271536D01*
X163206136Y-65499792D01*
X163185540Y-65735200D01*
X163206136Y-65970607D01*
X163250909Y-66137702D01*
X163267297Y-66198863D01*
X163367165Y-66413030D01*
X163502705Y-66606601D01*
X163502707Y-66606603D01*
X163502708Y-66606604D01*
X163625018Y-66728914D01*
X163656314Y-66781660D01*
X163658503Y-66842953D01*
X163631050Y-66897797D01*
X163580672Y-66932776D01*
X163449113Y-66981846D01*
X163334011Y-67068011D01*
X163247847Y-67183110D01*
X163197602Y-67317824D01*
X163191200Y-67377376D01*
X163191200Y-68025200D01*
X164667200Y-68025200D01*
X164729200Y-68041813D01*
X164774587Y-68087200D01*
X164791200Y-68149200D01*
X164791200Y-69625200D01*
X165439024Y-69625200D01*
X165498575Y-69618797D01*
X165633289Y-69568552D01*
X165748388Y-69482388D01*
X165834552Y-69367288D01*
X165883621Y-69235729D01*
X165918600Y-69185349D01*
X165973445Y-69157896D01*
X166034738Y-69160085D01*
X166087484Y-69191381D01*
X166209797Y-69313694D01*
X166227823Y-69326316D01*
X166266689Y-69370634D01*
X166280700Y-69427891D01*
X166280700Y-69568660D01*
X166271261Y-69616113D01*
X166244381Y-69656341D01*
X165922341Y-69978381D01*
X165882113Y-70005261D01*
X165834660Y-70014700D01*
X160606140Y-70014700D01*
X160558687Y-70005261D01*
X160518459Y-69978381D01*
X159065278Y-68525200D01*
X163191200Y-68525200D01*
X163191200Y-69173024D01*
X163197602Y-69232575D01*
X163247847Y-69367289D01*
X163334011Y-69482388D01*
X163449110Y-69568552D01*
X163583824Y-69618797D01*
X163643376Y-69625200D01*
X164291200Y-69625200D01*
X164291200Y-68525200D01*
X163191200Y-68525200D01*
X159065278Y-68525200D01*
X158561937Y-68021859D01*
X158531687Y-67972495D01*
X158510379Y-67906916D01*
X158415733Y-67742983D01*
X158289070Y-67602310D01*
X158135930Y-67491048D01*
X157968009Y-67416284D01*
X157930764Y-67390686D01*
X157777693Y-67237615D01*
X157777691Y-67237612D01*
X157760252Y-67220174D01*
X157760252Y-67220173D01*
X157728262Y-67188184D01*
X157713020Y-67178607D01*
X157695849Y-67167817D01*
X157684511Y-67159772D01*
X157654586Y-67135908D01*
X157620095Y-67119298D01*
X157607933Y-67112576D01*
X157592327Y-67102770D01*
X157575520Y-67092209D01*
X157539398Y-67079570D01*
X157526553Y-67074250D01*
X157492058Y-67057638D01*
X157454736Y-67049119D01*
X157441380Y-67045272D01*
X157405252Y-67032631D01*
X157367219Y-67028345D01*
X157353518Y-67026017D01*
X157316196Y-67017500D01*
X157316194Y-67017500D01*
X157270954Y-67017500D01*
X156925726Y-67017500D01*
X156860016Y-66998658D01*
X156814276Y-66947858D01*
X156802405Y-66880539D01*
X156810660Y-66802000D01*
X156790874Y-66613744D01*
X156732379Y-66433716D01*
X156732379Y-66433715D01*
X156637733Y-66269783D01*
X156511070Y-66129110D01*
X156357930Y-66017848D01*
X156185002Y-65940855D01*
X155999848Y-65901500D01*
X155999846Y-65901500D01*
X155810554Y-65901500D01*
X155810552Y-65901500D01*
X155625397Y-65940855D01*
X155452471Y-66017847D01*
X155437649Y-66028617D01*
X155403081Y-66046231D01*
X155364762Y-66052300D01*
X155147726Y-66052300D01*
X155082016Y-66033458D01*
X155036276Y-65982658D01*
X155024405Y-65915339D01*
X155032660Y-65836800D01*
X155012874Y-65648544D01*
X154954379Y-65468516D01*
X154954379Y-65468515D01*
X154859733Y-65304583D01*
X154733070Y-65163910D01*
X154579930Y-65052648D01*
X154407002Y-64975655D01*
X154221848Y-64936300D01*
X154221846Y-64936300D01*
X154032554Y-64936300D01*
X154032552Y-64936300D01*
X153847399Y-64975654D01*
X153732496Y-65026813D01*
X153671117Y-65036299D01*
X153671117Y-65036300D01*
X153671109Y-65036300D01*
X153668178Y-65036753D01*
X153664157Y-65036300D01*
X153664154Y-65036300D01*
X152591794Y-65036300D01*
X152411405Y-65036300D01*
X152411403Y-65036300D01*
X152374090Y-65044816D01*
X152360385Y-65047145D01*
X152322347Y-65051431D01*
X152286211Y-65064075D01*
X152272855Y-65067922D01*
X152235538Y-65076440D01*
X152201059Y-65093044D01*
X152188218Y-65098363D01*
X152152079Y-65111009D01*
X152119664Y-65131377D01*
X152107497Y-65138101D01*
X152073014Y-65154707D01*
X152043087Y-65178573D01*
X152031752Y-65186615D01*
X151999340Y-65206981D01*
X151949906Y-65256415D01*
X151658802Y-65547518D01*
X151598399Y-65580800D01*
X151529557Y-65576664D01*
X151473573Y-65536390D01*
X151447763Y-65472436D01*
X151445374Y-65449047D01*
X151391108Y-65285284D01*
X151309141Y-65152395D01*
X151300540Y-65138450D01*
X151300539Y-65138449D01*
X151300538Y-65138447D01*
X151178551Y-65016460D01*
X151152104Y-65000148D01*
X151108923Y-64955041D01*
X151093200Y-64894609D01*
X151093200Y-64848591D01*
X151108923Y-64788159D01*
X151152104Y-64743052D01*
X151156189Y-64740531D01*
X151178550Y-64726740D01*
X151300540Y-64604750D01*
X151391108Y-64457916D01*
X151445374Y-64294153D01*
X151455700Y-64193077D01*
X151455699Y-63619724D01*
X151454611Y-63609077D01*
X151445374Y-63518647D01*
X151391108Y-63354884D01*
X151351610Y-63290847D01*
X151300540Y-63208050D01*
X151300539Y-63208049D01*
X151300538Y-63208047D01*
X151178552Y-63086061D01*
X151031715Y-62995491D01*
X150867953Y-62941225D01*
X150771771Y-62931400D01*
X150766876Y-62930900D01*
X150093523Y-62930900D01*
X149992447Y-62941225D01*
X149828684Y-62995491D01*
X149681846Y-63086062D01*
X149642526Y-63125382D01*
X149586939Y-63157475D01*
X149522752Y-63157475D01*
X149467165Y-63125381D01*
X149428240Y-63086456D01*
X149281501Y-62995946D01*
X149117851Y-62941718D01*
X149016847Y-62931400D01*
X148930200Y-62931400D01*
X148930200Y-64032400D01*
X148913587Y-64094400D01*
X148868200Y-64139787D01*
X148806200Y-64156400D01*
X147655201Y-64156400D01*
X147655201Y-64193047D01*
X147665518Y-64294050D01*
X147719746Y-64457701D01*
X147810256Y-64604440D01*
X147932159Y-64726343D01*
X147996075Y-64765767D01*
X148039255Y-64810874D01*
X148054978Y-64871306D01*
X148039256Y-64931737D01*
X147996076Y-64976844D01*
X147931848Y-65016460D01*
X147809861Y-65138447D01*
X147803496Y-65148766D01*
X147802145Y-65150959D01*
X147801259Y-65152395D01*
X147756152Y-65195577D01*
X147695719Y-65211300D01*
X147122026Y-65211300D01*
X147064769Y-65197289D01*
X147020451Y-65158423D01*
X146885295Y-64965399D01*
X146718201Y-64798305D01*
X146525174Y-64663146D01*
X146486311Y-64618830D01*
X146472300Y-64561573D01*
X146472300Y-63836744D01*
X146474564Y-63816236D01*
X146472361Y-63746113D01*
X146472300Y-63742219D01*
X146472300Y-63714654D01*
X146472300Y-63714650D01*
X146471797Y-63710670D01*
X146470881Y-63699028D01*
X146470031Y-63671971D01*
X146469542Y-63656400D01*
X147655200Y-63656400D01*
X148430200Y-63656400D01*
X148430200Y-62931401D01*
X148343553Y-62931401D01*
X148242549Y-62941718D01*
X148078898Y-62995946D01*
X147932159Y-63086456D01*
X147810256Y-63208359D01*
X147719746Y-63355098D01*
X147665518Y-63518748D01*
X147655200Y-63619753D01*
X147655200Y-63656400D01*
X146469542Y-63656400D01*
X146469510Y-63655373D01*
X146463918Y-63636126D01*
X146459974Y-63617085D01*
X146457464Y-63597208D01*
X146441379Y-63556583D01*
X146437608Y-63545568D01*
X146425418Y-63503610D01*
X146415214Y-63486355D01*
X146406661Y-63468895D01*
X146399286Y-63450269D01*
X146399286Y-63450268D01*
X146373608Y-63414925D01*
X146367201Y-63405171D01*
X146350596Y-63377093D01*
X146344970Y-63367580D01*
X146330806Y-63353416D01*
X146318167Y-63338617D01*
X146306395Y-63322413D01*
X146272741Y-63294573D01*
X146264099Y-63286709D01*
X144620402Y-61643011D01*
X144607506Y-61626913D01*
X144556375Y-61578898D01*
X144553578Y-61576187D01*
X144534070Y-61556679D01*
X144530890Y-61554212D01*
X144522024Y-61546639D01*
X144490182Y-61516738D01*
X144472624Y-61507085D01*
X144456364Y-61496404D01*
X144440536Y-61484127D01*
X144400451Y-61466780D01*
X144389961Y-61461641D01*
X144351691Y-61440602D01*
X144332291Y-61435621D01*
X144313884Y-61429319D01*
X144295497Y-61421362D01*
X144252358Y-61414529D01*
X144240924Y-61412161D01*
X144198619Y-61401300D01*
X144178584Y-61401300D01*
X144159186Y-61399773D01*
X144151762Y-61398597D01*
X144139405Y-61396640D01*
X144139404Y-61396640D01*
X144113084Y-61399128D01*
X144095925Y-61400750D01*
X144084256Y-61401300D01*
X135566340Y-61401300D01*
X135545836Y-61399036D01*
X135475744Y-61401239D01*
X135471850Y-61401300D01*
X135444248Y-61401300D01*
X135440253Y-61401804D01*
X135428629Y-61402718D01*
X135384968Y-61404090D01*
X135365728Y-61409680D01*
X135346681Y-61413625D01*
X135326809Y-61416135D01*
X135286199Y-61432213D01*
X135275154Y-61435994D01*
X135233211Y-61448180D01*
X135215969Y-61458378D01*
X135198497Y-61466938D01*
X135179866Y-61474314D01*
X135144538Y-61499981D01*
X135134780Y-61506391D01*
X135097179Y-61528629D01*
X135083010Y-61542798D01*
X135068222Y-61555428D01*
X135052013Y-61567205D01*
X135024172Y-61600858D01*
X135016311Y-61609496D01*
X133779008Y-62846799D01*
X133762910Y-62859696D01*
X133714896Y-62910825D01*
X133712191Y-62913617D01*
X133692674Y-62933134D01*
X133690215Y-62936305D01*
X133682642Y-62945172D01*
X133652735Y-62977020D01*
X133643085Y-62994574D01*
X133632409Y-63010828D01*
X133620126Y-63026663D01*
X133602775Y-63066758D01*
X133597638Y-63077242D01*
X133596163Y-63079926D01*
X133576602Y-63115507D01*
X133571621Y-63134909D01*
X133565320Y-63153311D01*
X133557361Y-63171702D01*
X133550528Y-63214842D01*
X133548160Y-63226274D01*
X133537300Y-63268578D01*
X133537300Y-63288616D01*
X133535773Y-63308015D01*
X133533493Y-63322413D01*
X133532640Y-63327796D01*
X133534613Y-63348668D01*
X133536750Y-63371275D01*
X133537300Y-63382944D01*
X133537300Y-70122856D01*
X133535035Y-70143362D01*
X133537239Y-70213473D01*
X133537300Y-70217368D01*
X133537300Y-70244949D01*
X133537803Y-70248934D01*
X133538718Y-70260567D01*
X133540090Y-70304226D01*
X133545679Y-70323460D01*
X133549625Y-70342516D01*
X133552135Y-70362392D01*
X133568214Y-70403004D01*
X133571997Y-70414051D01*
X133584182Y-70455991D01*
X133594380Y-70473235D01*
X133602936Y-70490700D01*
X133610314Y-70509332D01*
X133610315Y-70509333D01*
X133635980Y-70544659D01*
X133642393Y-70554422D01*
X133664626Y-70592016D01*
X133664629Y-70592019D01*
X133664630Y-70592020D01*
X133678795Y-70606185D01*
X133691427Y-70620975D01*
X133703206Y-70637187D01*
X133736858Y-70665026D01*
X133745499Y-70672889D01*
X138183196Y-75110587D01*
X138196096Y-75126688D01*
X138247223Y-75174700D01*
X138250019Y-75177410D01*
X138269529Y-75196920D01*
X138272711Y-75199388D01*
X138281571Y-75206955D01*
X138303607Y-75227649D01*
X138313418Y-75236862D01*
X138330970Y-75246511D01*
X138347238Y-75257197D01*
X138363064Y-75269473D01*
X138403146Y-75286817D01*
X138413633Y-75291955D01*
X138451907Y-75312997D01*
X138460410Y-75315179D01*
X138471308Y-75317978D01*
X138489713Y-75324278D01*
X138508104Y-75332237D01*
X138551250Y-75339070D01*
X138562668Y-75341435D01*
X138604981Y-75352300D01*
X138625016Y-75352300D01*
X138644415Y-75353827D01*
X138664196Y-75356960D01*
X138707674Y-75352850D01*
X138719344Y-75352300D01*
X142728282Y-75352300D01*
X142794076Y-75371194D01*
X142839819Y-75422119D01*
X142851571Y-75489556D01*
X142844500Y-75555322D01*
X142844500Y-77251069D01*
X142850909Y-77310683D01*
X142901204Y-77445531D01*
X142987454Y-77560746D01*
X143102669Y-77646996D01*
X143237517Y-77697291D01*
X143297127Y-77703700D01*
X144992872Y-77703699D01*
X145052483Y-77697291D01*
X145187331Y-77646996D01*
X145302546Y-77560746D01*
X145388796Y-77445531D01*
X145439091Y-77310683D01*
X145442862Y-77275605D01*
X145463239Y-77219686D01*
X145507328Y-77179701D01*
X145564969Y-77164867D01*
X145622882Y-77178600D01*
X145667725Y-77217737D01*
X145684951Y-77242338D01*
X145845859Y-77403246D01*
X146032264Y-77533767D01*
X146032265Y-77533767D01*
X146032266Y-77533768D01*
X146238504Y-77629939D01*
X146458308Y-77688835D01*
X146685000Y-77708668D01*
X146911692Y-77688835D01*
X147131496Y-77629939D01*
X147337734Y-77533768D01*
X147524139Y-77403247D01*
X147685047Y-77242339D01*
X147815568Y-77055934D01*
X147842618Y-76997924D01*
X147888375Y-76945749D01*
X147955000Y-76926329D01*
X148021625Y-76945749D01*
X148067382Y-76997925D01*
X148094431Y-77055933D01*
X148224953Y-77242340D01*
X148385859Y-77403246D01*
X148572264Y-77533767D01*
X148572265Y-77533767D01*
X148572266Y-77533768D01*
X148778504Y-77629939D01*
X148998308Y-77688835D01*
X149225000Y-77708668D01*
X149451692Y-77688835D01*
X149671496Y-77629939D01*
X149877734Y-77533768D01*
X150064139Y-77403247D01*
X150225047Y-77242339D01*
X150355568Y-77055934D01*
X150382618Y-76997924D01*
X150428375Y-76945749D01*
X150495000Y-76926329D01*
X150561625Y-76945749D01*
X150607382Y-76997925D01*
X150634431Y-77055933D01*
X150764953Y-77242340D01*
X150925859Y-77403246D01*
X151112264Y-77533767D01*
X151112265Y-77533767D01*
X151112266Y-77533768D01*
X151318504Y-77629939D01*
X151538308Y-77688835D01*
X151765000Y-77708668D01*
X151991692Y-77688835D01*
X152211496Y-77629939D01*
X152417734Y-77533768D01*
X152604139Y-77403247D01*
X152765047Y-77242339D01*
X152895568Y-77055934D01*
X152922618Y-76997924D01*
X152968375Y-76945749D01*
X153035000Y-76926329D01*
X153101625Y-76945749D01*
X153147382Y-76997925D01*
X153174431Y-77055933D01*
X153304953Y-77242340D01*
X153465859Y-77403246D01*
X153652264Y-77533767D01*
X153652265Y-77533767D01*
X153652266Y-77533768D01*
X153858504Y-77629939D01*
X154078308Y-77688835D01*
X154305000Y-77708668D01*
X154531692Y-77688835D01*
X154751496Y-77629939D01*
X154957734Y-77533768D01*
X155144139Y-77403247D01*
X155305047Y-77242339D01*
X155435568Y-77055934D01*
X155462893Y-76997334D01*
X155508649Y-76945159D01*
X155575274Y-76925739D01*
X155641899Y-76945158D01*
X155687657Y-76997333D01*
X155714866Y-77055682D01*
X155845341Y-77242019D01*
X156006180Y-77402858D01*
X156192519Y-77533334D01*
X156398673Y-77629466D01*
X156594999Y-77682071D01*
X156595000Y-77682072D01*
X156595000Y-76653200D01*
X157095000Y-76653200D01*
X157095000Y-77682071D01*
X157291326Y-77629466D01*
X157497480Y-77533334D01*
X157683819Y-77402858D01*
X157844658Y-77242019D01*
X157975135Y-77055679D01*
X158002618Y-76996743D01*
X158048375Y-76944567D01*
X158115000Y-76925147D01*
X158181625Y-76944567D01*
X158227382Y-76996743D01*
X158254864Y-77055679D01*
X158385341Y-77242019D01*
X158546180Y-77402858D01*
X158732519Y-77533334D01*
X158938673Y-77629466D01*
X159134999Y-77682071D01*
X159135000Y-77682072D01*
X159135000Y-76653200D01*
X157095000Y-76653200D01*
X156595000Y-76653200D01*
X156595000Y-76277200D01*
X156611613Y-76215200D01*
X156657000Y-76169813D01*
X156719000Y-76153200D01*
X159511000Y-76153200D01*
X159573000Y-76169813D01*
X159618387Y-76215200D01*
X159635000Y-76277200D01*
X159635000Y-77682071D01*
X159831326Y-77629466D01*
X160037480Y-77533334D01*
X160223819Y-77402858D01*
X160384658Y-77242019D01*
X160515135Y-77055679D01*
X160542342Y-76997335D01*
X160588098Y-76945159D01*
X160654723Y-76925739D01*
X160721348Y-76945158D01*
X160767105Y-76997332D01*
X160794432Y-77055933D01*
X160794433Y-77055936D01*
X160924953Y-77242340D01*
X161085859Y-77403246D01*
X161272264Y-77533767D01*
X161272265Y-77533767D01*
X161272266Y-77533768D01*
X161478504Y-77629939D01*
X161698308Y-77688835D01*
X161925000Y-77708668D01*
X162151692Y-77688835D01*
X162371496Y-77629939D01*
X162577734Y-77533768D01*
X162764139Y-77403247D01*
X162925047Y-77242339D01*
X163055568Y-77055934D01*
X163151739Y-76849696D01*
X163210635Y-76629892D01*
X163230468Y-76403200D01*
X163210635Y-76176508D01*
X163151739Y-75956704D01*
X163055568Y-75750466D01*
X162925270Y-75564380D01*
X162925046Y-75564059D01*
X162924968Y-75563981D01*
X162924802Y-75563710D01*
X162918825Y-75555174D01*
X162919347Y-75554808D01*
X162894718Y-75514618D01*
X162890176Y-75456902D01*
X162912331Y-75403415D01*
X162956354Y-75365815D01*
X163012649Y-75352300D01*
X165917351Y-75352300D01*
X165973646Y-75365815D01*
X166017669Y-75403415D01*
X166039824Y-75456902D01*
X166035282Y-75514618D01*
X166010652Y-75554808D01*
X166011175Y-75555174D01*
X166005197Y-75563710D01*
X166005032Y-75563981D01*
X166004953Y-75564059D01*
X165874432Y-75750464D01*
X165778261Y-75956702D01*
X165719364Y-76176510D01*
X165699531Y-76403199D01*
X165719364Y-76629889D01*
X165778261Y-76849697D01*
X165874432Y-77055935D01*
X166004953Y-77242340D01*
X166165859Y-77403246D01*
X166352264Y-77533767D01*
X166352265Y-77533767D01*
X166352266Y-77533768D01*
X166558504Y-77629939D01*
X166778308Y-77688835D01*
X167005000Y-77708668D01*
X167231692Y-77688835D01*
X167451496Y-77629939D01*
X167657734Y-77533768D01*
X167844139Y-77403247D01*
X168005047Y-77242339D01*
X168135568Y-77055934D01*
X168162618Y-76997924D01*
X168208375Y-76945749D01*
X168275000Y-76926329D01*
X168341625Y-76945749D01*
X168387382Y-76997925D01*
X168414431Y-77055933D01*
X168544953Y-77242340D01*
X168705859Y-77403246D01*
X168892264Y-77533767D01*
X168892265Y-77533767D01*
X168892266Y-77533768D01*
X169098504Y-77629939D01*
X169318308Y-77688835D01*
X169545000Y-77708668D01*
X169771692Y-77688835D01*
X169991496Y-77629939D01*
X170197734Y-77533768D01*
X170384139Y-77403247D01*
X170545047Y-77242339D01*
X170675568Y-77055934D01*
X170702618Y-76997924D01*
X170748375Y-76945749D01*
X170815000Y-76926329D01*
X170881625Y-76945749D01*
X170927382Y-76997925D01*
X170954431Y-77055933D01*
X171084953Y-77242340D01*
X171245859Y-77403246D01*
X171432264Y-77533767D01*
X171432265Y-77533767D01*
X171432266Y-77533768D01*
X171638504Y-77629939D01*
X171858308Y-77688835D01*
X172085000Y-77708668D01*
X172311692Y-77688835D01*
X172531496Y-77629939D01*
X172737734Y-77533768D01*
X172924139Y-77403247D01*
X173085047Y-77242339D01*
X173215568Y-77055934D01*
X173242618Y-76997924D01*
X173288375Y-76945749D01*
X173355000Y-76926329D01*
X173421625Y-76945749D01*
X173467382Y-76997925D01*
X173494431Y-77055933D01*
X173624953Y-77242340D01*
X173785859Y-77403246D01*
X173972264Y-77533767D01*
X173972265Y-77533767D01*
X173972266Y-77533768D01*
X174178504Y-77629939D01*
X174398308Y-77688835D01*
X174625000Y-77708668D01*
X174851692Y-77688835D01*
X175071496Y-77629939D01*
X175277734Y-77533768D01*
X175464139Y-77403247D01*
X175625047Y-77242339D01*
X175755568Y-77055934D01*
X175782618Y-76997924D01*
X175828375Y-76945749D01*
X175895000Y-76926329D01*
X175961625Y-76945749D01*
X176007382Y-76997925D01*
X176034431Y-77055933D01*
X176164953Y-77242340D01*
X176325859Y-77403246D01*
X176512264Y-77533767D01*
X176512265Y-77533767D01*
X176512266Y-77533768D01*
X176718504Y-77629939D01*
X176938308Y-77688835D01*
X177165000Y-77708668D01*
X177391692Y-77688835D01*
X177611496Y-77629939D01*
X177817734Y-77533768D01*
X178004139Y-77403247D01*
X178165047Y-77242339D01*
X178295568Y-77055934D01*
X178322618Y-76997924D01*
X178368375Y-76945749D01*
X178435000Y-76926329D01*
X178501625Y-76945749D01*
X178547382Y-76997925D01*
X178574431Y-77055933D01*
X178704953Y-77242340D01*
X178865859Y-77403246D01*
X179052264Y-77533767D01*
X179052265Y-77533767D01*
X179052266Y-77533768D01*
X179258504Y-77629939D01*
X179478308Y-77688835D01*
X179705000Y-77708668D01*
X179931692Y-77688835D01*
X180151496Y-77629939D01*
X180357734Y-77533768D01*
X180544139Y-77403247D01*
X180705047Y-77242339D01*
X180835568Y-77055934D01*
X180931739Y-76849696D01*
X180990635Y-76629892D01*
X181010468Y-76403200D01*
X180990635Y-76176508D01*
X180931739Y-75956704D01*
X180835568Y-75750466D01*
X180705270Y-75564380D01*
X180705046Y-75564059D01*
X180544140Y-75403153D01*
X180383377Y-75290587D01*
X180344511Y-75246269D01*
X180330500Y-75189012D01*
X180330500Y-62846140D01*
X180332763Y-62825636D01*
X180330561Y-62755544D01*
X180330500Y-62751650D01*
X180330500Y-62724057D01*
X180330500Y-62724050D01*
X180329995Y-62720053D01*
X180329080Y-62708423D01*
X180328458Y-62688619D01*
X180327709Y-62664773D01*
X180322120Y-62645537D01*
X180318176Y-62626493D01*
X180315664Y-62606608D01*
X180299582Y-62565991D01*
X180295798Y-62554940D01*
X180283617Y-62513010D01*
X180273421Y-62495769D01*
X180264863Y-62478302D01*
X180257486Y-62459668D01*
X180231798Y-62424312D01*
X180225409Y-62414584D01*
X180203170Y-62376979D01*
X180189006Y-62362815D01*
X180176369Y-62348020D01*
X180164595Y-62331814D01*
X180164594Y-62331813D01*
X180130935Y-62303968D01*
X180122305Y-62296114D01*
X178912172Y-61085981D01*
X178881922Y-61036618D01*
X178877380Y-60978902D01*
X178899535Y-60925415D01*
X178943558Y-60887815D01*
X178999853Y-60874300D01*
X180663656Y-60874300D01*
X180684162Y-60876564D01*
X180687065Y-60876472D01*
X180687067Y-60876473D01*
X180754272Y-60874361D01*
X180758168Y-60874300D01*
X180785749Y-60874300D01*
X180785750Y-60874300D01*
X180789719Y-60873798D01*
X180801365Y-60872880D01*
X180845027Y-60871509D01*
X180864259Y-60865920D01*
X180883318Y-60861974D01*
X180889596Y-60861181D01*
X180903192Y-60859464D01*
X180943807Y-60843382D01*
X180954844Y-60839603D01*
X180996790Y-60827418D01*
X181014029Y-60817222D01*
X181031502Y-60808662D01*
X181036879Y-60806533D01*
X181050132Y-60801286D01*
X181085464Y-60775614D01*
X181095230Y-60769200D01*
X181132818Y-60746971D01*
X181132817Y-60746971D01*
X181132820Y-60746970D01*
X181146985Y-60732804D01*
X181161773Y-60720173D01*
X181177987Y-60708394D01*
X181205838Y-60674726D01*
X181213679Y-60666109D01*
X183720989Y-58158800D01*
X183737085Y-58145906D01*
X183739073Y-58143787D01*
X183739077Y-58143786D01*
X183785148Y-58094723D01*
X183787766Y-58092023D01*
X183807320Y-58072471D01*
X183809781Y-58069298D01*
X183817356Y-58060427D01*
X183847262Y-58028582D01*
X183856917Y-58011018D01*
X183867594Y-57994764D01*
X183879873Y-57978936D01*
X183897218Y-57938852D01*
X183902360Y-57928356D01*
X183914460Y-57906347D01*
X183923397Y-57890092D01*
X183928379Y-57870684D01*
X183934681Y-57852280D01*
X183942637Y-57833896D01*
X183949469Y-57790752D01*
X183951833Y-57779338D01*
X183962700Y-57737019D01*
X183962700Y-57716983D01*
X183964227Y-57697584D01*
X183967360Y-57677804D01*
X183963250Y-57634328D01*
X183962700Y-57622658D01*
X183962700Y-44075540D01*
X183964963Y-44055036D01*
X183962761Y-43984944D01*
X183962700Y-43981050D01*
X183962700Y-43953457D01*
X183962700Y-43953450D01*
X183962195Y-43949453D01*
X183961280Y-43937823D01*
X183961019Y-43929510D01*
X183959909Y-43894172D01*
X183954319Y-43874934D01*
X183950374Y-43855882D01*
X183947864Y-43836008D01*
X183931778Y-43795381D01*
X183928005Y-43784360D01*
X183915817Y-43742410D01*
X183905621Y-43725169D01*
X183897063Y-43707702D01*
X183889686Y-43689068D01*
X183863998Y-43653712D01*
X183857609Y-43643984D01*
X183835370Y-43606379D01*
X183821205Y-43592214D01*
X183808569Y-43577420D01*
X183796795Y-43561214D01*
X183796794Y-43561213D01*
X183763135Y-43533368D01*
X183754505Y-43525514D01*
X179427019Y-39198028D01*
X179400139Y-39157800D01*
X179390700Y-39110347D01*
X179390700Y-31629544D01*
X179392964Y-31609036D01*
X179390761Y-31538913D01*
X179390700Y-31535019D01*
X179390700Y-31507454D01*
X179390700Y-31507450D01*
X179390197Y-31503470D01*
X179389281Y-31491828D01*
X179388984Y-31482368D01*
X179387910Y-31448173D01*
X179382318Y-31428926D01*
X179378374Y-31409885D01*
X179375864Y-31390008D01*
X179359779Y-31349383D01*
X179356008Y-31338368D01*
X179343818Y-31296410D01*
X179333614Y-31279155D01*
X179325061Y-31261695D01*
X179317686Y-31243068D01*
X179292008Y-31207725D01*
X179285601Y-31197971D01*
X179263370Y-31160380D01*
X179249206Y-31146216D01*
X179236567Y-31131417D01*
X179224795Y-31115213D01*
X179191141Y-31087373D01*
X179182499Y-31079509D01*
X177826819Y-29723828D01*
X177799939Y-29683600D01*
X177790500Y-29636147D01*
X177790500Y-29357388D01*
X177804511Y-29300131D01*
X177843377Y-29255813D01*
X178004140Y-29143246D01*
X178165046Y-28982340D01*
X178165271Y-28982019D01*
X178295568Y-28795934D01*
X178322618Y-28737924D01*
X178368375Y-28685749D01*
X178435000Y-28666329D01*
X178501625Y-28685749D01*
X178547382Y-28737925D01*
X178574431Y-28795933D01*
X178704953Y-28982340D01*
X178865859Y-29143246D01*
X179052264Y-29273767D01*
X179052265Y-29273767D01*
X179052266Y-29273768D01*
X179258504Y-29369939D01*
X179478308Y-29428835D01*
X179705000Y-29448668D01*
X179931692Y-29428835D01*
X180151496Y-29369939D01*
X180357734Y-29273768D01*
X180544139Y-29143247D01*
X180705047Y-28982339D01*
X180835568Y-28795934D01*
X180931739Y-28589696D01*
X180990635Y-28369892D01*
X181010468Y-28143200D01*
X180990635Y-27916508D01*
X180931739Y-27696704D01*
X180835568Y-27490466D01*
X180705270Y-27304380D01*
X180705046Y-27304059D01*
X180544140Y-27143153D01*
X180357735Y-27012632D01*
X180151497Y-26916461D01*
X179931689Y-26857564D01*
X179705000Y-26837731D01*
X179478310Y-26857564D01*
X179258502Y-26916461D01*
X179052264Y-27012632D01*
X178865859Y-27143153D01*
X178704953Y-27304059D01*
X178574433Y-27490463D01*
X178547382Y-27548475D01*
X178501625Y-27600650D01*
X178435000Y-27620069D01*
X178368375Y-27600650D01*
X178322618Y-27548475D01*
X178295687Y-27490722D01*
X178295568Y-27490466D01*
X178295566Y-27490463D01*
X178165046Y-27304059D01*
X178004140Y-27143153D01*
X177817735Y-27012632D01*
X177611497Y-26916461D01*
X177391689Y-26857564D01*
X177165000Y-26837731D01*
X176938310Y-26857564D01*
X176718502Y-26916461D01*
X176512264Y-27012632D01*
X176325859Y-27143153D01*
X176164953Y-27304059D01*
X176034433Y-27490463D01*
X176007382Y-27548475D01*
X175961625Y-27600650D01*
X175895000Y-27620069D01*
X175828375Y-27600650D01*
X175782618Y-27548475D01*
X175755687Y-27490722D01*
X175755568Y-27490466D01*
X175755566Y-27490463D01*
X175625046Y-27304059D01*
X175464140Y-27143153D01*
X175277735Y-27012632D01*
X175071497Y-26916461D01*
X174851689Y-26857564D01*
X174625000Y-26837731D01*
X174398310Y-26857564D01*
X174178502Y-26916461D01*
X173972264Y-27012632D01*
X173785859Y-27143153D01*
X173624953Y-27304059D01*
X173494433Y-27490463D01*
X173467382Y-27548475D01*
X173421625Y-27600650D01*
X173355000Y-27620069D01*
X173288375Y-27600650D01*
X173242618Y-27548475D01*
X173215687Y-27490722D01*
X173215568Y-27490466D01*
X173215566Y-27490463D01*
X173085046Y-27304059D01*
X172924140Y-27143153D01*
X172737735Y-27012632D01*
X172531497Y-26916461D01*
X172311689Y-26857564D01*
X172085000Y-26837731D01*
X171858310Y-26857564D01*
X171638502Y-26916461D01*
X171432264Y-27012632D01*
X171245859Y-27143153D01*
X171084953Y-27304059D01*
X170954433Y-27490463D01*
X170927382Y-27548475D01*
X170881625Y-27600650D01*
X170815000Y-27620069D01*
X170748375Y-27600650D01*
X170702618Y-27548475D01*
X170675687Y-27490722D01*
X170675568Y-27490466D01*
X170675566Y-27490463D01*
X170545046Y-27304059D01*
X170384140Y-27143153D01*
X170197735Y-27012632D01*
X169991497Y-26916461D01*
X169771689Y-26857564D01*
X169545000Y-26837731D01*
X169318310Y-26857564D01*
X169098502Y-26916461D01*
X168892264Y-27012632D01*
X168705859Y-27143153D01*
X168544953Y-27304059D01*
X168414433Y-27490463D01*
X168387382Y-27548475D01*
X168341625Y-27600650D01*
X168275000Y-27620069D01*
X168208375Y-27600650D01*
X168162618Y-27548475D01*
X168135687Y-27490722D01*
X168135568Y-27490466D01*
X168135566Y-27490463D01*
X168005046Y-27304059D01*
X167844140Y-27143153D01*
X167657735Y-27012632D01*
X167451497Y-26916461D01*
X167231689Y-26857564D01*
X167005000Y-26837731D01*
X166778310Y-26857564D01*
X166558502Y-26916461D01*
X166352264Y-27012632D01*
X166165859Y-27143153D01*
X166004953Y-27304059D01*
X165874433Y-27490463D01*
X165847382Y-27548475D01*
X165801625Y-27600650D01*
X165735000Y-27620069D01*
X165668375Y-27600650D01*
X165622618Y-27548475D01*
X165595687Y-27490722D01*
X165595568Y-27490466D01*
X165595566Y-27490463D01*
X165465046Y-27304059D01*
X165304140Y-27143153D01*
X165117735Y-27012632D01*
X164911497Y-26916461D01*
X164691689Y-26857564D01*
X164465000Y-26837731D01*
X164238310Y-26857564D01*
X164018502Y-26916461D01*
X163812264Y-27012632D01*
X163625859Y-27143153D01*
X163464953Y-27304059D01*
X163334433Y-27490463D01*
X163307382Y-27548475D01*
X163261625Y-27600650D01*
X163195000Y-27620069D01*
X163128375Y-27600650D01*
X163082618Y-27548475D01*
X163055687Y-27490722D01*
X163055568Y-27490466D01*
X163055566Y-27490463D01*
X162925046Y-27304059D01*
X162764140Y-27143153D01*
X162577735Y-27012632D01*
X162371497Y-26916461D01*
X162151689Y-26857564D01*
X161925000Y-26837731D01*
X161698310Y-26857564D01*
X161478502Y-26916461D01*
X161272264Y-27012632D01*
X161085859Y-27143153D01*
X160924953Y-27304059D01*
X160794432Y-27490464D01*
X160698261Y-27696702D01*
X160639364Y-27916510D01*
X160619531Y-28143200D01*
X160639364Y-28369889D01*
X160698261Y-28589697D01*
X160794432Y-28795935D01*
X160924953Y-28982340D01*
X161085859Y-29143246D01*
X161246623Y-29255813D01*
X161285489Y-29300131D01*
X161299500Y-29357388D01*
X161299500Y-29890147D01*
X161290061Y-29937600D01*
X161263181Y-29977828D01*
X160457628Y-30783381D01*
X160417400Y-30810261D01*
X160369947Y-30819700D01*
X157816251Y-30819700D01*
X157759956Y-30806185D01*
X157715933Y-30768585D01*
X157693778Y-30715098D01*
X157698320Y-30657382D01*
X157728570Y-30608019D01*
X157880970Y-30455619D01*
X158248788Y-30087801D01*
X158264885Y-30074906D01*
X158266873Y-30072787D01*
X158266877Y-30072786D01*
X158312948Y-30023723D01*
X158315566Y-30021023D01*
X158335120Y-30001471D01*
X158337581Y-29998298D01*
X158345156Y-29989427D01*
X158375062Y-29957582D01*
X158384712Y-29940027D01*
X158395400Y-29923757D01*
X158396159Y-29922779D01*
X158407673Y-29907936D01*
X158425026Y-29867832D01*
X158430157Y-29857362D01*
X158433681Y-29850952D01*
X158451197Y-29819092D01*
X158456175Y-29799699D01*
X158462481Y-29781282D01*
X158467806Y-29768977D01*
X158470438Y-29762896D01*
X158477272Y-29719745D01*
X158479635Y-29708331D01*
X158490500Y-29666019D01*
X158490500Y-29645984D01*
X158492027Y-29626585D01*
X158495160Y-29606804D01*
X158491050Y-29563325D01*
X158490500Y-29551656D01*
X158490500Y-29357388D01*
X158504511Y-29300131D01*
X158543377Y-29255813D01*
X158704140Y-29143246D01*
X158865046Y-28982340D01*
X158995566Y-28795936D01*
X158995568Y-28795934D01*
X159091739Y-28589696D01*
X159150635Y-28369892D01*
X159170468Y-28143200D01*
X159150635Y-27916508D01*
X159091739Y-27696704D01*
X158995568Y-27490466D01*
X158865270Y-27304380D01*
X158865046Y-27304059D01*
X158704140Y-27143153D01*
X158517735Y-27012632D01*
X158311497Y-26916461D01*
X158091689Y-26857564D01*
X157865000Y-26837731D01*
X157638310Y-26857564D01*
X157418502Y-26916461D01*
X157212264Y-27012632D01*
X157025859Y-27143153D01*
X156864953Y-27304059D01*
X156734433Y-27490463D01*
X156707382Y-27548475D01*
X156661625Y-27600650D01*
X156595000Y-27620069D01*
X156528375Y-27600650D01*
X156482618Y-27548475D01*
X156455687Y-27490722D01*
X156455568Y-27490466D01*
X156455566Y-27490463D01*
X156325046Y-27304059D01*
X156164140Y-27143153D01*
X155977735Y-27012632D01*
X155771497Y-26916461D01*
X155551689Y-26857564D01*
X155325000Y-26837731D01*
X155098310Y-26857564D01*
X154878502Y-26916461D01*
X154672264Y-27012632D01*
X154485859Y-27143153D01*
X154324953Y-27304059D01*
X154194433Y-27490463D01*
X154167382Y-27548475D01*
X154121625Y-27600650D01*
X154055000Y-27620069D01*
X153988375Y-27600650D01*
X153942618Y-27548475D01*
X153915687Y-27490722D01*
X153915568Y-27490466D01*
X153915566Y-27490463D01*
X153785046Y-27304059D01*
X153624140Y-27143153D01*
X153437735Y-27012632D01*
X153231497Y-26916461D01*
X153011689Y-26857564D01*
X152785000Y-26837731D01*
X152558310Y-26857564D01*
X152338502Y-26916461D01*
X152132264Y-27012632D01*
X151945859Y-27143153D01*
X151784953Y-27304059D01*
X151654433Y-27490463D01*
X151627382Y-27548475D01*
X151581625Y-27600650D01*
X151515000Y-27620069D01*
X151448375Y-27600650D01*
X151402618Y-27548475D01*
X151375687Y-27490722D01*
X151375568Y-27490466D01*
X151375566Y-27490463D01*
X151245046Y-27304059D01*
X151084140Y-27143153D01*
X150897735Y-27012632D01*
X150691497Y-26916461D01*
X150471689Y-26857564D01*
X150245000Y-26837731D01*
X150018310Y-26857564D01*
X149798502Y-26916461D01*
X149592264Y-27012632D01*
X149405859Y-27143153D01*
X149244953Y-27304059D01*
X149114433Y-27490463D01*
X149087382Y-27548475D01*
X149041625Y-27600650D01*
X148975000Y-27620069D01*
X148908375Y-27600650D01*
X148862618Y-27548475D01*
X148835687Y-27490722D01*
X148835568Y-27490466D01*
X148835566Y-27490463D01*
X148705046Y-27304059D01*
X148544140Y-27143153D01*
X148357735Y-27012632D01*
X148151497Y-26916461D01*
X147931689Y-26857564D01*
X147705000Y-26837731D01*
X147478310Y-26857564D01*
X147258502Y-26916461D01*
X147052264Y-27012632D01*
X146865859Y-27143153D01*
X146704953Y-27304059D01*
X146574433Y-27490463D01*
X146547382Y-27548475D01*
X146501625Y-27600650D01*
X146435000Y-27620069D01*
X146368375Y-27600650D01*
X146322618Y-27548475D01*
X146295687Y-27490722D01*
X146295568Y-27490466D01*
X146295566Y-27490463D01*
X146165046Y-27304059D01*
X146004140Y-27143153D01*
X145817735Y-27012632D01*
X145611497Y-26916461D01*
X145391689Y-26857564D01*
X145165000Y-26837731D01*
X144938310Y-26857564D01*
X144718502Y-26916461D01*
X144512264Y-27012632D01*
X144325859Y-27143153D01*
X144164953Y-27304059D01*
X144034430Y-27490467D01*
X144007105Y-27549066D01*
X143961348Y-27601241D01*
X143894723Y-27620660D01*
X143828099Y-27601240D01*
X143782342Y-27549065D01*
X143755134Y-27490719D01*
X143624658Y-27304380D01*
X143463819Y-27143541D01*
X143277480Y-27013065D01*
X143071326Y-26916933D01*
X142875000Y-26864328D01*
X142875000Y-29422071D01*
X143071326Y-29369466D01*
X143277480Y-29273334D01*
X143463819Y-29142858D01*
X143624658Y-28982019D01*
X143755135Y-28795679D01*
X143782342Y-28737335D01*
X143828098Y-28685159D01*
X143894723Y-28665739D01*
X143961348Y-28685158D01*
X144007105Y-28737332D01*
X144034432Y-28795933D01*
X144034433Y-28795936D01*
X144164953Y-28982340D01*
X144325859Y-29143246D01*
X144512264Y-29273767D01*
X144512265Y-29273767D01*
X144512266Y-29273768D01*
X144718504Y-29369939D01*
X144938308Y-29428835D01*
X145165000Y-29448668D01*
X145391692Y-29428835D01*
X145611496Y-29369939D01*
X145817734Y-29273768D01*
X146004139Y-29143247D01*
X146165047Y-28982339D01*
X146295568Y-28795934D01*
X146322618Y-28737924D01*
X146368375Y-28685749D01*
X146435000Y-28666329D01*
X146501625Y-28685749D01*
X146547382Y-28737925D01*
X146574431Y-28795933D01*
X146704953Y-28982340D01*
X146865859Y-29143246D01*
X147052264Y-29273767D01*
X147052265Y-29273767D01*
X147052266Y-29273768D01*
X147258504Y-29369939D01*
X147478308Y-29428835D01*
X147705000Y-29448668D01*
X147931692Y-29428835D01*
X148151496Y-29369939D01*
X148357734Y-29273768D01*
X148544139Y-29143247D01*
X148705047Y-28982339D01*
X148835568Y-28795934D01*
X148862618Y-28737924D01*
X148908375Y-28685749D01*
X148975000Y-28666329D01*
X149041625Y-28685749D01*
X149087382Y-28737925D01*
X149114431Y-28795933D01*
X149244953Y-28982340D01*
X149405859Y-29143246D01*
X149592264Y-29273767D01*
X149592265Y-29273767D01*
X149592266Y-29273768D01*
X149798504Y-29369939D01*
X150018308Y-29428835D01*
X150245000Y-29448668D01*
X150471692Y-29428835D01*
X150691496Y-29369939D01*
X150897734Y-29273768D01*
X151084139Y-29143247D01*
X151245047Y-28982339D01*
X151375568Y-28795934D01*
X151402618Y-28737924D01*
X151448375Y-28685749D01*
X151515000Y-28666329D01*
X151581625Y-28685749D01*
X151627382Y-28737925D01*
X151654431Y-28795933D01*
X151784953Y-28982340D01*
X151945859Y-29143246D01*
X152132264Y-29273767D01*
X152132265Y-29273767D01*
X152132266Y-29273768D01*
X152338504Y-29369939D01*
X152558308Y-29428835D01*
X152785000Y-29448668D01*
X153011692Y-29428835D01*
X153231496Y-29369939D01*
X153437734Y-29273768D01*
X153624139Y-29143247D01*
X153785047Y-28982339D01*
X153915568Y-28795934D01*
X153942618Y-28737924D01*
X153988375Y-28685749D01*
X154055000Y-28666329D01*
X154121625Y-28685749D01*
X154167382Y-28737925D01*
X154194431Y-28795933D01*
X154324953Y-28982340D01*
X154485858Y-29143245D01*
X154485861Y-29143247D01*
X154574669Y-29205431D01*
X154610933Y-29245004D01*
X154627074Y-29296197D01*
X154620068Y-29349415D01*
X154591227Y-29394686D01*
X152282289Y-31703624D01*
X152224605Y-31736260D01*
X152158352Y-31734524D01*
X152102457Y-31698914D01*
X152091471Y-31686712D01*
X152091470Y-31686711D01*
X152091468Y-31686709D01*
X151938330Y-31575448D01*
X151765402Y-31498455D01*
X151580248Y-31459100D01*
X151580246Y-31459100D01*
X151390954Y-31459100D01*
X151390952Y-31459100D01*
X151205797Y-31498455D01*
X151032869Y-31575448D01*
X150879729Y-31686710D01*
X150753066Y-31827383D01*
X150651906Y-32002601D01*
X150649557Y-32001245D01*
X150631314Y-32031006D01*
X150326738Y-32335583D01*
X150286513Y-32362461D01*
X150239060Y-32371900D01*
X148575328Y-32371900D01*
X148520193Y-32358968D01*
X148476558Y-32322870D01*
X148453524Y-32271135D01*
X148455896Y-32214554D01*
X148483178Y-32164928D01*
X148560533Y-32079016D01*
X148655179Y-31915084D01*
X148658523Y-31904793D01*
X148713674Y-31735056D01*
X148733460Y-31546800D01*
X148713674Y-31358544D01*
X148663718Y-31204796D01*
X148655179Y-31178515D01*
X148560533Y-31014583D01*
X148433870Y-30873910D01*
X148280730Y-30762648D01*
X148107802Y-30685655D01*
X147922648Y-30646300D01*
X147922646Y-30646300D01*
X147733354Y-30646300D01*
X147733352Y-30646300D01*
X147548197Y-30685655D01*
X147375269Y-30762648D01*
X147222129Y-30873910D01*
X147095466Y-31014583D01*
X147051521Y-31090700D01*
X147006134Y-31136087D01*
X146944134Y-31152700D01*
X146218669Y-31152700D01*
X146162374Y-31139185D01*
X146118351Y-31101585D01*
X146096196Y-31048098D01*
X146100738Y-30990382D01*
X146122874Y-30922256D01*
X146142660Y-30734000D01*
X146122874Y-30545744D01*
X146086141Y-30432692D01*
X146064379Y-30365715D01*
X145969733Y-30201783D01*
X145843070Y-30061110D01*
X145689930Y-29949848D01*
X145517002Y-29872855D01*
X145331848Y-29833500D01*
X145331846Y-29833500D01*
X145142554Y-29833500D01*
X145142552Y-29833500D01*
X144957397Y-29872855D01*
X144845269Y-29922779D01*
X144794833Y-29933500D01*
X140259108Y-29933500D01*
X140221785Y-29942017D01*
X140208085Y-29944345D01*
X140170048Y-29948631D01*
X140133928Y-29961270D01*
X140120573Y-29965118D01*
X140083244Y-29973639D01*
X140048746Y-29990251D01*
X140035909Y-29995568D01*
X139999781Y-30008211D01*
X139967372Y-30028574D01*
X139955208Y-30035297D01*
X139920720Y-30051906D01*
X139890789Y-30075774D01*
X139879458Y-30083813D01*
X139847047Y-30104180D01*
X139756467Y-30194757D01*
X139756465Y-30194761D01*
X137259552Y-32691672D01*
X137259550Y-32691676D01*
X137190585Y-32760640D01*
X137170217Y-32793056D01*
X137162172Y-32804394D01*
X137138308Y-32834318D01*
X137121700Y-32868804D01*
X137114976Y-32880969D01*
X137094611Y-32913380D01*
X137081965Y-32949518D01*
X137076646Y-32962358D01*
X137060039Y-32996843D01*
X137051518Y-33034173D01*
X137047670Y-33047528D01*
X137035031Y-33083648D01*
X137030745Y-33121685D01*
X137028417Y-33135385D01*
X137019900Y-33172708D01*
X137019900Y-35016909D01*
X137005889Y-35074166D01*
X136967023Y-35118484D01*
X136948997Y-35131105D01*
X136781906Y-35298197D01*
X136646365Y-35491770D01*
X136546497Y-35705936D01*
X136485336Y-35934192D01*
X136464740Y-36169600D01*
X136485336Y-36405007D01*
X136521546Y-36540144D01*
X136546497Y-36633263D01*
X136646365Y-36847430D01*
X136781905Y-37041001D01*
X136948999Y-37208095D01*
X137134560Y-37338026D01*
X137173424Y-37382343D01*
X137187435Y-37439600D01*
X137173424Y-37496857D01*
X137134558Y-37541175D01*
X136957597Y-37665085D01*
X136948995Y-37671108D01*
X136781905Y-37838198D01*
X136705259Y-37947661D01*
X136649672Y-38027049D01*
X136646749Y-38031223D01*
X136602431Y-38070089D01*
X136545174Y-38084100D01*
X135869881Y-38084100D01*
X135809448Y-38068377D01*
X135764341Y-38025195D01*
X135763455Y-38023759D01*
X135755740Y-38011250D01*
X135755739Y-38011249D01*
X135755738Y-38011247D01*
X135633752Y-37889261D01*
X135486915Y-37798691D01*
X135323153Y-37744425D01*
X135231444Y-37735057D01*
X135222076Y-37734100D01*
X134623723Y-37734100D01*
X134522647Y-37744425D01*
X134358884Y-37798691D01*
X134212047Y-37889261D01*
X134098081Y-38003228D01*
X134042494Y-38035322D01*
X133978306Y-38035322D01*
X133922719Y-38003228D01*
X133808752Y-37889261D01*
X133661915Y-37798691D01*
X133498153Y-37744425D01*
X133406444Y-37735057D01*
X133397076Y-37734100D01*
X132798723Y-37734100D01*
X132697647Y-37744425D01*
X132533884Y-37798691D01*
X132387047Y-37889261D01*
X132265061Y-38011247D01*
X132174491Y-38158084D01*
X132120225Y-38321846D01*
X132109900Y-38422923D01*
X132109900Y-38996276D01*
X132120225Y-39097352D01*
X132174491Y-39261115D01*
X132265061Y-39407952D01*
X132387048Y-39529939D01*
X132413496Y-39546252D01*
X132456677Y-39591359D01*
X132472400Y-39651791D01*
X132472400Y-39951809D01*
X132456677Y-40012241D01*
X132413496Y-40057348D01*
X132387048Y-40073660D01*
X132265061Y-40195647D01*
X132174491Y-40342484D01*
X132120225Y-40506246D01*
X132109900Y-40607323D01*
X132109900Y-41180676D01*
X132120225Y-41281752D01*
X132174491Y-41445515D01*
X132265061Y-41592352D01*
X132387047Y-41714338D01*
X132387049Y-41714339D01*
X132387050Y-41714340D01*
X132390714Y-41716600D01*
X132533884Y-41804908D01*
X132697646Y-41859174D01*
X132707014Y-41860131D01*
X132798723Y-41869500D01*
X133472076Y-41869499D01*
X133573153Y-41859174D01*
X133736916Y-41804908D01*
X133883750Y-41714340D01*
X133923071Y-41675019D01*
X133978659Y-41642924D01*
X134042846Y-41642924D01*
X134098434Y-41675018D01*
X134137359Y-41713943D01*
X134284098Y-41804453D01*
X134447748Y-41858681D01*
X134548753Y-41869000D01*
X134635400Y-41869000D01*
X134635400Y-41144000D01*
X135135400Y-41144000D01*
X135135400Y-41868999D01*
X135222047Y-41868999D01*
X135323050Y-41858681D01*
X135486701Y-41804453D01*
X135633440Y-41713943D01*
X135755343Y-41592040D01*
X135845853Y-41445301D01*
X135900081Y-41281651D01*
X135910400Y-41180647D01*
X135910400Y-41144000D01*
X135135400Y-41144000D01*
X134635400Y-41144000D01*
X134635400Y-40768000D01*
X134652013Y-40706000D01*
X134697400Y-40660613D01*
X134759400Y-40644000D01*
X135910399Y-40644000D01*
X135910399Y-40607353D01*
X135900081Y-40506349D01*
X135845853Y-40342698D01*
X135755343Y-40195959D01*
X135633440Y-40074056D01*
X135486701Y-39983546D01*
X135323051Y-39929318D01*
X135284783Y-39925409D01*
X135228245Y-39904986D01*
X135187956Y-39860371D01*
X135173386Y-39802049D01*
X135187958Y-39743729D01*
X135228248Y-39699115D01*
X135284785Y-39678693D01*
X135323153Y-39674774D01*
X135486916Y-39620508D01*
X135633750Y-39529940D01*
X135755740Y-39407950D01*
X135764341Y-39394004D01*
X135809448Y-39350823D01*
X135869881Y-39335100D01*
X136545173Y-39335100D01*
X136602430Y-39349111D01*
X136646746Y-39387974D01*
X136781905Y-39581001D01*
X136948999Y-39748095D01*
X137142025Y-39883253D01*
X137180889Y-39927570D01*
X137194900Y-39984827D01*
X137194900Y-40963656D01*
X137192635Y-40984162D01*
X137194839Y-41054273D01*
X137194900Y-41058168D01*
X137194900Y-41085749D01*
X137195403Y-41089734D01*
X137196318Y-41101367D01*
X137197690Y-41145026D01*
X137203279Y-41164260D01*
X137207225Y-41183316D01*
X137209735Y-41203192D01*
X137225814Y-41243804D01*
X137229597Y-41254851D01*
X137241782Y-41296791D01*
X137251980Y-41314035D01*
X137260536Y-41331500D01*
X137267914Y-41350132D01*
X137267915Y-41350133D01*
X137293580Y-41385459D01*
X137299993Y-41395222D01*
X137322226Y-41432816D01*
X137322229Y-41432819D01*
X137322230Y-41432820D01*
X137336398Y-41446988D01*
X137349025Y-41461772D01*
X137360806Y-41477987D01*
X137375855Y-41490436D01*
X137381698Y-41495588D01*
X137434425Y-41545102D01*
X137437222Y-41547813D01*
X137456729Y-41567320D01*
X137459911Y-41569788D01*
X137468771Y-41577355D01*
X137500618Y-41607262D01*
X137518172Y-41616912D01*
X137534436Y-41627596D01*
X137542904Y-41634164D01*
X137550264Y-41639873D01*
X137575109Y-41650624D01*
X137590352Y-41657221D01*
X137600831Y-41662354D01*
X137639108Y-41683397D01*
X137653739Y-41687153D01*
X137710587Y-41719577D01*
X139046797Y-43055787D01*
X139059698Y-43071889D01*
X139061812Y-43073874D01*
X139061814Y-43073877D01*
X139107218Y-43116515D01*
X139110840Y-43119916D01*
X139113636Y-43122626D01*
X139133130Y-43142120D01*
X139136304Y-43144582D01*
X139145168Y-43152153D01*
X139177018Y-43182062D01*
X139187514Y-43187832D01*
X139194574Y-43191714D01*
X139210831Y-43202392D01*
X139226664Y-43214674D01*
X139242785Y-43221649D01*
X139266756Y-43232023D01*
X139277243Y-43237160D01*
X139315508Y-43258197D01*
X139334916Y-43263180D01*
X139353310Y-43269478D01*
X139371705Y-43277438D01*
X139414854Y-43284271D01*
X139426280Y-43286638D01*
X139441822Y-43290629D01*
X139468580Y-43297500D01*
X139468581Y-43297500D01*
X139488616Y-43297500D01*
X139508013Y-43299026D01*
X139527796Y-43302160D01*
X139571274Y-43298050D01*
X139582944Y-43297500D01*
X147135656Y-43297500D01*
X147156162Y-43299764D01*
X147159065Y-43299672D01*
X147159067Y-43299673D01*
X147226272Y-43297561D01*
X147230168Y-43297500D01*
X147257749Y-43297500D01*
X147257750Y-43297500D01*
X147261719Y-43296998D01*
X147273365Y-43296080D01*
X147317027Y-43294709D01*
X147336259Y-43289120D01*
X147355318Y-43285174D01*
X147362491Y-43284268D01*
X147375192Y-43282664D01*
X147415807Y-43266582D01*
X147426844Y-43262803D01*
X147468790Y-43250618D01*
X147486029Y-43240422D01*
X147503502Y-43231862D01*
X147522132Y-43224486D01*
X147557464Y-43198814D01*
X147567230Y-43192400D01*
X147604818Y-43170171D01*
X147604817Y-43170171D01*
X147604820Y-43170170D01*
X147618985Y-43156004D01*
X147633773Y-43143373D01*
X147649987Y-43131594D01*
X147677838Y-43097926D01*
X147685679Y-43089309D01*
X149989789Y-40785200D01*
X150005885Y-40772306D01*
X150007873Y-40770187D01*
X150007877Y-40770186D01*
X150053948Y-40721123D01*
X150056566Y-40718423D01*
X150076120Y-40698871D01*
X150078581Y-40695698D01*
X150086156Y-40686827D01*
X150116062Y-40654982D01*
X150125717Y-40637418D01*
X150136394Y-40621164D01*
X150148673Y-40605336D01*
X150166018Y-40565252D01*
X150171160Y-40554756D01*
X150192197Y-40516492D01*
X150197179Y-40497084D01*
X150203481Y-40478680D01*
X150211437Y-40460296D01*
X150218269Y-40417152D01*
X150220633Y-40405738D01*
X150231500Y-40363419D01*
X150231500Y-40343384D01*
X150233027Y-40323985D01*
X150234142Y-40316946D01*
X150236160Y-40304204D01*
X150232050Y-40260725D01*
X150231500Y-40249056D01*
X150231500Y-37689947D01*
X150240939Y-37642494D01*
X150267819Y-37602266D01*
X151501285Y-36368800D01*
X152746311Y-35123773D01*
X152803992Y-35091139D01*
X152870244Y-35092874D01*
X152926138Y-35128482D01*
X152929100Y-35131771D01*
X152937132Y-35140691D01*
X153090267Y-35251950D01*
X153134797Y-35271776D01*
X153213360Y-35306754D01*
X153260303Y-35343266D01*
X153284848Y-35397437D01*
X153281346Y-35456805D01*
X153250605Y-35507715D01*
X152914432Y-35843888D01*
X152877187Y-35869486D01*
X152709269Y-35944248D01*
X152556129Y-36055510D01*
X152429466Y-36196183D01*
X152334820Y-36360115D01*
X152276326Y-36540142D01*
X152270643Y-36594216D01*
X152256540Y-36728400D01*
X152260776Y-36768701D01*
X152276326Y-36916657D01*
X152334820Y-37096684D01*
X152429466Y-37260616D01*
X152556129Y-37401288D01*
X152656276Y-37474049D01*
X152691580Y-37513778D01*
X152707009Y-37564638D01*
X152699727Y-37617285D01*
X152671072Y-37662048D01*
X152406432Y-37926688D01*
X152369187Y-37952286D01*
X152201269Y-38027048D01*
X152048129Y-38138310D01*
X151921466Y-38278983D01*
X151826820Y-38442915D01*
X151768326Y-38622942D01*
X151748540Y-38811199D01*
X151768326Y-38999457D01*
X151826820Y-39179484D01*
X151921466Y-39343416D01*
X152048129Y-39484089D01*
X152201269Y-39595351D01*
X152374197Y-39672344D01*
X152559352Y-39711700D01*
X152559354Y-39711700D01*
X152748646Y-39711700D01*
X152748648Y-39711700D01*
X152903933Y-39678693D01*
X152933803Y-39672344D01*
X153106730Y-39595351D01*
X153259871Y-39484088D01*
X153386533Y-39343416D01*
X153481179Y-39179484D01*
X153502487Y-39113902D01*
X153532734Y-39064542D01*
X156200458Y-36396819D01*
X156240687Y-36369939D01*
X156288140Y-36360500D01*
X163315874Y-36360500D01*
X163368279Y-36372118D01*
X163410864Y-36404794D01*
X163435649Y-36452407D01*
X163470497Y-36582463D01*
X163570365Y-36796630D01*
X163705905Y-36990201D01*
X163872999Y-37157295D01*
X164058560Y-37287226D01*
X164097424Y-37331543D01*
X164111435Y-37388800D01*
X164097424Y-37446057D01*
X164058558Y-37490375D01*
X163898762Y-37602266D01*
X163872995Y-37620308D01*
X163705905Y-37787398D01*
X163670151Y-37838461D01*
X163590451Y-37952286D01*
X163570749Y-37980423D01*
X163526431Y-38019289D01*
X163469174Y-38033300D01*
X162895481Y-38033300D01*
X162835048Y-38017577D01*
X162789941Y-37974395D01*
X162789055Y-37972959D01*
X162781340Y-37960450D01*
X162781339Y-37960449D01*
X162781338Y-37960447D01*
X162659352Y-37838461D01*
X162512515Y-37747891D01*
X162348753Y-37693625D01*
X162257044Y-37684257D01*
X162247676Y-37683300D01*
X161649323Y-37683300D01*
X161548247Y-37693625D01*
X161384484Y-37747891D01*
X161237647Y-37838461D01*
X161123681Y-37952428D01*
X161068094Y-37984522D01*
X161003906Y-37984522D01*
X160948319Y-37952428D01*
X160834352Y-37838461D01*
X160687515Y-37747891D01*
X160523753Y-37693625D01*
X160432044Y-37684257D01*
X160422676Y-37683300D01*
X159824323Y-37683300D01*
X159723247Y-37693625D01*
X159559484Y-37747891D01*
X159412647Y-37838461D01*
X159290661Y-37960447D01*
X159200091Y-38107284D01*
X159145825Y-38271046D01*
X159135500Y-38372123D01*
X159135500Y-38945476D01*
X159145825Y-39046552D01*
X159200091Y-39210315D01*
X159290661Y-39357152D01*
X159412648Y-39479139D01*
X159439096Y-39495452D01*
X159482277Y-39540559D01*
X159498000Y-39600991D01*
X159498000Y-39768075D01*
X159482277Y-39828507D01*
X159439097Y-39873613D01*
X159430736Y-39878771D01*
X159361847Y-39921261D01*
X159239861Y-40043247D01*
X159149291Y-40190084D01*
X159095025Y-40353846D01*
X159084700Y-40454923D01*
X159084700Y-41028276D01*
X159095025Y-41129352D01*
X159149291Y-41293115D01*
X159239861Y-41439952D01*
X159361847Y-41561938D01*
X159361849Y-41561939D01*
X159361850Y-41561940D01*
X159411156Y-41592352D01*
X159508684Y-41652508D01*
X159672446Y-41706774D01*
X159681814Y-41707731D01*
X159773523Y-41717100D01*
X160446876Y-41717099D01*
X160547953Y-41706774D01*
X160711716Y-41652508D01*
X160858550Y-41561940D01*
X160897871Y-41522619D01*
X160953459Y-41490524D01*
X161017646Y-41490524D01*
X161073234Y-41522618D01*
X161112159Y-41561543D01*
X161258898Y-41652053D01*
X161422548Y-41706281D01*
X161523553Y-41716600D01*
X161610200Y-41716600D01*
X161610200Y-40991600D01*
X162110200Y-40991600D01*
X162110200Y-41716599D01*
X162196847Y-41716599D01*
X162297850Y-41706281D01*
X162461501Y-41652053D01*
X162608240Y-41561543D01*
X162730143Y-41439640D01*
X162820653Y-41292901D01*
X162874881Y-41129251D01*
X162885200Y-41028247D01*
X162885200Y-40991600D01*
X162110200Y-40991600D01*
X161610200Y-40991600D01*
X161610200Y-40615600D01*
X161626813Y-40553600D01*
X161672200Y-40508213D01*
X161734200Y-40491600D01*
X162885199Y-40491600D01*
X162885199Y-40454953D01*
X162874881Y-40353949D01*
X162820653Y-40190298D01*
X162730143Y-40043559D01*
X162608240Y-39921656D01*
X162461499Y-39831145D01*
X162447734Y-39826584D01*
X162396051Y-39793445D01*
X162366599Y-39739575D01*
X162366600Y-39678180D01*
X162396053Y-39624310D01*
X162447734Y-39591174D01*
X162512516Y-39569708D01*
X162659350Y-39479140D01*
X162781340Y-39357150D01*
X162789941Y-39343204D01*
X162835048Y-39300023D01*
X162895481Y-39284300D01*
X163469173Y-39284300D01*
X163526430Y-39298311D01*
X163570746Y-39337174D01*
X163705905Y-39530201D01*
X163872999Y-39697295D01*
X164066025Y-39832453D01*
X164104889Y-39876770D01*
X164118900Y-39934027D01*
X164118900Y-40658856D01*
X164116635Y-40679362D01*
X164118839Y-40749473D01*
X164118900Y-40753368D01*
X164118900Y-40780949D01*
X164119403Y-40784934D01*
X164120318Y-40796567D01*
X164121690Y-40840226D01*
X164127279Y-40859460D01*
X164131225Y-40878516D01*
X164133735Y-40898392D01*
X164149814Y-40939004D01*
X164153597Y-40950051D01*
X164165782Y-40991991D01*
X164175980Y-41009235D01*
X164184536Y-41026700D01*
X164191914Y-41045332D01*
X164191915Y-41045333D01*
X164217580Y-41080659D01*
X164223993Y-41090422D01*
X164246226Y-41128016D01*
X164246229Y-41128019D01*
X164246230Y-41128020D01*
X164260395Y-41142185D01*
X164273027Y-41156975D01*
X164284806Y-41173187D01*
X164318458Y-41201026D01*
X164327099Y-41208889D01*
X165489229Y-42371019D01*
X165519479Y-42420382D01*
X165524021Y-42478098D01*
X165501866Y-42531585D01*
X165457843Y-42569185D01*
X165401548Y-42582700D01*
X157687824Y-42582700D01*
X157673624Y-42584300D01*
X157588552Y-42584300D01*
X157403397Y-42623655D01*
X157230469Y-42700648D01*
X157077329Y-42811910D01*
X156950666Y-42952583D01*
X156856020Y-43116515D01*
X156797526Y-43296542D01*
X156796936Y-43302159D01*
X156777740Y-43484800D01*
X156796673Y-43664942D01*
X156784804Y-43732258D01*
X156739063Y-43783058D01*
X156673353Y-43801900D01*
X156347567Y-43801900D01*
X156297131Y-43791179D01*
X156185002Y-43741255D01*
X155999848Y-43701900D01*
X155999846Y-43701900D01*
X155810554Y-43701900D01*
X155810552Y-43701900D01*
X155625397Y-43741255D01*
X155452469Y-43818248D01*
X155299329Y-43929510D01*
X155172666Y-44070183D01*
X155078020Y-44234115D01*
X155019526Y-44414142D01*
X155019525Y-44414144D01*
X155019526Y-44414144D01*
X154999740Y-44602400D01*
X155018673Y-44782542D01*
X155006804Y-44849858D01*
X154961063Y-44900658D01*
X154895353Y-44919500D01*
X154569567Y-44919500D01*
X154519131Y-44908779D01*
X154407002Y-44858855D01*
X154221848Y-44819500D01*
X154221846Y-44819500D01*
X154032554Y-44819500D01*
X154032552Y-44819500D01*
X153834649Y-44861565D01*
X153834555Y-44861127D01*
X153798929Y-44868700D01*
X153481083Y-44868700D01*
X153415986Y-44850239D01*
X153266915Y-44758291D01*
X153103153Y-44704025D01*
X153011444Y-44694657D01*
X153002076Y-44693700D01*
X152403723Y-44693700D01*
X152302647Y-44704025D01*
X152138884Y-44758291D01*
X151992047Y-44848861D01*
X151878081Y-44962828D01*
X151822494Y-44994922D01*
X151758306Y-44994922D01*
X151702719Y-44962828D01*
X151588752Y-44848861D01*
X151441915Y-44758291D01*
X151278153Y-44704025D01*
X151186444Y-44694657D01*
X151177076Y-44693700D01*
X150578723Y-44693700D01*
X150477647Y-44704025D01*
X150313884Y-44758291D01*
X150167047Y-44848861D01*
X150045061Y-44970847D01*
X149954491Y-45117684D01*
X149900225Y-45281446D01*
X149889900Y-45382523D01*
X149889900Y-45955876D01*
X149900226Y-46056954D01*
X149910530Y-46088051D01*
X149915613Y-46144341D01*
X149895187Y-46197039D01*
X149853495Y-46235198D01*
X149799199Y-46250890D01*
X149743578Y-46240856D01*
X149721939Y-46231492D01*
X149711044Y-46226777D01*
X149700561Y-46221641D01*
X149662291Y-46200602D01*
X149642891Y-46195621D01*
X149624484Y-46189319D01*
X149606097Y-46181362D01*
X149562958Y-46174529D01*
X149551524Y-46172161D01*
X149509219Y-46161300D01*
X149489184Y-46161300D01*
X149469786Y-46159773D01*
X149462362Y-46158597D01*
X149450005Y-46156640D01*
X149450004Y-46156640D01*
X149416951Y-46159764D01*
X149406525Y-46160750D01*
X149394856Y-46161300D01*
X144336000Y-46161300D01*
X144274000Y-46144687D01*
X144228613Y-46099300D01*
X144212000Y-46037300D01*
X144212000Y-45921800D01*
X143086500Y-45921800D01*
X143024500Y-45905187D01*
X142979113Y-45859800D01*
X142962500Y-45797800D01*
X142962499Y-44896951D01*
X142962000Y-44887639D01*
X142962000Y-44446800D01*
X143462000Y-44446800D01*
X143462000Y-45421800D01*
X144212000Y-45421800D01*
X144212000Y-44898976D01*
X144205597Y-44839424D01*
X144155352Y-44704710D01*
X144069188Y-44589611D01*
X143954089Y-44503447D01*
X143819375Y-44453202D01*
X143759824Y-44446800D01*
X143462000Y-44446800D01*
X142962000Y-44446800D01*
X142664174Y-44446800D01*
X142602599Y-44453419D01*
X142576092Y-44453419D01*
X142533799Y-44448872D01*
X142509873Y-44446300D01*
X142509870Y-44446300D01*
X140914130Y-44446300D01*
X140854515Y-44452709D01*
X140719669Y-44503004D01*
X140604454Y-44589254D01*
X140518204Y-44704468D01*
X140467909Y-44839315D01*
X140467909Y-44839317D01*
X140461713Y-44896951D01*
X140461500Y-44898930D01*
X140461501Y-45376900D01*
X140444888Y-45438900D01*
X140399501Y-45484287D01*
X140337501Y-45500900D01*
X139038366Y-45500900D01*
X139017858Y-45498635D01*
X138947735Y-45500839D01*
X138943841Y-45500900D01*
X138916272Y-45500900D01*
X138912293Y-45501402D01*
X138900663Y-45502317D01*
X138856994Y-45503689D01*
X138837750Y-45509280D01*
X138818706Y-45513224D01*
X138798830Y-45515735D01*
X138758222Y-45531813D01*
X138747176Y-45535594D01*
X138705232Y-45547782D01*
X138705229Y-45547783D01*
X138687987Y-45557979D01*
X138670526Y-45566533D01*
X138651889Y-45573912D01*
X138616553Y-45599585D01*
X138606796Y-45605995D01*
X138569202Y-45628229D01*
X138555035Y-45642396D01*
X138540246Y-45655026D01*
X138524035Y-45666804D01*
X138496194Y-45700458D01*
X138488333Y-45709097D01*
X135568220Y-48629209D01*
X135507977Y-48662454D01*
X135439286Y-48658465D01*
X135383297Y-48618469D01*
X135357249Y-48554782D01*
X135355597Y-48539422D01*
X135337480Y-48490849D01*
X135329661Y-48447514D01*
X135337478Y-48404185D01*
X135356091Y-48354283D01*
X135362500Y-48294673D01*
X135362499Y-47498928D01*
X135356091Y-47439317D01*
X135337745Y-47390130D01*
X135329928Y-47346800D01*
X135337747Y-47303465D01*
X135344245Y-47286043D01*
X135356091Y-47254283D01*
X135362500Y-47194673D01*
X135362499Y-46398928D01*
X135358319Y-46360045D01*
X135358319Y-46333547D01*
X135362500Y-46294673D01*
X135362499Y-44898928D01*
X135356091Y-44839317D01*
X135305796Y-44704469D01*
X135219546Y-44589254D01*
X135104331Y-44503004D01*
X134969483Y-44452709D01*
X134909873Y-44446300D01*
X134909869Y-44446300D01*
X133314130Y-44446300D01*
X133254515Y-44452709D01*
X133119669Y-44503004D01*
X133004454Y-44589254D01*
X132918204Y-44704468D01*
X132867909Y-44839315D01*
X132867909Y-44839317D01*
X132861713Y-44896951D01*
X132861500Y-44898931D01*
X132861500Y-45947049D01*
X132848384Y-46002552D01*
X132811812Y-46046315D01*
X132754454Y-46089253D01*
X132668204Y-46204469D01*
X132653413Y-46244127D01*
X132617909Y-46339317D01*
X132615018Y-46366212D01*
X132611500Y-46398931D01*
X132611500Y-46929100D01*
X132594887Y-46991100D01*
X132549500Y-47036487D01*
X132487500Y-47053100D01*
X132345405Y-47053100D01*
X132169539Y-47093239D01*
X132007014Y-47171507D01*
X131901341Y-47255779D01*
X131901344Y-47255776D01*
X131865980Y-47283978D01*
X131842111Y-47313908D01*
X131832848Y-47324272D01*
X131306297Y-47850824D01*
X131196185Y-47960935D01*
X131175817Y-47993351D01*
X131167772Y-48004689D01*
X131143908Y-48034613D01*
X131127300Y-48069099D01*
X131120576Y-48081264D01*
X131100211Y-48113675D01*
X131087565Y-48149813D01*
X131082246Y-48162653D01*
X131065639Y-48197138D01*
X131057118Y-48234468D01*
X131053270Y-48247823D01*
X131040631Y-48283943D01*
X131036345Y-48321980D01*
X131034017Y-48335680D01*
X131025500Y-48373003D01*
X131025500Y-58865796D01*
X129540500Y-58865796D01*
X129540500Y-28143200D01*
X133699531Y-28143200D01*
X133719364Y-28369889D01*
X133778261Y-28589697D01*
X133874432Y-28795935D01*
X134004953Y-28982340D01*
X134165859Y-29143246D01*
X134352264Y-29273767D01*
X134352265Y-29273767D01*
X134352266Y-29273768D01*
X134558504Y-29369939D01*
X134778308Y-29428835D01*
X135005000Y-29448668D01*
X135231692Y-29428835D01*
X135451496Y-29369939D01*
X135657734Y-29273768D01*
X135844139Y-29143247D01*
X136005047Y-28982339D01*
X136135568Y-28795934D01*
X136162618Y-28737924D01*
X136208375Y-28685749D01*
X136275000Y-28666329D01*
X136341625Y-28685749D01*
X136387382Y-28737925D01*
X136414431Y-28795933D01*
X136544953Y-28982340D01*
X136705859Y-29143246D01*
X136892264Y-29273767D01*
X136892265Y-29273767D01*
X136892266Y-29273768D01*
X137098504Y-29369939D01*
X137318308Y-29428835D01*
X137545000Y-29448668D01*
X137771692Y-29428835D01*
X137991496Y-29369939D01*
X138197734Y-29273768D01*
X138384139Y-29143247D01*
X138545047Y-28982339D01*
X138675568Y-28795934D01*
X138702618Y-28737924D01*
X138748375Y-28685749D01*
X138815000Y-28666329D01*
X138881625Y-28685749D01*
X138927382Y-28737925D01*
X138954431Y-28795933D01*
X139084953Y-28982340D01*
X139245859Y-29143246D01*
X139432264Y-29273767D01*
X139432265Y-29273767D01*
X139432266Y-29273768D01*
X139638504Y-29369939D01*
X139858308Y-29428835D01*
X140085000Y-29448668D01*
X140311692Y-29428835D01*
X140531496Y-29369939D01*
X140737734Y-29273768D01*
X140924139Y-29143247D01*
X141085047Y-28982339D01*
X141215568Y-28795934D01*
X141242893Y-28737334D01*
X141288649Y-28685159D01*
X141355274Y-28665739D01*
X141421899Y-28685158D01*
X141467657Y-28737333D01*
X141494866Y-28795682D01*
X141625341Y-28982019D01*
X141786180Y-29142858D01*
X141972519Y-29273334D01*
X142178673Y-29369466D01*
X142374999Y-29422071D01*
X142375000Y-29422072D01*
X142375000Y-26864328D01*
X142374999Y-26864328D01*
X142178673Y-26916933D01*
X141972519Y-27013065D01*
X141786180Y-27143541D01*
X141625341Y-27304380D01*
X141494863Y-27490722D01*
X141467656Y-27549066D01*
X141421899Y-27601241D01*
X141355274Y-27620660D01*
X141288650Y-27601240D01*
X141242893Y-27549065D01*
X141215567Y-27490464D01*
X141085046Y-27304059D01*
X140924140Y-27143153D01*
X140737735Y-27012632D01*
X140531497Y-26916461D01*
X140311689Y-26857564D01*
X140085000Y-26837731D01*
X139858310Y-26857564D01*
X139638502Y-26916461D01*
X139432264Y-27012632D01*
X139245859Y-27143153D01*
X139084953Y-27304059D01*
X138954433Y-27490463D01*
X138927382Y-27548475D01*
X138881625Y-27600650D01*
X138815000Y-27620069D01*
X138748375Y-27600650D01*
X138702618Y-27548475D01*
X138675687Y-27490722D01*
X138675568Y-27490466D01*
X138675566Y-27490463D01*
X138545046Y-27304059D01*
X138384140Y-27143153D01*
X138197735Y-27012632D01*
X137991497Y-26916461D01*
X137771689Y-26857564D01*
X137545000Y-26837731D01*
X137318310Y-26857564D01*
X137098502Y-26916461D01*
X136892264Y-27012632D01*
X136705859Y-27143153D01*
X136544953Y-27304059D01*
X136414433Y-27490463D01*
X136387382Y-27548475D01*
X136341625Y-27600650D01*
X136275000Y-27620069D01*
X136208375Y-27600650D01*
X136162618Y-27548475D01*
X136135687Y-27490722D01*
X136135568Y-27490466D01*
X136135566Y-27490463D01*
X136005046Y-27304059D01*
X135844140Y-27143153D01*
X135657735Y-27012632D01*
X135451497Y-26916461D01*
X135231689Y-26857564D01*
X135005000Y-26837731D01*
X134778310Y-26857564D01*
X134558502Y-26916461D01*
X134352264Y-27012632D01*
X134165859Y-27143153D01*
X134004953Y-27304059D01*
X133874432Y-27490464D01*
X133778261Y-27696702D01*
X133719364Y-27916510D01*
X133699531Y-28143200D01*
X129540500Y-28143200D01*
X129540500Y-25524500D01*
X129557113Y-25462500D01*
X129602500Y-25417113D01*
X129664500Y-25400500D01*
X180293220Y-25400500D01*
X180336834Y-25408423D01*
G37*
%TD.AperFunction*%
%TD*%
M02*
