%TF.GenerationSoftware,KiCad,Pcbnew,7.0.1-3b83917a11~172~ubuntu20.04.1*%
%TF.CreationDate,2023-08-11T21:00:57+02:00*%
%TF.ProjectId,PicoShield,5069636f-5368-4696-956c-642e6b696361,rev?*%
%TF.SameCoordinates,Original*%
%TF.FileFunction,Soldermask,Bot*%
%TF.FilePolarity,Negative*%
%FSLAX46Y46*%
G04 Gerber Fmt 4.6, Leading zero omitted, Abs format (unit mm)*
G04 Created by KiCad (PCBNEW 7.0.1-3b83917a11~172~ubuntu20.04.1) date 2023-08-11 21:00:57*
%MOMM*%
%LPD*%
G01*
G04 APERTURE LIST*
%ADD10R,1.700000X1.700000*%
%ADD11O,1.700000X1.700000*%
%ADD12R,1.600000X1.600000*%
%ADD13O,1.600000X1.600000*%
G04 APERTURE END LIST*
D10*
%TO.C,J1*%
X138226800Y-68376800D03*
D11*
X138226800Y-65836800D03*
X140766800Y-68376800D03*
X140766800Y-65836800D03*
X143306800Y-68376800D03*
X143306800Y-65836800D03*
X145846800Y-68376800D03*
X145846800Y-65836800D03*
%TD*%
D10*
%TO.C,J5*%
X172364400Y-36118800D03*
D11*
X172364400Y-38658800D03*
X169824400Y-36118800D03*
X169824400Y-38658800D03*
X167284400Y-36118800D03*
X167284400Y-38658800D03*
X164744400Y-36118800D03*
X164744400Y-38658800D03*
%TD*%
D10*
%TO.C,J2*%
X164541200Y-68275200D03*
D11*
X164541200Y-65735200D03*
X167081200Y-68275200D03*
X167081200Y-65735200D03*
X169621200Y-68275200D03*
X169621200Y-65735200D03*
X172161200Y-68275200D03*
X172161200Y-65735200D03*
%TD*%
D10*
%TO.C,J6*%
X145440400Y-36169600D03*
D11*
X145440400Y-38709600D03*
X142900400Y-36169600D03*
X142900400Y-38709600D03*
X140360400Y-36169600D03*
X140360400Y-38709600D03*
X137820400Y-36169600D03*
X137820400Y-38709600D03*
%TD*%
D10*
%TO.C,J4*%
X177393600Y-56083200D03*
D11*
X174853600Y-56083200D03*
X177393600Y-53543200D03*
X174853600Y-53543200D03*
X177393600Y-51003200D03*
X174853600Y-51003200D03*
X177393600Y-48463200D03*
X174853600Y-48463200D03*
%TD*%
D12*
%TO.C,A1*%
X144145000Y-76403200D03*
D13*
X146685000Y-76403200D03*
X149225000Y-76403200D03*
X151765000Y-76403200D03*
X154305000Y-76403200D03*
X156845000Y-76403200D03*
X159385000Y-76403200D03*
X161925000Y-76403200D03*
X167005000Y-76403200D03*
X169545000Y-76403200D03*
X172085000Y-76403200D03*
X174625000Y-76403200D03*
X177165000Y-76403200D03*
X179705000Y-76403200D03*
X179705000Y-28143200D03*
X177165000Y-28143200D03*
X174625000Y-28143200D03*
X172085000Y-28143200D03*
X169545000Y-28143200D03*
X167005000Y-28143200D03*
X164465000Y-28143200D03*
X161925000Y-28143200D03*
X157865000Y-28143200D03*
X155325000Y-28143200D03*
X152785000Y-28143200D03*
X150245000Y-28143200D03*
X147705000Y-28143200D03*
X145165000Y-28143200D03*
X142625000Y-28143200D03*
X140085000Y-28143200D03*
X137545000Y-28143200D03*
X135005000Y-28143200D03*
%TD*%
M02*
