%TF.GenerationSoftware,KiCad,Pcbnew,6.0.11+dfsg-1*%
%TF.CreationDate,2024-02-21T10:46:40+01:00*%
%TF.ProjectId,Nehari_Chauveliere_kicad_TMS,4e656861-7269-45f4-9368-617576656c69,rev?*%
%TF.SameCoordinates,Original*%
%TF.FileFunction,Copper,L2,Bot*%
%TF.FilePolarity,Positive*%
%FSLAX46Y46*%
G04 Gerber Fmt 4.6, Leading zero omitted, Abs format (unit mm)*
G04 Created by KiCad (PCBNEW 6.0.11+dfsg-1) date 2024-02-21 10:46:40*
%MOMM*%
%LPD*%
G01*
G04 APERTURE LIST*
%TA.AperFunction,ComponentPad*%
%ADD10R,1.700000X1.700000*%
%TD*%
%TA.AperFunction,ComponentPad*%
%ADD11O,1.700000X1.700000*%
%TD*%
%TA.AperFunction,ViaPad*%
%ADD12C,0.800000*%
%TD*%
%TA.AperFunction,Conductor*%
%ADD13C,0.250000*%
%TD*%
G04 APERTURE END LIST*
D10*
%TO.P,J2,1,Pin_1*%
%TO.N,GND*%
X171932600Y-90474800D03*
D11*
%TO.P,J2,2,Pin_2*%
%TO.N,Write_enable*%
X174472600Y-90474800D03*
%TO.P,J2,3,Pin_3*%
%TO.N,VCC*%
X177012600Y-90474800D03*
%TD*%
D10*
%TO.P,J1,1,VTref*%
%TO.N,VCC*%
X169392600Y-69773800D03*
D11*
%TO.P,J1,2,SWDIO/TMS*%
%TO.N,SWCLK*%
X169392600Y-72313800D03*
%TO.P,J1,3,GND*%
%TO.N,GND*%
X171932600Y-69773800D03*
%TO.P,J1,4,SWDCLK/TCK*%
%TO.N,SWDAT*%
X171932600Y-72313800D03*
%TO.P,J1,5,GND*%
%TO.N,GND*%
X174472600Y-69773800D03*
%TO.P,J1,6,SWO/TDO*%
%TO.N,RST*%
X174472600Y-72313800D03*
%TO.P,J1,7,KEY*%
%TO.N,GND*%
X177012600Y-69773800D03*
%TO.P,J1,8,NC/TDI*%
X177012600Y-72313800D03*
%TO.P,J1,9,GNDDetect*%
X179552600Y-69773800D03*
%TO.P,J1,10,~{RESET}*%
X179552600Y-72313800D03*
%TD*%
D12*
%TO.N,GND*%
X180594000Y-79248000D03*
%TO.N,VCC*%
X157480000Y-87630000D03*
X162809701Y-87634299D03*
X161292549Y-81032049D03*
X158750000Y-81026000D03*
%TD*%
D13*
%TO.N,GND*%
X179552600Y-72313800D02*
X179552600Y-78206600D01*
X180594000Y-79248000D02*
X179552600Y-78206600D01*
X171932600Y-87401400D02*
X173990000Y-85344000D01*
X173990000Y-85344000D02*
X174498000Y-85344000D01*
X180594000Y-79248000D02*
X174498000Y-85344000D01*
%TO.N,VCC*%
X157480000Y-87630000D02*
X162805402Y-87630000D01*
X162805402Y-87630000D02*
X162809701Y-87634299D01*
X161286500Y-81026000D02*
X158750000Y-81026000D01*
X161292549Y-81032049D02*
X161286500Y-81026000D01*
X169392600Y-69773800D02*
X167843200Y-69773800D01*
X177012600Y-90474800D02*
X177012600Y-92100400D01*
X177012600Y-92100400D02*
X175895000Y-93218000D01*
X175895000Y-93218000D02*
X170053000Y-93218000D01*
X166751000Y-89916000D02*
X166751000Y-70866000D01*
X167843200Y-69773800D02*
X166751000Y-70866000D01*
X170053000Y-93218000D02*
X166751000Y-89916000D01*
%TO.N,GND*%
X171932600Y-87401400D02*
X171932600Y-90474800D01*
%TD*%
M02*
