G04 #@! TF.GenerationSoftware,KiCad,Pcbnew,7.0.7*
G04 #@! TF.CreationDate,2023-10-10T15:44:46+02:00*
G04 #@! TF.ProjectId,EcranLCD_Schema_V1.2,45637261-6e4c-4434-945f-536368656d61,rev?*
G04 #@! TF.SameCoordinates,Original*
G04 #@! TF.FileFunction,Paste,Top*
G04 #@! TF.FilePolarity,Positive*
%FSLAX46Y46*%
G04 Gerber Fmt 4.6, Leading zero omitted, Abs format (unit mm)*
G04 Created by KiCad (PCBNEW 7.0.7) date 2023-10-10 15:44:46*
%MOMM*%
%LPD*%
G01*
G04 APERTURE LIST*
G04 Aperture macros list*
%AMRoundRect*
0 Rectangle with rounded corners*
0 $1 Rounding radius*
0 $2 $3 $4 $5 $6 $7 $8 $9 X,Y pos of 4 corners*
0 Add a 4 corners polygon primitive as box body*
4,1,4,$2,$3,$4,$5,$6,$7,$8,$9,$2,$3,0*
0 Add four circle primitives for the rounded corners*
1,1,$1+$1,$2,$3*
1,1,$1+$1,$4,$5*
1,1,$1+$1,$6,$7*
1,1,$1+$1,$8,$9*
0 Add four rect primitives between the rounded corners*
20,1,$1+$1,$2,$3,$4,$5,0*
20,1,$1+$1,$4,$5,$6,$7,0*
20,1,$1+$1,$6,$7,$8,$9,0*
20,1,$1+$1,$8,$9,$2,$3,0*%
G04 Aperture macros list end*
%ADD10RoundRect,0.237500X-0.237500X0.300000X-0.237500X-0.300000X0.237500X-0.300000X0.237500X0.300000X0*%
%ADD11RoundRect,0.237500X0.250000X0.237500X-0.250000X0.237500X-0.250000X-0.237500X0.250000X-0.237500X0*%
%ADD12RoundRect,0.250000X0.750000X-0.400000X0.750000X0.400000X-0.750000X0.400000X-0.750000X-0.400000X0*%
%ADD13RoundRect,0.250000X0.750000X-0.750000X0.750000X0.750000X-0.750000X0.750000X-0.750000X-0.750000X0*%
%ADD14R,0.762000X1.524000*%
%ADD15RoundRect,0.237500X0.300000X0.237500X-0.300000X0.237500X-0.300000X-0.237500X0.300000X-0.237500X0*%
%ADD16RoundRect,0.237500X-0.250000X-0.237500X0.250000X-0.237500X0.250000X0.237500X-0.250000X0.237500X0*%
%ADD17RoundRect,0.237500X0.237500X-0.300000X0.237500X0.300000X-0.237500X0.300000X-0.237500X-0.300000X0*%
%ADD18RoundRect,0.250000X0.275000X-0.287500X0.275000X0.287500X-0.275000X0.287500X-0.275000X-0.287500X0*%
%ADD19RoundRect,0.237500X0.287500X0.237500X-0.287500X0.237500X-0.287500X-0.237500X0.287500X-0.237500X0*%
%ADD20R,0.550000X1.600000*%
%ADD21R,1.600000X0.550000*%
%ADD22R,2.100000X1.800000*%
G04 APERTURE END LIST*
D10*
X136829800Y-75590400D03*
X136829800Y-77315400D03*
D11*
X142595600Y-63550800D03*
X140770600Y-63550800D03*
D12*
X122238000Y-79594000D03*
D13*
X126238000Y-78444000D03*
D12*
X122238000Y-77294000D03*
D14*
X157861000Y-75184000D03*
X157861000Y-69596000D03*
X161671000Y-75184000D03*
X161671000Y-69596000D03*
D15*
X148563500Y-62357000D03*
X146838500Y-62357000D03*
D16*
X153162000Y-78740000D03*
X154987000Y-78740000D03*
D17*
X136347200Y-60805400D03*
X136347200Y-59080400D03*
D18*
X144272000Y-80165000D03*
X144272000Y-78740000D03*
D19*
X158874400Y-59385200D03*
X157124400Y-59385200D03*
D20*
X146976000Y-65812000D03*
X146176000Y-65812000D03*
X145376000Y-65812000D03*
X144576000Y-65812000D03*
X143776000Y-65812000D03*
X142976000Y-65812000D03*
X142176000Y-65812000D03*
X141376000Y-65812000D03*
D21*
X139926000Y-67262000D03*
X139926000Y-68062000D03*
X139926000Y-68862000D03*
X139926000Y-69662000D03*
X139926000Y-70462000D03*
X139926000Y-71262000D03*
X139926000Y-72062000D03*
X139926000Y-72862000D03*
D20*
X141376000Y-74312000D03*
X142176000Y-74312000D03*
X142976000Y-74312000D03*
X143776000Y-74312000D03*
X144576000Y-74312000D03*
X145376000Y-74312000D03*
X146176000Y-74312000D03*
X146976000Y-74312000D03*
D21*
X148426000Y-72862000D03*
X148426000Y-72062000D03*
X148426000Y-71262000D03*
X148426000Y-70462000D03*
X148426000Y-69662000D03*
X148426000Y-68862000D03*
X148426000Y-68062000D03*
X148426000Y-67262000D03*
D16*
X152861000Y-61417200D03*
X154686000Y-61417200D03*
D22*
X139441600Y-60807600D03*
X142341600Y-60807600D03*
X142341600Y-58607600D03*
X139441600Y-58607600D03*
D16*
X152861000Y-59385200D03*
X154686000Y-59385200D03*
D19*
X158874400Y-61417200D03*
X157124400Y-61417200D03*
D17*
X145034000Y-58621000D03*
X145034000Y-56896000D03*
M02*
