G04 #@! TF.GenerationSoftware,KiCad,Pcbnew,7.0.7*
G04 #@! TF.CreationDate,2023-10-10T15:44:46+02:00*
G04 #@! TF.ProjectId,EcranLCD_Schema_V1.2,45637261-6e4c-4434-945f-536368656d61,rev?*
G04 #@! TF.SameCoordinates,Original*
G04 #@! TF.FileFunction,Legend,Top*
G04 #@! TF.FilePolarity,Positive*
%FSLAX46Y46*%
G04 Gerber Fmt 4.6, Leading zero omitted, Abs format (unit mm)*
G04 Created by KiCad (PCBNEW 7.0.7) date 2023-10-10 15:44:46*
%MOMM*%
%LPD*%
G01*
G04 APERTURE LIST*
G04 Aperture macros list*
%AMRoundRect*
0 Rectangle with rounded corners*
0 $1 Rounding radius*
0 $2 $3 $4 $5 $6 $7 $8 $9 X,Y pos of 4 corners*
0 Add a 4 corners polygon primitive as box body*
4,1,4,$2,$3,$4,$5,$6,$7,$8,$9,$2,$3,0*
0 Add four circle primitives for the rounded corners*
1,1,$1+$1,$2,$3*
1,1,$1+$1,$4,$5*
1,1,$1+$1,$6,$7*
1,1,$1+$1,$8,$9*
0 Add four rect primitives between the rounded corners*
20,1,$1+$1,$2,$3,$4,$5,0*
20,1,$1+$1,$4,$5,$6,$7,0*
20,1,$1+$1,$6,$7,$8,$9,0*
20,1,$1+$1,$8,$9,$2,$3,0*%
G04 Aperture macros list end*
%ADD10C,0.150000*%
%ADD11C,0.100000*%
%ADD12C,0.127000*%
%ADD13C,0.120000*%
%ADD14C,0.203200*%
%ADD15RoundRect,0.237500X-0.237500X0.300000X-0.237500X-0.300000X0.237500X-0.300000X0.237500X0.300000X0*%
%ADD16RoundRect,0.237500X0.250000X0.237500X-0.250000X0.237500X-0.250000X-0.237500X0.250000X-0.237500X0*%
%ADD17R,1.700000X1.700000*%
%ADD18O,1.700000X1.700000*%
%ADD19RoundRect,0.250000X0.750000X-0.400000X0.750000X0.400000X-0.750000X0.400000X-0.750000X-0.400000X0*%
%ADD20RoundRect,0.250000X0.750000X-0.750000X0.750000X0.750000X-0.750000X0.750000X-0.750000X-0.750000X0*%
%ADD21RoundRect,0.101600X0.381000X0.762000X-0.381000X0.762000X-0.381000X-0.762000X0.381000X-0.762000X0*%
%ADD22RoundRect,0.237500X0.300000X0.237500X-0.300000X0.237500X-0.300000X-0.237500X0.300000X-0.237500X0*%
%ADD23RoundRect,0.237500X-0.250000X-0.237500X0.250000X-0.237500X0.250000X0.237500X-0.250000X0.237500X0*%
%ADD24RoundRect,0.237500X0.237500X-0.300000X0.237500X0.300000X-0.237500X0.300000X-0.237500X-0.300000X0*%
%ADD25RoundRect,0.250000X0.275000X-0.287500X0.275000X0.287500X-0.275000X0.287500X-0.275000X-0.287500X0*%
%ADD26RoundRect,0.237500X0.287500X0.237500X-0.287500X0.237500X-0.287500X-0.237500X0.287500X-0.237500X0*%
%ADD27R,0.550000X1.600000*%
%ADD28R,1.600000X0.550000*%
%ADD29R,2.100000X1.800000*%
%ADD30C,1.260000*%
G04 APERTURE END LIST*
D10*
X137189380Y-79412466D02*
X137237000Y-79460085D01*
X137237000Y-79460085D02*
X137284619Y-79602942D01*
X137284619Y-79602942D02*
X137284619Y-79698180D01*
X137284619Y-79698180D02*
X137237000Y-79841037D01*
X137237000Y-79841037D02*
X137141761Y-79936275D01*
X137141761Y-79936275D02*
X137046523Y-79983894D01*
X137046523Y-79983894D02*
X136856047Y-80031513D01*
X136856047Y-80031513D02*
X136713190Y-80031513D01*
X136713190Y-80031513D02*
X136522714Y-79983894D01*
X136522714Y-79983894D02*
X136427476Y-79936275D01*
X136427476Y-79936275D02*
X136332238Y-79841037D01*
X136332238Y-79841037D02*
X136284619Y-79698180D01*
X136284619Y-79698180D02*
X136284619Y-79602942D01*
X136284619Y-79602942D02*
X136332238Y-79460085D01*
X136332238Y-79460085D02*
X136379857Y-79412466D01*
X136617952Y-78555323D02*
X137284619Y-78555323D01*
X136237000Y-78793418D02*
X136951285Y-79031513D01*
X136951285Y-79031513D02*
X136951285Y-78412466D01*
X138009333Y-64005619D02*
X137676000Y-63529428D01*
X137437905Y-64005619D02*
X137437905Y-63005619D01*
X137437905Y-63005619D02*
X137818857Y-63005619D01*
X137818857Y-63005619D02*
X137914095Y-63053238D01*
X137914095Y-63053238D02*
X137961714Y-63100857D01*
X137961714Y-63100857D02*
X138009333Y-63196095D01*
X138009333Y-63196095D02*
X138009333Y-63338952D01*
X138009333Y-63338952D02*
X137961714Y-63434190D01*
X137961714Y-63434190D02*
X137914095Y-63481809D01*
X137914095Y-63481809D02*
X137818857Y-63529428D01*
X137818857Y-63529428D02*
X137437905Y-63529428D01*
X138342667Y-63005619D02*
X138961714Y-63005619D01*
X138961714Y-63005619D02*
X138628381Y-63386571D01*
X138628381Y-63386571D02*
X138771238Y-63386571D01*
X138771238Y-63386571D02*
X138866476Y-63434190D01*
X138866476Y-63434190D02*
X138914095Y-63481809D01*
X138914095Y-63481809D02*
X138961714Y-63577047D01*
X138961714Y-63577047D02*
X138961714Y-63815142D01*
X138961714Y-63815142D02*
X138914095Y-63910380D01*
X138914095Y-63910380D02*
X138866476Y-63958000D01*
X138866476Y-63958000D02*
X138771238Y-64005619D01*
X138771238Y-64005619D02*
X138485524Y-64005619D01*
X138485524Y-64005619D02*
X138390286Y-63958000D01*
X138390286Y-63958000D02*
X138342667Y-63910380D01*
X112315666Y-66256819D02*
X112315666Y-66971104D01*
X112315666Y-66971104D02*
X112268047Y-67113961D01*
X112268047Y-67113961D02*
X112172809Y-67209200D01*
X112172809Y-67209200D02*
X112029952Y-67256819D01*
X112029952Y-67256819D02*
X111934714Y-67256819D01*
X113315666Y-67256819D02*
X112744238Y-67256819D01*
X113029952Y-67256819D02*
X113029952Y-66256819D01*
X113029952Y-66256819D02*
X112934714Y-66399676D01*
X112934714Y-66399676D02*
X112839476Y-66494914D01*
X112839476Y-66494914D02*
X112744238Y-66542533D01*
X118520819Y-85983580D02*
X117520819Y-85983580D01*
X117520819Y-85983580D02*
X117520819Y-85745485D01*
X117520819Y-85745485D02*
X117568438Y-85602628D01*
X117568438Y-85602628D02*
X117663676Y-85507390D01*
X117663676Y-85507390D02*
X117758914Y-85459771D01*
X117758914Y-85459771D02*
X117949390Y-85412152D01*
X117949390Y-85412152D02*
X118092247Y-85412152D01*
X118092247Y-85412152D02*
X118282723Y-85459771D01*
X118282723Y-85459771D02*
X118377961Y-85507390D01*
X118377961Y-85507390D02*
X118473200Y-85602628D01*
X118473200Y-85602628D02*
X118520819Y-85745485D01*
X118520819Y-85745485D02*
X118520819Y-85983580D01*
X118520819Y-84983580D02*
X117520819Y-84983580D01*
X118473200Y-84555009D02*
X118520819Y-84412152D01*
X118520819Y-84412152D02*
X118520819Y-84174057D01*
X118520819Y-84174057D02*
X118473200Y-84078819D01*
X118473200Y-84078819D02*
X118425580Y-84031200D01*
X118425580Y-84031200D02*
X118330342Y-83983581D01*
X118330342Y-83983581D02*
X118235104Y-83983581D01*
X118235104Y-83983581D02*
X118139866Y-84031200D01*
X118139866Y-84031200D02*
X118092247Y-84078819D01*
X118092247Y-84078819D02*
X118044628Y-84174057D01*
X118044628Y-84174057D02*
X117997009Y-84364533D01*
X117997009Y-84364533D02*
X117949390Y-84459771D01*
X117949390Y-84459771D02*
X117901771Y-84507390D01*
X117901771Y-84507390D02*
X117806533Y-84555009D01*
X117806533Y-84555009D02*
X117711295Y-84555009D01*
X117711295Y-84555009D02*
X117616057Y-84507390D01*
X117616057Y-84507390D02*
X117568438Y-84459771D01*
X117568438Y-84459771D02*
X117520819Y-84364533D01*
X117520819Y-84364533D02*
X117520819Y-84126438D01*
X117520819Y-84126438D02*
X117568438Y-83983581D01*
X117616057Y-83602628D02*
X117568438Y-83555009D01*
X117568438Y-83555009D02*
X117520819Y-83459771D01*
X117520819Y-83459771D02*
X117520819Y-83221676D01*
X117520819Y-83221676D02*
X117568438Y-83126438D01*
X117568438Y-83126438D02*
X117616057Y-83078819D01*
X117616057Y-83078819D02*
X117711295Y-83031200D01*
X117711295Y-83031200D02*
X117806533Y-83031200D01*
X117806533Y-83031200D02*
X117949390Y-83078819D01*
X117949390Y-83078819D02*
X118520819Y-83650247D01*
X118520819Y-83650247D02*
X118520819Y-83031200D01*
D11*
X128981419Y-79081238D02*
X128505228Y-79414571D01*
X128981419Y-79652666D02*
X127981419Y-79652666D01*
X127981419Y-79652666D02*
X127981419Y-79271714D01*
X127981419Y-79271714D02*
X128029038Y-79176476D01*
X128029038Y-79176476D02*
X128076657Y-79128857D01*
X128076657Y-79128857D02*
X128171895Y-79081238D01*
X128171895Y-79081238D02*
X128314752Y-79081238D01*
X128314752Y-79081238D02*
X128409990Y-79128857D01*
X128409990Y-79128857D02*
X128457609Y-79176476D01*
X128457609Y-79176476D02*
X128505228Y-79271714D01*
X128505228Y-79271714D02*
X128505228Y-79652666D01*
X127981419Y-78795523D02*
X128981419Y-78462190D01*
X128981419Y-78462190D02*
X127981419Y-78128857D01*
X128076657Y-77843142D02*
X128029038Y-77795523D01*
X128029038Y-77795523D02*
X127981419Y-77700285D01*
X127981419Y-77700285D02*
X127981419Y-77462190D01*
X127981419Y-77462190D02*
X128029038Y-77366952D01*
X128029038Y-77366952D02*
X128076657Y-77319333D01*
X128076657Y-77319333D02*
X128171895Y-77271714D01*
X128171895Y-77271714D02*
X128267133Y-77271714D01*
X128267133Y-77271714D02*
X128409990Y-77319333D01*
X128409990Y-77319333D02*
X128981419Y-77890761D01*
X128981419Y-77890761D02*
X128981419Y-77271714D01*
D12*
X160091396Y-76504724D02*
X160129491Y-76390438D01*
X160129491Y-76390438D02*
X160129491Y-76199962D01*
X160129491Y-76199962D02*
X160091396Y-76123771D01*
X160091396Y-76123771D02*
X160053300Y-76085676D01*
X160053300Y-76085676D02*
X159977110Y-76047581D01*
X159977110Y-76047581D02*
X159900919Y-76047581D01*
X159900919Y-76047581D02*
X159824729Y-76085676D01*
X159824729Y-76085676D02*
X159786634Y-76123771D01*
X159786634Y-76123771D02*
X159748538Y-76199962D01*
X159748538Y-76199962D02*
X159710443Y-76352343D01*
X159710443Y-76352343D02*
X159672348Y-76428533D01*
X159672348Y-76428533D02*
X159634253Y-76466628D01*
X159634253Y-76466628D02*
X159558062Y-76504724D01*
X159558062Y-76504724D02*
X159481872Y-76504724D01*
X159481872Y-76504724D02*
X159405681Y-76466628D01*
X159405681Y-76466628D02*
X159367586Y-76428533D01*
X159367586Y-76428533D02*
X159329491Y-76352343D01*
X159329491Y-76352343D02*
X159329491Y-76161866D01*
X159329491Y-76161866D02*
X159367586Y-76047581D01*
X160129491Y-75285676D02*
X160129491Y-75742819D01*
X160129491Y-75514247D02*
X159329491Y-75514247D01*
X159329491Y-75514247D02*
X159443776Y-75590438D01*
X159443776Y-75590438D02*
X159519967Y-75666628D01*
X159519967Y-75666628D02*
X159558062Y-75742819D01*
D10*
X150378033Y-62970580D02*
X150330414Y-63018200D01*
X150330414Y-63018200D02*
X150187557Y-63065819D01*
X150187557Y-63065819D02*
X150092319Y-63065819D01*
X150092319Y-63065819D02*
X149949462Y-63018200D01*
X149949462Y-63018200D02*
X149854224Y-62922961D01*
X149854224Y-62922961D02*
X149806605Y-62827723D01*
X149806605Y-62827723D02*
X149758986Y-62637247D01*
X149758986Y-62637247D02*
X149758986Y-62494390D01*
X149758986Y-62494390D02*
X149806605Y-62303914D01*
X149806605Y-62303914D02*
X149854224Y-62208676D01*
X149854224Y-62208676D02*
X149949462Y-62113438D01*
X149949462Y-62113438D02*
X150092319Y-62065819D01*
X150092319Y-62065819D02*
X150187557Y-62065819D01*
X150187557Y-62065819D02*
X150330414Y-62113438D01*
X150330414Y-62113438D02*
X150378033Y-62161057D01*
X151282795Y-62065819D02*
X150806605Y-62065819D01*
X150806605Y-62065819D02*
X150758986Y-62542009D01*
X150758986Y-62542009D02*
X150806605Y-62494390D01*
X150806605Y-62494390D02*
X150901843Y-62446771D01*
X150901843Y-62446771D02*
X151139938Y-62446771D01*
X151139938Y-62446771D02*
X151235176Y-62494390D01*
X151235176Y-62494390D02*
X151282795Y-62542009D01*
X151282795Y-62542009D02*
X151330414Y-62637247D01*
X151330414Y-62637247D02*
X151330414Y-62875342D01*
X151330414Y-62875342D02*
X151282795Y-62970580D01*
X151282795Y-62970580D02*
X151235176Y-63018200D01*
X151235176Y-63018200D02*
X151139938Y-63065819D01*
X151139938Y-63065819D02*
X150901843Y-63065819D01*
X150901843Y-63065819D02*
X150806605Y-63018200D01*
X150806605Y-63018200D02*
X150758986Y-62970580D01*
X153907833Y-77764819D02*
X153574500Y-77288628D01*
X153336405Y-77764819D02*
X153336405Y-76764819D01*
X153336405Y-76764819D02*
X153717357Y-76764819D01*
X153717357Y-76764819D02*
X153812595Y-76812438D01*
X153812595Y-76812438D02*
X153860214Y-76860057D01*
X153860214Y-76860057D02*
X153907833Y-76955295D01*
X153907833Y-76955295D02*
X153907833Y-77098152D01*
X153907833Y-77098152D02*
X153860214Y-77193390D01*
X153860214Y-77193390D02*
X153812595Y-77241009D01*
X153812595Y-77241009D02*
X153717357Y-77288628D01*
X153717357Y-77288628D02*
X153336405Y-77288628D01*
X154764976Y-77098152D02*
X154764976Y-77764819D01*
X154526881Y-76717200D02*
X154288786Y-77431485D01*
X154288786Y-77431485D02*
X154907833Y-77431485D01*
X125340571Y-74624819D02*
X125340571Y-73624819D01*
X125340571Y-74101009D02*
X125911999Y-74101009D01*
X125911999Y-74624819D02*
X125911999Y-73624819D01*
X126388190Y-74101009D02*
X126721523Y-74101009D01*
X126864380Y-74624819D02*
X126388190Y-74624819D01*
X126388190Y-74624819D02*
X126388190Y-73624819D01*
X126388190Y-73624819D02*
X126864380Y-73624819D01*
X127054857Y-74720057D02*
X127816761Y-74720057D01*
X128578666Y-74624819D02*
X128007238Y-74624819D01*
X128292952Y-74624819D02*
X128292952Y-73624819D01*
X128292952Y-73624819D02*
X128197714Y-73767676D01*
X128197714Y-73767676D02*
X128102476Y-73862914D01*
X128102476Y-73862914D02*
X128007238Y-73910533D01*
X129197714Y-73624819D02*
X129292952Y-73624819D01*
X129292952Y-73624819D02*
X129388190Y-73672438D01*
X129388190Y-73672438D02*
X129435809Y-73720057D01*
X129435809Y-73720057D02*
X129483428Y-73815295D01*
X129483428Y-73815295D02*
X129531047Y-74005771D01*
X129531047Y-74005771D02*
X129531047Y-74243866D01*
X129531047Y-74243866D02*
X129483428Y-74434342D01*
X129483428Y-74434342D02*
X129435809Y-74529580D01*
X129435809Y-74529580D02*
X129388190Y-74577200D01*
X129388190Y-74577200D02*
X129292952Y-74624819D01*
X129292952Y-74624819D02*
X129197714Y-74624819D01*
X129197714Y-74624819D02*
X129102476Y-74577200D01*
X129102476Y-74577200D02*
X129054857Y-74529580D01*
X129054857Y-74529580D02*
X129007238Y-74434342D01*
X129007238Y-74434342D02*
X128959619Y-74243866D01*
X128959619Y-74243866D02*
X128959619Y-74005771D01*
X128959619Y-74005771D02*
X129007238Y-73815295D01*
X129007238Y-73815295D02*
X129054857Y-73720057D01*
X129054857Y-73720057D02*
X129102476Y-73672438D01*
X129102476Y-73672438D02*
X129197714Y-73624819D01*
X143151580Y-79619166D02*
X143199200Y-79666785D01*
X143199200Y-79666785D02*
X143246819Y-79809642D01*
X143246819Y-79809642D02*
X143246819Y-79904880D01*
X143246819Y-79904880D02*
X143199200Y-80047737D01*
X143199200Y-80047737D02*
X143103961Y-80142975D01*
X143103961Y-80142975D02*
X143008723Y-80190594D01*
X143008723Y-80190594D02*
X142818247Y-80238213D01*
X142818247Y-80238213D02*
X142675390Y-80238213D01*
X142675390Y-80238213D02*
X142484914Y-80190594D01*
X142484914Y-80190594D02*
X142389676Y-80142975D01*
X142389676Y-80142975D02*
X142294438Y-80047737D01*
X142294438Y-80047737D02*
X142246819Y-79904880D01*
X142246819Y-79904880D02*
X142246819Y-79809642D01*
X142246819Y-79809642D02*
X142294438Y-79666785D01*
X142294438Y-79666785D02*
X142342057Y-79619166D01*
X143246819Y-78666785D02*
X143246819Y-79238213D01*
X143246819Y-78952499D02*
X142246819Y-78952499D01*
X142246819Y-78952499D02*
X142389676Y-79047737D01*
X142389676Y-79047737D02*
X142484914Y-79142975D01*
X142484914Y-79142975D02*
X142532533Y-79238213D01*
X157249905Y-58112819D02*
X157249905Y-57112819D01*
X157249905Y-57112819D02*
X157488000Y-57112819D01*
X157488000Y-57112819D02*
X157630857Y-57160438D01*
X157630857Y-57160438D02*
X157726095Y-57255676D01*
X157726095Y-57255676D02*
X157773714Y-57350914D01*
X157773714Y-57350914D02*
X157821333Y-57541390D01*
X157821333Y-57541390D02*
X157821333Y-57684247D01*
X157821333Y-57684247D02*
X157773714Y-57874723D01*
X157773714Y-57874723D02*
X157726095Y-57969961D01*
X157726095Y-57969961D02*
X157630857Y-58065200D01*
X157630857Y-58065200D02*
X157488000Y-58112819D01*
X157488000Y-58112819D02*
X157249905Y-58112819D01*
X158202286Y-57208057D02*
X158249905Y-57160438D01*
X158249905Y-57160438D02*
X158345143Y-57112819D01*
X158345143Y-57112819D02*
X158583238Y-57112819D01*
X158583238Y-57112819D02*
X158678476Y-57160438D01*
X158678476Y-57160438D02*
X158726095Y-57208057D01*
X158726095Y-57208057D02*
X158773714Y-57303295D01*
X158773714Y-57303295D02*
X158773714Y-57398533D01*
X158773714Y-57398533D02*
X158726095Y-57541390D01*
X158726095Y-57541390D02*
X158154667Y-58112819D01*
X158154667Y-58112819D02*
X158773714Y-58112819D01*
X153608733Y-63243619D02*
X153275400Y-62767428D01*
X153037305Y-63243619D02*
X153037305Y-62243619D01*
X153037305Y-62243619D02*
X153418257Y-62243619D01*
X153418257Y-62243619D02*
X153513495Y-62291238D01*
X153513495Y-62291238D02*
X153561114Y-62338857D01*
X153561114Y-62338857D02*
X153608733Y-62434095D01*
X153608733Y-62434095D02*
X153608733Y-62576952D01*
X153608733Y-62576952D02*
X153561114Y-62672190D01*
X153561114Y-62672190D02*
X153513495Y-62719809D01*
X153513495Y-62719809D02*
X153418257Y-62767428D01*
X153418257Y-62767428D02*
X153037305Y-62767428D01*
X154561114Y-63243619D02*
X153989686Y-63243619D01*
X154275400Y-63243619D02*
X154275400Y-62243619D01*
X154275400Y-62243619D02*
X154180162Y-62386476D01*
X154180162Y-62386476D02*
X154084924Y-62481714D01*
X154084924Y-62481714D02*
X153989686Y-62529333D01*
X159932019Y-65001733D02*
X160646304Y-65001733D01*
X160646304Y-65001733D02*
X160789161Y-65049352D01*
X160789161Y-65049352D02*
X160884400Y-65144590D01*
X160884400Y-65144590D02*
X160932019Y-65287447D01*
X160932019Y-65287447D02*
X160932019Y-65382685D01*
X159932019Y-64620780D02*
X159932019Y-64001733D01*
X159932019Y-64001733D02*
X160312971Y-64335066D01*
X160312971Y-64335066D02*
X160312971Y-64192209D01*
X160312971Y-64192209D02*
X160360590Y-64096971D01*
X160360590Y-64096971D02*
X160408209Y-64049352D01*
X160408209Y-64049352D02*
X160503447Y-64001733D01*
X160503447Y-64001733D02*
X160741542Y-64001733D01*
X160741542Y-64001733D02*
X160836780Y-64049352D01*
X160836780Y-64049352D02*
X160884400Y-64096971D01*
X160884400Y-64096971D02*
X160932019Y-64192209D01*
X160932019Y-64192209D02*
X160932019Y-64477923D01*
X160932019Y-64477923D02*
X160884400Y-64573161D01*
X160884400Y-64573161D02*
X160836780Y-64620780D01*
X140747809Y-55096628D02*
X140747809Y-55572819D01*
X140414476Y-54572819D02*
X140747809Y-55096628D01*
X140747809Y-55096628D02*
X141081142Y-54572819D01*
X141938285Y-55572819D02*
X141366857Y-55572819D01*
X141652571Y-55572819D02*
X141652571Y-54572819D01*
X141652571Y-54572819D02*
X141557333Y-54715676D01*
X141557333Y-54715676D02*
X141462095Y-54810914D01*
X141462095Y-54810914D02*
X141366857Y-54858533D01*
X153606833Y-58410019D02*
X153273500Y-57933828D01*
X153035405Y-58410019D02*
X153035405Y-57410019D01*
X153035405Y-57410019D02*
X153416357Y-57410019D01*
X153416357Y-57410019D02*
X153511595Y-57457638D01*
X153511595Y-57457638D02*
X153559214Y-57505257D01*
X153559214Y-57505257D02*
X153606833Y-57600495D01*
X153606833Y-57600495D02*
X153606833Y-57743352D01*
X153606833Y-57743352D02*
X153559214Y-57838590D01*
X153559214Y-57838590D02*
X153511595Y-57886209D01*
X153511595Y-57886209D02*
X153416357Y-57933828D01*
X153416357Y-57933828D02*
X153035405Y-57933828D01*
X153987786Y-57505257D02*
X154035405Y-57457638D01*
X154035405Y-57457638D02*
X154130643Y-57410019D01*
X154130643Y-57410019D02*
X154368738Y-57410019D01*
X154368738Y-57410019D02*
X154463976Y-57457638D01*
X154463976Y-57457638D02*
X154511595Y-57505257D01*
X154511595Y-57505257D02*
X154559214Y-57600495D01*
X154559214Y-57600495D02*
X154559214Y-57695733D01*
X154559214Y-57695733D02*
X154511595Y-57838590D01*
X154511595Y-57838590D02*
X153940167Y-58410019D01*
X153940167Y-58410019D02*
X154559214Y-58410019D01*
X160170905Y-61287819D02*
X160170905Y-60287819D01*
X160170905Y-60287819D02*
X160409000Y-60287819D01*
X160409000Y-60287819D02*
X160551857Y-60335438D01*
X160551857Y-60335438D02*
X160647095Y-60430676D01*
X160647095Y-60430676D02*
X160694714Y-60525914D01*
X160694714Y-60525914D02*
X160742333Y-60716390D01*
X160742333Y-60716390D02*
X160742333Y-60859247D01*
X160742333Y-60859247D02*
X160694714Y-61049723D01*
X160694714Y-61049723D02*
X160647095Y-61144961D01*
X160647095Y-61144961D02*
X160551857Y-61240200D01*
X160551857Y-61240200D02*
X160409000Y-61287819D01*
X160409000Y-61287819D02*
X160170905Y-61287819D01*
X161694714Y-61287819D02*
X161123286Y-61287819D01*
X161409000Y-61287819D02*
X161409000Y-60287819D01*
X161409000Y-60287819D02*
X161313762Y-60430676D01*
X161313762Y-60430676D02*
X161218524Y-60525914D01*
X161218524Y-60525914D02*
X161123286Y-60573533D01*
X154352666Y-73920819D02*
X154352666Y-74635104D01*
X154352666Y-74635104D02*
X154305047Y-74777961D01*
X154305047Y-74777961D02*
X154209809Y-74873200D01*
X154209809Y-74873200D02*
X154066952Y-74920819D01*
X154066952Y-74920819D02*
X153971714Y-74920819D01*
X154781238Y-74016057D02*
X154828857Y-73968438D01*
X154828857Y-73968438D02*
X154924095Y-73920819D01*
X154924095Y-73920819D02*
X155162190Y-73920819D01*
X155162190Y-73920819D02*
X155257428Y-73968438D01*
X155257428Y-73968438D02*
X155305047Y-74016057D01*
X155305047Y-74016057D02*
X155352666Y-74111295D01*
X155352666Y-74111295D02*
X155352666Y-74206533D01*
X155352666Y-74206533D02*
X155305047Y-74349390D01*
X155305047Y-74349390D02*
X154733619Y-74920819D01*
X154733619Y-74920819D02*
X155352666Y-74920819D01*
X146391333Y-55731580D02*
X146343714Y-55779200D01*
X146343714Y-55779200D02*
X146200857Y-55826819D01*
X146200857Y-55826819D02*
X146105619Y-55826819D01*
X146105619Y-55826819D02*
X145962762Y-55779200D01*
X145962762Y-55779200D02*
X145867524Y-55683961D01*
X145867524Y-55683961D02*
X145819905Y-55588723D01*
X145819905Y-55588723D02*
X145772286Y-55398247D01*
X145772286Y-55398247D02*
X145772286Y-55255390D01*
X145772286Y-55255390D02*
X145819905Y-55064914D01*
X145819905Y-55064914D02*
X145867524Y-54969676D01*
X145867524Y-54969676D02*
X145962762Y-54874438D01*
X145962762Y-54874438D02*
X146105619Y-54826819D01*
X146105619Y-54826819D02*
X146200857Y-54826819D01*
X146200857Y-54826819D02*
X146343714Y-54874438D01*
X146343714Y-54874438D02*
X146391333Y-54922057D01*
X146724667Y-54826819D02*
X147343714Y-54826819D01*
X147343714Y-54826819D02*
X147010381Y-55207771D01*
X147010381Y-55207771D02*
X147153238Y-55207771D01*
X147153238Y-55207771D02*
X147248476Y-55255390D01*
X147248476Y-55255390D02*
X147296095Y-55303009D01*
X147296095Y-55303009D02*
X147343714Y-55398247D01*
X147343714Y-55398247D02*
X147343714Y-55636342D01*
X147343714Y-55636342D02*
X147296095Y-55731580D01*
X147296095Y-55731580D02*
X147248476Y-55779200D01*
X147248476Y-55779200D02*
X147153238Y-55826819D01*
X147153238Y-55826819D02*
X146867524Y-55826819D01*
X146867524Y-55826819D02*
X146772286Y-55779200D01*
X146772286Y-55779200D02*
X146724667Y-55731580D01*
D13*
X137339800Y-76306633D02*
X137339800Y-76599167D01*
X136319800Y-76306633D02*
X136319800Y-76599167D01*
X141937824Y-64073300D02*
X141428376Y-64073300D01*
X141937824Y-63028300D02*
X141428376Y-63028300D01*
X119090000Y-70630000D02*
X117760000Y-70630000D01*
X119090000Y-69300000D02*
X119090000Y-70630000D01*
X119090000Y-68030000D02*
X119090000Y-62890000D01*
X119090000Y-68030000D02*
X116490000Y-68030000D01*
X119090000Y-62890000D02*
X113890000Y-62890000D01*
X116490000Y-70630000D02*
X113890000Y-70630000D01*
X116490000Y-68030000D02*
X116490000Y-70630000D01*
X113890000Y-70630000D02*
X113890000Y-62890000D01*
X119066000Y-85861200D02*
X119066000Y-84531200D01*
X120396000Y-85861200D02*
X119066000Y-85861200D01*
X121666000Y-85861200D02*
X159826000Y-85861200D01*
X121666000Y-85861200D02*
X121666000Y-83201200D01*
X159826000Y-85861200D02*
X159826000Y-83201200D01*
X121666000Y-83201200D02*
X159826000Y-83201200D01*
D14*
X161005520Y-74930000D02*
X158496000Y-74930000D01*
X157226000Y-73929240D02*
X157226000Y-70850760D01*
X162306000Y-70850760D02*
X162306000Y-73929240D01*
X158526480Y-69850000D02*
X161005520Y-69850000D01*
X161036000Y-72390000D02*
G75*
G03*
X161036000Y-72390000I-1270000J0D01*
G01*
D13*
X147847267Y-62867000D02*
X147554733Y-62867000D01*
X147847267Y-61847000D02*
X147554733Y-61847000D01*
X153819776Y-78217500D02*
X154329224Y-78217500D01*
X153819776Y-79262500D02*
X154329224Y-79262500D01*
X130012000Y-73170000D02*
X128682000Y-73170000D01*
X130012000Y-71840000D02*
X130012000Y-73170000D01*
X130012000Y-70570000D02*
X130012000Y-62890000D01*
X130012000Y-70570000D02*
X127412000Y-70570000D01*
X130012000Y-62890000D02*
X124812000Y-62890000D01*
X127412000Y-73170000D02*
X124812000Y-73170000D01*
X127412000Y-70570000D02*
X127412000Y-73170000D01*
X124812000Y-73170000D02*
X124812000Y-62890000D01*
X135837200Y-60089167D02*
X135837200Y-59796633D01*
X136857200Y-60089167D02*
X136857200Y-59796633D01*
X143487000Y-80962500D02*
X145057000Y-80962500D01*
X145057000Y-80962500D02*
X145057000Y-78652500D01*
X143487000Y-78652500D02*
X143487000Y-80962500D01*
X159659400Y-60120200D02*
X159659400Y-58650200D01*
X159659400Y-58650200D02*
X157199400Y-58650200D01*
X157199400Y-60120200D02*
X159659400Y-60120200D01*
D10*
X147801000Y-66437000D02*
X147576000Y-66437000D01*
X147801000Y-66437000D02*
X147801000Y-66762000D01*
X147576000Y-66437000D02*
X147576000Y-65012000D01*
X140551000Y-66437000D02*
X140876000Y-66437000D01*
X140551000Y-66437000D02*
X140551000Y-66762000D01*
X147801000Y-73687000D02*
X147801000Y-73362000D01*
X147801000Y-73687000D02*
X147476000Y-73687000D01*
X140551000Y-73687000D02*
X140551000Y-73362000D01*
X140551000Y-73687000D02*
X140876000Y-73687000D01*
D13*
X153518776Y-60894700D02*
X154028224Y-60894700D01*
X153518776Y-61939700D02*
X154028224Y-61939700D01*
X153965600Y-65998400D02*
X153965600Y-64668400D01*
X155295600Y-65998400D02*
X153965600Y-65998400D01*
X156565600Y-65998400D02*
X159165600Y-65998400D01*
X156565600Y-65998400D02*
X156565600Y-63338400D01*
X159165600Y-65998400D02*
X159165600Y-63338400D01*
X156565600Y-63338400D02*
X159165600Y-63338400D01*
X138191600Y-57507600D02*
X138191600Y-61907600D01*
X138191600Y-61907600D02*
X143591600Y-61907600D01*
X153518776Y-58862700D02*
X154028224Y-58862700D01*
X153518776Y-59907700D02*
X154028224Y-59907700D01*
X159659400Y-62152200D02*
X159659400Y-60682200D01*
X159659400Y-60682200D02*
X157199400Y-60682200D01*
X157199400Y-62152200D02*
X159659400Y-62152200D01*
X156016000Y-73466000D02*
X154686000Y-73466000D01*
X156016000Y-72136000D02*
X156016000Y-73466000D01*
X156016000Y-70866000D02*
X156016000Y-68266000D01*
X156016000Y-70866000D02*
X153356000Y-70866000D01*
X156016000Y-68266000D02*
X153356000Y-68266000D01*
X153356000Y-70866000D02*
X153356000Y-68266000D01*
X144524000Y-57904767D02*
X144524000Y-57612233D01*
X145544000Y-57904767D02*
X145544000Y-57612233D01*
%LPC*%
D15*
X136829800Y-75590400D03*
X136829800Y-77315400D03*
D16*
X142595600Y-63550800D03*
X140770600Y-63550800D03*
D17*
X117760000Y-69300000D03*
D18*
X115220000Y-69300000D03*
X117760000Y-66760000D03*
X115220000Y-66760000D03*
X117760000Y-64220000D03*
X115220000Y-64220000D03*
D17*
X120396000Y-84531200D03*
D18*
X122936000Y-84531200D03*
X125476000Y-84531200D03*
X128016000Y-84531200D03*
X130556000Y-84531200D03*
X133096000Y-84531200D03*
X135636000Y-84531200D03*
X138176000Y-84531200D03*
X140716000Y-84531200D03*
X143256000Y-84531200D03*
X145796000Y-84531200D03*
X148336000Y-84531200D03*
X150876000Y-84531200D03*
X153416000Y-84531200D03*
X155956000Y-84531200D03*
X158496000Y-84531200D03*
D19*
X122238000Y-79594000D03*
D20*
X126238000Y-78444000D03*
D19*
X122238000Y-77294000D03*
D21*
X157861000Y-75184000D03*
X157861000Y-69596000D03*
X161671000Y-75184000D03*
X161671000Y-69596000D03*
D22*
X148563500Y-62357000D03*
X146838500Y-62357000D03*
D23*
X153162000Y-78740000D03*
X154987000Y-78740000D03*
D17*
X128682000Y-71840000D03*
D18*
X126142000Y-71840000D03*
X128682000Y-69300000D03*
X126142000Y-69300000D03*
X128682000Y-66760000D03*
X126142000Y-66760000D03*
X128682000Y-64220000D03*
X126142000Y-64220000D03*
D24*
X136347200Y-60805400D03*
X136347200Y-59080400D03*
D25*
X144272000Y-80165000D03*
X144272000Y-78740000D03*
D26*
X158874400Y-59385200D03*
X157124400Y-59385200D03*
D27*
X146976000Y-65812000D03*
X146176000Y-65812000D03*
X145376000Y-65812000D03*
X144576000Y-65812000D03*
X143776000Y-65812000D03*
X142976000Y-65812000D03*
X142176000Y-65812000D03*
X141376000Y-65812000D03*
D28*
X139926000Y-67262000D03*
X139926000Y-68062000D03*
X139926000Y-68862000D03*
X139926000Y-69662000D03*
X139926000Y-70462000D03*
X139926000Y-71262000D03*
X139926000Y-72062000D03*
X139926000Y-72862000D03*
D27*
X141376000Y-74312000D03*
X142176000Y-74312000D03*
X142976000Y-74312000D03*
X143776000Y-74312000D03*
X144576000Y-74312000D03*
X145376000Y-74312000D03*
X146176000Y-74312000D03*
X146976000Y-74312000D03*
D28*
X148426000Y-72862000D03*
X148426000Y-72062000D03*
X148426000Y-71262000D03*
X148426000Y-70462000D03*
X148426000Y-69662000D03*
X148426000Y-68862000D03*
X148426000Y-68062000D03*
X148426000Y-67262000D03*
D23*
X152861000Y-61417200D03*
X154686000Y-61417200D03*
D17*
X155295600Y-64668400D03*
D18*
X157835600Y-64668400D03*
D29*
X139441600Y-60807600D03*
X142341600Y-60807600D03*
X142341600Y-58607600D03*
X139441600Y-58607600D03*
D23*
X152861000Y-59385200D03*
X154686000Y-59385200D03*
D26*
X158874400Y-61417200D03*
X157124400Y-61417200D03*
D17*
X154686000Y-72136000D03*
D18*
X154686000Y-69596000D03*
D24*
X145034000Y-58621000D03*
X145034000Y-56896000D03*
D30*
X121793000Y-80899000D03*
X124333000Y-78359000D03*
X121793000Y-75819000D03*
%LPD*%
M02*
