M48
; DRILL file {KiCad 7.0.7} date Tue 10 Oct 2023 15:44:53 CEST
; FORMAT={-:-/ absolute / metric / decimal}
; #@! TF.CreationDate,2023-10-10T15:44:53+02:00
; #@! TF.GenerationSoftware,Kicad,Pcbnew,7.0.7
; #@! TF.FileFunction,Plated,1,2,PTH
FMAT,2
METRIC
; #@! TA.AperFunction,Plated,PTH,ViaDrill
T1C0.400
; #@! TA.AperFunction,Plated,PTH,ComponentDrill
T2C0.700
; #@! TA.AperFunction,Plated,PTH,ComponentDrill
T3C1.000
%
G90
G05
T1
X114.427Y-82.677
X114.808Y-74.676
X115.062Y-60.96
X118.745Y-78.994
X120.396Y-65.405
X123.825Y-81.915
X124.333Y-80.391
X125.476Y-57.404
X129.286Y-78.486
X132.08Y-64.008
X132.461Y-73.787
X132.74Y-75.565
X133.35Y-72.136
X134.366Y-67.818
X134.366Y-78.359
X134.493Y-59.817
X134.62Y-71.144
X134.874Y-72.898
X135.128Y-57.658
X135.509Y-62.484
X135.89Y-73.66
X137.046Y-67.241
X137.414Y-64.389
X137.609Y-68.067
X137.922Y-62.484
X138.176Y-56.515
X138.176Y-80.01
X138.334Y-68.862
X139.446Y-80.01
X140.716Y-56.388
X141.224Y-80.01
X141.351Y-77.216
X141.986Y-70.866
X142.964Y-76.581
X143.002Y-77.978
X143.129Y-56.261
X144.17Y-60.35
X144.221Y-63.246
X144.272Y-81.407
X144.907Y-71.59
X145.034Y-55.118
X145.792Y-72.14
X146.304Y-59.817
X146.558Y-63.881
X146.664Y-70.303
X146.939Y-57.658
X146.939Y-69.342
X150.495Y-61.214
X150.495Y-65.532
X150.622Y-77.216
X152.146Y-73.406
X152.4Y-54.864
X161.417Y-54.991
X161.544Y-67.183
X161.671Y-62.103
X161.798Y-81.915
T2
X121.793Y-75.819
X121.793Y-80.899
X124.333Y-78.359
T3
X115.22Y-64.22
X115.22Y-66.76
X115.22Y-69.3
X117.76Y-64.22
X117.76Y-66.76
X117.76Y-69.3
X120.396Y-84.531
X122.936Y-84.531
X125.476Y-84.531
X126.142Y-64.22
X126.142Y-66.76
X126.142Y-69.3
X126.142Y-71.84
X128.016Y-84.531
X128.682Y-64.22
X128.682Y-66.76
X128.682Y-69.3
X128.682Y-71.84
X130.556Y-84.531
X133.096Y-84.531
X135.636Y-84.531
X138.176Y-84.531
X140.716Y-84.531
X143.256Y-84.531
X145.796Y-84.531
X148.336Y-84.531
X150.876Y-84.531
X153.416Y-84.531
X154.686Y-69.596
X154.686Y-72.136
X155.296Y-64.668
X155.956Y-84.531
X157.836Y-64.668
X158.496Y-84.531
T0
M30
