G04 #@! TF.GenerationSoftware,KiCad,Pcbnew,7.0.7*
G04 #@! TF.CreationDate,2023-10-10T15:44:46+02:00*
G04 #@! TF.ProjectId,EcranLCD_Schema_V1.2,45637261-6e4c-4434-945f-536368656d61,rev?*
G04 #@! TF.SameCoordinates,Original*
G04 #@! TF.FileFunction,Legend,Bot*
G04 #@! TF.FilePolarity,Positive*
%FSLAX46Y46*%
G04 Gerber Fmt 4.6, Leading zero omitted, Abs format (unit mm)*
G04 Created by KiCad (PCBNEW 7.0.7) date 2023-10-10 15:44:46*
%MOMM*%
%LPD*%
G01*
G04 APERTURE LIST*
%ADD10C,0.150000*%
%ADD11C,0.120000*%
%ADD12R,1.700000X1.700000*%
%ADD13O,1.700000X1.700000*%
%ADD14C,1.260000*%
G04 APERTURE END LIST*
D10*
X122388238Y-73753819D02*
X122721571Y-73277628D01*
X122959666Y-73753819D02*
X122959666Y-72753819D01*
X122959666Y-72753819D02*
X122578714Y-72753819D01*
X122578714Y-72753819D02*
X122483476Y-72801438D01*
X122483476Y-72801438D02*
X122435857Y-72849057D01*
X122435857Y-72849057D02*
X122388238Y-72944295D01*
X122388238Y-72944295D02*
X122388238Y-73087152D01*
X122388238Y-73087152D02*
X122435857Y-73182390D01*
X122435857Y-73182390D02*
X122483476Y-73230009D01*
X122483476Y-73230009D02*
X122578714Y-73277628D01*
X122578714Y-73277628D02*
X122959666Y-73277628D01*
X122102523Y-72753819D02*
X121769190Y-73753819D01*
X121769190Y-73753819D02*
X121435857Y-72753819D01*
X120578714Y-73753819D02*
X121150142Y-73753819D01*
X120864428Y-73753819D02*
X120864428Y-72753819D01*
X120864428Y-72753819D02*
X120959666Y-72896676D01*
X120959666Y-72896676D02*
X121054904Y-72991914D01*
X121054904Y-72991914D02*
X121150142Y-73039533D01*
D11*
X125723000Y-78359000D02*
G75*
G03*
X125723000Y-78359000I-3930000J0D01*
G01*
%LPC*%
D12*
X117760000Y-69300000D03*
D13*
X115220000Y-69300000D03*
X117760000Y-66760000D03*
X115220000Y-66760000D03*
X117760000Y-64220000D03*
X115220000Y-64220000D03*
D12*
X120396000Y-84531200D03*
D13*
X122936000Y-84531200D03*
X125476000Y-84531200D03*
X128016000Y-84531200D03*
X130556000Y-84531200D03*
X133096000Y-84531200D03*
X135636000Y-84531200D03*
X138176000Y-84531200D03*
X140716000Y-84531200D03*
X143256000Y-84531200D03*
X145796000Y-84531200D03*
X148336000Y-84531200D03*
X150876000Y-84531200D03*
X153416000Y-84531200D03*
X155956000Y-84531200D03*
X158496000Y-84531200D03*
D12*
X128682000Y-71840000D03*
D13*
X126142000Y-71840000D03*
X128682000Y-69300000D03*
X126142000Y-69300000D03*
X128682000Y-66760000D03*
X126142000Y-66760000D03*
X128682000Y-64220000D03*
X126142000Y-64220000D03*
D12*
X155295600Y-64668400D03*
D13*
X157835600Y-64668400D03*
D12*
X154686000Y-72136000D03*
D13*
X154686000Y-69596000D03*
D14*
X121793000Y-80899000D03*
X124333000Y-78359000D03*
X121793000Y-75819000D03*
%LPD*%
M02*
