G04 #@! TF.GenerationSoftware,KiCad,Pcbnew,7.0.7*
G04 #@! TF.CreationDate,2023-10-10T15:44:45+02:00*
G04 #@! TF.ProjectId,EcranLCD_Schema_V1.2,45637261-6e4c-4434-945f-536368656d61,rev?*
G04 #@! TF.SameCoordinates,Original*
G04 #@! TF.FileFunction,Copper,L1,Top*
G04 #@! TF.FilePolarity,Positive*
%FSLAX46Y46*%
G04 Gerber Fmt 4.6, Leading zero omitted, Abs format (unit mm)*
G04 Created by KiCad (PCBNEW 7.0.7) date 2023-10-10 15:44:45*
%MOMM*%
%LPD*%
G01*
G04 APERTURE LIST*
G04 Aperture macros list*
%AMRoundRect*
0 Rectangle with rounded corners*
0 $1 Rounding radius*
0 $2 $3 $4 $5 $6 $7 $8 $9 X,Y pos of 4 corners*
0 Add a 4 corners polygon primitive as box body*
4,1,4,$2,$3,$4,$5,$6,$7,$8,$9,$2,$3,0*
0 Add four circle primitives for the rounded corners*
1,1,$1+$1,$2,$3*
1,1,$1+$1,$4,$5*
1,1,$1+$1,$6,$7*
1,1,$1+$1,$8,$9*
0 Add four rect primitives between the rounded corners*
20,1,$1+$1,$2,$3,$4,$5,0*
20,1,$1+$1,$4,$5,$6,$7,0*
20,1,$1+$1,$6,$7,$8,$9,0*
20,1,$1+$1,$8,$9,$2,$3,0*%
G04 Aperture macros list end*
G04 #@! TA.AperFunction,SMDPad,CuDef*
%ADD10RoundRect,0.237500X-0.237500X0.300000X-0.237500X-0.300000X0.237500X-0.300000X0.237500X0.300000X0*%
G04 #@! TD*
G04 #@! TA.AperFunction,SMDPad,CuDef*
%ADD11RoundRect,0.237500X0.250000X0.237500X-0.250000X0.237500X-0.250000X-0.237500X0.250000X-0.237500X0*%
G04 #@! TD*
G04 #@! TA.AperFunction,ComponentPad*
%ADD12R,1.700000X1.700000*%
G04 #@! TD*
G04 #@! TA.AperFunction,ComponentPad*
%ADD13O,1.700000X1.700000*%
G04 #@! TD*
G04 #@! TA.AperFunction,SMDPad,CuDef*
%ADD14RoundRect,0.250000X0.750000X-0.400000X0.750000X0.400000X-0.750000X0.400000X-0.750000X-0.400000X0*%
G04 #@! TD*
G04 #@! TA.AperFunction,SMDPad,CuDef*
%ADD15RoundRect,0.250000X0.750000X-0.750000X0.750000X0.750000X-0.750000X0.750000X-0.750000X-0.750000X0*%
G04 #@! TD*
G04 #@! TA.AperFunction,SMDPad,CuDef*
%ADD16R,0.762000X1.524000*%
G04 #@! TD*
G04 #@! TA.AperFunction,SMDPad,CuDef*
%ADD17RoundRect,0.237500X0.300000X0.237500X-0.300000X0.237500X-0.300000X-0.237500X0.300000X-0.237500X0*%
G04 #@! TD*
G04 #@! TA.AperFunction,SMDPad,CuDef*
%ADD18RoundRect,0.237500X-0.250000X-0.237500X0.250000X-0.237500X0.250000X0.237500X-0.250000X0.237500X0*%
G04 #@! TD*
G04 #@! TA.AperFunction,SMDPad,CuDef*
%ADD19RoundRect,0.237500X0.237500X-0.300000X0.237500X0.300000X-0.237500X0.300000X-0.237500X-0.300000X0*%
G04 #@! TD*
G04 #@! TA.AperFunction,SMDPad,CuDef*
%ADD20RoundRect,0.250000X0.275000X-0.287500X0.275000X0.287500X-0.275000X0.287500X-0.275000X-0.287500X0*%
G04 #@! TD*
G04 #@! TA.AperFunction,SMDPad,CuDef*
%ADD21RoundRect,0.237500X0.287500X0.237500X-0.287500X0.237500X-0.287500X-0.237500X0.287500X-0.237500X0*%
G04 #@! TD*
G04 #@! TA.AperFunction,SMDPad,CuDef*
%ADD22R,0.550000X1.600000*%
G04 #@! TD*
G04 #@! TA.AperFunction,SMDPad,CuDef*
%ADD23R,1.600000X0.550000*%
G04 #@! TD*
G04 #@! TA.AperFunction,SMDPad,CuDef*
%ADD24R,2.100000X1.800000*%
G04 #@! TD*
G04 #@! TA.AperFunction,ComponentPad*
%ADD25C,1.260000*%
G04 #@! TD*
G04 #@! TA.AperFunction,ViaPad*
%ADD26C,0.800000*%
G04 #@! TD*
G04 #@! TA.AperFunction,Conductor*
%ADD27C,0.250000*%
G04 #@! TD*
G04 #@! TA.AperFunction,Conductor*
%ADD28C,0.600000*%
G04 #@! TD*
G04 APERTURE END LIST*
D10*
X136829800Y-75590400D03*
X136829800Y-77315400D03*
D11*
X142595600Y-63550800D03*
X140770600Y-63550800D03*
D12*
X117760000Y-69300000D03*
D13*
X115220000Y-69300000D03*
X117760000Y-66760000D03*
X115220000Y-66760000D03*
X117760000Y-64220000D03*
X115220000Y-64220000D03*
D12*
X120396000Y-84531200D03*
D13*
X122936000Y-84531200D03*
X125476000Y-84531200D03*
X128016000Y-84531200D03*
X130556000Y-84531200D03*
X133096000Y-84531200D03*
X135636000Y-84531200D03*
X138176000Y-84531200D03*
X140716000Y-84531200D03*
X143256000Y-84531200D03*
X145796000Y-84531200D03*
X148336000Y-84531200D03*
X150876000Y-84531200D03*
X153416000Y-84531200D03*
X155956000Y-84531200D03*
X158496000Y-84531200D03*
D14*
X122238000Y-79594000D03*
D15*
X126238000Y-78444000D03*
D14*
X122238000Y-77294000D03*
D16*
X157861000Y-75184000D03*
X157861000Y-69596000D03*
X161671000Y-75184000D03*
X161671000Y-69596000D03*
D17*
X148563500Y-62357000D03*
X146838500Y-62357000D03*
D18*
X153162000Y-78740000D03*
X154987000Y-78740000D03*
D12*
X128682000Y-71840000D03*
D13*
X126142000Y-71840000D03*
X128682000Y-69300000D03*
X126142000Y-69300000D03*
X128682000Y-66760000D03*
X126142000Y-66760000D03*
X128682000Y-64220000D03*
X126142000Y-64220000D03*
D19*
X136347200Y-60805400D03*
X136347200Y-59080400D03*
D20*
X144272000Y-80165000D03*
X144272000Y-78740000D03*
D21*
X158874400Y-59385200D03*
X157124400Y-59385200D03*
D22*
X146976000Y-65812000D03*
X146176000Y-65812000D03*
X145376000Y-65812000D03*
X144576000Y-65812000D03*
X143776000Y-65812000D03*
X142976000Y-65812000D03*
X142176000Y-65812000D03*
X141376000Y-65812000D03*
D23*
X139926000Y-67262000D03*
X139926000Y-68062000D03*
X139926000Y-68862000D03*
X139926000Y-69662000D03*
X139926000Y-70462000D03*
X139926000Y-71262000D03*
X139926000Y-72062000D03*
X139926000Y-72862000D03*
D22*
X141376000Y-74312000D03*
X142176000Y-74312000D03*
X142976000Y-74312000D03*
X143776000Y-74312000D03*
X144576000Y-74312000D03*
X145376000Y-74312000D03*
X146176000Y-74312000D03*
X146976000Y-74312000D03*
D23*
X148426000Y-72862000D03*
X148426000Y-72062000D03*
X148426000Y-71262000D03*
X148426000Y-70462000D03*
X148426000Y-69662000D03*
X148426000Y-68862000D03*
X148426000Y-68062000D03*
X148426000Y-67262000D03*
D18*
X152861000Y-61417200D03*
X154686000Y-61417200D03*
D12*
X155295600Y-64668400D03*
D13*
X157835600Y-64668400D03*
D24*
X139441600Y-60807600D03*
X142341600Y-60807600D03*
X142341600Y-58607600D03*
X139441600Y-58607600D03*
D18*
X152861000Y-59385200D03*
X154686000Y-59385200D03*
D21*
X158874400Y-61417200D03*
X157124400Y-61417200D03*
D12*
X154686000Y-72136000D03*
D13*
X154686000Y-69596000D03*
D19*
X145034000Y-58621000D03*
X145034000Y-56896000D03*
D25*
X121793000Y-80899000D03*
X124333000Y-78359000D03*
X121793000Y-75819000D03*
D26*
X140716000Y-56388000D03*
X118745000Y-78994000D03*
X143129000Y-56261000D03*
X135128000Y-57658000D03*
X150495000Y-61214000D03*
X146939000Y-57658000D03*
X134493000Y-59817000D03*
X132080000Y-64008000D03*
X129286000Y-78486000D03*
X137414000Y-64389000D03*
X161671000Y-62103000D03*
X137922000Y-62484000D03*
X123825000Y-81915000D03*
X124333000Y-80391000D03*
X135509000Y-62484000D03*
X115062000Y-60960000D03*
X146304000Y-59817000D03*
X150495000Y-65532000D03*
X134366000Y-67818000D03*
X146558000Y-63881000D03*
X143002000Y-77978000D03*
X144272000Y-81407000D03*
X161798000Y-81915000D03*
X134366000Y-78359000D03*
X144170400Y-60350400D03*
X144221200Y-63246000D03*
X138176000Y-56515000D03*
X125476000Y-57404000D03*
X161544000Y-67183000D03*
X132461000Y-73787000D03*
X161417000Y-54991000D03*
X145034000Y-55118000D03*
X114427000Y-82677000D03*
X152400000Y-54864000D03*
X120396000Y-65405000D03*
X114808000Y-74676000D03*
X150622000Y-77216000D03*
X132740400Y-75565000D03*
X142964500Y-76581000D03*
X145791701Y-72140299D03*
X152146000Y-73406000D03*
X141351000Y-77216000D03*
X144907000Y-71590500D03*
X137045783Y-67241293D03*
X138176000Y-80010000D03*
X137609000Y-68067000D03*
X139446000Y-80010000D03*
X141224000Y-80010000D03*
X138334000Y-68862000D03*
X133350000Y-72136000D03*
X146664415Y-70303046D03*
X134874000Y-72898000D03*
X141986000Y-70866000D03*
X135890000Y-73660000D03*
X134620000Y-71143658D03*
X146939000Y-69342000D03*
D27*
X143713200Y-60807600D02*
X144170400Y-60350400D01*
X142341600Y-60807600D02*
X143713200Y-60807600D01*
X145376000Y-67730000D02*
X143830314Y-69275686D01*
X145415000Y-76454000D02*
X144576000Y-75615000D01*
X144221200Y-63246000D02*
X143776000Y-63691200D01*
X143830314Y-69275686D02*
X143830314Y-72075314D01*
X145376000Y-65812000D02*
X145376000Y-67730000D01*
X143830314Y-72075314D02*
X144576000Y-72821000D01*
X145415000Y-79629000D02*
X145415000Y-76454000D01*
X145376000Y-64682000D02*
X145376000Y-65812000D01*
D28*
X121793000Y-80899000D02*
X121793000Y-79911000D01*
D27*
X144272000Y-80165000D02*
X144879000Y-80165000D01*
X144576000Y-72821000D02*
X144576000Y-74312000D01*
D28*
X121793000Y-79911000D02*
X122110000Y-79594000D01*
D27*
X144576800Y-74312800D02*
X144576000Y-74312000D01*
X146177000Y-63881000D02*
X145376000Y-64682000D01*
X144879000Y-80165000D02*
X145415000Y-79629000D01*
X144576000Y-75615000D02*
X144576000Y-74312000D01*
X143776000Y-63691200D02*
X143776000Y-65812000D01*
X146558000Y-63881000D02*
X146177000Y-63881000D01*
X144272000Y-78740000D02*
X144272000Y-77165200D01*
X144272000Y-77165200D02*
X143776000Y-76669200D01*
X143776000Y-76669200D02*
X143776000Y-74312000D01*
X136347200Y-62306200D02*
X136347200Y-60805400D01*
X137591800Y-63550800D02*
X136347200Y-62306200D01*
X140770600Y-63550800D02*
X137591800Y-63550800D01*
X141376000Y-65812000D02*
X141376000Y-65074400D01*
X136349400Y-60807600D02*
X139441600Y-60807600D01*
X141376000Y-65074400D02*
X140770600Y-64469000D01*
X140770600Y-64469000D02*
X140770600Y-63550800D01*
X136347200Y-60805400D02*
X136349400Y-60807600D01*
X145020600Y-58607600D02*
X145034000Y-58621000D01*
X142341600Y-58607600D02*
X145020600Y-58607600D01*
X142595600Y-63550800D02*
X142176000Y-63970400D01*
X142176000Y-63970400D02*
X142176000Y-65812000D01*
X142595600Y-63550800D02*
X145034000Y-61112400D01*
X145034000Y-61112400D02*
X145034000Y-58621000D01*
X142595600Y-63550800D02*
X142595600Y-63396200D01*
D28*
X146838500Y-61378000D02*
X148831300Y-59385200D01*
X142964500Y-76581000D02*
X142176000Y-75792500D01*
X122110000Y-76136000D02*
X121793000Y-75819000D01*
X146838500Y-62357000D02*
X146838500Y-61378000D01*
X144576000Y-65812000D02*
X144576000Y-64212000D01*
X121793000Y-74041000D02*
X121793000Y-75819000D01*
X153162000Y-78740000D02*
X153162000Y-79705200D01*
X138454300Y-75792500D02*
X142176000Y-75792500D01*
X115220000Y-72395600D02*
X120118400Y-77294000D01*
X142976000Y-69300000D02*
X142976000Y-65812000D01*
X142176000Y-75792500D02*
X142176000Y-74312000D01*
X138252200Y-75590400D02*
X138454300Y-75792500D01*
X144576000Y-65812000D02*
X144576000Y-67122000D01*
X136779000Y-75565000D02*
X136805500Y-75591500D01*
X136829800Y-75590400D02*
X138252200Y-75590400D01*
X142976000Y-68722000D02*
X142976000Y-69300000D01*
X136804400Y-75565000D02*
X136829800Y-75590400D01*
X142976000Y-71262000D02*
X142976000Y-69300000D01*
X146431000Y-62357000D02*
X146838500Y-62357000D01*
X148831300Y-59385200D02*
X152861000Y-59385200D01*
X122110000Y-77294000D02*
X122076500Y-77327500D01*
X132740400Y-75565000D02*
X136804400Y-75565000D01*
X142176000Y-74312000D02*
X142176000Y-72062000D01*
X120118400Y-77294000D02*
X122110000Y-77294000D01*
X136652000Y-75692000D02*
X136779000Y-75565000D01*
X153162000Y-79705200D02*
X155956000Y-82499200D01*
X115220000Y-72395600D02*
X115220000Y-69300000D01*
X152146000Y-78740000D02*
X153162000Y-78740000D01*
X126142000Y-71840000D02*
X123994000Y-71840000D01*
X142176000Y-72062000D02*
X142976000Y-71262000D01*
X144576000Y-67122000D02*
X142976000Y-68722000D01*
X122110000Y-77294000D02*
X122110000Y-76136000D01*
X150622000Y-77216000D02*
X152146000Y-78740000D01*
X155956000Y-82499200D02*
X155956000Y-84531200D01*
X144576000Y-64212000D02*
X146431000Y-62357000D01*
X123994000Y-71840000D02*
X121793000Y-74041000D01*
D27*
X157124400Y-59385200D02*
X154686000Y-59385200D01*
D28*
X126025000Y-78359000D02*
X126110000Y-78444000D01*
D27*
X126110000Y-78444000D02*
X126110000Y-80595200D01*
X124418000Y-78444000D02*
X124333000Y-78359000D01*
X126110000Y-78444000D02*
X125476000Y-79078000D01*
X126110000Y-80595200D02*
X125476000Y-81229200D01*
X125476000Y-81229200D02*
X125476000Y-84531200D01*
X126110000Y-78444000D02*
X124418000Y-78444000D01*
X147688500Y-67262000D02*
X148426000Y-67262000D01*
X145923000Y-72009000D02*
X145923000Y-69027500D01*
X145923000Y-69027500D02*
X147688500Y-67262000D01*
X145791701Y-72140299D02*
X145923000Y-72009000D01*
X131013200Y-84074000D02*
X130556000Y-84531200D01*
X133390942Y-70418658D02*
X131013200Y-72796400D01*
X139926000Y-70462000D02*
X139882658Y-70418658D01*
X139882658Y-70418658D02*
X133390942Y-70418658D01*
X131013200Y-72796400D02*
X131013200Y-84074000D01*
X152146000Y-73152000D02*
X150256000Y-71262000D01*
X150256000Y-71262000D02*
X148426000Y-71262000D01*
X152146000Y-73406000D02*
X152146000Y-73152000D01*
X135636000Y-81026000D02*
X135636000Y-84531200D01*
X137922000Y-78740000D02*
X135636000Y-81026000D01*
X141351000Y-77216000D02*
X139827000Y-78740000D01*
X139827000Y-78740000D02*
X137922000Y-78740000D01*
X144907000Y-71590500D02*
X144907000Y-69088000D01*
X144907000Y-69088000D02*
X146176000Y-67819000D01*
X146176000Y-67819000D02*
X146176000Y-65812000D01*
X137066490Y-67262000D02*
X139926000Y-67262000D01*
X137045783Y-67241293D02*
X137066490Y-67262000D01*
X138176000Y-80010000D02*
X138176000Y-84531200D01*
X137609000Y-68067000D02*
X137614000Y-68062000D01*
X139446000Y-80010000D02*
X140716000Y-81280000D01*
X137614000Y-68062000D02*
X139926000Y-68062000D01*
X140716000Y-81280000D02*
X140716000Y-84531200D01*
X143256000Y-82042000D02*
X143256000Y-84531200D01*
X141224000Y-80010000D02*
X143256000Y-82042000D01*
X138334000Y-68862000D02*
X139926000Y-68862000D01*
X146176000Y-74312000D02*
X146176000Y-80646000D01*
X145796000Y-81026000D02*
X145796000Y-84531200D01*
X146176000Y-80646000D02*
X145796000Y-81026000D01*
X148336000Y-81280000D02*
X146976000Y-79920000D01*
X148336000Y-81280000D02*
X148336000Y-84531200D01*
X146976000Y-79920000D02*
X146976000Y-74312000D01*
X148426000Y-79338000D02*
X148426000Y-72862000D01*
X150876000Y-81788000D02*
X148426000Y-79338000D01*
X150876000Y-81788000D02*
X150876000Y-84531200D01*
X149860000Y-72446000D02*
X149476000Y-72062000D01*
X153416000Y-82042000D02*
X153416000Y-84531200D01*
X149860000Y-78486000D02*
X149860000Y-72446000D01*
X153416000Y-82042000D02*
X149860000Y-78486000D01*
X149476000Y-72062000D02*
X148426000Y-72062000D01*
X115220000Y-66760000D02*
X116484400Y-68024400D01*
X116484400Y-71069200D02*
X117449600Y-72034400D01*
X127420800Y-70561200D02*
X128682000Y-69300000D01*
X133350000Y-72136000D02*
X133424000Y-72062000D01*
X117449600Y-72034400D02*
X119100600Y-72034400D01*
X116484400Y-68024400D02*
X116484400Y-71069200D01*
X133424000Y-72062000D02*
X139926000Y-72062000D01*
X119100600Y-72034400D02*
X120573800Y-70561200D01*
X120573800Y-70561200D02*
X127420800Y-70561200D01*
X146664415Y-70303046D02*
X146823369Y-70462000D01*
X146823369Y-70462000D02*
X148426000Y-70462000D01*
X127420800Y-68021200D02*
X128682000Y-66760000D01*
X134910000Y-72862000D02*
X134874000Y-72898000D01*
X139926000Y-72862000D02*
X134910000Y-72862000D01*
X121666000Y-68021200D02*
X127420800Y-68021200D01*
X128682000Y-66860000D02*
X128682000Y-66760000D01*
X117760000Y-69300000D02*
X120387200Y-69300000D01*
X120387200Y-69300000D02*
X121666000Y-68021200D01*
X127457200Y-65481200D02*
X126178400Y-66760000D01*
X138108695Y-69662000D02*
X133927895Y-65481200D01*
X126178400Y-66760000D02*
X126142000Y-66760000D01*
X140976000Y-69662000D02*
X141986000Y-70672000D01*
X141986000Y-70672000D02*
X141986000Y-70866000D01*
X139926000Y-69662000D02*
X140976000Y-69662000D01*
X133927895Y-65481200D02*
X127457200Y-65481200D01*
X139926000Y-69662000D02*
X138108695Y-69662000D01*
X128682000Y-64220000D02*
X127327000Y-62865000D01*
X121454000Y-66760000D02*
X117760000Y-66760000D01*
X135890000Y-73660000D02*
X136542000Y-74312000D01*
X127327000Y-62865000D02*
X125349000Y-62865000D01*
X136542000Y-74312000D02*
X141376000Y-74312000D01*
X125349000Y-62865000D02*
X121454000Y-66760000D01*
X134620000Y-71143658D02*
X134738342Y-71262000D01*
X134738342Y-71262000D02*
X139926000Y-71262000D01*
X153771600Y-64668400D02*
X150378000Y-68062000D01*
X155295600Y-64668400D02*
X153771600Y-64668400D01*
X148426000Y-68062000D02*
X150378000Y-68062000D01*
X154686000Y-61417200D02*
X157124400Y-61417200D01*
X147980400Y-63957200D02*
X150321000Y-63957200D01*
X146976000Y-64961600D02*
X147980400Y-63957200D01*
X150321000Y-63957200D02*
X152861000Y-61417200D01*
X146976000Y-65812000D02*
X146976000Y-64961600D01*
X152908000Y-67005200D02*
X156514800Y-67005200D01*
X157835600Y-65684400D02*
X157835600Y-64668400D01*
X148426000Y-68862000D02*
X151051200Y-68862000D01*
X156514800Y-67005200D02*
X157835600Y-65684400D01*
X151051200Y-68862000D02*
X152908000Y-67005200D01*
X157861000Y-75184000D02*
X157861000Y-75866000D01*
X154686000Y-69596000D02*
X157861000Y-69596000D01*
X147259000Y-69662000D02*
X148426000Y-69662000D01*
X148426000Y-69662000D02*
X154625000Y-69662000D01*
X154625000Y-69662000D02*
X154686000Y-69601000D01*
X146939000Y-69342000D02*
X147259000Y-69662000D01*
X157861000Y-75866000D02*
X154987000Y-78740000D01*
X157861000Y-75184000D02*
X157861000Y-69596000D01*
G04 #@! TA.AperFunction,Conductor*
G36*
X144245030Y-59052785D02*
G01*
X144290785Y-59105589D01*
X144293345Y-59111610D01*
X144323136Y-59187154D01*
X144323139Y-59187160D01*
X144412499Y-59305000D01*
X144530339Y-59394360D01*
X144530342Y-59394362D01*
X144530343Y-59394362D01*
X144537734Y-59398518D01*
X144537056Y-59399722D01*
X144585129Y-59437121D01*
X144608327Y-59503028D01*
X144608500Y-59509577D01*
X144608500Y-60884790D01*
X144588815Y-60951829D01*
X144572181Y-60972471D01*
X144103281Y-61441371D01*
X144041958Y-61474856D01*
X143972266Y-61469872D01*
X143916333Y-61428000D01*
X143891916Y-61362536D01*
X143891600Y-61353690D01*
X143891600Y-61057600D01*
X142591600Y-61057600D01*
X142591600Y-62207600D01*
X143037690Y-62207600D01*
X143104729Y-62227285D01*
X143150484Y-62280089D01*
X143160428Y-62349247D01*
X143131403Y-62412803D01*
X143125371Y-62419281D01*
X142805671Y-62738981D01*
X142744348Y-62772466D01*
X142717990Y-62775300D01*
X142303481Y-62775300D01*
X142217025Y-62785682D01*
X142217024Y-62785682D01*
X142079439Y-62839939D01*
X141961599Y-62929299D01*
X141872239Y-63047139D01*
X141817982Y-63184724D01*
X141817982Y-63184725D01*
X141807600Y-63271181D01*
X141807600Y-63714729D01*
X141794078Y-63771038D01*
X141793078Y-63773000D01*
X141745097Y-63823790D01*
X141677274Y-63840577D01*
X141611142Y-63818031D01*
X141567697Y-63763310D01*
X141558600Y-63716691D01*
X141558600Y-63271181D01*
X141555139Y-63242362D01*
X141548217Y-63184723D01*
X141493962Y-63047142D01*
X141493960Y-63047139D01*
X141404600Y-62929299D01*
X141286760Y-62839939D01*
X141286758Y-62839938D01*
X141149177Y-62785683D01*
X141149176Y-62785682D01*
X141149174Y-62785682D01*
X141062719Y-62775300D01*
X141062718Y-62775300D01*
X140478482Y-62775300D01*
X140478481Y-62775300D01*
X140392025Y-62785682D01*
X140392024Y-62785682D01*
X140254439Y-62839939D01*
X140136599Y-62929299D01*
X140047237Y-63047142D01*
X140043080Y-63054536D01*
X140041876Y-63053859D01*
X140004471Y-63101934D01*
X139938563Y-63125127D01*
X139932022Y-63125300D01*
X137819409Y-63125300D01*
X137752370Y-63105615D01*
X137731728Y-63088981D01*
X136809019Y-62166271D01*
X136775534Y-62104948D01*
X136772700Y-62078590D01*
X136772700Y-61693977D01*
X136792385Y-61626938D01*
X136845189Y-61581183D01*
X136850783Y-61578803D01*
X136850852Y-61578764D01*
X136850858Y-61578762D01*
X136968700Y-61489400D01*
X137058062Y-61371558D01*
X137072317Y-61335409D01*
X137081703Y-61311610D01*
X137124609Y-61256466D01*
X137190516Y-61233273D01*
X137197057Y-61233100D01*
X137967101Y-61233100D01*
X138034140Y-61252785D01*
X138079895Y-61305589D01*
X138091101Y-61357100D01*
X138091101Y-61752456D01*
X138091102Y-61752482D01*
X138094013Y-61777587D01*
X138094015Y-61777591D01*
X138139393Y-61880364D01*
X138139394Y-61880365D01*
X138218835Y-61959806D01*
X138321609Y-62005185D01*
X138346735Y-62008100D01*
X140536464Y-62008099D01*
X140536479Y-62008097D01*
X140536482Y-62008097D01*
X140561587Y-62005186D01*
X140561588Y-62005185D01*
X140561591Y-62005185D01*
X140664365Y-61959806D01*
X140672667Y-61951503D01*
X140733985Y-61918020D01*
X140803677Y-61923002D01*
X140859612Y-61964872D01*
X140859613Y-61964873D01*
X140934412Y-62064790D01*
X141049506Y-62150950D01*
X141049513Y-62150954D01*
X141184220Y-62201196D01*
X141184227Y-62201198D01*
X141243755Y-62207599D01*
X141243772Y-62207600D01*
X142091600Y-62207600D01*
X142091600Y-60681600D01*
X142111285Y-60614561D01*
X142164089Y-60568806D01*
X142215600Y-60557600D01*
X143891600Y-60557600D01*
X143891600Y-59859772D01*
X143891599Y-59859755D01*
X143885198Y-59800227D01*
X143885196Y-59800220D01*
X143834954Y-59665513D01*
X143834950Y-59665506D01*
X143748791Y-59550414D01*
X143748782Y-59550404D01*
X143741786Y-59545167D01*
X143699917Y-59489232D01*
X143692100Y-59445903D01*
X143692100Y-59157100D01*
X143711785Y-59090061D01*
X143764589Y-59044306D01*
X143816100Y-59033100D01*
X144177991Y-59033100D01*
X144245030Y-59052785D01*
G37*
G04 #@! TD.AperFunction*
G04 #@! TA.AperFunction,Conductor*
G36*
X163772539Y-53487185D02*
G01*
X163818294Y-53539989D01*
X163829500Y-53591500D01*
X163829500Y-86997500D01*
X163809815Y-87064539D01*
X163757011Y-87110294D01*
X163705500Y-87121500D01*
X112519500Y-87121500D01*
X112452461Y-87101815D01*
X112406706Y-87049011D01*
X112395500Y-86997500D01*
X112395500Y-85429044D01*
X119046000Y-85429044D01*
X119052401Y-85488572D01*
X119052403Y-85488579D01*
X119102645Y-85623286D01*
X119102649Y-85623293D01*
X119188809Y-85738387D01*
X119188812Y-85738390D01*
X119303906Y-85824550D01*
X119303913Y-85824554D01*
X119438620Y-85874796D01*
X119438627Y-85874798D01*
X119498155Y-85881199D01*
X119498172Y-85881200D01*
X120146000Y-85881200D01*
X120146000Y-85143501D01*
X120165685Y-85076462D01*
X120218489Y-85030707D01*
X120287647Y-85020763D01*
X120360237Y-85031200D01*
X120360238Y-85031200D01*
X120431762Y-85031200D01*
X120431763Y-85031200D01*
X120504353Y-85020763D01*
X120573512Y-85030707D01*
X120626315Y-85076462D01*
X120646000Y-85143501D01*
X120646000Y-85881200D01*
X121293828Y-85881200D01*
X121293844Y-85881199D01*
X121353372Y-85874798D01*
X121353379Y-85874796D01*
X121488086Y-85824554D01*
X121488093Y-85824550D01*
X121603187Y-85738390D01*
X121603190Y-85738387D01*
X121689350Y-85623293D01*
X121689354Y-85623286D01*
X121739596Y-85488579D01*
X121739598Y-85488572D01*
X121745999Y-85429044D01*
X121746000Y-85429027D01*
X121746000Y-85234468D01*
X121765685Y-85167429D01*
X121818489Y-85121674D01*
X121887647Y-85111730D01*
X121951203Y-85140755D01*
X121968950Y-85159737D01*
X122082128Y-85309607D01*
X122239698Y-85453252D01*
X122420981Y-85565498D01*
X122619802Y-85642521D01*
X122829390Y-85681700D01*
X122829392Y-85681700D01*
X123042608Y-85681700D01*
X123042610Y-85681700D01*
X123252198Y-85642521D01*
X123451019Y-85565498D01*
X123632302Y-85453252D01*
X123789872Y-85309607D01*
X123918366Y-85139455D01*
X123932171Y-85111730D01*
X124013403Y-84948594D01*
X124013403Y-84948593D01*
X124013405Y-84948589D01*
X124071756Y-84743510D01*
X124082529Y-84627247D01*
X124108315Y-84562311D01*
X124152869Y-84530394D01*
X124116497Y-84509531D01*
X124084307Y-84447518D01*
X124082529Y-84435151D01*
X124076516Y-84370264D01*
X124071756Y-84318890D01*
X124013405Y-84113811D01*
X124013403Y-84113806D01*
X124013403Y-84113805D01*
X123918367Y-83922946D01*
X123789872Y-83752793D01*
X123786156Y-83749405D01*
X123632302Y-83609148D01*
X123451019Y-83496902D01*
X123451017Y-83496901D01*
X123301829Y-83439106D01*
X123252198Y-83419879D01*
X123042610Y-83380700D01*
X122829390Y-83380700D01*
X122619802Y-83419879D01*
X122619799Y-83419879D01*
X122619799Y-83419880D01*
X122420982Y-83496901D01*
X122420980Y-83496902D01*
X122239699Y-83609147D01*
X122082127Y-83752793D01*
X121968954Y-83902658D01*
X121912845Y-83944294D01*
X121843133Y-83948985D01*
X121781951Y-83915243D01*
X121748724Y-83853779D01*
X121746000Y-83827931D01*
X121746000Y-83633372D01*
X121745999Y-83633355D01*
X121739598Y-83573827D01*
X121739596Y-83573820D01*
X121689354Y-83439113D01*
X121689350Y-83439106D01*
X121603190Y-83324012D01*
X121603187Y-83324009D01*
X121488093Y-83237849D01*
X121488086Y-83237845D01*
X121353379Y-83187603D01*
X121353372Y-83187601D01*
X121293844Y-83181200D01*
X120646000Y-83181200D01*
X120646000Y-83918898D01*
X120626315Y-83985937D01*
X120573511Y-84031692D01*
X120504355Y-84041636D01*
X120431766Y-84031200D01*
X120431763Y-84031200D01*
X120360237Y-84031200D01*
X120360233Y-84031200D01*
X120287645Y-84041636D01*
X120218487Y-84031692D01*
X120165684Y-83985936D01*
X120146000Y-83918898D01*
X120146000Y-83181200D01*
X119498155Y-83181200D01*
X119438627Y-83187601D01*
X119438620Y-83187603D01*
X119303913Y-83237845D01*
X119303906Y-83237849D01*
X119188812Y-83324009D01*
X119188809Y-83324012D01*
X119102649Y-83439106D01*
X119102645Y-83439113D01*
X119052403Y-83573820D01*
X119052401Y-83573827D01*
X119046000Y-83633355D01*
X119046000Y-84281200D01*
X119782653Y-84281200D01*
X119849692Y-84300885D01*
X119895447Y-84353689D01*
X119905391Y-84422847D01*
X119901631Y-84440133D01*
X119896000Y-84459311D01*
X119896000Y-84603088D01*
X119901631Y-84622267D01*
X119901630Y-84692136D01*
X119863855Y-84750914D01*
X119800299Y-84779938D01*
X119782653Y-84781200D01*
X119046000Y-84781200D01*
X119046000Y-85429044D01*
X112395500Y-85429044D01*
X112395500Y-80899000D01*
X120658159Y-80899000D01*
X120677481Y-81107523D01*
X120734792Y-81308953D01*
X120828138Y-81496414D01*
X120828140Y-81496417D01*
X120834115Y-81504329D01*
X121292446Y-81045998D01*
X121353769Y-81012513D01*
X121423460Y-81017497D01*
X121479394Y-81059368D01*
X121483936Y-81065858D01*
X121531934Y-81139325D01*
X121531935Y-81139326D01*
X121531936Y-81139327D01*
X121599619Y-81192006D01*
X121631599Y-81216897D01*
X121672412Y-81273608D01*
X121676087Y-81343381D01*
X121643118Y-81402432D01*
X121190519Y-81855031D01*
X121287157Y-81914867D01*
X121287158Y-81914868D01*
X121482433Y-81990517D01*
X121688292Y-82029000D01*
X121897708Y-82029000D01*
X122103566Y-81990517D01*
X122298841Y-81914868D01*
X122298845Y-81914866D01*
X122395478Y-81855032D01*
X122395478Y-81855031D01*
X121939405Y-81398958D01*
X121905920Y-81337635D01*
X121910904Y-81267943D01*
X121952776Y-81212010D01*
X121968052Y-81202232D01*
X122010947Y-81179019D01*
X122090060Y-81093079D01*
X122093555Y-81085110D01*
X122138508Y-81031625D01*
X122205244Y-81010933D01*
X122272572Y-81029606D01*
X122294792Y-81047238D01*
X122751883Y-81504329D01*
X122757863Y-81496412D01*
X122851207Y-81308953D01*
X122908518Y-81107523D01*
X122927840Y-80899002D01*
X122925979Y-80878917D01*
X122939392Y-80810347D01*
X122987748Y-80759913D01*
X123036849Y-80744114D01*
X123140696Y-80733505D01*
X123307119Y-80678358D01*
X123307124Y-80678356D01*
X123456345Y-80586315D01*
X123580315Y-80462345D01*
X123672356Y-80313124D01*
X123672358Y-80313119D01*
X123727505Y-80146697D01*
X123727506Y-80146690D01*
X123737999Y-80043986D01*
X123738000Y-80043973D01*
X123738000Y-79844000D01*
X120738001Y-79844000D01*
X120738001Y-80043986D01*
X120748494Y-80146697D01*
X120795056Y-80287211D01*
X120797458Y-80357039D01*
X120788350Y-80381486D01*
X120734794Y-80489041D01*
X120734792Y-80489045D01*
X120677481Y-80690476D01*
X120658159Y-80898999D01*
X120658159Y-80899000D01*
X112395500Y-80899000D01*
X112395500Y-64470000D01*
X113889364Y-64470000D01*
X113946567Y-64683486D01*
X113946570Y-64683492D01*
X114046399Y-64897578D01*
X114181894Y-65091082D01*
X114348917Y-65258105D01*
X114542421Y-65393600D01*
X114741573Y-65486466D01*
X114794012Y-65532638D01*
X114813164Y-65599832D01*
X114792948Y-65666713D01*
X114739783Y-65712048D01*
X114733968Y-65714472D01*
X114726771Y-65717260D01*
X114704982Y-65725701D01*
X114704980Y-65725702D01*
X114523699Y-65837947D01*
X114366127Y-65981593D01*
X114237632Y-66151746D01*
X114142596Y-66342605D01*
X114142596Y-66342607D01*
X114084244Y-66547689D01*
X114064570Y-66759999D01*
X114064570Y-66760000D01*
X114079120Y-66917012D01*
X114084244Y-66972310D01*
X114140412Y-67169718D01*
X114142596Y-67177392D01*
X114142596Y-67177394D01*
X114237632Y-67368253D01*
X114356246Y-67525321D01*
X114366128Y-67538407D01*
X114523698Y-67682052D01*
X114704981Y-67794298D01*
X114903802Y-67871321D01*
X115100613Y-67908111D01*
X115162893Y-67939779D01*
X115198166Y-68000092D01*
X115195232Y-68069900D01*
X115155023Y-68127040D01*
X115100613Y-68151888D01*
X114903802Y-68188679D01*
X114903799Y-68188679D01*
X114903799Y-68188680D01*
X114704982Y-68265701D01*
X114704980Y-68265702D01*
X114523699Y-68377947D01*
X114366127Y-68521593D01*
X114237632Y-68691746D01*
X114142596Y-68882605D01*
X114142596Y-68882607D01*
X114084244Y-69087689D01*
X114064570Y-69299999D01*
X114064570Y-69300000D01*
X114084244Y-69512309D01*
X114084244Y-69512310D01*
X114140412Y-69709718D01*
X114142596Y-69717392D01*
X114142596Y-69717394D01*
X114237632Y-69908253D01*
X114356246Y-70065321D01*
X114366128Y-70078407D01*
X114397696Y-70107185D01*
X114523699Y-70222053D01*
X114523701Y-70222054D01*
X114560777Y-70245010D01*
X114607412Y-70297036D01*
X114619500Y-70350437D01*
X114619500Y-72352171D01*
X114618969Y-72360273D01*
X114614544Y-72393887D01*
X114614318Y-72395600D01*
X114621200Y-72447872D01*
X114622821Y-72460185D01*
X114634955Y-72552360D01*
X114634956Y-72552362D01*
X114694768Y-72696762D01*
X114695464Y-72698441D01*
X114791718Y-72823882D01*
X114819995Y-72845580D01*
X114826085Y-72850920D01*
X117259930Y-75284765D01*
X119663069Y-77687904D01*
X119668422Y-77694007D01*
X119690118Y-77722282D01*
X119815737Y-77818674D01*
X119817432Y-77819312D01*
X119961638Y-77879044D01*
X120040019Y-77889363D01*
X120118399Y-77899682D01*
X120118400Y-77899682D01*
X120153729Y-77895030D01*
X120161828Y-77894500D01*
X120890914Y-77894500D01*
X120957953Y-77914185D01*
X120997638Y-77959984D01*
X120999481Y-77958948D01*
X121003638Y-77966341D01*
X121095077Y-78086922D01*
X121215656Y-78178360D01*
X121215657Y-78178360D01*
X121215658Y-78178361D01*
X121332602Y-78224478D01*
X121387745Y-78267383D01*
X121410938Y-78333291D01*
X121394818Y-78401275D01*
X121344501Y-78449752D01*
X121326116Y-78457538D01*
X121168878Y-78509642D01*
X121168875Y-78509643D01*
X121019654Y-78601684D01*
X120895684Y-78725654D01*
X120803643Y-78874875D01*
X120803641Y-78874880D01*
X120748494Y-79041302D01*
X120748493Y-79041309D01*
X120738000Y-79144013D01*
X120738000Y-79344000D01*
X123737999Y-79344000D01*
X123737999Y-79303590D01*
X123757684Y-79236551D01*
X123810488Y-79190796D01*
X123879646Y-79180852D01*
X123912428Y-79190308D01*
X124043876Y-79248832D01*
X124235201Y-79289500D01*
X124430799Y-79289500D01*
X124622124Y-79248832D01*
X124769317Y-79183297D01*
X124838565Y-79174013D01*
X124901842Y-79203641D01*
X124939055Y-79262776D01*
X124942867Y-79281793D01*
X124948122Y-79325562D01*
X125003639Y-79466343D01*
X125095077Y-79586922D01*
X125215656Y-79678360D01*
X125215657Y-79678360D01*
X125215658Y-79678361D01*
X125356436Y-79733877D01*
X125444898Y-79744500D01*
X125560500Y-79744500D01*
X125627539Y-79764185D01*
X125673294Y-79816989D01*
X125684500Y-79868500D01*
X125684500Y-80367588D01*
X125664815Y-80434627D01*
X125648181Y-80455269D01*
X125164196Y-80939253D01*
X125164192Y-80939259D01*
X125127472Y-80975978D01*
X125116510Y-80997493D01*
X125106346Y-81014078D01*
X125092152Y-81033614D01*
X125092151Y-81033617D01*
X125084688Y-81056585D01*
X125077243Y-81074558D01*
X125066280Y-81096073D01*
X125062503Y-81119922D01*
X125057962Y-81138839D01*
X125050500Y-81161804D01*
X125050500Y-83377279D01*
X125030815Y-83444318D01*
X124978011Y-83490073D01*
X124971298Y-83492904D01*
X124960987Y-83496898D01*
X124960979Y-83496902D01*
X124779699Y-83609147D01*
X124622127Y-83752793D01*
X124493632Y-83922946D01*
X124398596Y-84113805D01*
X124398596Y-84113807D01*
X124340244Y-84318889D01*
X124329471Y-84435151D01*
X124303685Y-84500088D01*
X124259130Y-84532004D01*
X124295503Y-84552868D01*
X124327693Y-84614881D01*
X124329471Y-84627248D01*
X124340244Y-84743510D01*
X124398596Y-84948592D01*
X124398596Y-84948594D01*
X124493632Y-85139453D01*
X124565385Y-85234468D01*
X124622128Y-85309607D01*
X124779698Y-85453252D01*
X124960981Y-85565498D01*
X125159802Y-85642521D01*
X125369390Y-85681700D01*
X125369392Y-85681700D01*
X125582608Y-85681700D01*
X125582610Y-85681700D01*
X125792198Y-85642521D01*
X125991019Y-85565498D01*
X126172302Y-85453252D01*
X126329872Y-85309607D01*
X126458366Y-85139455D01*
X126472171Y-85111730D01*
X126553403Y-84948594D01*
X126553403Y-84948593D01*
X126553405Y-84948589D01*
X126611756Y-84743510D01*
X126622529Y-84627247D01*
X126648315Y-84562311D01*
X126690622Y-84532004D01*
X126799130Y-84532004D01*
X126835503Y-84552868D01*
X126867693Y-84614881D01*
X126869471Y-84627248D01*
X126880244Y-84743510D01*
X126938596Y-84948592D01*
X126938596Y-84948594D01*
X127033632Y-85139453D01*
X127105385Y-85234468D01*
X127162128Y-85309607D01*
X127319698Y-85453252D01*
X127500981Y-85565498D01*
X127699802Y-85642521D01*
X127909390Y-85681700D01*
X127909392Y-85681700D01*
X128122608Y-85681700D01*
X128122610Y-85681700D01*
X128332198Y-85642521D01*
X128531019Y-85565498D01*
X128712302Y-85453252D01*
X128869872Y-85309607D01*
X128998366Y-85139455D01*
X129012171Y-85111730D01*
X129093403Y-84948594D01*
X129093403Y-84948593D01*
X129093405Y-84948589D01*
X129151756Y-84743510D01*
X129162529Y-84627245D01*
X129188313Y-84562312D01*
X129232868Y-84530394D01*
X129196495Y-84509530D01*
X129164306Y-84447517D01*
X129162530Y-84435166D01*
X129151756Y-84318890D01*
X129149649Y-84311486D01*
X129137273Y-84267989D01*
X129093405Y-84113811D01*
X129093403Y-84113806D01*
X129093403Y-84113805D01*
X128998367Y-83922946D01*
X128869872Y-83752793D01*
X128866156Y-83749405D01*
X128712302Y-83609148D01*
X128531019Y-83496902D01*
X128531017Y-83496901D01*
X128381829Y-83439106D01*
X128332198Y-83419879D01*
X128122610Y-83380700D01*
X127909390Y-83380700D01*
X127699802Y-83419879D01*
X127699799Y-83419879D01*
X127699799Y-83419880D01*
X127500982Y-83496901D01*
X127500980Y-83496902D01*
X127319699Y-83609147D01*
X127162127Y-83752793D01*
X127033632Y-83922946D01*
X126938596Y-84113805D01*
X126938596Y-84113807D01*
X126880244Y-84318889D01*
X126869471Y-84435151D01*
X126843685Y-84500088D01*
X126799130Y-84532004D01*
X126690622Y-84532004D01*
X126692869Y-84530394D01*
X126656497Y-84509531D01*
X126624307Y-84447518D01*
X126622529Y-84435151D01*
X126616516Y-84370264D01*
X126611756Y-84318890D01*
X126553405Y-84113811D01*
X126553403Y-84113806D01*
X126553403Y-84113805D01*
X126458367Y-83922946D01*
X126329872Y-83752793D01*
X126326156Y-83749405D01*
X126172302Y-83609148D01*
X126115257Y-83573827D01*
X125991020Y-83496902D01*
X125991012Y-83496898D01*
X125980702Y-83492904D01*
X125925302Y-83450329D01*
X125901714Y-83384561D01*
X125901500Y-83377279D01*
X125901500Y-82499198D01*
X125901500Y-81456805D01*
X125921184Y-81389770D01*
X125937813Y-81369133D01*
X126434553Y-80872395D01*
X126462231Y-80844717D01*
X126465773Y-80834200D01*
X126469495Y-80826895D01*
X126479647Y-80810326D01*
X126493849Y-80790781D01*
X126501309Y-80767816D01*
X126508759Y-80749834D01*
X126510296Y-80746819D01*
X126519719Y-80728326D01*
X126523495Y-80704476D01*
X126528036Y-80685560D01*
X126535500Y-80662593D01*
X126535500Y-80527807D01*
X126535500Y-80476453D01*
X126535499Y-80476444D01*
X126535500Y-79868500D01*
X126555185Y-79801460D01*
X126607989Y-79755706D01*
X126659500Y-79744500D01*
X127031097Y-79744500D01*
X127031102Y-79744500D01*
X127119564Y-79733877D01*
X127260342Y-79678361D01*
X127380922Y-79586922D01*
X127472361Y-79466342D01*
X127527877Y-79325564D01*
X127538500Y-79237102D01*
X127538500Y-77650898D01*
X127527877Y-77562436D01*
X127472361Y-77421658D01*
X127472360Y-77421657D01*
X127472360Y-77421656D01*
X127380922Y-77301077D01*
X127260343Y-77209639D01*
X127138869Y-77161736D01*
X127119564Y-77154123D01*
X127119563Y-77154122D01*
X127119561Y-77154122D01*
X127073926Y-77148642D01*
X127031102Y-77143500D01*
X125444898Y-77143500D01*
X125405853Y-77148188D01*
X125356438Y-77154122D01*
X125215656Y-77209639D01*
X125095077Y-77301077D01*
X125003638Y-77421658D01*
X124977980Y-77486721D01*
X124935073Y-77541865D01*
X124869165Y-77565057D01*
X124807197Y-77550362D01*
X124806749Y-77551369D01*
X124801402Y-77548988D01*
X124801181Y-77548936D01*
X124800824Y-77548731D01*
X124800816Y-77548727D01*
X124800813Y-77548725D01*
X124622124Y-77469168D01*
X124622122Y-77469167D01*
X124622121Y-77469167D01*
X124430799Y-77428500D01*
X124235201Y-77428500D01*
X124043876Y-77469167D01*
X124043871Y-77469169D01*
X123865188Y-77548725D01*
X123865183Y-77548727D01*
X123735385Y-77643031D01*
X123669579Y-77666511D01*
X123601525Y-77650685D01*
X123552830Y-77600579D01*
X123538500Y-77542713D01*
X123538500Y-76850903D01*
X123538500Y-76850898D01*
X123527877Y-76762436D01*
X123472361Y-76621658D01*
X123472360Y-76621657D01*
X123472360Y-76621656D01*
X123380922Y-76501077D01*
X123260343Y-76409639D01*
X123157150Y-76368945D01*
X123119564Y-76354123D01*
X123119563Y-76354122D01*
X123119561Y-76354122D01*
X123073926Y-76348642D01*
X123031102Y-76343500D01*
X123031097Y-76343500D01*
X122834500Y-76343500D01*
X122767461Y-76323815D01*
X122721706Y-76271011D01*
X122710500Y-76219500D01*
X122710500Y-76179428D01*
X122711031Y-76171326D01*
X122711798Y-76165500D01*
X122715682Y-76136000D01*
X122705636Y-76059693D01*
X122707286Y-76017723D01*
X122708174Y-76013539D01*
X122708179Y-76013527D01*
X122728625Y-75819000D01*
X122708179Y-75624473D01*
X122647736Y-75438447D01*
X122647735Y-75438446D01*
X122647735Y-75438444D01*
X122647734Y-75438443D01*
X122549938Y-75269054D01*
X122425350Y-75130686D01*
X122395120Y-75067695D01*
X122393500Y-75047714D01*
X122393500Y-74695849D01*
X122393500Y-74341093D01*
X122413183Y-74274058D01*
X122429813Y-74253421D01*
X124206416Y-72476819D01*
X124267739Y-72443334D01*
X124294097Y-72440500D01*
X125092033Y-72440500D01*
X125159072Y-72460185D01*
X125190987Y-72489773D01*
X125280439Y-72608226D01*
X125288128Y-72618407D01*
X125445698Y-72762052D01*
X125626981Y-72874298D01*
X125825802Y-72951321D01*
X126035390Y-72990500D01*
X126035392Y-72990500D01*
X126248608Y-72990500D01*
X126248610Y-72990500D01*
X126458198Y-72951321D01*
X126657019Y-72874298D01*
X126838302Y-72762052D01*
X126995872Y-72618407D01*
X127109047Y-72468540D01*
X127165155Y-72426905D01*
X127234867Y-72422214D01*
X127296049Y-72455956D01*
X127329276Y-72517419D01*
X127332000Y-72543268D01*
X127332000Y-72737844D01*
X127338401Y-72797372D01*
X127338403Y-72797379D01*
X127388645Y-72932086D01*
X127388649Y-72932093D01*
X127474809Y-73047187D01*
X127474812Y-73047190D01*
X127589906Y-73133350D01*
X127589913Y-73133354D01*
X127724620Y-73183596D01*
X127724627Y-73183598D01*
X127784155Y-73189999D01*
X127784172Y-73190000D01*
X128432000Y-73190000D01*
X128432000Y-72452301D01*
X128451685Y-72385262D01*
X128504489Y-72339507D01*
X128573647Y-72329563D01*
X128646237Y-72340000D01*
X128646238Y-72340000D01*
X128717762Y-72340000D01*
X128717763Y-72340000D01*
X128790352Y-72329563D01*
X128859510Y-72339507D01*
X128912314Y-72385261D01*
X128931999Y-72452301D01*
X128931999Y-73189999D01*
X128932001Y-73190000D01*
X129579828Y-73190000D01*
X129579844Y-73189999D01*
X129639372Y-73183598D01*
X129639379Y-73183596D01*
X129774086Y-73133354D01*
X129774093Y-73133350D01*
X129889187Y-73047190D01*
X129889190Y-73047187D01*
X129975350Y-72932093D01*
X129975354Y-72932086D01*
X130025596Y-72797379D01*
X130025598Y-72797372D01*
X130031999Y-72737844D01*
X130032000Y-72737827D01*
X130032000Y-72090000D01*
X129295347Y-72090000D01*
X129228308Y-72070315D01*
X129182553Y-72017511D01*
X129172609Y-71948353D01*
X129176369Y-71931067D01*
X129182000Y-71911888D01*
X129182000Y-71768111D01*
X129176369Y-71748933D01*
X129176370Y-71679064D01*
X129214145Y-71620286D01*
X129277701Y-71591262D01*
X129295347Y-71590000D01*
X130032000Y-71590000D01*
X130032000Y-70942172D01*
X130031999Y-70942155D01*
X130025598Y-70882627D01*
X130025596Y-70882620D01*
X129975354Y-70747913D01*
X129975350Y-70747906D01*
X129889190Y-70632812D01*
X129889187Y-70632809D01*
X129774093Y-70546649D01*
X129774086Y-70546645D01*
X129639379Y-70496403D01*
X129639372Y-70496401D01*
X129579844Y-70490000D01*
X129381366Y-70490000D01*
X129314327Y-70470315D01*
X129268572Y-70417511D01*
X129258628Y-70348353D01*
X129287653Y-70284797D01*
X129316089Y-70260573D01*
X129354730Y-70236647D01*
X129378302Y-70222052D01*
X129535872Y-70078407D01*
X129664366Y-69908255D01*
X129695365Y-69846000D01*
X129759403Y-69717394D01*
X129759403Y-69717393D01*
X129759405Y-69717389D01*
X129817756Y-69512310D01*
X129837429Y-69300000D01*
X129817756Y-69087690D01*
X129759405Y-68882611D01*
X129759403Y-68882606D01*
X129759403Y-68882605D01*
X129664367Y-68691746D01*
X129535872Y-68521593D01*
X129520900Y-68507944D01*
X129378302Y-68377948D01*
X129197019Y-68265702D01*
X129197017Y-68265701D01*
X129036755Y-68203616D01*
X128998198Y-68188679D01*
X128801385Y-68151888D01*
X128739106Y-68120221D01*
X128703833Y-68059908D01*
X128706767Y-67990100D01*
X128746976Y-67932960D01*
X128801384Y-67908111D01*
X128998198Y-67871321D01*
X129197019Y-67794298D01*
X129378302Y-67682052D01*
X129535872Y-67538407D01*
X129664366Y-67368255D01*
X129671600Y-67353728D01*
X129759403Y-67177394D01*
X129759403Y-67177393D01*
X129759405Y-67177389D01*
X129817756Y-66972310D01*
X129837429Y-66760000D01*
X129817756Y-66547690D01*
X129759405Y-66342611D01*
X129759403Y-66342606D01*
X129759403Y-66342605D01*
X129664367Y-66151746D01*
X129629388Y-66105427D01*
X129604696Y-66040066D01*
X129619261Y-65971731D01*
X129668458Y-65922119D01*
X129728342Y-65906700D01*
X133700285Y-65906700D01*
X133767324Y-65926385D01*
X133787966Y-65943019D01*
X135755447Y-67910500D01*
X137626425Y-69781477D01*
X137659910Y-69842800D01*
X137654926Y-69912492D01*
X137613054Y-69968425D01*
X137547590Y-69992842D01*
X137538744Y-69993158D01*
X133323546Y-69993158D01*
X133300581Y-70000620D01*
X133281664Y-70005161D01*
X133257815Y-70008938D01*
X133236300Y-70019901D01*
X133218327Y-70027346D01*
X133195360Y-70034808D01*
X133175818Y-70049006D01*
X133159237Y-70059166D01*
X133137723Y-70070128D01*
X133137720Y-70070131D01*
X133055187Y-70152660D01*
X133055161Y-70152690D01*
X130759980Y-72447872D01*
X130664671Y-72543180D01*
X130653710Y-72564693D01*
X130643546Y-72581278D01*
X130629352Y-72600814D01*
X130629351Y-72600817D01*
X130621888Y-72623785D01*
X130614443Y-72641758D01*
X130603480Y-72663273D01*
X130599703Y-72687122D01*
X130595162Y-72706039D01*
X130587700Y-72729004D01*
X130587700Y-83256700D01*
X130568015Y-83323739D01*
X130515211Y-83369494D01*
X130463700Y-83380700D01*
X130449390Y-83380700D01*
X130239802Y-83419879D01*
X130239799Y-83419879D01*
X130239799Y-83419880D01*
X130040982Y-83496901D01*
X130040980Y-83496902D01*
X129859699Y-83609147D01*
X129702127Y-83752793D01*
X129573632Y-83922946D01*
X129478596Y-84113805D01*
X129478596Y-84113807D01*
X129420244Y-84318889D01*
X129409470Y-84435152D01*
X129383683Y-84500089D01*
X129339128Y-84532004D01*
X129375501Y-84552867D01*
X129407692Y-84614880D01*
X129409470Y-84627247D01*
X129420244Y-84743510D01*
X129478596Y-84948592D01*
X129478596Y-84948594D01*
X129573632Y-85139453D01*
X129645385Y-85234468D01*
X129702128Y-85309607D01*
X129859698Y-85453252D01*
X130040981Y-85565498D01*
X130239802Y-85642521D01*
X130449390Y-85681700D01*
X130449392Y-85681700D01*
X130662608Y-85681700D01*
X130662610Y-85681700D01*
X130872198Y-85642521D01*
X131071019Y-85565498D01*
X131252302Y-85453252D01*
X131409872Y-85309607D01*
X131538366Y-85139455D01*
X131552171Y-85111730D01*
X131633403Y-84948594D01*
X131633403Y-84948593D01*
X131633405Y-84948589D01*
X131691756Y-84743510D01*
X131702529Y-84627247D01*
X131728315Y-84562311D01*
X131770622Y-84532004D01*
X131879130Y-84532004D01*
X131915503Y-84552868D01*
X131947693Y-84614881D01*
X131949471Y-84627248D01*
X131960244Y-84743510D01*
X132018596Y-84948592D01*
X132018596Y-84948594D01*
X132113632Y-85139453D01*
X132185385Y-85234468D01*
X132242128Y-85309607D01*
X132399698Y-85453252D01*
X132580981Y-85565498D01*
X132779802Y-85642521D01*
X132989390Y-85681700D01*
X132989392Y-85681700D01*
X133202608Y-85681700D01*
X133202610Y-85681700D01*
X133412198Y-85642521D01*
X133611019Y-85565498D01*
X133792302Y-85453252D01*
X133949872Y-85309607D01*
X134078366Y-85139455D01*
X134092171Y-85111730D01*
X134173403Y-84948594D01*
X134173403Y-84948593D01*
X134173405Y-84948589D01*
X134231756Y-84743510D01*
X134242529Y-84627247D01*
X134268315Y-84562311D01*
X134312869Y-84530394D01*
X134276497Y-84509531D01*
X134244307Y-84447518D01*
X134242529Y-84435151D01*
X134236516Y-84370264D01*
X134231756Y-84318890D01*
X134173405Y-84113811D01*
X134173403Y-84113806D01*
X134173403Y-84113805D01*
X134078367Y-83922946D01*
X133949872Y-83752793D01*
X133946156Y-83749405D01*
X133792302Y-83609148D01*
X133611019Y-83496902D01*
X133611017Y-83496901D01*
X133461829Y-83439106D01*
X133412198Y-83419879D01*
X133202610Y-83380700D01*
X132989390Y-83380700D01*
X132779802Y-83419879D01*
X132779799Y-83419879D01*
X132779799Y-83419880D01*
X132580982Y-83496901D01*
X132580980Y-83496902D01*
X132399699Y-83609147D01*
X132242127Y-83752793D01*
X132113632Y-83922946D01*
X132018596Y-84113805D01*
X132018596Y-84113807D01*
X131960244Y-84318889D01*
X131949471Y-84435151D01*
X131923685Y-84500088D01*
X131879130Y-84532004D01*
X131770622Y-84532004D01*
X131772869Y-84530394D01*
X131736497Y-84509531D01*
X131704307Y-84447518D01*
X131702529Y-84435151D01*
X131696516Y-84370264D01*
X131691756Y-84318890D01*
X131633405Y-84113811D01*
X131633403Y-84113806D01*
X131633403Y-84113805D01*
X131538366Y-83922946D01*
X131538366Y-83922945D01*
X131486134Y-83853779D01*
X131463746Y-83824132D01*
X131439054Y-83758770D01*
X131438700Y-83749405D01*
X131438700Y-77565400D01*
X135854801Y-77565400D01*
X135854801Y-77664554D01*
X135865119Y-77765552D01*
X135919346Y-77929200D01*
X135919351Y-77929211D01*
X136009852Y-78075934D01*
X136009855Y-78075938D01*
X136131761Y-78197844D01*
X136131765Y-78197847D01*
X136278488Y-78288348D01*
X136278499Y-78288353D01*
X136442147Y-78342580D01*
X136543152Y-78352899D01*
X136579800Y-78352899D01*
X136579800Y-77565400D01*
X137079800Y-77565400D01*
X137079800Y-78352899D01*
X137116440Y-78352899D01*
X137116454Y-78352898D01*
X137217452Y-78342580D01*
X137381100Y-78288353D01*
X137381107Y-78288350D01*
X137498012Y-78216241D01*
X137527387Y-78208202D01*
X137540244Y-78185437D01*
X137649748Y-78075933D01*
X137740248Y-77929211D01*
X137740253Y-77929200D01*
X137794480Y-77765552D01*
X137804799Y-77664554D01*
X137804800Y-77664541D01*
X137804800Y-77565400D01*
X137079800Y-77565400D01*
X136579800Y-77565400D01*
X135854801Y-77565400D01*
X131438700Y-77565400D01*
X131438700Y-73024010D01*
X131458385Y-72956971D01*
X131475019Y-72936329D01*
X131955392Y-72455956D01*
X132441264Y-71970083D01*
X132502585Y-71936600D01*
X132572276Y-71941584D01*
X132628210Y-71983456D01*
X132652627Y-72048920D01*
X132652039Y-72072712D01*
X132644355Y-72135999D01*
X132664859Y-72304869D01*
X132664860Y-72304874D01*
X132725182Y-72463931D01*
X132761816Y-72517003D01*
X132821817Y-72603929D01*
X132888803Y-72663273D01*
X132949150Y-72716736D01*
X133099773Y-72795789D01*
X133099775Y-72795790D01*
X133264944Y-72836500D01*
X133435056Y-72836500D01*
X133600225Y-72795790D01*
X133710663Y-72737827D01*
X133750849Y-72716736D01*
X133750850Y-72716734D01*
X133750852Y-72716734D01*
X133878183Y-72603929D01*
X133899263Y-72573390D01*
X133921580Y-72541059D01*
X133975863Y-72497069D01*
X134023629Y-72487500D01*
X134100852Y-72487500D01*
X134167891Y-72507185D01*
X134213646Y-72559989D01*
X134223590Y-72629147D01*
X134216794Y-72655470D01*
X134188861Y-72729122D01*
X134188859Y-72729130D01*
X134168355Y-72898000D01*
X134188859Y-73066869D01*
X134188860Y-73066874D01*
X134249182Y-73225931D01*
X134311475Y-73316177D01*
X134345817Y-73365929D01*
X134431691Y-73442006D01*
X134473150Y-73478736D01*
X134623666Y-73557733D01*
X134623775Y-73557790D01*
X134788944Y-73598500D01*
X134959054Y-73598500D01*
X134959056Y-73598500D01*
X135034661Y-73579865D01*
X135104459Y-73582934D01*
X135161522Y-73623253D01*
X135187429Y-73685315D01*
X135204859Y-73828869D01*
X135204860Y-73828874D01*
X135265182Y-73987931D01*
X135318925Y-74065790D01*
X135361817Y-74127929D01*
X135467505Y-74221560D01*
X135489150Y-74240736D01*
X135629924Y-74314620D01*
X135639775Y-74319790D01*
X135804944Y-74360500D01*
X135937390Y-74360500D01*
X136004429Y-74380185D01*
X136025066Y-74396814D01*
X136193472Y-74565219D01*
X136193472Y-74565220D01*
X136288780Y-74660528D01*
X136293347Y-74665095D01*
X136326831Y-74726418D01*
X136321847Y-74796110D01*
X136280591Y-74851580D01*
X136208301Y-74906399D01*
X136208300Y-74906399D01*
X136201455Y-74915427D01*
X136145262Y-74956949D01*
X136102652Y-74964500D01*
X133134154Y-74964500D01*
X133076528Y-74950296D01*
X133010092Y-74915427D01*
X132990624Y-74905209D01*
X132825456Y-74864500D01*
X132655344Y-74864500D01*
X132490173Y-74905210D01*
X132339550Y-74984263D01*
X132212216Y-75097072D01*
X132115582Y-75237068D01*
X132055260Y-75396125D01*
X132055259Y-75396130D01*
X132034755Y-75564999D01*
X132055259Y-75733869D01*
X132055260Y-75733874D01*
X132115582Y-75892931D01*
X132135102Y-75921210D01*
X132212217Y-76032929D01*
X132309106Y-76118765D01*
X132339550Y-76145736D01*
X132480096Y-76219500D01*
X132490175Y-76224790D01*
X132655344Y-76265500D01*
X132825456Y-76265500D01*
X132990625Y-76224790D01*
X133076528Y-76179703D01*
X133134154Y-76165500D01*
X136064129Y-76165500D01*
X136131168Y-76185185D01*
X136162932Y-76214573D01*
X136183330Y-76241472D01*
X136208154Y-76306782D01*
X136193727Y-76375146D01*
X136149627Y-76421934D01*
X136131767Y-76432950D01*
X136131761Y-76432955D01*
X136009855Y-76554861D01*
X136009852Y-76554865D01*
X135919351Y-76701588D01*
X135919346Y-76701599D01*
X135865119Y-76865247D01*
X135854800Y-76966245D01*
X135854800Y-77065400D01*
X137804799Y-77065400D01*
X137804799Y-76966260D01*
X137804798Y-76966245D01*
X137794480Y-76865247D01*
X137740253Y-76701599D01*
X137740248Y-76701588D01*
X137649747Y-76554865D01*
X137649744Y-76554861D01*
X137527837Y-76432954D01*
X137509974Y-76421936D01*
X137463250Y-76369987D01*
X137452029Y-76301024D01*
X137476332Y-76241390D01*
X137476764Y-76240819D01*
X137477471Y-76239890D01*
X137533699Y-76198415D01*
X137576210Y-76190900D01*
X137944983Y-76190900D01*
X138012022Y-76210585D01*
X138020469Y-76216524D01*
X138026017Y-76220781D01*
X138026018Y-76220782D01*
X138125092Y-76296804D01*
X138151459Y-76317036D01*
X138276778Y-76368945D01*
X138297538Y-76377544D01*
X138454299Y-76398183D01*
X138454300Y-76398183D01*
X138489634Y-76393530D01*
X138497734Y-76393000D01*
X140908659Y-76393000D01*
X140975698Y-76412685D01*
X141021453Y-76465489D01*
X141031397Y-76534647D01*
X141002372Y-76598203D01*
X140966285Y-76626796D01*
X140950150Y-76635263D01*
X140822816Y-76748072D01*
X140726182Y-76888068D01*
X140665860Y-77047125D01*
X140665859Y-77047130D01*
X140645355Y-77216000D01*
X140645355Y-77216003D01*
X140649326Y-77248715D01*
X140637864Y-77317638D01*
X140613911Y-77351339D01*
X139687071Y-78278181D01*
X139625748Y-78311666D01*
X139599390Y-78314500D01*
X137854604Y-78314500D01*
X137831639Y-78321962D01*
X137812722Y-78326503D01*
X137788873Y-78330280D01*
X137767358Y-78341243D01*
X137749385Y-78348688D01*
X137726418Y-78356150D01*
X137726416Y-78356151D01*
X137706883Y-78370343D01*
X137690298Y-78380507D01*
X137684222Y-78383603D01*
X137663555Y-78387484D01*
X137655304Y-78404702D01*
X137650791Y-78409460D01*
X135287472Y-80772778D01*
X135276510Y-80794293D01*
X135266346Y-80810878D01*
X135252152Y-80830414D01*
X135252151Y-80830417D01*
X135244688Y-80853385D01*
X135237243Y-80871358D01*
X135226280Y-80892873D01*
X135222503Y-80916722D01*
X135217962Y-80935639D01*
X135210500Y-80958604D01*
X135210500Y-83377279D01*
X135190815Y-83444318D01*
X135138011Y-83490073D01*
X135131298Y-83492904D01*
X135120987Y-83496898D01*
X135120979Y-83496902D01*
X134939699Y-83609147D01*
X134782127Y-83752793D01*
X134653632Y-83922946D01*
X134558596Y-84113805D01*
X134558596Y-84113807D01*
X134500244Y-84318889D01*
X134489471Y-84435151D01*
X134463685Y-84500088D01*
X134419130Y-84532004D01*
X134455503Y-84552868D01*
X134487693Y-84614881D01*
X134489471Y-84627248D01*
X134500244Y-84743510D01*
X134558596Y-84948592D01*
X134558596Y-84948594D01*
X134653632Y-85139453D01*
X134725385Y-85234468D01*
X134782128Y-85309607D01*
X134939698Y-85453252D01*
X135120981Y-85565498D01*
X135319802Y-85642521D01*
X135529390Y-85681700D01*
X135529392Y-85681700D01*
X135742608Y-85681700D01*
X135742610Y-85681700D01*
X135952198Y-85642521D01*
X136151019Y-85565498D01*
X136332302Y-85453252D01*
X136489872Y-85309607D01*
X136618366Y-85139455D01*
X136632171Y-85111730D01*
X136713403Y-84948594D01*
X136713403Y-84948593D01*
X136713405Y-84948589D01*
X136771756Y-84743510D01*
X136782529Y-84627245D01*
X136808313Y-84562312D01*
X136852868Y-84530394D01*
X136816495Y-84509530D01*
X136784306Y-84447517D01*
X136782530Y-84435166D01*
X136771756Y-84318890D01*
X136769649Y-84311486D01*
X136757273Y-84267989D01*
X136713405Y-84113811D01*
X136713403Y-84113806D01*
X136713403Y-84113805D01*
X136618367Y-83922946D01*
X136489872Y-83752793D01*
X136486156Y-83749405D01*
X136332302Y-83609148D01*
X136275257Y-83573827D01*
X136151020Y-83496902D01*
X136151012Y-83496898D01*
X136140702Y-83492904D01*
X136085302Y-83450329D01*
X136061714Y-83384561D01*
X136061500Y-83377279D01*
X136061500Y-81253609D01*
X136081185Y-81186570D01*
X136097819Y-81165928D01*
X136677432Y-80586315D01*
X137266824Y-79996922D01*
X137328145Y-79963439D01*
X137397837Y-79968423D01*
X137453770Y-80010295D01*
X137477599Y-80069658D01*
X137490859Y-80178869D01*
X137490860Y-80178874D01*
X137551182Y-80337931D01*
X137647817Y-80477930D01*
X137708726Y-80531889D01*
X137745853Y-80591078D01*
X137750500Y-80624705D01*
X137750500Y-83377279D01*
X137730815Y-83444318D01*
X137678011Y-83490073D01*
X137671298Y-83492904D01*
X137660987Y-83496898D01*
X137660979Y-83496902D01*
X137479699Y-83609147D01*
X137322127Y-83752793D01*
X137193632Y-83922946D01*
X137098596Y-84113805D01*
X137098596Y-84113807D01*
X137040244Y-84318889D01*
X137029470Y-84435152D01*
X137003683Y-84500089D01*
X136959128Y-84532004D01*
X136995501Y-84552867D01*
X137027692Y-84614880D01*
X137029470Y-84627247D01*
X137040244Y-84743510D01*
X137098596Y-84948592D01*
X137098596Y-84948594D01*
X137193632Y-85139453D01*
X137265385Y-85234468D01*
X137322128Y-85309607D01*
X137479698Y-85453252D01*
X137660981Y-85565498D01*
X137859802Y-85642521D01*
X138069390Y-85681700D01*
X138069392Y-85681700D01*
X138282608Y-85681700D01*
X138282610Y-85681700D01*
X138492198Y-85642521D01*
X138691019Y-85565498D01*
X138872302Y-85453252D01*
X139029872Y-85309607D01*
X139158366Y-85139455D01*
X139172171Y-85111730D01*
X139253403Y-84948594D01*
X139253403Y-84948593D01*
X139253405Y-84948589D01*
X139311756Y-84743510D01*
X139322529Y-84627247D01*
X139348315Y-84562311D01*
X139392869Y-84530394D01*
X139356497Y-84509531D01*
X139324307Y-84447518D01*
X139322529Y-84435151D01*
X139316516Y-84370264D01*
X139311756Y-84318890D01*
X139253405Y-84113811D01*
X139253403Y-84113806D01*
X139253403Y-84113805D01*
X139158367Y-83922946D01*
X139029872Y-83752793D01*
X139026156Y-83749405D01*
X138872302Y-83609148D01*
X138815257Y-83573827D01*
X138691020Y-83496902D01*
X138691012Y-83496898D01*
X138680702Y-83492904D01*
X138625302Y-83450329D01*
X138601714Y-83384561D01*
X138601500Y-83377279D01*
X138601500Y-80624705D01*
X138621185Y-80557666D01*
X138643274Y-80531889D01*
X138672418Y-80506070D01*
X138704183Y-80477929D01*
X138708950Y-80471021D01*
X138763230Y-80427033D01*
X138832678Y-80419372D01*
X138895244Y-80450473D01*
X138913046Y-80471017D01*
X138917817Y-80477929D01*
X138998040Y-80549000D01*
X139045150Y-80590736D01*
X139182062Y-80662593D01*
X139195775Y-80669790D01*
X139360944Y-80710500D01*
X139493390Y-80710500D01*
X139560429Y-80730185D01*
X139581071Y-80746819D01*
X140254181Y-81419928D01*
X140287666Y-81481251D01*
X140290500Y-81507609D01*
X140290500Y-83377279D01*
X140270815Y-83444318D01*
X140218011Y-83490073D01*
X140211298Y-83492904D01*
X140200987Y-83496898D01*
X140200979Y-83496902D01*
X140019699Y-83609147D01*
X139862127Y-83752793D01*
X139733632Y-83922946D01*
X139638596Y-84113805D01*
X139638596Y-84113807D01*
X139580244Y-84318889D01*
X139569471Y-84435151D01*
X139543685Y-84500088D01*
X139499130Y-84532004D01*
X139535503Y-84552868D01*
X139567693Y-84614881D01*
X139569471Y-84627248D01*
X139580244Y-84743510D01*
X139638596Y-84948592D01*
X139638596Y-84948594D01*
X139733632Y-85139453D01*
X139805385Y-85234468D01*
X139862128Y-85309607D01*
X140019698Y-85453252D01*
X140200981Y-85565498D01*
X140399802Y-85642521D01*
X140609390Y-85681700D01*
X140609392Y-85681700D01*
X140822608Y-85681700D01*
X140822610Y-85681700D01*
X141032198Y-85642521D01*
X141231019Y-85565498D01*
X141412302Y-85453252D01*
X141569872Y-85309607D01*
X141698366Y-85139455D01*
X141712171Y-85111730D01*
X141793403Y-84948594D01*
X141793403Y-84948593D01*
X141793405Y-84948589D01*
X141851756Y-84743510D01*
X141862529Y-84627247D01*
X141888315Y-84562311D01*
X141932869Y-84530394D01*
X141896497Y-84509531D01*
X141864307Y-84447518D01*
X141862529Y-84435151D01*
X141856516Y-84370264D01*
X141851756Y-84318890D01*
X141793405Y-84113811D01*
X141793403Y-84113806D01*
X141793403Y-84113805D01*
X141698367Y-83922946D01*
X141569872Y-83752793D01*
X141566156Y-83749405D01*
X141412302Y-83609148D01*
X141355257Y-83573827D01*
X141231020Y-83496902D01*
X141231012Y-83496898D01*
X141220702Y-83492904D01*
X141165302Y-83450329D01*
X141141714Y-83384561D01*
X141141500Y-83377279D01*
X141141500Y-81212608D01*
X141141499Y-81212604D01*
X141134039Y-81189645D01*
X141129495Y-81170721D01*
X141128736Y-81165927D01*
X141125719Y-81146874D01*
X141114753Y-81125354D01*
X141107308Y-81107378D01*
X141103635Y-81096074D01*
X141099849Y-81084419D01*
X141085649Y-81064875D01*
X141075493Y-81048300D01*
X141064528Y-81026780D01*
X140969220Y-80931472D01*
X140934979Y-80897231D01*
X140901494Y-80835908D01*
X140906478Y-80766216D01*
X140948350Y-80710283D01*
X141013814Y-80685866D01*
X141052334Y-80689152D01*
X141138944Y-80710500D01*
X141271390Y-80710500D01*
X141338429Y-80730185D01*
X141359071Y-80746819D01*
X142794181Y-82181929D01*
X142827666Y-82243252D01*
X142830500Y-82269610D01*
X142830500Y-83377279D01*
X142810815Y-83444318D01*
X142758011Y-83490073D01*
X142751298Y-83492904D01*
X142740987Y-83496898D01*
X142740979Y-83496902D01*
X142559699Y-83609147D01*
X142402127Y-83752793D01*
X142273632Y-83922946D01*
X142178596Y-84113805D01*
X142178596Y-84113807D01*
X142120244Y-84318889D01*
X142109471Y-84435151D01*
X142083685Y-84500088D01*
X142039130Y-84532004D01*
X142075503Y-84552868D01*
X142107693Y-84614881D01*
X142109471Y-84627248D01*
X142120244Y-84743510D01*
X142178596Y-84948592D01*
X142178596Y-84948594D01*
X142273632Y-85139453D01*
X142345385Y-85234468D01*
X142402128Y-85309607D01*
X142559698Y-85453252D01*
X142740981Y-85565498D01*
X142939802Y-85642521D01*
X143149390Y-85681700D01*
X143149392Y-85681700D01*
X143362608Y-85681700D01*
X143362610Y-85681700D01*
X143572198Y-85642521D01*
X143771019Y-85565498D01*
X143952302Y-85453252D01*
X144109872Y-85309607D01*
X144238366Y-85139455D01*
X144252171Y-85111730D01*
X144333403Y-84948594D01*
X144333403Y-84948593D01*
X144333405Y-84948589D01*
X144391756Y-84743510D01*
X144402529Y-84627247D01*
X144428315Y-84562311D01*
X144472869Y-84530394D01*
X144436497Y-84509531D01*
X144404307Y-84447518D01*
X144402529Y-84435151D01*
X144396516Y-84370264D01*
X144391756Y-84318890D01*
X144333405Y-84113811D01*
X144333403Y-84113806D01*
X144333403Y-84113805D01*
X144238367Y-83922946D01*
X144109872Y-83752793D01*
X144106156Y-83749405D01*
X143952302Y-83609148D01*
X143895257Y-83573827D01*
X143771020Y-83496902D01*
X143771012Y-83496898D01*
X143760702Y-83492904D01*
X143705302Y-83450329D01*
X143681714Y-83384561D01*
X143681500Y-83377279D01*
X143681500Y-81974608D01*
X143681499Y-81974604D01*
X143674039Y-81951645D01*
X143669495Y-81932721D01*
X143668736Y-81927929D01*
X143665719Y-81908874D01*
X143654753Y-81887354D01*
X143647308Y-81869378D01*
X143639849Y-81846420D01*
X143639849Y-81846419D01*
X143625651Y-81826878D01*
X143615492Y-81810299D01*
X143604528Y-81788780D01*
X143509220Y-81693472D01*
X142230748Y-80415000D01*
X143247001Y-80415000D01*
X143247001Y-80502486D01*
X143257494Y-80605197D01*
X143312641Y-80771619D01*
X143312643Y-80771624D01*
X143404684Y-80920845D01*
X143528654Y-81044815D01*
X143677875Y-81136856D01*
X143677880Y-81136858D01*
X143844302Y-81192005D01*
X143844309Y-81192006D01*
X143947019Y-81202499D01*
X144021999Y-81202498D01*
X144022000Y-81202498D01*
X144022000Y-80415000D01*
X143247001Y-80415000D01*
X142230748Y-80415000D01*
X141961087Y-80145339D01*
X141927602Y-80084016D01*
X141925672Y-80042715D01*
X141929645Y-80010000D01*
X141909140Y-79841128D01*
X141848818Y-79682070D01*
X141846257Y-79678360D01*
X141814476Y-79632318D01*
X141752183Y-79542071D01*
X141624852Y-79429266D01*
X141624849Y-79429263D01*
X141474226Y-79350210D01*
X141309056Y-79309500D01*
X141138944Y-79309500D01*
X140973773Y-79350210D01*
X140823150Y-79429263D01*
X140695816Y-79542072D01*
X140599182Y-79682068D01*
X140538860Y-79841125D01*
X140538859Y-79841130D01*
X140518355Y-80009999D01*
X140539764Y-80186317D01*
X140537289Y-80186617D01*
X140534742Y-80244445D01*
X140494418Y-80301504D01*
X140429646Y-80327704D01*
X140360992Y-80314726D01*
X140329737Y-80291989D01*
X140183087Y-80145339D01*
X140149602Y-80084016D01*
X140147672Y-80042715D01*
X140151645Y-80010000D01*
X140131140Y-79841128D01*
X140070818Y-79682070D01*
X140068257Y-79678360D01*
X140036476Y-79632318D01*
X139974183Y-79542071D01*
X139846852Y-79429266D01*
X139808532Y-79409154D01*
X139789750Y-79399296D01*
X139739538Y-79350711D01*
X139723564Y-79282692D01*
X139746900Y-79216834D01*
X139802136Y-79174048D01*
X139847377Y-79165500D01*
X139894392Y-79165500D01*
X139894393Y-79165500D01*
X139917360Y-79158036D01*
X139936276Y-79153495D01*
X139960126Y-79149719D01*
X139981636Y-79138757D01*
X139999614Y-79131310D01*
X140022581Y-79123849D01*
X140042118Y-79109653D01*
X140058706Y-79099488D01*
X140080220Y-79088528D01*
X140175528Y-78993220D01*
X140175528Y-78993219D01*
X141215927Y-77952819D01*
X141277251Y-77919334D01*
X141303609Y-77916500D01*
X141436056Y-77916500D01*
X141601225Y-77875790D01*
X141708826Y-77819316D01*
X141751849Y-77796736D01*
X141751850Y-77796734D01*
X141751852Y-77796734D01*
X141879183Y-77683929D01*
X141975818Y-77543930D01*
X142036140Y-77384872D01*
X142056645Y-77216000D01*
X142036140Y-77047128D01*
X141975818Y-76888070D01*
X141960064Y-76865247D01*
X141926535Y-76816672D01*
X141879183Y-76748071D01*
X141751852Y-76635266D01*
X141751849Y-76635263D01*
X141735715Y-76626796D01*
X141685502Y-76578211D01*
X141669528Y-76510192D01*
X141692863Y-76444335D01*
X141748100Y-76401548D01*
X141793341Y-76393000D01*
X141875903Y-76393000D01*
X141942942Y-76412685D01*
X141963584Y-76429319D01*
X142257619Y-76723354D01*
X142285880Y-76767064D01*
X142339682Y-76908931D01*
X142397420Y-76992578D01*
X142436317Y-77048929D01*
X142529760Y-77131712D01*
X142563650Y-77161736D01*
X142714273Y-77240789D01*
X142714275Y-77240790D01*
X142879444Y-77281500D01*
X143049556Y-77281500D01*
X143214725Y-77240790D01*
X143365352Y-77161734D01*
X143437817Y-77097535D01*
X143501047Y-77067815D01*
X143570311Y-77076998D01*
X143607723Y-77102670D01*
X143810182Y-77305130D01*
X143843666Y-77366451D01*
X143846500Y-77392809D01*
X143846500Y-77835696D01*
X143826815Y-77902735D01*
X143774011Y-77948490D01*
X143767990Y-77951050D01*
X143724660Y-77968137D01*
X143724658Y-77968138D01*
X143604077Y-78059577D01*
X143512639Y-78180156D01*
X143457122Y-78320938D01*
X143452894Y-78356150D01*
X143446500Y-78409398D01*
X143446500Y-79070602D01*
X143448653Y-79088528D01*
X143457122Y-79159061D01*
X143457122Y-79159063D01*
X143457123Y-79159064D01*
X143472505Y-79198071D01*
X143483186Y-79225154D01*
X143489467Y-79294741D01*
X143457130Y-79356677D01*
X143455514Y-79358324D01*
X143404682Y-79409156D01*
X143312643Y-79558375D01*
X143312641Y-79558380D01*
X143257494Y-79724802D01*
X143257493Y-79724809D01*
X143247000Y-79827513D01*
X143247000Y-79915000D01*
X145296999Y-79915000D01*
X145296999Y-79827528D01*
X145296998Y-79827513D01*
X145286505Y-79724802D01*
X145231358Y-79558380D01*
X145231356Y-79558375D01*
X145139315Y-79409154D01*
X145088487Y-79358326D01*
X145055002Y-79297003D01*
X145059986Y-79227311D01*
X145060814Y-79225154D01*
X145069298Y-79203641D01*
X145086877Y-79159064D01*
X145097500Y-79070602D01*
X145097500Y-78409398D01*
X145086877Y-78320936D01*
X145031361Y-78180158D01*
X145031360Y-78180157D01*
X145031360Y-78180156D01*
X144939922Y-78059577D01*
X144819341Y-77968138D01*
X144819339Y-77968137D01*
X144776010Y-77951050D01*
X144720866Y-77908144D01*
X144697673Y-77842236D01*
X144697500Y-77835696D01*
X144697500Y-77097808D01*
X144697499Y-77097804D01*
X144690039Y-77074845D01*
X144685495Y-77055921D01*
X144681719Y-77032074D01*
X144670753Y-77010554D01*
X144663308Y-76992578D01*
X144655849Y-76969620D01*
X144655849Y-76969619D01*
X144641651Y-76950078D01*
X144631492Y-76933499D01*
X144620528Y-76911980D01*
X144525220Y-76816672D01*
X144382363Y-76673815D01*
X144237819Y-76529270D01*
X144204334Y-76467947D01*
X144201500Y-76441589D01*
X144201500Y-75736000D01*
X144221185Y-75668961D01*
X144273989Y-75623206D01*
X144325500Y-75612000D01*
X144326000Y-75612000D01*
X144326000Y-75259298D01*
X144336565Y-75209212D01*
X144348585Y-75181991D01*
X144351500Y-75156865D01*
X144351499Y-73467136D01*
X144350345Y-73457184D01*
X144348586Y-73442014D01*
X144348585Y-73442010D01*
X144348584Y-73442008D01*
X144342370Y-73427934D01*
X144336564Y-73414783D01*
X144326000Y-73364700D01*
X144326000Y-73012000D01*
X144253155Y-73012000D01*
X144193627Y-73018401D01*
X144193620Y-73018403D01*
X144058913Y-73068645D01*
X144058906Y-73068649D01*
X143943814Y-73154808D01*
X143943804Y-73154817D01*
X143938567Y-73161814D01*
X143882632Y-73203683D01*
X143839303Y-73211500D01*
X143456143Y-73211500D01*
X143456119Y-73211502D01*
X143431010Y-73214414D01*
X143431001Y-73214416D01*
X143426076Y-73216591D01*
X143356797Y-73225657D01*
X143325920Y-73216590D01*
X143320999Y-73214417D01*
X143320992Y-73214415D01*
X143320991Y-73214415D01*
X143314709Y-73213686D01*
X143295868Y-73211500D01*
X143295865Y-73211500D01*
X142900500Y-73211500D01*
X142833461Y-73191815D01*
X142787706Y-73139011D01*
X142776500Y-73087500D01*
X142776500Y-72362096D01*
X142796185Y-72295057D01*
X142812819Y-72274415D01*
X143069723Y-72017511D01*
X143369914Y-71717319D01*
X143375999Y-71711983D01*
X143404282Y-71690282D01*
X143500536Y-71564841D01*
X143561044Y-71418762D01*
X143576500Y-71301361D01*
X143581682Y-71262000D01*
X143577030Y-71226669D01*
X143576500Y-71218571D01*
X143576500Y-69022096D01*
X143596185Y-68955057D01*
X143612814Y-68934420D01*
X144969923Y-67577310D01*
X144975998Y-67571984D01*
X145004282Y-67550282D01*
X145100536Y-67424841D01*
X145161044Y-67278762D01*
X145176500Y-67161361D01*
X145181682Y-67122000D01*
X145177030Y-67086669D01*
X145176500Y-67078571D01*
X145176500Y-64512097D01*
X145196185Y-64445058D01*
X145212819Y-64424416D01*
X146468416Y-63168819D01*
X146529739Y-63135334D01*
X146556097Y-63132500D01*
X147180619Y-63132500D01*
X147202232Y-63129904D01*
X147267077Y-63122117D01*
X147404658Y-63067862D01*
X147489574Y-63003468D01*
X147554883Y-62978645D01*
X147623247Y-62993072D01*
X147670036Y-63037174D01*
X147681054Y-63055037D01*
X147802961Y-63176944D01*
X147802965Y-63176947D01*
X147949688Y-63267448D01*
X147949699Y-63267453D01*
X148017723Y-63289994D01*
X148075168Y-63329766D01*
X148101991Y-63394282D01*
X148089676Y-63463058D01*
X148042133Y-63514258D01*
X147978719Y-63531700D01*
X147913004Y-63531700D01*
X147890039Y-63539162D01*
X147871122Y-63543703D01*
X147847273Y-63547480D01*
X147825758Y-63558443D01*
X147807785Y-63565888D01*
X147784818Y-63573350D01*
X147784816Y-63573351D01*
X147765283Y-63587543D01*
X147748701Y-63597705D01*
X147727181Y-63608670D01*
X147727179Y-63608672D01*
X147631871Y-63703981D01*
X146705339Y-64630512D01*
X146705338Y-64630514D01*
X146650731Y-64685119D01*
X146589408Y-64718603D01*
X146530661Y-64714400D01*
X146529991Y-64716864D01*
X146520992Y-64714415D01*
X146520991Y-64714415D01*
X146514709Y-64713686D01*
X146495868Y-64711500D01*
X146112696Y-64711500D01*
X146045657Y-64691815D01*
X146013431Y-64661813D01*
X146008190Y-64654813D01*
X146008186Y-64654809D01*
X145893088Y-64568647D01*
X145893086Y-64568645D01*
X145758379Y-64518403D01*
X145758372Y-64518401D01*
X145698844Y-64512000D01*
X145626000Y-64512000D01*
X145626000Y-64864700D01*
X145615435Y-64914785D01*
X145603415Y-64942006D01*
X145603415Y-64942008D01*
X145600500Y-64967131D01*
X145600500Y-66656856D01*
X145600502Y-66656882D01*
X145603413Y-66681986D01*
X145603414Y-66681990D01*
X145603415Y-66681991D01*
X145615435Y-66709213D01*
X145626000Y-66759297D01*
X145626000Y-67112000D01*
X145626500Y-67112000D01*
X145693539Y-67131685D01*
X145739294Y-67184489D01*
X145750500Y-67236000D01*
X145750500Y-67591389D01*
X145730815Y-67658428D01*
X145714181Y-67679070D01*
X144558472Y-68834778D01*
X144547510Y-68856293D01*
X144537346Y-68872878D01*
X144523152Y-68892414D01*
X144523151Y-68892417D01*
X144515688Y-68915385D01*
X144508243Y-68933358D01*
X144497280Y-68954873D01*
X144493503Y-68978722D01*
X144488962Y-68997639D01*
X144481500Y-69020604D01*
X144481500Y-70975794D01*
X144461815Y-71042833D01*
X144439727Y-71068609D01*
X144378818Y-71122569D01*
X144282182Y-71262568D01*
X144221860Y-71421625D01*
X144221859Y-71421630D01*
X144201355Y-71590500D01*
X144221859Y-71759369D01*
X144221860Y-71759374D01*
X144282182Y-71918431D01*
X144344475Y-72008677D01*
X144378817Y-72058429D01*
X144478641Y-72146865D01*
X144506150Y-72171236D01*
X144656773Y-72250289D01*
X144656775Y-72250290D01*
X144821944Y-72291000D01*
X144992058Y-72291000D01*
X144998489Y-72290219D01*
X145067413Y-72301677D01*
X145119200Y-72348579D01*
X145129380Y-72369342D01*
X145134130Y-72381865D01*
X145166883Y-72468229D01*
X145166883Y-72468230D01*
X145218618Y-72543180D01*
X145263518Y-72608228D01*
X145352571Y-72687122D01*
X145390851Y-72721035D01*
X145541474Y-72800088D01*
X145541476Y-72800089D01*
X145706645Y-72840799D01*
X145876757Y-72840799D01*
X146041926Y-72800089D01*
X146160555Y-72737827D01*
X146192550Y-72721035D01*
X146192551Y-72721033D01*
X146192553Y-72721033D01*
X146319884Y-72608228D01*
X146416519Y-72468229D01*
X146476841Y-72309171D01*
X146497346Y-72140299D01*
X146476841Y-71971427D01*
X146416519Y-71812369D01*
X146385970Y-71768111D01*
X146370450Y-71745626D01*
X146348567Y-71679271D01*
X146348500Y-71675186D01*
X146348500Y-71104919D01*
X146368185Y-71037880D01*
X146420989Y-70992125D01*
X146490147Y-70982181D01*
X146502173Y-70984521D01*
X146579359Y-71003546D01*
X146749471Y-71003546D01*
X146914640Y-70962836D01*
X147031116Y-70901703D01*
X147088742Y-70887500D01*
X147201500Y-70887500D01*
X147268539Y-70907185D01*
X147314294Y-70959989D01*
X147325500Y-71011500D01*
X147325500Y-71581856D01*
X147325502Y-71581880D01*
X147328414Y-71606989D01*
X147328415Y-71606995D01*
X147330590Y-71611920D01*
X147339658Y-71681199D01*
X147330592Y-71712076D01*
X147328416Y-71717003D01*
X147328415Y-71717009D01*
X147325500Y-71742131D01*
X147325500Y-72381856D01*
X147325502Y-72381880D01*
X147328414Y-72406989D01*
X147328415Y-72406995D01*
X147330590Y-72411920D01*
X147339658Y-72481199D01*
X147330592Y-72512076D01*
X147328416Y-72517003D01*
X147328415Y-72517009D01*
X147325500Y-72542131D01*
X147325500Y-73087500D01*
X147305815Y-73154539D01*
X147253011Y-73200294D01*
X147201500Y-73211500D01*
X146656143Y-73211500D01*
X146656119Y-73211502D01*
X146631010Y-73214414D01*
X146631001Y-73214416D01*
X146626076Y-73216591D01*
X146556797Y-73225657D01*
X146525920Y-73216590D01*
X146520999Y-73214417D01*
X146520992Y-73214415D01*
X146520991Y-73214415D01*
X146495865Y-73211500D01*
X145856143Y-73211500D01*
X145856119Y-73211502D01*
X145831010Y-73214414D01*
X145831001Y-73214416D01*
X145826076Y-73216591D01*
X145756797Y-73225657D01*
X145725920Y-73216590D01*
X145720999Y-73214417D01*
X145720992Y-73214415D01*
X145720991Y-73214415D01*
X145714709Y-73213686D01*
X145695868Y-73211500D01*
X145312696Y-73211500D01*
X145245657Y-73191815D01*
X145213431Y-73161813D01*
X145208190Y-73154813D01*
X145208186Y-73154809D01*
X145093088Y-73068647D01*
X145093086Y-73068645D01*
X144958379Y-73018403D01*
X144958372Y-73018401D01*
X144898844Y-73012000D01*
X144826000Y-73012000D01*
X144826000Y-73364700D01*
X144815435Y-73414785D01*
X144803415Y-73442006D01*
X144803415Y-73442008D01*
X144800500Y-73467131D01*
X144800500Y-75156856D01*
X144800502Y-75156882D01*
X144803413Y-75181986D01*
X144803414Y-75181990D01*
X144803415Y-75181991D01*
X144815435Y-75209213D01*
X144826000Y-75259297D01*
X144826000Y-75612000D01*
X144898828Y-75612000D01*
X144898844Y-75611999D01*
X144958372Y-75605598D01*
X144958379Y-75605596D01*
X145093086Y-75555354D01*
X145093088Y-75555352D01*
X145208188Y-75469189D01*
X145213429Y-75462189D01*
X145269363Y-75420317D01*
X145312693Y-75412499D01*
X145626500Y-75412499D01*
X145693539Y-75432184D01*
X145739294Y-75484988D01*
X145750500Y-75536499D01*
X145750500Y-80418389D01*
X145730815Y-80485428D01*
X145714181Y-80506070D01*
X145525339Y-80694911D01*
X145525337Y-80694914D01*
X145493638Y-80726613D01*
X145432315Y-80760098D01*
X145362623Y-80755114D01*
X145306690Y-80713242D01*
X145282273Y-80647778D01*
X145286726Y-80612161D01*
X145285089Y-80611811D01*
X145286506Y-80605190D01*
X145296999Y-80502486D01*
X145297000Y-80502473D01*
X145297000Y-80415000D01*
X144522000Y-80415000D01*
X144522000Y-81202499D01*
X144596972Y-81202499D01*
X144596986Y-81202498D01*
X144699697Y-81192005D01*
X144866119Y-81136858D01*
X144866124Y-81136856D01*
X145015345Y-81044815D01*
X145139318Y-80920842D01*
X145140959Y-80918182D01*
X145142562Y-80916739D01*
X145143798Y-80915177D01*
X145144064Y-80915388D01*
X145192904Y-80871455D01*
X145261867Y-80860230D01*
X145325950Y-80888070D01*
X145364808Y-80946137D01*
X145370500Y-80983274D01*
X145370500Y-83377279D01*
X145350815Y-83444318D01*
X145298011Y-83490073D01*
X145291298Y-83492904D01*
X145280987Y-83496898D01*
X145280979Y-83496902D01*
X145099699Y-83609147D01*
X144942127Y-83752793D01*
X144813632Y-83922946D01*
X144718596Y-84113805D01*
X144718596Y-84113807D01*
X144660244Y-84318889D01*
X144649471Y-84435151D01*
X144623685Y-84500088D01*
X144579130Y-84532004D01*
X144615503Y-84552868D01*
X144647693Y-84614881D01*
X144649471Y-84627248D01*
X144660244Y-84743510D01*
X144718596Y-84948592D01*
X144718596Y-84948594D01*
X144813632Y-85139453D01*
X144885385Y-85234468D01*
X144942128Y-85309607D01*
X145099698Y-85453252D01*
X145280981Y-85565498D01*
X145479802Y-85642521D01*
X145689390Y-85681700D01*
X145689392Y-85681700D01*
X145902608Y-85681700D01*
X145902610Y-85681700D01*
X146112198Y-85642521D01*
X146311019Y-85565498D01*
X146492302Y-85453252D01*
X146649872Y-85309607D01*
X146778366Y-85139455D01*
X146792171Y-85111730D01*
X146873403Y-84948594D01*
X146873403Y-84948593D01*
X146873405Y-84948589D01*
X146931756Y-84743510D01*
X146942529Y-84627247D01*
X146968315Y-84562311D01*
X147012869Y-84530394D01*
X146976497Y-84509531D01*
X146944307Y-84447518D01*
X146942529Y-84435151D01*
X146936516Y-84370264D01*
X146931756Y-84318890D01*
X146873405Y-84113811D01*
X146873403Y-84113806D01*
X146873403Y-84113805D01*
X146778367Y-83922946D01*
X146649872Y-83752793D01*
X146646156Y-83749405D01*
X146492302Y-83609148D01*
X146435257Y-83573827D01*
X146311020Y-83496902D01*
X146311012Y-83496898D01*
X146300702Y-83492904D01*
X146245302Y-83450329D01*
X146221714Y-83384561D01*
X146221500Y-83377279D01*
X146221500Y-81253608D01*
X146241185Y-81186569D01*
X146257810Y-81165936D01*
X146411780Y-81011965D01*
X146411783Y-81011964D01*
X146429219Y-80994528D01*
X146429220Y-80994528D01*
X146524528Y-80899220D01*
X146535493Y-80877698D01*
X146545658Y-80861112D01*
X146559849Y-80841581D01*
X146567310Y-80818614D01*
X146574759Y-80800634D01*
X146579782Y-80790778D01*
X146585719Y-80779126D01*
X146589495Y-80755276D01*
X146594036Y-80736360D01*
X146601500Y-80713393D01*
X146601500Y-80578607D01*
X146601500Y-80446610D01*
X146621185Y-80379571D01*
X146673989Y-80333816D01*
X146743147Y-80323872D01*
X146806703Y-80352897D01*
X146813181Y-80358929D01*
X147874181Y-81419929D01*
X147907666Y-81481252D01*
X147910500Y-81507610D01*
X147910500Y-83377279D01*
X147890815Y-83444318D01*
X147838011Y-83490073D01*
X147831298Y-83492904D01*
X147820987Y-83496898D01*
X147820979Y-83496902D01*
X147639699Y-83609147D01*
X147482127Y-83752793D01*
X147353632Y-83922946D01*
X147258596Y-84113805D01*
X147258596Y-84113807D01*
X147200244Y-84318889D01*
X147189471Y-84435151D01*
X147163685Y-84500088D01*
X147119130Y-84532004D01*
X147155503Y-84552868D01*
X147187693Y-84614881D01*
X147189471Y-84627248D01*
X147200244Y-84743510D01*
X147258596Y-84948592D01*
X147258596Y-84948594D01*
X147353632Y-85139453D01*
X147425385Y-85234468D01*
X147482128Y-85309607D01*
X147639698Y-85453252D01*
X147820981Y-85565498D01*
X148019802Y-85642521D01*
X148229390Y-85681700D01*
X148229392Y-85681700D01*
X148442608Y-85681700D01*
X148442610Y-85681700D01*
X148652198Y-85642521D01*
X148851019Y-85565498D01*
X149032302Y-85453252D01*
X149189872Y-85309607D01*
X149318366Y-85139455D01*
X149332171Y-85111730D01*
X149413403Y-84948594D01*
X149413403Y-84948593D01*
X149413405Y-84948589D01*
X149471756Y-84743510D01*
X149482529Y-84627247D01*
X149508315Y-84562311D01*
X149552869Y-84530394D01*
X149516497Y-84509531D01*
X149484307Y-84447518D01*
X149482529Y-84435151D01*
X149476516Y-84370264D01*
X149471756Y-84318890D01*
X149413405Y-84113811D01*
X149413403Y-84113806D01*
X149413403Y-84113805D01*
X149318367Y-83922946D01*
X149189872Y-83752793D01*
X149186156Y-83749405D01*
X149032302Y-83609148D01*
X148975257Y-83573827D01*
X148851020Y-83496902D01*
X148851012Y-83496898D01*
X148840702Y-83492904D01*
X148785302Y-83450329D01*
X148761714Y-83384561D01*
X148761500Y-83377279D01*
X148761500Y-81212608D01*
X148761499Y-81212604D01*
X148754039Y-81189645D01*
X148749495Y-81170721D01*
X148748736Y-81165927D01*
X148745719Y-81146874D01*
X148734753Y-81125354D01*
X148727308Y-81107378D01*
X148723635Y-81096074D01*
X148719849Y-81084419D01*
X148705649Y-81064875D01*
X148695493Y-81048300D01*
X148684528Y-81026780D01*
X148589220Y-80931472D01*
X148014787Y-80357039D01*
X147437819Y-79780070D01*
X147404334Y-79718747D01*
X147401500Y-79692389D01*
X147401500Y-75437833D01*
X147421185Y-75370794D01*
X147437819Y-75350152D01*
X147437818Y-75350151D01*
X147503206Y-75284765D01*
X147548585Y-75181991D01*
X147551500Y-75156865D01*
X147551499Y-73561498D01*
X147571184Y-73494460D01*
X147623987Y-73448705D01*
X147675495Y-73437499D01*
X147876501Y-73437499D01*
X147943539Y-73457184D01*
X147989294Y-73509988D01*
X148000500Y-73561499D01*
X148000500Y-79405394D01*
X148007962Y-79428358D01*
X148012503Y-79447273D01*
X148013072Y-79450862D01*
X148016281Y-79471127D01*
X148027243Y-79492641D01*
X148034688Y-79510615D01*
X148042150Y-79533580D01*
X148056340Y-79553110D01*
X148066508Y-79569703D01*
X148077470Y-79591218D01*
X150414181Y-81927929D01*
X150447666Y-81989252D01*
X150450500Y-82015610D01*
X150450500Y-83377279D01*
X150430815Y-83444318D01*
X150378011Y-83490073D01*
X150371298Y-83492904D01*
X150360987Y-83496898D01*
X150360979Y-83496902D01*
X150179699Y-83609147D01*
X150022127Y-83752793D01*
X149893632Y-83922946D01*
X149798596Y-84113805D01*
X149798596Y-84113807D01*
X149740244Y-84318889D01*
X149729471Y-84435151D01*
X149703685Y-84500088D01*
X149659130Y-84532004D01*
X149695503Y-84552868D01*
X149727693Y-84614881D01*
X149729471Y-84627248D01*
X149740244Y-84743510D01*
X149798596Y-84948592D01*
X149798596Y-84948594D01*
X149893632Y-85139453D01*
X149965385Y-85234468D01*
X150022128Y-85309607D01*
X150179698Y-85453252D01*
X150360981Y-85565498D01*
X150559802Y-85642521D01*
X150769390Y-85681700D01*
X150769392Y-85681700D01*
X150982608Y-85681700D01*
X150982610Y-85681700D01*
X151192198Y-85642521D01*
X151391019Y-85565498D01*
X151572302Y-85453252D01*
X151729872Y-85309607D01*
X151858366Y-85139455D01*
X151872171Y-85111730D01*
X151953403Y-84948594D01*
X151953403Y-84948593D01*
X151953405Y-84948589D01*
X152011756Y-84743510D01*
X152022529Y-84627247D01*
X152048315Y-84562311D01*
X152092869Y-84530394D01*
X152056497Y-84509531D01*
X152024307Y-84447518D01*
X152022529Y-84435151D01*
X152016516Y-84370264D01*
X152011756Y-84318890D01*
X151953405Y-84113811D01*
X151953403Y-84113806D01*
X151953403Y-84113805D01*
X151858367Y-83922946D01*
X151729872Y-83752793D01*
X151726156Y-83749405D01*
X151572302Y-83609148D01*
X151515257Y-83573827D01*
X151391020Y-83496902D01*
X151391012Y-83496898D01*
X151380702Y-83492904D01*
X151325302Y-83450329D01*
X151301714Y-83384561D01*
X151301500Y-83377279D01*
X151301500Y-81720608D01*
X151301499Y-81720604D01*
X151294039Y-81697645D01*
X151289495Y-81678721D01*
X151285719Y-81654874D01*
X151274753Y-81633354D01*
X151267308Y-81615378D01*
X151259849Y-81592420D01*
X151259849Y-81592419D01*
X151245649Y-81572875D01*
X151235493Y-81556300D01*
X151224528Y-81534780D01*
X151129220Y-81439472D01*
X148887819Y-79198071D01*
X148854334Y-79136748D01*
X148851500Y-79110390D01*
X148851500Y-73561499D01*
X148871185Y-73494460D01*
X148923989Y-73448705D01*
X148975500Y-73437499D01*
X149270856Y-73437499D01*
X149270864Y-73437499D01*
X149295991Y-73434585D01*
X149295991Y-73434584D01*
X149296213Y-73434559D01*
X149365074Y-73446388D01*
X149416608Y-73493569D01*
X149434500Y-73557733D01*
X149434500Y-78553394D01*
X149441962Y-78576358D01*
X149446503Y-78595273D01*
X149447519Y-78601684D01*
X149450281Y-78619127D01*
X149461243Y-78640641D01*
X149468688Y-78658615D01*
X149476150Y-78681580D01*
X149490340Y-78701110D01*
X149500508Y-78717703D01*
X149511470Y-78739218D01*
X152954181Y-82181929D01*
X152987666Y-82243252D01*
X152990500Y-82269610D01*
X152990500Y-83377279D01*
X152970815Y-83444318D01*
X152918011Y-83490073D01*
X152911298Y-83492904D01*
X152900987Y-83496898D01*
X152900979Y-83496902D01*
X152719699Y-83609147D01*
X152562127Y-83752793D01*
X152433632Y-83922946D01*
X152338596Y-84113805D01*
X152338596Y-84113807D01*
X152280244Y-84318889D01*
X152269471Y-84435151D01*
X152243685Y-84500088D01*
X152199130Y-84532004D01*
X152235503Y-84552868D01*
X152267693Y-84614881D01*
X152269471Y-84627248D01*
X152280244Y-84743510D01*
X152338596Y-84948592D01*
X152338596Y-84948594D01*
X152433632Y-85139453D01*
X152505385Y-85234468D01*
X152562128Y-85309607D01*
X152719698Y-85453252D01*
X152900981Y-85565498D01*
X153099802Y-85642521D01*
X153309390Y-85681700D01*
X153309392Y-85681700D01*
X153522608Y-85681700D01*
X153522610Y-85681700D01*
X153732198Y-85642521D01*
X153931019Y-85565498D01*
X154112302Y-85453252D01*
X154269872Y-85309607D01*
X154398366Y-85139455D01*
X154412171Y-85111730D01*
X154493403Y-84948594D01*
X154493403Y-84948593D01*
X154493405Y-84948589D01*
X154551756Y-84743510D01*
X154562529Y-84627247D01*
X154588315Y-84562311D01*
X154632869Y-84530394D01*
X154596497Y-84509531D01*
X154564307Y-84447518D01*
X154562529Y-84435151D01*
X154556516Y-84370264D01*
X154551756Y-84318890D01*
X154493405Y-84113811D01*
X154493403Y-84113806D01*
X154493403Y-84113805D01*
X154398367Y-83922946D01*
X154269872Y-83752793D01*
X154266156Y-83749405D01*
X154112302Y-83609148D01*
X154055257Y-83573827D01*
X153931020Y-83496902D01*
X153931012Y-83496898D01*
X153920702Y-83492904D01*
X153865302Y-83450329D01*
X153841714Y-83384561D01*
X153841500Y-83377279D01*
X153841500Y-81974608D01*
X153841499Y-81974604D01*
X153834039Y-81951645D01*
X153829495Y-81932721D01*
X153828736Y-81927929D01*
X153825719Y-81908874D01*
X153814753Y-81887354D01*
X153807308Y-81869378D01*
X153799849Y-81846420D01*
X153799849Y-81846419D01*
X153785649Y-81826875D01*
X153775493Y-81810300D01*
X153764528Y-81788780D01*
X153669220Y-81693472D01*
X150321819Y-78346071D01*
X150288334Y-78284748D01*
X150285500Y-78258390D01*
X150285500Y-78028097D01*
X150305185Y-77961058D01*
X150357989Y-77915303D01*
X150427147Y-77905359D01*
X150490703Y-77934384D01*
X150497180Y-77940415D01*
X151690681Y-79133917D01*
X151696026Y-79140013D01*
X151712707Y-79161752D01*
X151717718Y-79168282D01*
X151739747Y-79185185D01*
X151747909Y-79191448D01*
X151747927Y-79191463D01*
X151843157Y-79264535D01*
X151843158Y-79264535D01*
X151843159Y-79264536D01*
X151989238Y-79325044D01*
X152067618Y-79335363D01*
X152145999Y-79345682D01*
X152146000Y-79345682D01*
X152181329Y-79341030D01*
X152189428Y-79340500D01*
X152437500Y-79340500D01*
X152504539Y-79360185D01*
X152550294Y-79412989D01*
X152561500Y-79464500D01*
X152561500Y-79661771D01*
X152560969Y-79669869D01*
X152556318Y-79705200D01*
X152561393Y-79743752D01*
X152561500Y-79744560D01*
X152576955Y-79861960D01*
X152576956Y-79861962D01*
X152637464Y-80008041D01*
X152733718Y-80133482D01*
X152761995Y-80155180D01*
X152768085Y-80160520D01*
X155319182Y-82711617D01*
X155352666Y-82772938D01*
X155355500Y-82799296D01*
X155355500Y-83480762D01*
X155335815Y-83547801D01*
X155296778Y-83586188D01*
X155279924Y-83596624D01*
X155259699Y-83609147D01*
X155102127Y-83752793D01*
X154973632Y-83922946D01*
X154878596Y-84113805D01*
X154878596Y-84113807D01*
X154820244Y-84318889D01*
X154809471Y-84435151D01*
X154783685Y-84500088D01*
X154739130Y-84532004D01*
X154775503Y-84552868D01*
X154807693Y-84614881D01*
X154809471Y-84627248D01*
X154820244Y-84743510D01*
X154878596Y-84948592D01*
X154878596Y-84948594D01*
X154973632Y-85139453D01*
X155045385Y-85234468D01*
X155102128Y-85309607D01*
X155259698Y-85453252D01*
X155440981Y-85565498D01*
X155639802Y-85642521D01*
X155849390Y-85681700D01*
X155849392Y-85681700D01*
X156062608Y-85681700D01*
X156062610Y-85681700D01*
X156272198Y-85642521D01*
X156471019Y-85565498D01*
X156652302Y-85453252D01*
X156809872Y-85309607D01*
X156938366Y-85139455D01*
X157005325Y-85004981D01*
X157052825Y-84953748D01*
X157120488Y-84936326D01*
X157186828Y-84958251D01*
X157228705Y-85007851D01*
X157322399Y-85208778D01*
X157457894Y-85402282D01*
X157624917Y-85569305D01*
X157818421Y-85704800D01*
X158032507Y-85804629D01*
X158032516Y-85804633D01*
X158246000Y-85861834D01*
X158246000Y-85143501D01*
X158265685Y-85076462D01*
X158318489Y-85030707D01*
X158387647Y-85020763D01*
X158460237Y-85031200D01*
X158460238Y-85031200D01*
X158531762Y-85031200D01*
X158531763Y-85031200D01*
X158604353Y-85020763D01*
X158673512Y-85030707D01*
X158726315Y-85076462D01*
X158746000Y-85143501D01*
X158746000Y-85861833D01*
X158959483Y-85804633D01*
X158959492Y-85804629D01*
X159173578Y-85704800D01*
X159367082Y-85569305D01*
X159534105Y-85402282D01*
X159669600Y-85208778D01*
X159769429Y-84994692D01*
X159769432Y-84994686D01*
X159826636Y-84781200D01*
X159109347Y-84781200D01*
X159042308Y-84761515D01*
X158996553Y-84708711D01*
X158986609Y-84639553D01*
X158990369Y-84622267D01*
X158996000Y-84603088D01*
X158996000Y-84459311D01*
X158990369Y-84440133D01*
X158990370Y-84370264D01*
X159028145Y-84311486D01*
X159091701Y-84282462D01*
X159109347Y-84281200D01*
X159826636Y-84281200D01*
X159826635Y-84281199D01*
X159769432Y-84067713D01*
X159769429Y-84067707D01*
X159669600Y-83853622D01*
X159669599Y-83853620D01*
X159534113Y-83660126D01*
X159534108Y-83660120D01*
X159367082Y-83493094D01*
X159173578Y-83357599D01*
X158959492Y-83257770D01*
X158959486Y-83257767D01*
X158746000Y-83200564D01*
X158746000Y-83918898D01*
X158726315Y-83985937D01*
X158673511Y-84031692D01*
X158604355Y-84041636D01*
X158531766Y-84031200D01*
X158531763Y-84031200D01*
X158460237Y-84031200D01*
X158460233Y-84031200D01*
X158387645Y-84041636D01*
X158318487Y-84031692D01*
X158265684Y-83985936D01*
X158246000Y-83918898D01*
X158246000Y-83200564D01*
X158245999Y-83200564D01*
X158032513Y-83257767D01*
X158032507Y-83257770D01*
X157818422Y-83357599D01*
X157818420Y-83357600D01*
X157624926Y-83493086D01*
X157624920Y-83493091D01*
X157457891Y-83660120D01*
X157457886Y-83660126D01*
X157322400Y-83853620D01*
X157322399Y-83853622D01*
X157228705Y-84054548D01*
X157182532Y-84106987D01*
X157115339Y-84126139D01*
X157048457Y-84105923D01*
X157005324Y-84057416D01*
X156938366Y-83922945D01*
X156809872Y-83752793D01*
X156652302Y-83609148D01*
X156615221Y-83586188D01*
X156568587Y-83534161D01*
X156556500Y-83480762D01*
X156556500Y-82542627D01*
X156557031Y-82534526D01*
X156561682Y-82499200D01*
X156561682Y-82499198D01*
X156541044Y-82342439D01*
X156541044Y-82342438D01*
X156480536Y-82196359D01*
X156461729Y-82171849D01*
X156384282Y-82070918D01*
X156356005Y-82049220D01*
X156349904Y-82043869D01*
X153817050Y-79511015D01*
X153783565Y-79449692D01*
X153788549Y-79380000D01*
X153805927Y-79348409D01*
X153807995Y-79345682D01*
X153885362Y-79243658D01*
X153939617Y-79106077D01*
X153950000Y-79019618D01*
X153950000Y-78460382D01*
X153949658Y-78457538D01*
X153941724Y-78391472D01*
X153939617Y-78373923D01*
X153885362Y-78236342D01*
X153864023Y-78208202D01*
X153796000Y-78118499D01*
X153678160Y-78029139D01*
X153678158Y-78029138D01*
X153540577Y-77974883D01*
X153540576Y-77974882D01*
X153540574Y-77974882D01*
X153454119Y-77964500D01*
X153454118Y-77964500D01*
X152869882Y-77964500D01*
X152869881Y-77964500D01*
X152783425Y-77974882D01*
X152783424Y-77974882D01*
X152645841Y-78029138D01*
X152605702Y-78059577D01*
X152533531Y-78114305D01*
X152468223Y-78139127D01*
X152458609Y-78139500D01*
X152446098Y-78139500D01*
X152379059Y-78119815D01*
X152358417Y-78103181D01*
X151328880Y-77073644D01*
X151300619Y-77029934D01*
X151276465Y-76966245D01*
X151246818Y-76888070D01*
X151231064Y-76865247D01*
X151197535Y-76816672D01*
X151150183Y-76748071D01*
X151022852Y-76635266D01*
X151022849Y-76635263D01*
X150872226Y-76556210D01*
X150707056Y-76515500D01*
X150536944Y-76515500D01*
X150536942Y-76515500D01*
X150439174Y-76539597D01*
X150369372Y-76536527D01*
X150312310Y-76496207D01*
X150286105Y-76431438D01*
X150285500Y-76419200D01*
X150285500Y-72378608D01*
X150285499Y-72378604D01*
X150278039Y-72355645D01*
X150273495Y-72336721D01*
X150269719Y-72312874D01*
X150258753Y-72291354D01*
X150251308Y-72273378D01*
X150248570Y-72264952D01*
X150243849Y-72250419D01*
X150229651Y-72230878D01*
X150219492Y-72214299D01*
X150208528Y-72192780D01*
X150113220Y-72097472D01*
X149914929Y-71899181D01*
X149881444Y-71837858D01*
X149886428Y-71768166D01*
X149928300Y-71712233D01*
X149993764Y-71687816D01*
X150002610Y-71687500D01*
X150028390Y-71687500D01*
X150095429Y-71707185D01*
X150116071Y-71723819D01*
X151450507Y-73058255D01*
X151483992Y-73119578D01*
X151479008Y-73189270D01*
X151478768Y-73189906D01*
X151460861Y-73237122D01*
X151460859Y-73237130D01*
X151440355Y-73406000D01*
X151460859Y-73574869D01*
X151460860Y-73574874D01*
X151521182Y-73733931D01*
X151563570Y-73795339D01*
X151617817Y-73873929D01*
X151679306Y-73928403D01*
X151745150Y-73986736D01*
X151895773Y-74065789D01*
X151895775Y-74065790D01*
X152060944Y-74106500D01*
X152231056Y-74106500D01*
X152396225Y-74065790D01*
X152475692Y-74024081D01*
X152546849Y-73986736D01*
X152546850Y-73986734D01*
X152546852Y-73986734D01*
X152674183Y-73873929D01*
X152770818Y-73733930D01*
X152831140Y-73574872D01*
X152851645Y-73406000D01*
X152831140Y-73237128D01*
X152823351Y-73216591D01*
X152809231Y-73179358D01*
X152770818Y-73078070D01*
X152764312Y-73068645D01*
X152733503Y-73024010D01*
X152674183Y-72938071D01*
X152546852Y-72825266D01*
X152546849Y-72825263D01*
X152396227Y-72746210D01*
X152357768Y-72736731D01*
X152299763Y-72704015D01*
X150550635Y-70954887D01*
X150550631Y-70954881D01*
X150509221Y-70913473D01*
X150509220Y-70913472D01*
X150487696Y-70902505D01*
X150471112Y-70892341D01*
X150457732Y-70882620D01*
X150451580Y-70878150D01*
X150428615Y-70870688D01*
X150410641Y-70863243D01*
X150389127Y-70852281D01*
X150384010Y-70851470D01*
X150365273Y-70848503D01*
X150346358Y-70843962D01*
X150323394Y-70836500D01*
X150323393Y-70836500D01*
X150289488Y-70836500D01*
X149650500Y-70836500D01*
X149583461Y-70816815D01*
X149537706Y-70764011D01*
X149526500Y-70712500D01*
X149526499Y-70211500D01*
X149546183Y-70144461D01*
X149598987Y-70098706D01*
X149650499Y-70087500D01*
X153568720Y-70087500D01*
X153635759Y-70107185D01*
X153679719Y-70156227D01*
X153698960Y-70194868D01*
X153703635Y-70204257D01*
X153819228Y-70357325D01*
X153832128Y-70374407D01*
X153989698Y-70518052D01*
X154170981Y-70630298D01*
X154369802Y-70707321D01*
X154542544Y-70739612D01*
X154604823Y-70771279D01*
X154640096Y-70831591D01*
X154637162Y-70901400D01*
X154596953Y-70958540D01*
X154532235Y-70984871D01*
X154519757Y-70985500D01*
X153791143Y-70985500D01*
X153791117Y-70985502D01*
X153766012Y-70988413D01*
X153766008Y-70988415D01*
X153663235Y-71033793D01*
X153583794Y-71113234D01*
X153538415Y-71216006D01*
X153538415Y-71216008D01*
X153535500Y-71241131D01*
X153535500Y-73030856D01*
X153535502Y-73030882D01*
X153538413Y-73055987D01*
X153538415Y-73055991D01*
X153583793Y-73158764D01*
X153583793Y-73158765D01*
X153583794Y-73158765D01*
X153663235Y-73238206D01*
X153766009Y-73283585D01*
X153791135Y-73286500D01*
X155580864Y-73286499D01*
X155580879Y-73286497D01*
X155580882Y-73286497D01*
X155605987Y-73283586D01*
X155605988Y-73283585D01*
X155605991Y-73283585D01*
X155708765Y-73238206D01*
X155788206Y-73158765D01*
X155833585Y-73055991D01*
X155836500Y-73030865D01*
X155836499Y-71241136D01*
X155836497Y-71241117D01*
X155833586Y-71216012D01*
X155833585Y-71216010D01*
X155833585Y-71216009D01*
X155788206Y-71113235D01*
X155708765Y-71033794D01*
X155658274Y-71011500D01*
X155605992Y-70988415D01*
X155580868Y-70985500D01*
X154852243Y-70985500D01*
X154785204Y-70965815D01*
X154739449Y-70913011D01*
X154729505Y-70843853D01*
X154758530Y-70780297D01*
X154817308Y-70742523D01*
X154829441Y-70739614D01*
X155002198Y-70707321D01*
X155201019Y-70630298D01*
X155382302Y-70518052D01*
X155539872Y-70374407D01*
X155668366Y-70204255D01*
X155681762Y-70177352D01*
X155725144Y-70090229D01*
X155772646Y-70038992D01*
X155836144Y-70021500D01*
X157055501Y-70021500D01*
X157122540Y-70041185D01*
X157168295Y-70093989D01*
X157179501Y-70145500D01*
X157179501Y-70402856D01*
X157179502Y-70402882D01*
X157182413Y-70427987D01*
X157182415Y-70427991D01*
X157227793Y-70530764D01*
X157227794Y-70530764D01*
X157227794Y-70530765D01*
X157307235Y-70610206D01*
X157361589Y-70634205D01*
X157414962Y-70679289D01*
X157435490Y-70746075D01*
X157435500Y-70747638D01*
X157435500Y-74032361D01*
X157415815Y-74099400D01*
X157363011Y-74145155D01*
X157361587Y-74145795D01*
X157307234Y-74169794D01*
X157227794Y-74249234D01*
X157182415Y-74352006D01*
X157182415Y-74352008D01*
X157179500Y-74377131D01*
X157179500Y-75894389D01*
X157159815Y-75961428D01*
X157143181Y-75982070D01*
X155197071Y-77928181D01*
X155135748Y-77961666D01*
X155109390Y-77964500D01*
X154694881Y-77964500D01*
X154608425Y-77974882D01*
X154608424Y-77974882D01*
X154470839Y-78029139D01*
X154352999Y-78118499D01*
X154263639Y-78236339D01*
X154209382Y-78373924D01*
X154209382Y-78373925D01*
X154199000Y-78460381D01*
X154199000Y-79019618D01*
X154209382Y-79106074D01*
X154209382Y-79106075D01*
X154234305Y-79169275D01*
X154261402Y-79237989D01*
X154263639Y-79243660D01*
X154352999Y-79361500D01*
X154469299Y-79449692D01*
X154470842Y-79450862D01*
X154608423Y-79505117D01*
X154654205Y-79510615D01*
X154694881Y-79515500D01*
X154694882Y-79515500D01*
X155279119Y-79515500D01*
X155300732Y-79512904D01*
X155365577Y-79505117D01*
X155503158Y-79450862D01*
X155621000Y-79361500D01*
X155710362Y-79243658D01*
X155764617Y-79106077D01*
X155775000Y-79019618D01*
X155775000Y-78605108D01*
X155794685Y-78538070D01*
X155811319Y-78517428D01*
X158045929Y-76282818D01*
X158107252Y-76249333D01*
X158133610Y-76246499D01*
X158286856Y-76246499D01*
X158286864Y-76246499D01*
X158286879Y-76246497D01*
X158286882Y-76246497D01*
X158311987Y-76243586D01*
X158311988Y-76243585D01*
X158311991Y-76243585D01*
X158414765Y-76198206D01*
X158494206Y-76118765D01*
X158539585Y-76015991D01*
X158542500Y-75990865D01*
X158542499Y-75434000D01*
X160790000Y-75434000D01*
X160790000Y-75993844D01*
X160796401Y-76053372D01*
X160796403Y-76053379D01*
X160846645Y-76188086D01*
X160846649Y-76188093D01*
X160932809Y-76303187D01*
X160932812Y-76303190D01*
X161047906Y-76389350D01*
X161047913Y-76389354D01*
X161182620Y-76439596D01*
X161182627Y-76439598D01*
X161242155Y-76445999D01*
X161242172Y-76446000D01*
X161421000Y-76446000D01*
X161421000Y-75434000D01*
X161921000Y-75434000D01*
X161921000Y-76446000D01*
X162099828Y-76446000D01*
X162099844Y-76445999D01*
X162159372Y-76439598D01*
X162159379Y-76439596D01*
X162294086Y-76389354D01*
X162294093Y-76389350D01*
X162409187Y-76303190D01*
X162409190Y-76303187D01*
X162495350Y-76188093D01*
X162495354Y-76188086D01*
X162545596Y-76053379D01*
X162545598Y-76053372D01*
X162551999Y-75993844D01*
X162552000Y-75993827D01*
X162552000Y-75434000D01*
X161921000Y-75434000D01*
X161421000Y-75434000D01*
X160790000Y-75434000D01*
X158542499Y-75434000D01*
X158542499Y-74934000D01*
X160790000Y-74934000D01*
X161421000Y-74934000D01*
X161421000Y-73922000D01*
X161921000Y-73922000D01*
X161921000Y-74934000D01*
X162552000Y-74934000D01*
X162552000Y-74374172D01*
X162551999Y-74374155D01*
X162545598Y-74314627D01*
X162545596Y-74314620D01*
X162495354Y-74179913D01*
X162495350Y-74179906D01*
X162409190Y-74064812D01*
X162409187Y-74064809D01*
X162294093Y-73978649D01*
X162294086Y-73978645D01*
X162159379Y-73928403D01*
X162159372Y-73928401D01*
X162099844Y-73922000D01*
X161921000Y-73922000D01*
X161421000Y-73922000D01*
X161242155Y-73922000D01*
X161182627Y-73928401D01*
X161182620Y-73928403D01*
X161047913Y-73978645D01*
X161047906Y-73978649D01*
X160932812Y-74064809D01*
X160932809Y-74064812D01*
X160846649Y-74179906D01*
X160846645Y-74179913D01*
X160796403Y-74314620D01*
X160796401Y-74314627D01*
X160790000Y-74374155D01*
X160790000Y-74934000D01*
X158542499Y-74934000D01*
X158542499Y-74377136D01*
X158542497Y-74377117D01*
X158539586Y-74352012D01*
X158539585Y-74352010D01*
X158539585Y-74352009D01*
X158494206Y-74249235D01*
X158414765Y-74169794D01*
X158414764Y-74169794D01*
X158360413Y-74145795D01*
X158307037Y-74100709D01*
X158286510Y-74033922D01*
X158286500Y-74032361D01*
X158286500Y-70747638D01*
X158306185Y-70680599D01*
X158358989Y-70634844D01*
X158360265Y-70634269D01*
X158414765Y-70610206D01*
X158494206Y-70530765D01*
X158539585Y-70427991D01*
X158542500Y-70402865D01*
X158542499Y-69846000D01*
X160790000Y-69846000D01*
X160790000Y-70405844D01*
X160796401Y-70465372D01*
X160796403Y-70465379D01*
X160846645Y-70600086D01*
X160846649Y-70600093D01*
X160932809Y-70715187D01*
X160932812Y-70715190D01*
X161047906Y-70801350D01*
X161047913Y-70801354D01*
X161182620Y-70851596D01*
X161182627Y-70851598D01*
X161242155Y-70857999D01*
X161242172Y-70858000D01*
X161421000Y-70858000D01*
X161421000Y-69846000D01*
X161921000Y-69846000D01*
X161921000Y-70858000D01*
X162099828Y-70858000D01*
X162099844Y-70857999D01*
X162159372Y-70851598D01*
X162159379Y-70851596D01*
X162294086Y-70801354D01*
X162294093Y-70801350D01*
X162409187Y-70715190D01*
X162409190Y-70715187D01*
X162495350Y-70600093D01*
X162495354Y-70600086D01*
X162545596Y-70465379D01*
X162545598Y-70465372D01*
X162551999Y-70405844D01*
X162552000Y-70405827D01*
X162552000Y-69846000D01*
X161921000Y-69846000D01*
X161421000Y-69846000D01*
X160790000Y-69846000D01*
X158542499Y-69846000D01*
X158542499Y-69346000D01*
X160790000Y-69346000D01*
X161421000Y-69346000D01*
X161421000Y-68334000D01*
X161921000Y-68334000D01*
X161921000Y-69346000D01*
X162552000Y-69346000D01*
X162552000Y-68786172D01*
X162551999Y-68786155D01*
X162545598Y-68726627D01*
X162545596Y-68726620D01*
X162495354Y-68591913D01*
X162495350Y-68591906D01*
X162409190Y-68476812D01*
X162409187Y-68476809D01*
X162294093Y-68390649D01*
X162294086Y-68390645D01*
X162159379Y-68340403D01*
X162159372Y-68340401D01*
X162099844Y-68334000D01*
X161921000Y-68334000D01*
X161421000Y-68334000D01*
X161242155Y-68334000D01*
X161182627Y-68340401D01*
X161182620Y-68340403D01*
X161047913Y-68390645D01*
X161047906Y-68390649D01*
X160932812Y-68476809D01*
X160932809Y-68476812D01*
X160846649Y-68591906D01*
X160846645Y-68591913D01*
X160796403Y-68726620D01*
X160796401Y-68726627D01*
X160790000Y-68786155D01*
X160790000Y-69346000D01*
X158542499Y-69346000D01*
X158542499Y-68789136D01*
X158542497Y-68789117D01*
X158539586Y-68764012D01*
X158539585Y-68764010D01*
X158539585Y-68764009D01*
X158494206Y-68661235D01*
X158414765Y-68581794D01*
X158369259Y-68561701D01*
X158311992Y-68536415D01*
X158286865Y-68533500D01*
X157435143Y-68533500D01*
X157435117Y-68533502D01*
X157410012Y-68536413D01*
X157410008Y-68536415D01*
X157307235Y-68581793D01*
X157227794Y-68661234D01*
X157182415Y-68764006D01*
X157182415Y-68764008D01*
X157179500Y-68789131D01*
X157179500Y-69046500D01*
X157159815Y-69113539D01*
X157107011Y-69159294D01*
X157055500Y-69170500D01*
X155836144Y-69170500D01*
X155769105Y-69150815D01*
X155725144Y-69101771D01*
X155668367Y-68987746D01*
X155539872Y-68817593D01*
X155508651Y-68789131D01*
X155382302Y-68673948D01*
X155201019Y-68561702D01*
X155201017Y-68561701D01*
X155085652Y-68517009D01*
X155002198Y-68484679D01*
X154792610Y-68445500D01*
X154579390Y-68445500D01*
X154369802Y-68484679D01*
X154369799Y-68484679D01*
X154369799Y-68484680D01*
X154170982Y-68561701D01*
X154170980Y-68561702D01*
X153989699Y-68673947D01*
X153832127Y-68817593D01*
X153703632Y-68987746D01*
X153613992Y-69167771D01*
X153566490Y-69219008D01*
X153502992Y-69236500D01*
X151577809Y-69236500D01*
X151510770Y-69216815D01*
X151465015Y-69164011D01*
X151455071Y-69094853D01*
X151484096Y-69031297D01*
X151490128Y-69024819D01*
X152249243Y-68265705D01*
X153047928Y-67467019D01*
X153109252Y-67433534D01*
X153135610Y-67430700D01*
X156582192Y-67430700D01*
X156582193Y-67430700D01*
X156605160Y-67423236D01*
X156624076Y-67418695D01*
X156647926Y-67414919D01*
X156669436Y-67403957D01*
X156687414Y-67396510D01*
X156710381Y-67389049D01*
X156729918Y-67374853D01*
X156746506Y-67364688D01*
X156768020Y-67353728D01*
X156863328Y-67258420D01*
X156921887Y-67199861D01*
X156921899Y-67199847D01*
X158160153Y-65961595D01*
X158187831Y-65933917D01*
X158191373Y-65923400D01*
X158195095Y-65916095D01*
X158205247Y-65899526D01*
X158219449Y-65879981D01*
X158226909Y-65857016D01*
X158234359Y-65839034D01*
X158245319Y-65817526D01*
X158246650Y-65809115D01*
X158276574Y-65745982D01*
X158324329Y-65712882D01*
X158350619Y-65702698D01*
X158531902Y-65590452D01*
X158689472Y-65446807D01*
X158817966Y-65276655D01*
X158870505Y-65171141D01*
X158913003Y-65085794D01*
X158913003Y-65085793D01*
X158913005Y-65085789D01*
X158971356Y-64880710D01*
X158991029Y-64668400D01*
X158971356Y-64456090D01*
X158913005Y-64251011D01*
X158913003Y-64251006D01*
X158913003Y-64251005D01*
X158817967Y-64060146D01*
X158689472Y-63889993D01*
X158668377Y-63870762D01*
X158531902Y-63746348D01*
X158350619Y-63634102D01*
X158350617Y-63634101D01*
X158193801Y-63573351D01*
X158151798Y-63557079D01*
X157942210Y-63517900D01*
X157728990Y-63517900D01*
X157519402Y-63557079D01*
X157519399Y-63557079D01*
X157519399Y-63557080D01*
X157320582Y-63634101D01*
X157320580Y-63634102D01*
X157139299Y-63746347D01*
X156981727Y-63889993D01*
X156853232Y-64060146D01*
X156758196Y-64251005D01*
X156758196Y-64251007D01*
X156699844Y-64456089D01*
X156693570Y-64523794D01*
X156667783Y-64588731D01*
X156610983Y-64629418D01*
X156541202Y-64632938D01*
X156480595Y-64598172D01*
X156448406Y-64536159D01*
X156446099Y-64512352D01*
X156446099Y-63773543D01*
X156446099Y-63773536D01*
X156446037Y-63773000D01*
X156443186Y-63748412D01*
X156443185Y-63748410D01*
X156443185Y-63748409D01*
X156397806Y-63645635D01*
X156318365Y-63566194D01*
X156297724Y-63557080D01*
X156215592Y-63520815D01*
X156190465Y-63517900D01*
X154400743Y-63517900D01*
X154400717Y-63517902D01*
X154375612Y-63520813D01*
X154375608Y-63520815D01*
X154272835Y-63566193D01*
X154193394Y-63645634D01*
X154148015Y-63748406D01*
X154148015Y-63748408D01*
X154145100Y-63773531D01*
X154145100Y-64118900D01*
X154125415Y-64185939D01*
X154072611Y-64231694D01*
X154021100Y-64242900D01*
X153704204Y-64242900D01*
X153681239Y-64250362D01*
X153662322Y-64254903D01*
X153638473Y-64258680D01*
X153616958Y-64269643D01*
X153598985Y-64277088D01*
X153576018Y-64284550D01*
X153576016Y-64284551D01*
X153556483Y-64298743D01*
X153539901Y-64308905D01*
X153518382Y-64319870D01*
X153430141Y-64408110D01*
X153430138Y-64408113D01*
X153423070Y-64415180D01*
X153423070Y-64415181D01*
X151833213Y-66005039D01*
X150238071Y-67600181D01*
X150176748Y-67633666D01*
X150150390Y-67636500D01*
X149650500Y-67636500D01*
X149583461Y-67616815D01*
X149537706Y-67564011D01*
X149526500Y-67512500D01*
X149526499Y-66942143D01*
X149526499Y-66942136D01*
X149524362Y-66923705D01*
X149523586Y-66917012D01*
X149523585Y-66917010D01*
X149523585Y-66917009D01*
X149478206Y-66814235D01*
X149398765Y-66734794D01*
X149385389Y-66728888D01*
X149295992Y-66689415D01*
X149270868Y-66686500D01*
X147675499Y-66686500D01*
X147608460Y-66666815D01*
X147562705Y-66614011D01*
X147551499Y-66562504D01*
X147551499Y-65039208D01*
X147571184Y-64972170D01*
X147587813Y-64951533D01*
X148120328Y-64419018D01*
X148181651Y-64385534D01*
X148208009Y-64382700D01*
X150388392Y-64382700D01*
X150388393Y-64382700D01*
X150411360Y-64375236D01*
X150430276Y-64370695D01*
X150454126Y-64366919D01*
X150475636Y-64355957D01*
X150493614Y-64348510D01*
X150516581Y-64341049D01*
X150536118Y-64326853D01*
X150552706Y-64316688D01*
X150574220Y-64305728D01*
X150669528Y-64210420D01*
X150669528Y-64210419D01*
X152650928Y-62229019D01*
X152712252Y-62195534D01*
X152738610Y-62192700D01*
X153153119Y-62192700D01*
X153174732Y-62190104D01*
X153239577Y-62182317D01*
X153377158Y-62128062D01*
X153495000Y-62038700D01*
X153584362Y-61920858D01*
X153638617Y-61783277D01*
X153649000Y-61696818D01*
X153898000Y-61696818D01*
X153908382Y-61783274D01*
X153908382Y-61783275D01*
X153908383Y-61783277D01*
X153960402Y-61915189D01*
X153962639Y-61920860D01*
X154051999Y-62038700D01*
X154152932Y-62115239D01*
X154169842Y-62128062D01*
X154307423Y-62182317D01*
X154365062Y-62189238D01*
X154393881Y-62192700D01*
X154393882Y-62192700D01*
X154978119Y-62192700D01*
X154999732Y-62190104D01*
X155064577Y-62182317D01*
X155202158Y-62128062D01*
X155320000Y-62038700D01*
X155409362Y-61920858D01*
X155409363Y-61920854D01*
X155413520Y-61913464D01*
X155414723Y-61914140D01*
X155452129Y-61866066D01*
X155518037Y-61842873D01*
X155524578Y-61842700D01*
X156248322Y-61842700D01*
X156315361Y-61862385D01*
X156361116Y-61915189D01*
X156363495Y-61920782D01*
X156363537Y-61920857D01*
X156452899Y-62038700D01*
X156553832Y-62115239D01*
X156570742Y-62128062D01*
X156708323Y-62182317D01*
X156765962Y-62189239D01*
X156794781Y-62192700D01*
X156794782Y-62192700D01*
X157454019Y-62192700D01*
X157475632Y-62190104D01*
X157540477Y-62182317D01*
X157678058Y-62128062D01*
X157795900Y-62038700D01*
X157795900Y-62038699D01*
X157797039Y-62037836D01*
X157862350Y-62013013D01*
X157930714Y-62027441D01*
X157977502Y-62071541D01*
X158004456Y-62115239D01*
X158126361Y-62237144D01*
X158126365Y-62237147D01*
X158273088Y-62327648D01*
X158273099Y-62327653D01*
X158436747Y-62381880D01*
X158537751Y-62392199D01*
X158624400Y-62392198D01*
X158624400Y-61667200D01*
X159124400Y-61667200D01*
X159124400Y-62392199D01*
X159211040Y-62392199D01*
X159211054Y-62392198D01*
X159312052Y-62381880D01*
X159475700Y-62327653D01*
X159475711Y-62327648D01*
X159622434Y-62237147D01*
X159622438Y-62237144D01*
X159744344Y-62115238D01*
X159744347Y-62115234D01*
X159834848Y-61968511D01*
X159834853Y-61968500D01*
X159889080Y-61804852D01*
X159899399Y-61703854D01*
X159899400Y-61703841D01*
X159899400Y-61667200D01*
X159124400Y-61667200D01*
X158624400Y-61667200D01*
X158624400Y-61291200D01*
X158644085Y-61224161D01*
X158696889Y-61178406D01*
X158748400Y-61167200D01*
X159899399Y-61167200D01*
X159899399Y-61130560D01*
X159899398Y-61130545D01*
X159889080Y-61029547D01*
X159834853Y-60865899D01*
X159834848Y-60865888D01*
X159744347Y-60719165D01*
X159744344Y-60719161D01*
X159622438Y-60597255D01*
X159622434Y-60597252D01*
X159475689Y-60506738D01*
X159428964Y-60454790D01*
X159417743Y-60385828D01*
X159445586Y-60321746D01*
X159475689Y-60295662D01*
X159622434Y-60205147D01*
X159622438Y-60205144D01*
X159744344Y-60083238D01*
X159744347Y-60083234D01*
X159834848Y-59936511D01*
X159834853Y-59936500D01*
X159889080Y-59772852D01*
X159899399Y-59671854D01*
X159899400Y-59671841D01*
X159899400Y-59635200D01*
X158748400Y-59635200D01*
X158681361Y-59615515D01*
X158635606Y-59562711D01*
X158624400Y-59511200D01*
X158624400Y-58410200D01*
X159124400Y-58410200D01*
X159124400Y-59135200D01*
X159899399Y-59135200D01*
X159899399Y-59098560D01*
X159899398Y-59098545D01*
X159889080Y-58997547D01*
X159834853Y-58833899D01*
X159834848Y-58833888D01*
X159744347Y-58687165D01*
X159744344Y-58687161D01*
X159622438Y-58565255D01*
X159622434Y-58565252D01*
X159475711Y-58474751D01*
X159475700Y-58474746D01*
X159312052Y-58420519D01*
X159211054Y-58410200D01*
X159124400Y-58410200D01*
X158624400Y-58410200D01*
X158624399Y-58410199D01*
X158537760Y-58410200D01*
X158537743Y-58410201D01*
X158436747Y-58420519D01*
X158273099Y-58474746D01*
X158273088Y-58474751D01*
X158126365Y-58565252D01*
X158126361Y-58565255D01*
X158004455Y-58687161D01*
X157977501Y-58730859D01*
X157925552Y-58777582D01*
X157856589Y-58788802D01*
X157797039Y-58764563D01*
X157678060Y-58674339D01*
X157678058Y-58674338D01*
X157540477Y-58620083D01*
X157540476Y-58620082D01*
X157540474Y-58620082D01*
X157454019Y-58609700D01*
X157454018Y-58609700D01*
X156794782Y-58609700D01*
X156794781Y-58609700D01*
X156708325Y-58620082D01*
X156708324Y-58620082D01*
X156570739Y-58674339D01*
X156452899Y-58763699D01*
X156363537Y-58881542D01*
X156359380Y-58888936D01*
X156358176Y-58888259D01*
X156320771Y-58936334D01*
X156254863Y-58959527D01*
X156248322Y-58959700D01*
X155524578Y-58959700D01*
X155457539Y-58940015D01*
X155411784Y-58887211D01*
X155409404Y-58881617D01*
X155409362Y-58881542D01*
X155320000Y-58763699D01*
X155202160Y-58674339D01*
X155202158Y-58674338D01*
X155064577Y-58620083D01*
X155064576Y-58620082D01*
X155064574Y-58620082D01*
X154978119Y-58609700D01*
X154978118Y-58609700D01*
X154393882Y-58609700D01*
X154393881Y-58609700D01*
X154307425Y-58620082D01*
X154307424Y-58620082D01*
X154169839Y-58674339D01*
X154051999Y-58763699D01*
X153962639Y-58881539D01*
X153908382Y-59019124D01*
X153908382Y-59019125D01*
X153898000Y-59105581D01*
X153898000Y-59664818D01*
X153908382Y-59751274D01*
X153908382Y-59751275D01*
X153908383Y-59751277D01*
X153960402Y-59883189D01*
X153962639Y-59888860D01*
X154051999Y-60006700D01*
X154152932Y-60083239D01*
X154169842Y-60096062D01*
X154307423Y-60150317D01*
X154365062Y-60157238D01*
X154393881Y-60160700D01*
X154393882Y-60160700D01*
X154978119Y-60160700D01*
X154999732Y-60158104D01*
X155064577Y-60150317D01*
X155202158Y-60096062D01*
X155320000Y-60006700D01*
X155409362Y-59888858D01*
X155409363Y-59888854D01*
X155413520Y-59881464D01*
X155414723Y-59882140D01*
X155452129Y-59834066D01*
X155518037Y-59810873D01*
X155524578Y-59810700D01*
X156248322Y-59810700D01*
X156315361Y-59830385D01*
X156361116Y-59883189D01*
X156363495Y-59888782D01*
X156363537Y-59888857D01*
X156452899Y-60006700D01*
X156553832Y-60083239D01*
X156570742Y-60096062D01*
X156708323Y-60150317D01*
X156765962Y-60157239D01*
X156794781Y-60160700D01*
X156794782Y-60160700D01*
X157454019Y-60160700D01*
X157475632Y-60158104D01*
X157540477Y-60150317D01*
X157678058Y-60096062D01*
X157795900Y-60006700D01*
X157795900Y-60006699D01*
X157797039Y-60005836D01*
X157862350Y-59981013D01*
X157930714Y-59995441D01*
X157977502Y-60039541D01*
X158004456Y-60083239D01*
X158126362Y-60205145D01*
X158273111Y-60295662D01*
X158319835Y-60347610D01*
X158331056Y-60416573D01*
X158303213Y-60480655D01*
X158273111Y-60506738D01*
X158126362Y-60597254D01*
X158004455Y-60719161D01*
X157977501Y-60762859D01*
X157925552Y-60809582D01*
X157856589Y-60820802D01*
X157797039Y-60796563D01*
X157678060Y-60706339D01*
X157678058Y-60706338D01*
X157540477Y-60652083D01*
X157540476Y-60652082D01*
X157540474Y-60652082D01*
X157454019Y-60641700D01*
X157454018Y-60641700D01*
X156794782Y-60641700D01*
X156794781Y-60641700D01*
X156708325Y-60652082D01*
X156708324Y-60652082D01*
X156570739Y-60706339D01*
X156452899Y-60795699D01*
X156363537Y-60913542D01*
X156359380Y-60920936D01*
X156358176Y-60920259D01*
X156320771Y-60968334D01*
X156254863Y-60991527D01*
X156248322Y-60991700D01*
X155524578Y-60991700D01*
X155457539Y-60972015D01*
X155411784Y-60919211D01*
X155409404Y-60913617D01*
X155409362Y-60913542D01*
X155320000Y-60795699D01*
X155202160Y-60706339D01*
X155202158Y-60706338D01*
X155064577Y-60652083D01*
X155064576Y-60652082D01*
X155064574Y-60652082D01*
X154978119Y-60641700D01*
X154978118Y-60641700D01*
X154393882Y-60641700D01*
X154393881Y-60641700D01*
X154307425Y-60652082D01*
X154307424Y-60652082D01*
X154169839Y-60706339D01*
X154051999Y-60795699D01*
X153962639Y-60913539D01*
X153908382Y-61051124D01*
X153908382Y-61051125D01*
X153898000Y-61137581D01*
X153898000Y-61696818D01*
X153649000Y-61696818D01*
X153649000Y-61137582D01*
X153638617Y-61051123D01*
X153584362Y-60913542D01*
X153562559Y-60884790D01*
X153495000Y-60795699D01*
X153377160Y-60706339D01*
X153377158Y-60706338D01*
X153239577Y-60652083D01*
X153239576Y-60652082D01*
X153239574Y-60652082D01*
X153153119Y-60641700D01*
X153153118Y-60641700D01*
X152568882Y-60641700D01*
X152568881Y-60641700D01*
X152482425Y-60652082D01*
X152482424Y-60652082D01*
X152344839Y-60706339D01*
X152226999Y-60795699D01*
X152137639Y-60913539D01*
X152083382Y-61051124D01*
X152083382Y-61051125D01*
X152073000Y-61137581D01*
X152073000Y-61552089D01*
X152053315Y-61619128D01*
X152036681Y-61639770D01*
X150181071Y-63495381D01*
X150119748Y-63528866D01*
X150093390Y-63531700D01*
X149148281Y-63531700D01*
X149081242Y-63512015D01*
X149035487Y-63459211D01*
X149025543Y-63390053D01*
X149054568Y-63326497D01*
X149109277Y-63289994D01*
X149177300Y-63267453D01*
X149177311Y-63267448D01*
X149324034Y-63176947D01*
X149324038Y-63176944D01*
X149445944Y-63055038D01*
X149445947Y-63055034D01*
X149536448Y-62908311D01*
X149536453Y-62908300D01*
X149590680Y-62744652D01*
X149600999Y-62643654D01*
X149601000Y-62643641D01*
X149601000Y-62607000D01*
X148437500Y-62607000D01*
X148370461Y-62587315D01*
X148324706Y-62534511D01*
X148313500Y-62483000D01*
X148313500Y-61382000D01*
X148813500Y-61382000D01*
X148813500Y-62107000D01*
X149600999Y-62107000D01*
X149600999Y-62070360D01*
X149600998Y-62070345D01*
X149590680Y-61969347D01*
X149536453Y-61805699D01*
X149536448Y-61805688D01*
X149445947Y-61658965D01*
X149445944Y-61658961D01*
X149324038Y-61537055D01*
X149324034Y-61537052D01*
X149177311Y-61446551D01*
X149177300Y-61446546D01*
X149013652Y-61392319D01*
X148912654Y-61382000D01*
X148813500Y-61382000D01*
X148313500Y-61382000D01*
X148313500Y-61381999D01*
X148214360Y-61382000D01*
X148214344Y-61382001D01*
X148113346Y-61392319D01*
X147952031Y-61445773D01*
X147882203Y-61448175D01*
X147822161Y-61412443D01*
X147790969Y-61349922D01*
X147798530Y-61280463D01*
X147825344Y-61240389D01*
X149043715Y-60022019D01*
X149105039Y-59988534D01*
X149131397Y-59985700D01*
X152157609Y-59985700D01*
X152224648Y-60005385D01*
X152232513Y-60010880D01*
X152344842Y-60096062D01*
X152482423Y-60150317D01*
X152540062Y-60157238D01*
X152568881Y-60160700D01*
X152568882Y-60160700D01*
X153153119Y-60160700D01*
X153174732Y-60158104D01*
X153239577Y-60150317D01*
X153377158Y-60096062D01*
X153495000Y-60006700D01*
X153584362Y-59888858D01*
X153638617Y-59751277D01*
X153649000Y-59664818D01*
X153649000Y-59105582D01*
X153638617Y-59019123D01*
X153584362Y-58881542D01*
X153568530Y-58860664D01*
X153495000Y-58763699D01*
X153377160Y-58674339D01*
X153377158Y-58674338D01*
X153239577Y-58620083D01*
X153239576Y-58620082D01*
X153239574Y-58620082D01*
X153153119Y-58609700D01*
X153153118Y-58609700D01*
X152568882Y-58609700D01*
X152568881Y-58609700D01*
X152482425Y-58620082D01*
X152482424Y-58620082D01*
X152344841Y-58674338D01*
X152303541Y-58705657D01*
X152232531Y-58759505D01*
X152167223Y-58784327D01*
X152157609Y-58784700D01*
X148874728Y-58784700D01*
X148866629Y-58784169D01*
X148831300Y-58779518D01*
X148791939Y-58784700D01*
X148674539Y-58800155D01*
X148674537Y-58800156D01*
X148528457Y-58860664D01*
X148403019Y-58956916D01*
X148381319Y-58985194D01*
X148375968Y-58991296D01*
X146444596Y-60922668D01*
X146438494Y-60928019D01*
X146410216Y-60949718D01*
X146348963Y-61029547D01*
X146324967Y-61060820D01*
X146320744Y-61066322D01*
X146313962Y-61075160D01*
X146253457Y-61221234D01*
X146253455Y-61221239D01*
X146233666Y-61371558D01*
X146232818Y-61378000D01*
X146233344Y-61381999D01*
X146237469Y-61413326D01*
X146238000Y-61421427D01*
X146238000Y-61610590D01*
X146218315Y-61677629D01*
X146188926Y-61709394D01*
X146154498Y-61735501D01*
X146065137Y-61853342D01*
X146065136Y-61853343D01*
X146062202Y-61860784D01*
X146022341Y-61913659D01*
X146002719Y-61928716D01*
X145981019Y-61956994D01*
X145975668Y-61963096D01*
X144182096Y-63756668D01*
X144175994Y-63762019D01*
X144147716Y-63783718D01*
X144071512Y-63883032D01*
X144051462Y-63909161D01*
X144051461Y-63909163D01*
X143990957Y-64055234D01*
X143990955Y-64055239D01*
X143970318Y-64211998D01*
X143970318Y-64212000D01*
X143974969Y-64247326D01*
X143975500Y-64255427D01*
X143975500Y-65938000D01*
X143955815Y-66005039D01*
X143903011Y-66050794D01*
X143851500Y-66062000D01*
X143700500Y-66062000D01*
X143633461Y-66042315D01*
X143587706Y-65989511D01*
X143576500Y-65938000D01*
X143576500Y-65772645D01*
X143576500Y-65772639D01*
X143561044Y-65655238D01*
X143561043Y-65655235D01*
X143560936Y-65654976D01*
X143560826Y-65654424D01*
X143558940Y-65647384D01*
X143559401Y-65647260D01*
X143551499Y-65607528D01*
X143551499Y-64967143D01*
X143551499Y-64967136D01*
X143548585Y-64942009D01*
X143539898Y-64922334D01*
X143536564Y-64914783D01*
X143526000Y-64864700D01*
X143526000Y-64512000D01*
X143453155Y-64512000D01*
X143393627Y-64518401D01*
X143393620Y-64518403D01*
X143258913Y-64568645D01*
X143258906Y-64568649D01*
X143143814Y-64654808D01*
X143143804Y-64654817D01*
X143138567Y-64661814D01*
X143082632Y-64703683D01*
X143039303Y-64711500D01*
X142725500Y-64711500D01*
X142658461Y-64691815D01*
X142612706Y-64639011D01*
X142601500Y-64587500D01*
X142601500Y-64450300D01*
X142621185Y-64383261D01*
X142673989Y-64337506D01*
X142725500Y-64326300D01*
X142887719Y-64326300D01*
X142909332Y-64323704D01*
X142974177Y-64315917D01*
X143111758Y-64261662D01*
X143229600Y-64172300D01*
X143318962Y-64054458D01*
X143373217Y-63916877D01*
X143383600Y-63830418D01*
X143383600Y-63415910D01*
X143403285Y-63348871D01*
X143419919Y-63328229D01*
X145386231Y-61361917D01*
X145389773Y-61351400D01*
X145393495Y-61344095D01*
X145403647Y-61327526D01*
X145417849Y-61307981D01*
X145425309Y-61285016D01*
X145432759Y-61267034D01*
X145443718Y-61245528D01*
X145443718Y-61245527D01*
X145443719Y-61245526D01*
X145447495Y-61221676D01*
X145452036Y-61202760D01*
X145459500Y-61179793D01*
X145459500Y-61045007D01*
X145459500Y-61045006D01*
X145459500Y-59509577D01*
X145479185Y-59442538D01*
X145531989Y-59396783D01*
X145537583Y-59394403D01*
X145537652Y-59394364D01*
X145537658Y-59394362D01*
X145655500Y-59305000D01*
X145744862Y-59187158D01*
X145799117Y-59049577D01*
X145809500Y-58963118D01*
X145809500Y-58278882D01*
X145799117Y-58192423D01*
X145744862Y-58054842D01*
X145680466Y-57969923D01*
X145655645Y-57904615D01*
X145670073Y-57836251D01*
X145714177Y-57789461D01*
X145732039Y-57778443D01*
X145853944Y-57656538D01*
X145853947Y-57656534D01*
X145944448Y-57509811D01*
X145944453Y-57509800D01*
X145998680Y-57346152D01*
X146008999Y-57245154D01*
X146009000Y-57245141D01*
X146009000Y-57146000D01*
X144059001Y-57146000D01*
X144059001Y-57245154D01*
X144069319Y-57346152D01*
X144123546Y-57509800D01*
X144123551Y-57509811D01*
X144214052Y-57656534D01*
X144214055Y-57656538D01*
X144335961Y-57778444D01*
X144335965Y-57778447D01*
X144353824Y-57789463D01*
X144400549Y-57841411D01*
X144411770Y-57910373D01*
X144387531Y-57969926D01*
X144323139Y-58054839D01*
X144323137Y-58054842D01*
X144323138Y-58054842D01*
X144303913Y-58103591D01*
X144261009Y-58158734D01*
X144195101Y-58181927D01*
X144188560Y-58182100D01*
X143816099Y-58182100D01*
X143749060Y-58162415D01*
X143703305Y-58109611D01*
X143692099Y-58058100D01*
X143692099Y-57662743D01*
X143692099Y-57662736D01*
X143692097Y-57662717D01*
X143689186Y-57637612D01*
X143689185Y-57637610D01*
X143689185Y-57637609D01*
X143643806Y-57534835D01*
X143564365Y-57455394D01*
X143552887Y-57450326D01*
X143461592Y-57410015D01*
X143436465Y-57407100D01*
X141246743Y-57407100D01*
X141246717Y-57407102D01*
X141221612Y-57410013D01*
X141221608Y-57410015D01*
X141118836Y-57455393D01*
X141110531Y-57463698D01*
X141049206Y-57497181D01*
X140979515Y-57492194D01*
X140923586Y-57450326D01*
X140848787Y-57350409D01*
X140733693Y-57264249D01*
X140733686Y-57264245D01*
X140598979Y-57214003D01*
X140598972Y-57214001D01*
X140539444Y-57207600D01*
X139691600Y-57207600D01*
X139691600Y-58733600D01*
X139671915Y-58800639D01*
X139619111Y-58846394D01*
X139567600Y-58857600D01*
X137891600Y-58857600D01*
X137891600Y-59555444D01*
X137898001Y-59614972D01*
X137898003Y-59614979D01*
X137948245Y-59749686D01*
X137948247Y-59749688D01*
X138034409Y-59864786D01*
X138034411Y-59864788D01*
X138041409Y-59870027D01*
X138083281Y-59925959D01*
X138091100Y-59969295D01*
X138091100Y-60258100D01*
X138071415Y-60325139D01*
X138018611Y-60370894D01*
X137967100Y-60382100D01*
X137198792Y-60382100D01*
X137131753Y-60362415D01*
X137085998Y-60309611D01*
X137083445Y-60303609D01*
X137058062Y-60239242D01*
X136993666Y-60154323D01*
X136968845Y-60089015D01*
X136983273Y-60020651D01*
X137027377Y-59973861D01*
X137045239Y-59962843D01*
X137167144Y-59840938D01*
X137167147Y-59840934D01*
X137257648Y-59694211D01*
X137257653Y-59694200D01*
X137311880Y-59530552D01*
X137322199Y-59429554D01*
X137322200Y-59429541D01*
X137322200Y-59330400D01*
X135372201Y-59330400D01*
X135372201Y-59429554D01*
X135382519Y-59530552D01*
X135436746Y-59694200D01*
X135436751Y-59694211D01*
X135527252Y-59840934D01*
X135527255Y-59840938D01*
X135649161Y-59962844D01*
X135649165Y-59962847D01*
X135667024Y-59973863D01*
X135713749Y-60025811D01*
X135724970Y-60094773D01*
X135700731Y-60154326D01*
X135636339Y-60239239D01*
X135582082Y-60376824D01*
X135582082Y-60376825D01*
X135571700Y-60463281D01*
X135571700Y-61147518D01*
X135582082Y-61233974D01*
X135582082Y-61233975D01*
X135595119Y-61267034D01*
X135636336Y-61371554D01*
X135636339Y-61371560D01*
X135725699Y-61489400D01*
X135808368Y-61552089D01*
X135843542Y-61578762D01*
X135843543Y-61578762D01*
X135850934Y-61582918D01*
X135850256Y-61584122D01*
X135898329Y-61621521D01*
X135921527Y-61687428D01*
X135921700Y-61693977D01*
X135921700Y-62373594D01*
X135929162Y-62396558D01*
X135933703Y-62415473D01*
X135936670Y-62434210D01*
X135937481Y-62439327D01*
X135948443Y-62460841D01*
X135955888Y-62478815D01*
X135961259Y-62495344D01*
X135963351Y-62501781D01*
X135974024Y-62516471D01*
X135977541Y-62521311D01*
X135987708Y-62537903D01*
X135998669Y-62559416D01*
X135998671Y-62559419D01*
X135998672Y-62559420D01*
X136022646Y-62583393D01*
X136022646Y-62583394D01*
X136706701Y-63267448D01*
X137236201Y-63796948D01*
X137236204Y-63796952D01*
X137243272Y-63804020D01*
X137338580Y-63899328D01*
X137360101Y-63910293D01*
X137376680Y-63920453D01*
X137396219Y-63934649D01*
X137419181Y-63942109D01*
X137437154Y-63949553D01*
X137458674Y-63960519D01*
X137482524Y-63964295D01*
X137501445Y-63968839D01*
X137523289Y-63975936D01*
X137524407Y-63976300D01*
X137558312Y-63976300D01*
X139932022Y-63976300D01*
X139999061Y-63995985D01*
X140044816Y-64048789D01*
X140047195Y-64054382D01*
X140047237Y-64054457D01*
X140136599Y-64172300D01*
X140250511Y-64258681D01*
X140254442Y-64261662D01*
X140266586Y-64266450D01*
X140321731Y-64309353D01*
X140344927Y-64375260D01*
X140345100Y-64381806D01*
X140345100Y-64536394D01*
X140352562Y-64559358D01*
X140357103Y-64578273D01*
X140360070Y-64597010D01*
X140360881Y-64602127D01*
X140371843Y-64623641D01*
X140379288Y-64641615D01*
X140386750Y-64664580D01*
X140400940Y-64684110D01*
X140411108Y-64700703D01*
X140422070Y-64722218D01*
X140764181Y-65064329D01*
X140797666Y-65125652D01*
X140800500Y-65152010D01*
X140800500Y-66562500D01*
X140780815Y-66629539D01*
X140728011Y-66675294D01*
X140676500Y-66686500D01*
X139081143Y-66686500D01*
X139081117Y-66686502D01*
X139056012Y-66689413D01*
X139056008Y-66689415D01*
X138953235Y-66734793D01*
X138953234Y-66734794D01*
X138887848Y-66800181D01*
X138826525Y-66833666D01*
X138800167Y-66836500D01*
X137682626Y-66836500D01*
X137615587Y-66816815D01*
X137580577Y-66782941D01*
X137573967Y-66773365D01*
X137446632Y-66660556D01*
X137296009Y-66581503D01*
X137130839Y-66540793D01*
X136960727Y-66540793D01*
X136795556Y-66581503D01*
X136644933Y-66660556D01*
X136517599Y-66773365D01*
X136420965Y-66913361D01*
X136420965Y-66913362D01*
X136362719Y-67066944D01*
X136320541Y-67122647D01*
X136254943Y-67146704D01*
X136186753Y-67131477D01*
X136159096Y-67110654D01*
X135260741Y-66212299D01*
X134205089Y-65156646D01*
X134181115Y-65132672D01*
X134181113Y-65132670D01*
X134159598Y-65121708D01*
X134143005Y-65111540D01*
X134123475Y-65097350D01*
X134100510Y-65089888D01*
X134082536Y-65082443D01*
X134061022Y-65071481D01*
X134055905Y-65070670D01*
X134037168Y-65067703D01*
X134018253Y-65063162D01*
X133995289Y-65055700D01*
X133995288Y-65055700D01*
X133961383Y-65055700D01*
X129741633Y-65055700D01*
X129674594Y-65036015D01*
X129628839Y-64983211D01*
X129618895Y-64914053D01*
X129642679Y-64856973D01*
X129656074Y-64839235D01*
X129664366Y-64828255D01*
X129712925Y-64730735D01*
X129759403Y-64637394D01*
X129759403Y-64637393D01*
X129759405Y-64637389D01*
X129817756Y-64432310D01*
X129837429Y-64220000D01*
X129817756Y-64007690D01*
X129759405Y-63802611D01*
X129759403Y-63802606D01*
X129759403Y-63802605D01*
X129664367Y-63611746D01*
X129535872Y-63441593D01*
X129507699Y-63415910D01*
X129378302Y-63297948D01*
X129197019Y-63185702D01*
X129197017Y-63185701D01*
X129062235Y-63133487D01*
X128998198Y-63108679D01*
X128788610Y-63069500D01*
X128575390Y-63069500D01*
X128365802Y-63108679D01*
X128365797Y-63108680D01*
X128301763Y-63133487D01*
X128232140Y-63139349D01*
X128170400Y-63106638D01*
X128169289Y-63105541D01*
X127621635Y-62557887D01*
X127621631Y-62557881D01*
X127580221Y-62516473D01*
X127580220Y-62516472D01*
X127558696Y-62505505D01*
X127542112Y-62495341D01*
X127522581Y-62481151D01*
X127522580Y-62481150D01*
X127499615Y-62473688D01*
X127481641Y-62466243D01*
X127460127Y-62455281D01*
X127455010Y-62454470D01*
X127436273Y-62451503D01*
X127417358Y-62446962D01*
X127394394Y-62439500D01*
X127394393Y-62439500D01*
X127360488Y-62439500D01*
X125416393Y-62439500D01*
X125281607Y-62439500D01*
X125281603Y-62439501D01*
X125281604Y-62439501D01*
X125258635Y-62446963D01*
X125239722Y-62451503D01*
X125215874Y-62455280D01*
X125194359Y-62466242D01*
X125176389Y-62473685D01*
X125153421Y-62481148D01*
X125153417Y-62481149D01*
X125133880Y-62495344D01*
X125117299Y-62505506D01*
X125095780Y-62516471D01*
X125095778Y-62516473D01*
X125013245Y-62599002D01*
X125013219Y-62599032D01*
X121314071Y-66298181D01*
X121252748Y-66331666D01*
X121226390Y-66334500D01*
X118910144Y-66334500D01*
X118843105Y-66314815D01*
X118799144Y-66265771D01*
X118742367Y-66151746D01*
X118613872Y-65981593D01*
X118591935Y-65961595D01*
X118456302Y-65837948D01*
X118275019Y-65725702D01*
X118275017Y-65725701D01*
X118166469Y-65683650D01*
X118076198Y-65648679D01*
X117879385Y-65611888D01*
X117817106Y-65580221D01*
X117781833Y-65519908D01*
X117784767Y-65450100D01*
X117824976Y-65392960D01*
X117879384Y-65368111D01*
X118076198Y-65331321D01*
X118275019Y-65254298D01*
X118456302Y-65142052D01*
X118613872Y-64998407D01*
X118742366Y-64828255D01*
X118790925Y-64730735D01*
X118837403Y-64637394D01*
X118837403Y-64637393D01*
X118837405Y-64637389D01*
X118895756Y-64432310D01*
X118915429Y-64220000D01*
X118895756Y-64007690D01*
X118837405Y-63802611D01*
X118837403Y-63802606D01*
X118837403Y-63802605D01*
X118742367Y-63611746D01*
X118613872Y-63441593D01*
X118585699Y-63415910D01*
X118456302Y-63297948D01*
X118275019Y-63185702D01*
X118275017Y-63185701D01*
X118140235Y-63133487D01*
X118076198Y-63108679D01*
X117866610Y-63069500D01*
X117653390Y-63069500D01*
X117443802Y-63108679D01*
X117443799Y-63108679D01*
X117443799Y-63108680D01*
X117244982Y-63185701D01*
X117244980Y-63185702D01*
X117063699Y-63297947D01*
X116906127Y-63441593D01*
X116777634Y-63611744D01*
X116710676Y-63746215D01*
X116663173Y-63797452D01*
X116595510Y-63814873D01*
X116529170Y-63792947D01*
X116487294Y-63743348D01*
X116393600Y-63542422D01*
X116393599Y-63542420D01*
X116258113Y-63348926D01*
X116258108Y-63348920D01*
X116091082Y-63181894D01*
X115897578Y-63046399D01*
X115683492Y-62946570D01*
X115683486Y-62946567D01*
X115470000Y-62889364D01*
X115470000Y-63607698D01*
X115450315Y-63674737D01*
X115397511Y-63720492D01*
X115328355Y-63730436D01*
X115255766Y-63720000D01*
X115255763Y-63720000D01*
X115184237Y-63720000D01*
X115184233Y-63720000D01*
X115111645Y-63730436D01*
X115042487Y-63720492D01*
X114989684Y-63674736D01*
X114970000Y-63607698D01*
X114970000Y-62889364D01*
X114969999Y-62889364D01*
X114756513Y-62946567D01*
X114756507Y-62946570D01*
X114542422Y-63046399D01*
X114542420Y-63046400D01*
X114348926Y-63181886D01*
X114348920Y-63181891D01*
X114181891Y-63348920D01*
X114181886Y-63348926D01*
X114046400Y-63542420D01*
X114046399Y-63542422D01*
X113946570Y-63756507D01*
X113946567Y-63756513D01*
X113889364Y-63969999D01*
X113889364Y-63970000D01*
X114606653Y-63970000D01*
X114673692Y-63989685D01*
X114719447Y-64042489D01*
X114729391Y-64111647D01*
X114725631Y-64128933D01*
X114720000Y-64148111D01*
X114720000Y-64291888D01*
X114725631Y-64311067D01*
X114725630Y-64380936D01*
X114687855Y-64439714D01*
X114624299Y-64468738D01*
X114606653Y-64470000D01*
X113889364Y-64470000D01*
X112395500Y-64470000D01*
X112395500Y-58830400D01*
X135372200Y-58830400D01*
X136097200Y-58830400D01*
X136097200Y-58042900D01*
X136597200Y-58042900D01*
X136597200Y-58830400D01*
X137322199Y-58830400D01*
X137322199Y-58731260D01*
X137322198Y-58731245D01*
X137311880Y-58630247D01*
X137257653Y-58466599D01*
X137257648Y-58466588D01*
X137190423Y-58357600D01*
X137891600Y-58357600D01*
X139191600Y-58357600D01*
X139191600Y-57207600D01*
X138343755Y-57207600D01*
X138284227Y-57214001D01*
X138284220Y-57214003D01*
X138149513Y-57264245D01*
X138149506Y-57264249D01*
X138034412Y-57350409D01*
X138034409Y-57350412D01*
X137948249Y-57465506D01*
X137948245Y-57465513D01*
X137898003Y-57600220D01*
X137898001Y-57600227D01*
X137891600Y-57659755D01*
X137891600Y-58357600D01*
X137190423Y-58357600D01*
X137167147Y-58319865D01*
X137167144Y-58319861D01*
X137045238Y-58197955D01*
X137045234Y-58197952D01*
X136898511Y-58107451D01*
X136898500Y-58107446D01*
X136734852Y-58053219D01*
X136633854Y-58042900D01*
X136597200Y-58042900D01*
X136097200Y-58042900D01*
X136060561Y-58042900D01*
X136060543Y-58042901D01*
X135959547Y-58053219D01*
X135795899Y-58107446D01*
X135795888Y-58107451D01*
X135649165Y-58197952D01*
X135649161Y-58197955D01*
X135527255Y-58319861D01*
X135527252Y-58319865D01*
X135436751Y-58466588D01*
X135436746Y-58466599D01*
X135382519Y-58630247D01*
X135372200Y-58731245D01*
X135372200Y-58830400D01*
X112395500Y-58830400D01*
X112395500Y-56646000D01*
X144059000Y-56646000D01*
X144784000Y-56646000D01*
X144784000Y-56645999D01*
X145283999Y-56645999D01*
X145284000Y-56646000D01*
X146008999Y-56646000D01*
X146008999Y-56546860D01*
X146008998Y-56546845D01*
X145998680Y-56445847D01*
X145944453Y-56282199D01*
X145944448Y-56282188D01*
X145853947Y-56135465D01*
X145853944Y-56135461D01*
X145732038Y-56013555D01*
X145732034Y-56013552D01*
X145585311Y-55923051D01*
X145585300Y-55923046D01*
X145421652Y-55868819D01*
X145320654Y-55858500D01*
X145284000Y-55858500D01*
X145283999Y-56645999D01*
X144784000Y-56645999D01*
X144784000Y-55858500D01*
X144747361Y-55858500D01*
X144747343Y-55858501D01*
X144646347Y-55868819D01*
X144482699Y-55923046D01*
X144482688Y-55923051D01*
X144335965Y-56013552D01*
X144335961Y-56013555D01*
X144214055Y-56135461D01*
X144214052Y-56135465D01*
X144123551Y-56282188D01*
X144123546Y-56282199D01*
X144069319Y-56445847D01*
X144059000Y-56546845D01*
X144059000Y-56646000D01*
X112395500Y-56646000D01*
X112395500Y-53591500D01*
X112415185Y-53524461D01*
X112467989Y-53478706D01*
X112519500Y-53467500D01*
X163705500Y-53467500D01*
X163772539Y-53487185D01*
G37*
G04 #@! TD.AperFunction*
M02*
