G04 #@! TF.GenerationSoftware,KiCad,Pcbnew,6.0.11+dfsg-1*
G04 #@! TF.CreationDate,2024-04-10T12:01:02+02:00*
G04 #@! TF.ProjectId,Nehari_Chauveliere_aase_dephaseur,4e656861-7269-45f4-9368-617576656c69,rev?*
G04 #@! TF.SameCoordinates,Original*
G04 #@! TF.FileFunction,Copper,L1,Top*
G04 #@! TF.FilePolarity,Positive*
%FSLAX46Y46*%
G04 Gerber Fmt 4.6, Leading zero omitted, Abs format (unit mm)*
G04 Created by KiCad (PCBNEW 6.0.11+dfsg-1) date 2024-04-10 12:01:02*
%MOMM*%
%LPD*%
G01*
G04 APERTURE LIST*
G04 Aperture macros list*
%AMRoundRect*
0 Rectangle with rounded corners*
0 $1 Rounding radius*
0 $2 $3 $4 $5 $6 $7 $8 $9 X,Y pos of 4 corners*
0 Add a 4 corners polygon primitive as box body*
4,1,4,$2,$3,$4,$5,$6,$7,$8,$9,$2,$3,0*
0 Add four circle primitives for the rounded corners*
1,1,$1+$1,$2,$3*
1,1,$1+$1,$4,$5*
1,1,$1+$1,$6,$7*
1,1,$1+$1,$8,$9*
0 Add four rect primitives between the rounded corners*
20,1,$1+$1,$2,$3,$4,$5,0*
20,1,$1+$1,$4,$5,$6,$7,0*
20,1,$1+$1,$6,$7,$8,$9,0*
20,1,$1+$1,$8,$9,$2,$3,0*%
G04 Aperture macros list end*
G04 #@! TA.AperFunction,SMDPad,CuDef*
%ADD10RoundRect,0.237500X-0.250000X-0.237500X0.250000X-0.237500X0.250000X0.237500X-0.250000X0.237500X0*%
G04 #@! TD*
G04 #@! TA.AperFunction,SMDPad,CuDef*
%ADD11RoundRect,0.237500X0.287500X0.237500X-0.287500X0.237500X-0.287500X-0.237500X0.287500X-0.237500X0*%
G04 #@! TD*
G04 #@! TA.AperFunction,ComponentPad*
%ADD12C,2.250000*%
G04 #@! TD*
G04 #@! TA.AperFunction,SMDPad,CuDef*
%ADD13R,1.500000X0.400000*%
G04 #@! TD*
G04 #@! TA.AperFunction,SMDPad,CuDef*
%ADD14RoundRect,0.237500X0.237500X-0.250000X0.237500X0.250000X-0.237500X0.250000X-0.237500X-0.250000X0*%
G04 #@! TD*
G04 #@! TA.AperFunction,ComponentPad*
%ADD15R,1.700000X1.700000*%
G04 #@! TD*
G04 #@! TA.AperFunction,ComponentPad*
%ADD16O,1.700000X1.700000*%
G04 #@! TD*
G04 #@! TA.AperFunction,SMDPad,CuDef*
%ADD17RoundRect,0.237500X-0.237500X0.300000X-0.237500X-0.300000X0.237500X-0.300000X0.237500X0.300000X0*%
G04 #@! TD*
G04 #@! TA.AperFunction,Conductor*
%ADD18C,0.250000*%
G04 #@! TD*
G04 #@! TA.AperFunction,Conductor*
%ADD19C,0.400000*%
G04 #@! TD*
G04 #@! TA.AperFunction,Conductor*
%ADD20C,1.500000*%
G04 #@! TD*
G04 #@! TA.AperFunction,Conductor*
%ADD21C,1.600000*%
G04 #@! TD*
G04 APERTURE END LIST*
D10*
X143082000Y-72136000D03*
X144907000Y-72136000D03*
D11*
X151116000Y-72136000D03*
X149366000Y-72136000D03*
D12*
X150876000Y-80899000D03*
X148336000Y-78359000D03*
X153416000Y-83439000D03*
X153416000Y-78359000D03*
X148336000Y-83439000D03*
X119139000Y-78359000D03*
X114059000Y-83439000D03*
X114059000Y-78359000D03*
X119139000Y-83439000D03*
X116599000Y-80899000D03*
D13*
X137736090Y-79593737D03*
X137736090Y-80243737D03*
X137736090Y-80893737D03*
X140396090Y-80893737D03*
X140396090Y-79593737D03*
D10*
X138129000Y-86106000D03*
X139954000Y-86106000D03*
X130302000Y-86106000D03*
X132127000Y-86106000D03*
D14*
X130302000Y-81407000D03*
X130302000Y-79582000D03*
D15*
X135763000Y-72136000D03*
D16*
X133223000Y-72136000D03*
X130683000Y-72136000D03*
D17*
X125095000Y-79629000D03*
X125095000Y-81354000D03*
D18*
X144907000Y-72136000D02*
X149366000Y-72136000D01*
D19*
X135763000Y-72136000D02*
X143082000Y-72136000D01*
X137736090Y-79593737D02*
X130313737Y-79593737D01*
D18*
X130313737Y-79593737D02*
X130302000Y-79582000D01*
D20*
X130302000Y-79582000D02*
X125142000Y-79582000D01*
D21*
X125142000Y-79582000D02*
X125095000Y-79629000D01*
D20*
X130302000Y-86106000D02*
X125984000Y-86106000D01*
X125984000Y-86106000D02*
X120777000Y-80899000D01*
X120777000Y-80899000D02*
X116599000Y-80899000D01*
X150876000Y-80899000D02*
X140401353Y-80899000D01*
X140401353Y-80899000D02*
X140396090Y-80893737D01*
D19*
X138129000Y-86106000D02*
X132127000Y-86106000D01*
D20*
X130302000Y-81407000D02*
X130302000Y-86106000D01*
D19*
X137736090Y-80243737D02*
X138836090Y-80243737D01*
X138836090Y-80243737D02*
X139065000Y-80014827D01*
X139065000Y-80014827D02*
X139065000Y-77978000D01*
X139065000Y-77978000D02*
X133223000Y-72136000D01*
X140396090Y-79593737D02*
X140396090Y-76769090D01*
X140396090Y-76769090D02*
X135763000Y-72136000D01*
X138129000Y-86106000D02*
X137736090Y-85713090D01*
X137736090Y-85713090D02*
X137736090Y-80893737D01*
D20*
X139954000Y-86106000D02*
X140396090Y-85663910D01*
X140396090Y-85663910D02*
X140396090Y-80893737D01*
G04 #@! TA.AperFunction,Conductor*
G36*
X155389621Y-68600502D02*
G01*
X155436114Y-68654158D01*
X155447500Y-68706500D01*
X155447500Y-91186500D01*
X155427498Y-91254621D01*
X155373842Y-91301114D01*
X155321500Y-91312500D01*
X112140500Y-91312500D01*
X112072379Y-91292498D01*
X112025886Y-91238842D01*
X112014500Y-91186500D01*
X112014500Y-84763471D01*
X113099884Y-84763471D01*
X113103570Y-84768740D01*
X113311121Y-84895927D01*
X113319915Y-84900408D01*
X113548242Y-84994984D01*
X113557627Y-84998033D01*
X113797940Y-85055728D01*
X113807687Y-85057271D01*
X114054070Y-85076662D01*
X114063930Y-85076662D01*
X114310313Y-85057271D01*
X114320060Y-85055728D01*
X114560373Y-84998033D01*
X114569758Y-84994984D01*
X114798085Y-84900408D01*
X114806879Y-84895927D01*
X115012928Y-84769660D01*
X115016968Y-84763471D01*
X118179884Y-84763471D01*
X118183570Y-84768740D01*
X118391121Y-84895927D01*
X118399915Y-84900408D01*
X118628242Y-84994984D01*
X118637627Y-84998033D01*
X118877940Y-85055728D01*
X118887687Y-85057271D01*
X119134070Y-85076662D01*
X119143930Y-85076662D01*
X119390313Y-85057271D01*
X119400060Y-85055728D01*
X119640373Y-84998033D01*
X119649758Y-84994984D01*
X119878085Y-84900408D01*
X119886879Y-84895927D01*
X120092928Y-84769660D01*
X120098190Y-84761599D01*
X120092183Y-84751393D01*
X119151812Y-83811022D01*
X119137868Y-83803408D01*
X119136035Y-83803539D01*
X119129420Y-83807790D01*
X118187276Y-84749934D01*
X118179884Y-84763471D01*
X115016968Y-84763471D01*
X115018190Y-84761599D01*
X115012183Y-84751393D01*
X114071812Y-83811022D01*
X114057868Y-83803408D01*
X114056035Y-83803539D01*
X114049420Y-83807790D01*
X113107276Y-84749934D01*
X113099884Y-84763471D01*
X112014500Y-84763471D01*
X112014500Y-83443930D01*
X112421338Y-83443930D01*
X112440729Y-83690313D01*
X112442272Y-83700060D01*
X112499967Y-83940373D01*
X112503016Y-83949758D01*
X112597592Y-84178085D01*
X112602073Y-84186879D01*
X112728340Y-84392928D01*
X112736401Y-84398190D01*
X112746607Y-84392183D01*
X113686978Y-83451812D01*
X113693356Y-83440132D01*
X114423408Y-83440132D01*
X114423539Y-83441965D01*
X114427790Y-83448580D01*
X115369934Y-84390724D01*
X115383471Y-84398116D01*
X115388740Y-84394430D01*
X115515927Y-84186879D01*
X115520408Y-84178085D01*
X115614984Y-83949758D01*
X115618033Y-83940373D01*
X115675728Y-83700060D01*
X115677271Y-83690313D01*
X115696662Y-83443930D01*
X115696662Y-83434070D01*
X115677271Y-83187687D01*
X115675728Y-83177940D01*
X115618033Y-82937627D01*
X115614984Y-82928242D01*
X115520408Y-82699915D01*
X115515927Y-82691121D01*
X115389660Y-82485072D01*
X115381599Y-82479810D01*
X115371393Y-82485817D01*
X114431022Y-83426188D01*
X114423408Y-83440132D01*
X113693356Y-83440132D01*
X113694592Y-83437868D01*
X113694461Y-83436035D01*
X113690210Y-83429420D01*
X112748066Y-82487276D01*
X112734529Y-82479884D01*
X112729260Y-82483570D01*
X112602073Y-82691121D01*
X112597592Y-82699915D01*
X112503016Y-82928242D01*
X112499967Y-82937627D01*
X112442272Y-83177940D01*
X112440729Y-83187687D01*
X112421338Y-83434070D01*
X112421338Y-83443930D01*
X112014500Y-83443930D01*
X112014500Y-82116401D01*
X113099810Y-82116401D01*
X113105817Y-82126607D01*
X114046188Y-83066978D01*
X114060132Y-83074592D01*
X114061965Y-83074461D01*
X114068580Y-83070210D01*
X115010724Y-82128066D01*
X115018116Y-82114529D01*
X115014430Y-82109260D01*
X114806879Y-81982073D01*
X114798085Y-81977592D01*
X114569758Y-81883016D01*
X114560373Y-81879967D01*
X114320060Y-81822272D01*
X114310313Y-81820729D01*
X114063930Y-81801338D01*
X114054070Y-81801338D01*
X113807687Y-81820729D01*
X113797940Y-81822272D01*
X113557627Y-81879967D01*
X113548242Y-81883016D01*
X113319915Y-81977592D01*
X113311121Y-81982073D01*
X113105072Y-82108340D01*
X113099810Y-82116401D01*
X112014500Y-82116401D01*
X112014500Y-80899000D01*
X114960449Y-80899000D01*
X114980622Y-81155326D01*
X114981776Y-81160133D01*
X114981777Y-81160139D01*
X115005090Y-81257243D01*
X115040645Y-81405340D01*
X115042538Y-81409911D01*
X115042539Y-81409913D01*
X115132093Y-81626115D01*
X115139040Y-81642887D01*
X115273384Y-81862116D01*
X115440369Y-82057631D01*
X115635884Y-82224616D01*
X115855113Y-82358960D01*
X115859683Y-82360853D01*
X115859687Y-82360855D01*
X115952985Y-82399500D01*
X116092660Y-82457355D01*
X116155406Y-82472419D01*
X116337861Y-82516223D01*
X116337867Y-82516224D01*
X116342674Y-82517378D01*
X116599000Y-82537551D01*
X116855326Y-82517378D01*
X116860133Y-82516224D01*
X116860139Y-82516223D01*
X117042594Y-82472419D01*
X117105340Y-82457355D01*
X117245015Y-82399500D01*
X117338313Y-82360855D01*
X117338317Y-82360853D01*
X117342887Y-82358960D01*
X117562116Y-82224616D01*
X117565876Y-82221404D01*
X117565881Y-82221401D01*
X117605352Y-82187689D01*
X117670141Y-82158658D01*
X117687182Y-82157500D01*
X117812652Y-82157500D01*
X117880773Y-82177502D01*
X117927266Y-82231158D01*
X117937370Y-82301432D01*
X117908463Y-82365331D01*
X117817000Y-82472419D01*
X117811208Y-82480392D01*
X117682073Y-82691121D01*
X117677592Y-82699915D01*
X117583016Y-82928242D01*
X117579967Y-82937627D01*
X117522272Y-83177940D01*
X117520729Y-83187687D01*
X117501338Y-83434070D01*
X117501338Y-83443930D01*
X117520729Y-83690313D01*
X117522272Y-83700060D01*
X117579967Y-83940373D01*
X117583016Y-83949758D01*
X117677592Y-84178085D01*
X117682073Y-84186879D01*
X117808340Y-84392928D01*
X117816401Y-84398190D01*
X117826607Y-84392183D01*
X119049905Y-83168885D01*
X119112217Y-83134859D01*
X119183032Y-83139924D01*
X119228095Y-83168885D01*
X120449934Y-84390724D01*
X120463471Y-84398116D01*
X120468740Y-84394430D01*
X120595927Y-84186879D01*
X120600408Y-84178085D01*
X120694984Y-83949758D01*
X120698033Y-83940373D01*
X120755728Y-83700060D01*
X120757271Y-83690313D01*
X120776662Y-83443930D01*
X120776662Y-83434070D01*
X120757271Y-83187687D01*
X120755728Y-83177940D01*
X120698032Y-82937622D01*
X120697625Y-82936369D01*
X120697611Y-82935867D01*
X120696878Y-82932815D01*
X120697519Y-82932661D01*
X120695599Y-82865402D01*
X120732263Y-82804605D01*
X120795976Y-82773281D01*
X120866510Y-82781376D01*
X120906554Y-82808341D01*
X122994139Y-84895927D01*
X125029475Y-86931263D01*
X125040342Y-86943653D01*
X125053877Y-86961292D01*
X125113794Y-87015812D01*
X125114174Y-87016158D01*
X125118469Y-87020257D01*
X125134410Y-87036198D01*
X125136557Y-87037993D01*
X125136559Y-87037995D01*
X125154423Y-87052932D01*
X125158398Y-87056400D01*
X125215888Y-87108712D01*
X125215897Y-87108719D01*
X125220036Y-87112485D01*
X125224782Y-87115462D01*
X125224783Y-87115463D01*
X125235225Y-87122013D01*
X125249093Y-87132089D01*
X125258549Y-87139996D01*
X125258559Y-87140003D01*
X125262854Y-87143594D01*
X125330208Y-87182012D01*
X125335240Y-87184882D01*
X125339759Y-87187587D01*
X125353224Y-87196033D01*
X125405596Y-87228886D01*
X125405599Y-87228888D01*
X125410344Y-87231864D01*
X125415549Y-87233957D01*
X125415552Y-87233958D01*
X125426979Y-87238552D01*
X125442411Y-87246012D01*
X125453119Y-87252120D01*
X125453128Y-87252124D01*
X125457993Y-87254899D01*
X125463270Y-87256768D01*
X125463275Y-87256770D01*
X125536542Y-87282715D01*
X125541478Y-87284580D01*
X125618783Y-87315656D01*
X125624270Y-87316792D01*
X125624272Y-87316793D01*
X125636349Y-87319294D01*
X125652844Y-87323899D01*
X125669759Y-87329889D01*
X125752010Y-87343359D01*
X125757180Y-87344317D01*
X125785181Y-87350116D01*
X125823653Y-87358083D01*
X125838767Y-87361213D01*
X125843379Y-87361479D01*
X125843380Y-87361479D01*
X125866548Y-87362815D01*
X125879653Y-87364262D01*
X125885910Y-87365286D01*
X125885914Y-87365286D01*
X125891457Y-87366194D01*
X125897070Y-87366106D01*
X125897072Y-87366106D01*
X125998264Y-87364516D01*
X126000243Y-87364500D01*
X130260654Y-87364500D01*
X130267907Y-87364709D01*
X130336083Y-87368640D01*
X130336086Y-87368640D01*
X130341690Y-87368963D01*
X130431628Y-87358080D01*
X130435531Y-87357670D01*
X130504854Y-87351483D01*
X130525762Y-87349617D01*
X130536029Y-87346808D01*
X130554137Y-87343256D01*
X130559141Y-87342650D01*
X130559146Y-87342649D01*
X130564715Y-87341975D01*
X130651342Y-87315325D01*
X130655092Y-87314236D01*
X130742451Y-87290337D01*
X130747519Y-87287920D01*
X130752067Y-87285751D01*
X130769249Y-87279052D01*
X130770709Y-87278603D01*
X130779435Y-87275918D01*
X130859984Y-87234344D01*
X130863425Y-87232636D01*
X130945218Y-87193622D01*
X130953865Y-87187409D01*
X130969591Y-87177772D01*
X130979064Y-87172882D01*
X130983516Y-87169466D01*
X130983519Y-87169464D01*
X131050938Y-87117732D01*
X131054100Y-87115383D01*
X131090120Y-87089500D01*
X131123096Y-87065805D01*
X131123101Y-87065801D01*
X131127654Y-87062529D01*
X131133030Y-87056981D01*
X131135064Y-87054883D01*
X131148839Y-87042610D01*
X131152837Y-87039542D01*
X131152841Y-87039538D01*
X131157292Y-87036123D01*
X131161065Y-87031977D01*
X131161070Y-87031972D01*
X131218252Y-86969129D01*
X131220962Y-86966243D01*
X131222108Y-86965061D01*
X131226245Y-86960792D01*
X131243217Y-86943278D01*
X131304987Y-86908279D01*
X131375874Y-86912232D01*
X131409230Y-86930666D01*
X131411497Y-86932929D01*
X131417727Y-86936769D01*
X131417728Y-86936770D01*
X131553169Y-87020257D01*
X131559580Y-87024209D01*
X131724691Y-87078974D01*
X131731527Y-87079674D01*
X131731530Y-87079675D01*
X131783026Y-87084951D01*
X131827428Y-87089500D01*
X132426572Y-87089500D01*
X132429818Y-87089163D01*
X132429822Y-87089163D01*
X132523735Y-87079419D01*
X132523739Y-87079418D01*
X132530593Y-87078707D01*
X132537129Y-87076526D01*
X132537131Y-87076526D01*
X132685233Y-87027115D01*
X132695607Y-87023654D01*
X132843531Y-86932116D01*
X132848704Y-86926934D01*
X132848709Y-86926930D01*
X132924024Y-86851483D01*
X132986306Y-86817403D01*
X133013197Y-86814500D01*
X137242734Y-86814500D01*
X137310855Y-86834502D01*
X137331751Y-86851327D01*
X137408312Y-86927754D01*
X137408317Y-86927758D01*
X137413497Y-86932929D01*
X137419727Y-86936769D01*
X137419728Y-86936770D01*
X137555169Y-87020257D01*
X137561580Y-87024209D01*
X137726691Y-87078974D01*
X137733527Y-87079674D01*
X137733530Y-87079675D01*
X137785026Y-87084951D01*
X137829428Y-87089500D01*
X138428572Y-87089500D01*
X138431818Y-87089163D01*
X138431822Y-87089163D01*
X138525735Y-87079419D01*
X138525739Y-87079418D01*
X138532593Y-87078707D01*
X138539129Y-87076526D01*
X138539131Y-87076526D01*
X138687233Y-87027115D01*
X138697607Y-87023654D01*
X138798383Y-86961292D01*
X138839308Y-86935967D01*
X138839309Y-86935967D01*
X138845531Y-86932116D01*
X138846901Y-86930744D01*
X138910662Y-86904937D01*
X138980426Y-86918109D01*
X139017190Y-86946501D01*
X139033727Y-86965061D01*
X139089015Y-87027115D01*
X139265801Y-87165734D01*
X139284155Y-87175452D01*
X139437741Y-87256770D01*
X139464341Y-87270854D01*
X139469687Y-87272560D01*
X139469689Y-87272561D01*
X139579925Y-87307742D01*
X139678357Y-87339156D01*
X139683914Y-87339888D01*
X139683916Y-87339888D01*
X139761606Y-87350116D01*
X139901086Y-87368479D01*
X139906685Y-87368215D01*
X139906687Y-87368215D01*
X140021185Y-87362815D01*
X140125488Y-87357896D01*
X140273908Y-87323903D01*
X140339005Y-87308994D01*
X140339009Y-87308993D01*
X140344470Y-87307742D01*
X140506684Y-87238552D01*
X140545954Y-87221802D01*
X140545956Y-87221801D01*
X140551109Y-87219603D01*
X140633117Y-87165734D01*
X140735020Y-87098797D01*
X140735024Y-87098794D01*
X140738874Y-87096265D01*
X140742312Y-87093202D01*
X140742317Y-87093198D01*
X140780152Y-87059487D01*
X140781509Y-87058278D01*
X141221349Y-86618438D01*
X141233741Y-86607570D01*
X141246933Y-86597448D01*
X141246941Y-86597441D01*
X141251382Y-86594033D01*
X141306258Y-86533725D01*
X141310357Y-86529430D01*
X141326288Y-86513499D01*
X141343024Y-86493483D01*
X141346469Y-86489534D01*
X141398793Y-86432031D01*
X141398796Y-86432027D01*
X141402575Y-86427874D01*
X141412103Y-86412685D01*
X141422181Y-86398813D01*
X141430082Y-86389365D01*
X141430087Y-86389358D01*
X141433684Y-86385056D01*
X141474977Y-86312662D01*
X141477682Y-86308142D01*
X141518976Y-86242314D01*
X141518978Y-86242311D01*
X141521954Y-86237566D01*
X141528642Y-86220931D01*
X141536102Y-86205499D01*
X141542210Y-86194791D01*
X141542214Y-86194782D01*
X141544989Y-86189917D01*
X141546858Y-86184640D01*
X141546860Y-86184635D01*
X141572805Y-86111368D01*
X141574670Y-86106432D01*
X141603656Y-86034326D01*
X141605746Y-86029127D01*
X141609384Y-86011560D01*
X141613989Y-85995066D01*
X141619979Y-85978151D01*
X141633445Y-85895919D01*
X141634407Y-85890729D01*
X141650367Y-85813664D01*
X141650368Y-85813660D01*
X141651303Y-85809143D01*
X141652905Y-85781362D01*
X141654352Y-85768257D01*
X141655376Y-85762000D01*
X141655376Y-85761993D01*
X141656284Y-85756452D01*
X141654606Y-85649646D01*
X141654590Y-85647667D01*
X141654590Y-84763471D01*
X147376884Y-84763471D01*
X147380570Y-84768740D01*
X147588121Y-84895927D01*
X147596915Y-84900408D01*
X147825242Y-84994984D01*
X147834627Y-84998033D01*
X148074940Y-85055728D01*
X148084687Y-85057271D01*
X148331070Y-85076662D01*
X148340930Y-85076662D01*
X148587313Y-85057271D01*
X148597060Y-85055728D01*
X148837373Y-84998033D01*
X148846758Y-84994984D01*
X149075085Y-84900408D01*
X149083879Y-84895927D01*
X149289928Y-84769660D01*
X149293968Y-84763471D01*
X152456884Y-84763471D01*
X152460570Y-84768740D01*
X152668121Y-84895927D01*
X152676915Y-84900408D01*
X152905242Y-84994984D01*
X152914627Y-84998033D01*
X153154940Y-85055728D01*
X153164687Y-85057271D01*
X153411070Y-85076662D01*
X153420930Y-85076662D01*
X153667313Y-85057271D01*
X153677060Y-85055728D01*
X153917373Y-84998033D01*
X153926758Y-84994984D01*
X154155085Y-84900408D01*
X154163879Y-84895927D01*
X154369928Y-84769660D01*
X154375190Y-84761599D01*
X154369183Y-84751393D01*
X153428812Y-83811022D01*
X153414868Y-83803408D01*
X153413035Y-83803539D01*
X153406420Y-83807790D01*
X152464276Y-84749934D01*
X152456884Y-84763471D01*
X149293968Y-84763471D01*
X149295190Y-84761599D01*
X149289183Y-84751393D01*
X148348812Y-83811022D01*
X148334868Y-83803408D01*
X148333035Y-83803539D01*
X148326420Y-83807790D01*
X147384276Y-84749934D01*
X147376884Y-84763471D01*
X141654590Y-84763471D01*
X141654590Y-82283500D01*
X141674592Y-82215379D01*
X141728248Y-82168886D01*
X141780590Y-82157500D01*
X147009652Y-82157500D01*
X147077773Y-82177502D01*
X147124266Y-82231158D01*
X147134370Y-82301432D01*
X147105463Y-82365331D01*
X147014000Y-82472419D01*
X147008208Y-82480392D01*
X146879073Y-82691121D01*
X146874592Y-82699915D01*
X146780016Y-82928242D01*
X146776967Y-82937627D01*
X146719272Y-83177940D01*
X146717729Y-83187687D01*
X146698338Y-83434070D01*
X146698338Y-83443930D01*
X146717729Y-83690313D01*
X146719272Y-83700060D01*
X146776967Y-83940373D01*
X146780016Y-83949758D01*
X146874592Y-84178085D01*
X146879073Y-84186879D01*
X147005340Y-84392928D01*
X147013401Y-84398190D01*
X147023607Y-84392183D01*
X148246905Y-83168885D01*
X148309217Y-83134859D01*
X148380032Y-83139924D01*
X148425095Y-83168885D01*
X149646934Y-84390724D01*
X149660471Y-84398116D01*
X149665740Y-84394430D01*
X149792927Y-84186879D01*
X149797408Y-84178085D01*
X149891984Y-83949758D01*
X149895033Y-83940373D01*
X149952728Y-83700060D01*
X149954271Y-83690313D01*
X149973662Y-83443930D01*
X151778338Y-83443930D01*
X151797729Y-83690313D01*
X151799272Y-83700060D01*
X151856967Y-83940373D01*
X151860016Y-83949758D01*
X151954592Y-84178085D01*
X151959073Y-84186879D01*
X152085340Y-84392928D01*
X152093401Y-84398190D01*
X152103607Y-84392183D01*
X153043978Y-83451812D01*
X153050356Y-83440132D01*
X153780408Y-83440132D01*
X153780539Y-83441965D01*
X153784790Y-83448580D01*
X154726934Y-84390724D01*
X154740471Y-84398116D01*
X154745740Y-84394430D01*
X154872927Y-84186879D01*
X154877408Y-84178085D01*
X154971984Y-83949758D01*
X154975033Y-83940373D01*
X155032728Y-83700060D01*
X155034271Y-83690313D01*
X155053662Y-83443930D01*
X155053662Y-83434070D01*
X155034271Y-83187687D01*
X155032728Y-83177940D01*
X154975033Y-82937627D01*
X154971984Y-82928242D01*
X154877408Y-82699915D01*
X154872927Y-82691121D01*
X154746660Y-82485072D01*
X154738599Y-82479810D01*
X154728393Y-82485817D01*
X153788022Y-83426188D01*
X153780408Y-83440132D01*
X153050356Y-83440132D01*
X153051592Y-83437868D01*
X153051461Y-83436035D01*
X153047210Y-83429420D01*
X152105066Y-82487276D01*
X152091529Y-82479884D01*
X152086260Y-82483570D01*
X151959073Y-82691121D01*
X151954592Y-82699915D01*
X151860016Y-82928242D01*
X151856967Y-82937627D01*
X151799272Y-83177940D01*
X151797729Y-83187687D01*
X151778338Y-83434070D01*
X151778338Y-83443930D01*
X149973662Y-83443930D01*
X149973662Y-83434070D01*
X149954271Y-83187687D01*
X149952728Y-83177940D01*
X149895033Y-82937627D01*
X149891984Y-82928242D01*
X149797408Y-82699915D01*
X149792927Y-82691121D01*
X149663792Y-82480392D01*
X149658000Y-82472419D01*
X149566537Y-82365331D01*
X149537506Y-82300541D01*
X149548111Y-82230341D01*
X149594985Y-82177019D01*
X149662348Y-82157500D01*
X149787818Y-82157500D01*
X149855939Y-82177502D01*
X149869648Y-82187689D01*
X149909119Y-82221401D01*
X149909124Y-82221404D01*
X149912884Y-82224616D01*
X150132113Y-82358960D01*
X150136683Y-82360853D01*
X150136687Y-82360855D01*
X150229985Y-82399500D01*
X150369660Y-82457355D01*
X150432406Y-82472419D01*
X150614861Y-82516223D01*
X150614867Y-82516224D01*
X150619674Y-82517378D01*
X150876000Y-82537551D01*
X151132326Y-82517378D01*
X151137133Y-82516224D01*
X151137139Y-82516223D01*
X151319594Y-82472419D01*
X151382340Y-82457355D01*
X151522015Y-82399500D01*
X151615313Y-82360855D01*
X151615317Y-82360853D01*
X151619887Y-82358960D01*
X151839116Y-82224616D01*
X151965820Y-82116401D01*
X152456810Y-82116401D01*
X152462817Y-82126607D01*
X153403188Y-83066978D01*
X153417132Y-83074592D01*
X153418965Y-83074461D01*
X153425580Y-83070210D01*
X154367724Y-82128066D01*
X154375116Y-82114529D01*
X154371430Y-82109260D01*
X154163879Y-81982073D01*
X154155085Y-81977592D01*
X153926758Y-81883016D01*
X153917373Y-81879967D01*
X153677060Y-81822272D01*
X153667313Y-81820729D01*
X153420930Y-81801338D01*
X153411070Y-81801338D01*
X153164687Y-81820729D01*
X153154940Y-81822272D01*
X152914627Y-81879967D01*
X152905242Y-81883016D01*
X152676915Y-81977592D01*
X152668121Y-81982073D01*
X152462072Y-82108340D01*
X152456810Y-82116401D01*
X151965820Y-82116401D01*
X152034631Y-82057631D01*
X152201616Y-81862116D01*
X152335960Y-81642887D01*
X152342908Y-81626115D01*
X152432461Y-81409913D01*
X152432462Y-81409911D01*
X152434355Y-81405340D01*
X152469910Y-81257243D01*
X152493223Y-81160139D01*
X152493224Y-81160133D01*
X152494378Y-81155326D01*
X152514551Y-80899000D01*
X152494378Y-80642674D01*
X152489978Y-80624343D01*
X152435510Y-80397472D01*
X152434355Y-80392660D01*
X152431850Y-80386613D01*
X152337855Y-80159687D01*
X152337853Y-80159683D01*
X152335960Y-80155113D01*
X152201616Y-79935884D01*
X152034631Y-79740369D01*
X151968012Y-79683471D01*
X152456884Y-79683471D01*
X152460570Y-79688740D01*
X152668121Y-79815927D01*
X152676915Y-79820408D01*
X152905242Y-79914984D01*
X152914627Y-79918033D01*
X153154940Y-79975728D01*
X153164687Y-79977271D01*
X153411070Y-79996662D01*
X153420930Y-79996662D01*
X153667313Y-79977271D01*
X153677060Y-79975728D01*
X153917373Y-79918033D01*
X153926758Y-79914984D01*
X154155085Y-79820408D01*
X154163879Y-79815927D01*
X154369928Y-79689660D01*
X154375190Y-79681599D01*
X154369183Y-79671393D01*
X153428812Y-78731022D01*
X153414868Y-78723408D01*
X153413035Y-78723539D01*
X153406420Y-78727790D01*
X152464276Y-79669934D01*
X152456884Y-79683471D01*
X151968012Y-79683471D01*
X151839116Y-79573384D01*
X151619887Y-79439040D01*
X151615317Y-79437147D01*
X151615313Y-79437145D01*
X151386913Y-79342539D01*
X151386911Y-79342538D01*
X151382340Y-79340645D01*
X151273147Y-79314430D01*
X151137139Y-79281777D01*
X151137133Y-79281776D01*
X151132326Y-79280622D01*
X150876000Y-79260449D01*
X150619674Y-79280622D01*
X150614867Y-79281776D01*
X150614861Y-79281777D01*
X150478853Y-79314430D01*
X150369660Y-79340645D01*
X150365089Y-79342538D01*
X150365087Y-79342539D01*
X150136687Y-79437145D01*
X150136683Y-79437147D01*
X150132113Y-79439040D01*
X149912884Y-79573384D01*
X149909124Y-79576596D01*
X149909119Y-79576599D01*
X149869648Y-79610311D01*
X149804859Y-79639342D01*
X149787818Y-79640500D01*
X149662348Y-79640500D01*
X149594227Y-79620498D01*
X149547734Y-79566842D01*
X149537630Y-79496568D01*
X149566537Y-79432669D01*
X149658000Y-79325581D01*
X149663792Y-79317608D01*
X149792927Y-79106879D01*
X149797408Y-79098085D01*
X149891984Y-78869758D01*
X149895033Y-78860373D01*
X149952728Y-78620060D01*
X149954271Y-78610313D01*
X149973662Y-78363930D01*
X151778338Y-78363930D01*
X151797729Y-78610313D01*
X151799272Y-78620060D01*
X151856967Y-78860373D01*
X151860016Y-78869758D01*
X151954592Y-79098085D01*
X151959073Y-79106879D01*
X152085340Y-79312928D01*
X152093401Y-79318190D01*
X152103607Y-79312183D01*
X153043978Y-78371812D01*
X153050356Y-78360132D01*
X153780408Y-78360132D01*
X153780539Y-78361965D01*
X153784790Y-78368580D01*
X154726934Y-79310724D01*
X154740471Y-79318116D01*
X154745740Y-79314430D01*
X154872927Y-79106879D01*
X154877408Y-79098085D01*
X154971984Y-78869758D01*
X154975033Y-78860373D01*
X155032728Y-78620060D01*
X155034271Y-78610313D01*
X155053662Y-78363930D01*
X155053662Y-78354070D01*
X155034271Y-78107687D01*
X155032728Y-78097940D01*
X154975033Y-77857627D01*
X154971984Y-77848242D01*
X154877408Y-77619915D01*
X154872927Y-77611121D01*
X154746660Y-77405072D01*
X154738599Y-77399810D01*
X154728393Y-77405817D01*
X153788022Y-78346188D01*
X153780408Y-78360132D01*
X153050356Y-78360132D01*
X153051592Y-78357868D01*
X153051461Y-78356035D01*
X153047210Y-78349420D01*
X152105066Y-77407276D01*
X152091529Y-77399884D01*
X152086260Y-77403570D01*
X151959073Y-77611121D01*
X151954592Y-77619915D01*
X151860016Y-77848242D01*
X151856967Y-77857627D01*
X151799272Y-78097940D01*
X151797729Y-78107687D01*
X151778338Y-78354070D01*
X151778338Y-78363930D01*
X149973662Y-78363930D01*
X149973662Y-78354070D01*
X149954271Y-78107687D01*
X149952728Y-78097940D01*
X149895033Y-77857627D01*
X149891984Y-77848242D01*
X149797408Y-77619915D01*
X149792927Y-77611121D01*
X149666660Y-77405072D01*
X149658599Y-77399810D01*
X149648393Y-77405817D01*
X148425095Y-78629115D01*
X148362783Y-78663141D01*
X148291968Y-78658076D01*
X148246905Y-78629115D01*
X147025066Y-77407276D01*
X147011529Y-77399884D01*
X147006260Y-77403570D01*
X146879073Y-77611121D01*
X146874592Y-77619915D01*
X146780016Y-77848242D01*
X146776967Y-77857627D01*
X146719272Y-78097940D01*
X146717729Y-78107687D01*
X146698338Y-78354070D01*
X146698338Y-78363930D01*
X146717729Y-78610313D01*
X146719272Y-78620060D01*
X146776967Y-78860373D01*
X146780016Y-78869758D01*
X146874592Y-79098085D01*
X146879073Y-79106879D01*
X147008208Y-79317608D01*
X147014000Y-79325581D01*
X147105463Y-79432669D01*
X147134494Y-79497459D01*
X147123889Y-79567659D01*
X147077015Y-79620981D01*
X147009652Y-79640500D01*
X141780590Y-79640500D01*
X141712469Y-79620498D01*
X141665976Y-79566842D01*
X141654590Y-79514500D01*
X141654590Y-79345603D01*
X141647835Y-79283421D01*
X141596705Y-79147032D01*
X141509351Y-79030476D01*
X141392795Y-78943122D01*
X141256406Y-78891992D01*
X141229176Y-78889034D01*
X141216982Y-78887709D01*
X141151420Y-78860467D01*
X141110994Y-78802103D01*
X141104590Y-78762446D01*
X141104590Y-77036401D01*
X147376810Y-77036401D01*
X147382817Y-77046607D01*
X148323188Y-77986978D01*
X148337132Y-77994592D01*
X148338965Y-77994461D01*
X148345580Y-77990210D01*
X149287724Y-77048066D01*
X149294094Y-77036401D01*
X152456810Y-77036401D01*
X152462817Y-77046607D01*
X153403188Y-77986978D01*
X153417132Y-77994592D01*
X153418965Y-77994461D01*
X153425580Y-77990210D01*
X154367724Y-77048066D01*
X154375116Y-77034529D01*
X154371430Y-77029260D01*
X154163879Y-76902073D01*
X154155085Y-76897592D01*
X153926758Y-76803016D01*
X153917373Y-76799967D01*
X153677060Y-76742272D01*
X153667313Y-76740729D01*
X153420930Y-76721338D01*
X153411070Y-76721338D01*
X153164687Y-76740729D01*
X153154940Y-76742272D01*
X152914627Y-76799967D01*
X152905242Y-76803016D01*
X152676915Y-76897592D01*
X152668121Y-76902073D01*
X152462072Y-77028340D01*
X152456810Y-77036401D01*
X149294094Y-77036401D01*
X149295116Y-77034529D01*
X149291430Y-77029260D01*
X149083879Y-76902073D01*
X149075085Y-76897592D01*
X148846758Y-76803016D01*
X148837373Y-76799967D01*
X148597060Y-76742272D01*
X148587313Y-76740729D01*
X148340930Y-76721338D01*
X148331070Y-76721338D01*
X148084687Y-76740729D01*
X148074940Y-76742272D01*
X147834627Y-76799967D01*
X147825242Y-76803016D01*
X147596915Y-76897592D01*
X147588121Y-76902073D01*
X147382072Y-77028340D01*
X147376810Y-77036401D01*
X141104590Y-77036401D01*
X141104590Y-76798017D01*
X141104882Y-76789448D01*
X141108300Y-76739315D01*
X141108300Y-76739311D01*
X141108816Y-76731738D01*
X141097826Y-76668771D01*
X141096865Y-76662255D01*
X141090104Y-76606388D01*
X141089192Y-76598848D01*
X141086509Y-76591747D01*
X141085868Y-76589138D01*
X141081399Y-76572805D01*
X141080638Y-76570285D01*
X141079333Y-76562807D01*
X141076281Y-76555854D01*
X141053649Y-76504294D01*
X141051158Y-76498189D01*
X141031265Y-76445546D01*
X141031263Y-76445542D01*
X141028577Y-76438434D01*
X141024274Y-76432173D01*
X141023037Y-76429807D01*
X141014810Y-76415027D01*
X141013459Y-76412742D01*
X141010405Y-76405785D01*
X141005785Y-76399765D01*
X141005782Y-76399759D01*
X140971511Y-76355099D01*
X140967631Y-76349758D01*
X140935751Y-76303370D01*
X140935746Y-76303365D01*
X140931447Y-76297109D01*
X140884919Y-76255654D01*
X140879644Y-76250674D01*
X137688565Y-73059595D01*
X137654539Y-72997283D01*
X137659604Y-72926468D01*
X137702151Y-72869632D01*
X137768671Y-72844821D01*
X137777660Y-72844500D01*
X142195734Y-72844500D01*
X142263855Y-72864502D01*
X142284751Y-72881327D01*
X142361312Y-72957754D01*
X142361317Y-72957758D01*
X142366497Y-72962929D01*
X142372727Y-72966769D01*
X142372728Y-72966770D01*
X142463645Y-73022812D01*
X142514580Y-73054209D01*
X142679691Y-73108974D01*
X142686527Y-73109674D01*
X142686530Y-73109675D01*
X142721328Y-73113240D01*
X142782428Y-73119500D01*
X143381572Y-73119500D01*
X143384818Y-73119163D01*
X143384822Y-73119163D01*
X143478735Y-73109419D01*
X143478739Y-73109418D01*
X143485593Y-73108707D01*
X143492129Y-73106526D01*
X143492131Y-73106526D01*
X143632800Y-73059595D01*
X143650607Y-73053654D01*
X143798531Y-72962116D01*
X143830731Y-72929860D01*
X143905247Y-72855214D01*
X143967530Y-72821135D01*
X144038350Y-72826138D01*
X144083437Y-72855059D01*
X144186312Y-72957754D01*
X144186317Y-72957758D01*
X144191497Y-72962929D01*
X144197727Y-72966769D01*
X144197728Y-72966770D01*
X144288645Y-73022812D01*
X144339580Y-73054209D01*
X144504691Y-73108974D01*
X144511527Y-73109674D01*
X144511530Y-73109675D01*
X144546328Y-73113240D01*
X144607428Y-73119500D01*
X145206572Y-73119500D01*
X145209818Y-73119163D01*
X145209822Y-73119163D01*
X145303735Y-73109419D01*
X145303739Y-73109418D01*
X145310593Y-73108707D01*
X145317129Y-73106526D01*
X145317131Y-73106526D01*
X145457800Y-73059595D01*
X145475607Y-73053654D01*
X145623531Y-72962116D01*
X145655731Y-72929860D01*
X145741258Y-72844184D01*
X145741262Y-72844179D01*
X145746429Y-72839003D01*
X145752357Y-72829386D01*
X145754386Y-72827559D01*
X145754807Y-72827027D01*
X145754898Y-72827099D01*
X145805128Y-72781892D01*
X145859618Y-72769500D01*
X148376036Y-72769500D01*
X148444157Y-72789502D01*
X148483179Y-72829196D01*
X148489884Y-72840031D01*
X148495066Y-72845204D01*
X148607816Y-72957758D01*
X148607821Y-72957762D01*
X148612997Y-72962929D01*
X148619227Y-72966769D01*
X148619228Y-72966770D01*
X148710145Y-73022812D01*
X148761080Y-73054209D01*
X148926191Y-73108974D01*
X148933027Y-73109674D01*
X148933030Y-73109675D01*
X148967828Y-73113240D01*
X149028928Y-73119500D01*
X149703072Y-73119500D01*
X149706318Y-73119163D01*
X149706322Y-73119163D01*
X149800235Y-73109419D01*
X149800239Y-73109418D01*
X149807093Y-73108707D01*
X149813629Y-73106526D01*
X149813631Y-73106526D01*
X149954300Y-73059595D01*
X149972107Y-73053654D01*
X150120031Y-72962116D01*
X150152231Y-72929859D01*
X150214512Y-72895780D01*
X150285332Y-72900782D01*
X150330422Y-72929704D01*
X150358129Y-72957363D01*
X150369540Y-72966375D01*
X150505063Y-73049912D01*
X150518241Y-73056056D01*
X150669766Y-73106315D01*
X150683132Y-73109181D01*
X150775770Y-73118672D01*
X150782185Y-73119000D01*
X150843885Y-73119000D01*
X150859124Y-73114525D01*
X150860329Y-73113135D01*
X150862000Y-73105452D01*
X150862000Y-73100885D01*
X151370000Y-73100885D01*
X151374475Y-73116124D01*
X151375865Y-73117329D01*
X151383548Y-73119000D01*
X151449766Y-73119000D01*
X151456282Y-73118663D01*
X151550132Y-73108925D01*
X151563528Y-73106032D01*
X151714953Y-73055512D01*
X151728115Y-73049347D01*
X151863492Y-72965574D01*
X151874890Y-72956540D01*
X151987363Y-72843871D01*
X151996375Y-72832460D01*
X152079912Y-72696937D01*
X152086056Y-72683759D01*
X152136315Y-72532234D01*
X152139181Y-72518868D01*
X152148672Y-72426230D01*
X152149000Y-72419815D01*
X152149000Y-72408115D01*
X152144525Y-72392876D01*
X152143135Y-72391671D01*
X152135452Y-72390000D01*
X151388115Y-72390000D01*
X151372876Y-72394475D01*
X151371671Y-72395865D01*
X151370000Y-72403548D01*
X151370000Y-73100885D01*
X150862000Y-73100885D01*
X150862000Y-71863885D01*
X151370000Y-71863885D01*
X151374475Y-71879124D01*
X151375865Y-71880329D01*
X151383548Y-71882000D01*
X152130885Y-71882000D01*
X152146124Y-71877525D01*
X152147329Y-71876135D01*
X152149000Y-71868452D01*
X152149000Y-71852234D01*
X152148663Y-71845718D01*
X152138925Y-71751868D01*
X152136032Y-71738472D01*
X152085512Y-71587047D01*
X152079347Y-71573885D01*
X151995574Y-71438508D01*
X151986540Y-71427110D01*
X151873871Y-71314637D01*
X151862460Y-71305625D01*
X151726937Y-71222088D01*
X151713759Y-71215944D01*
X151562234Y-71165685D01*
X151548868Y-71162819D01*
X151456230Y-71153328D01*
X151449815Y-71153000D01*
X151388115Y-71153000D01*
X151372876Y-71157475D01*
X151371671Y-71158865D01*
X151370000Y-71166548D01*
X151370000Y-71863885D01*
X150862000Y-71863885D01*
X150862000Y-71171115D01*
X150857525Y-71155876D01*
X150856135Y-71154671D01*
X150848452Y-71153000D01*
X150782234Y-71153000D01*
X150775718Y-71153337D01*
X150681868Y-71163075D01*
X150668472Y-71165968D01*
X150517047Y-71216488D01*
X150503885Y-71222653D01*
X150368508Y-71306426D01*
X150357105Y-71315464D01*
X150330475Y-71342140D01*
X150268193Y-71376219D01*
X150197373Y-71371216D01*
X150152285Y-71342295D01*
X150124183Y-71314242D01*
X150119003Y-71309071D01*
X150105515Y-71300757D01*
X149977150Y-71221631D01*
X149977148Y-71221630D01*
X149970920Y-71217791D01*
X149805809Y-71163026D01*
X149798973Y-71162326D01*
X149798970Y-71162325D01*
X149747474Y-71157049D01*
X149703072Y-71152500D01*
X149028928Y-71152500D01*
X149025682Y-71152837D01*
X149025678Y-71152837D01*
X148931765Y-71162581D01*
X148931761Y-71162582D01*
X148924907Y-71163293D01*
X148918371Y-71165474D01*
X148918369Y-71165474D01*
X148785605Y-71209768D01*
X148759893Y-71218346D01*
X148611969Y-71309884D01*
X148606796Y-71315066D01*
X148494242Y-71427816D01*
X148494238Y-71427821D01*
X148489071Y-71432997D01*
X148485231Y-71439227D01*
X148485230Y-71439228D01*
X148483143Y-71442614D01*
X148481114Y-71444441D01*
X148480693Y-71444973D01*
X148480602Y-71444901D01*
X148430372Y-71490108D01*
X148375882Y-71502500D01*
X145859464Y-71502500D01*
X145791343Y-71482498D01*
X145752321Y-71442804D01*
X145745616Y-71431969D01*
X145730562Y-71416941D01*
X145627684Y-71314242D01*
X145627679Y-71314238D01*
X145622503Y-71309071D01*
X145609015Y-71300757D01*
X145480650Y-71221631D01*
X145480648Y-71221630D01*
X145474420Y-71217791D01*
X145309309Y-71163026D01*
X145302473Y-71162326D01*
X145302470Y-71162325D01*
X145250974Y-71157049D01*
X145206572Y-71152500D01*
X144607428Y-71152500D01*
X144604182Y-71152837D01*
X144604178Y-71152837D01*
X144510265Y-71162581D01*
X144510261Y-71162582D01*
X144503407Y-71163293D01*
X144496871Y-71165474D01*
X144496869Y-71165474D01*
X144364105Y-71209768D01*
X144338393Y-71218346D01*
X144190469Y-71309884D01*
X144185296Y-71315066D01*
X144083753Y-71416786D01*
X144021470Y-71450865D01*
X143950650Y-71445862D01*
X143905563Y-71416941D01*
X143802688Y-71314246D01*
X143802683Y-71314242D01*
X143797503Y-71309071D01*
X143784015Y-71300757D01*
X143655650Y-71221631D01*
X143655648Y-71221630D01*
X143649420Y-71217791D01*
X143484309Y-71163026D01*
X143477473Y-71162326D01*
X143477470Y-71162325D01*
X143425974Y-71157049D01*
X143381572Y-71152500D01*
X142782428Y-71152500D01*
X142779182Y-71152837D01*
X142779178Y-71152837D01*
X142685265Y-71162581D01*
X142685261Y-71162582D01*
X142678407Y-71163293D01*
X142671871Y-71165474D01*
X142671869Y-71165474D01*
X142539105Y-71209768D01*
X142513393Y-71218346D01*
X142365469Y-71309884D01*
X142360296Y-71315066D01*
X142360291Y-71315070D01*
X142284976Y-71390517D01*
X142222694Y-71424597D01*
X142195803Y-71427500D01*
X137247500Y-71427500D01*
X137179379Y-71407498D01*
X137132886Y-71353842D01*
X137121500Y-71301500D01*
X137121500Y-71237866D01*
X137114745Y-71175684D01*
X137063615Y-71039295D01*
X136976261Y-70922739D01*
X136859705Y-70835385D01*
X136723316Y-70784255D01*
X136661134Y-70777500D01*
X134864866Y-70777500D01*
X134802684Y-70784255D01*
X134666295Y-70835385D01*
X134549739Y-70922739D01*
X134462385Y-71039295D01*
X134459233Y-71047703D01*
X134417919Y-71157907D01*
X134375277Y-71214671D01*
X134308716Y-71239371D01*
X134239367Y-71224163D01*
X134206743Y-71198476D01*
X134156151Y-71142875D01*
X134156142Y-71142866D01*
X134152670Y-71139051D01*
X134148619Y-71135852D01*
X134148615Y-71135848D01*
X133981414Y-71003800D01*
X133981410Y-71003798D01*
X133977359Y-71000598D01*
X133941028Y-70980542D01*
X133925136Y-70971769D01*
X133781789Y-70892638D01*
X133776920Y-70890914D01*
X133776916Y-70890912D01*
X133576087Y-70819795D01*
X133576083Y-70819794D01*
X133571212Y-70818069D01*
X133566119Y-70817162D01*
X133566116Y-70817161D01*
X133356373Y-70779800D01*
X133356367Y-70779799D01*
X133351284Y-70778894D01*
X133277452Y-70777992D01*
X133133081Y-70776228D01*
X133133079Y-70776228D01*
X133127911Y-70776165D01*
X132907091Y-70809955D01*
X132694756Y-70879357D01*
X132496607Y-70982507D01*
X132492474Y-70985610D01*
X132492471Y-70985612D01*
X132322100Y-71113530D01*
X132317965Y-71116635D01*
X132292541Y-71143240D01*
X132224280Y-71214671D01*
X132163629Y-71278138D01*
X132160715Y-71282410D01*
X132160714Y-71282411D01*
X132138998Y-71314246D01*
X132057992Y-71432997D01*
X132055898Y-71436066D01*
X132000987Y-71481069D01*
X131930462Y-71489240D01*
X131866715Y-71457986D01*
X131846018Y-71433502D01*
X131765426Y-71308926D01*
X131759136Y-71300757D01*
X131615806Y-71143240D01*
X131608273Y-71136215D01*
X131441139Y-71004222D01*
X131432552Y-70998517D01*
X131246117Y-70895599D01*
X131236705Y-70891369D01*
X131035959Y-70820280D01*
X131025988Y-70817646D01*
X130954837Y-70804972D01*
X130941540Y-70806432D01*
X130937000Y-70820989D01*
X130937000Y-73454517D01*
X130941064Y-73468359D01*
X130954478Y-73470393D01*
X130961184Y-73469534D01*
X130971262Y-73467392D01*
X131175255Y-73406191D01*
X131184842Y-73402433D01*
X131376095Y-73308739D01*
X131384945Y-73303464D01*
X131558328Y-73179792D01*
X131566200Y-73173139D01*
X131717052Y-73022812D01*
X131723730Y-73014965D01*
X131851022Y-72837819D01*
X131852279Y-72838722D01*
X131899373Y-72795362D01*
X131969311Y-72783145D01*
X132034751Y-72810678D01*
X132062579Y-72842511D01*
X132076055Y-72864502D01*
X132122987Y-72941088D01*
X132269250Y-73109938D01*
X132441126Y-73252632D01*
X132634000Y-73365338D01*
X132842692Y-73445030D01*
X132847760Y-73446061D01*
X132847763Y-73446062D01*
X132907891Y-73458295D01*
X133061597Y-73489567D01*
X133066772Y-73489757D01*
X133066774Y-73489757D01*
X133279673Y-73497564D01*
X133279677Y-73497564D01*
X133284837Y-73497753D01*
X133289957Y-73497097D01*
X133289959Y-73497097D01*
X133487589Y-73471780D01*
X133557699Y-73482965D01*
X133592694Y-73507664D01*
X138319595Y-78234565D01*
X138353621Y-78296877D01*
X138356500Y-78323660D01*
X138356500Y-78759237D01*
X138336498Y-78827358D01*
X138282842Y-78873851D01*
X138230500Y-78885237D01*
X131415903Y-78885237D01*
X131347782Y-78865235D01*
X131315940Y-78835941D01*
X131235533Y-78731152D01*
X131232123Y-78726708D01*
X131065964Y-78575515D01*
X131061217Y-78572537D01*
X131061214Y-78572535D01*
X130880405Y-78459115D01*
X130875656Y-78456136D01*
X130667217Y-78372344D01*
X130447233Y-78326787D01*
X130442622Y-78326521D01*
X130442621Y-78326521D01*
X130392048Y-78323605D01*
X130392044Y-78323605D01*
X130390225Y-78323500D01*
X125532315Y-78323500D01*
X125492464Y-78316473D01*
X125492440Y-78316563D01*
X125491407Y-78316286D01*
X125489218Y-78315900D01*
X125481959Y-78313258D01*
X125256479Y-78273500D01*
X125027521Y-78273500D01*
X124802041Y-78313258D01*
X124796871Y-78315140D01*
X124796870Y-78315140D01*
X124711568Y-78346188D01*
X124586892Y-78391567D01*
X124582128Y-78394317D01*
X124582129Y-78394317D01*
X124393380Y-78503290D01*
X124393376Y-78503293D01*
X124388609Y-78506045D01*
X124257146Y-78616356D01*
X124129356Y-78744146D01*
X124019045Y-78875609D01*
X124016293Y-78880376D01*
X124016290Y-78880380D01*
X123976957Y-78948508D01*
X123904567Y-79073892D01*
X123902686Y-79079060D01*
X123828304Y-79283421D01*
X123826258Y-79289041D01*
X123786500Y-79514521D01*
X123786500Y-79743479D01*
X123826258Y-79968959D01*
X123904567Y-80184108D01*
X123907317Y-80188871D01*
X124016049Y-80377201D01*
X124019045Y-80382391D01*
X124166217Y-80557783D01*
X124170431Y-80561319D01*
X124171141Y-80562029D01*
X124205164Y-80624343D01*
X124200096Y-80695158D01*
X124189303Y-80717235D01*
X124181089Y-80730561D01*
X124174944Y-80743741D01*
X124124685Y-80895266D01*
X124121819Y-80908632D01*
X124112328Y-81001270D01*
X124112000Y-81007685D01*
X124112000Y-81081885D01*
X124116475Y-81097124D01*
X124117865Y-81098329D01*
X124125548Y-81100000D01*
X126059885Y-81100000D01*
X126075124Y-81095525D01*
X126076329Y-81094135D01*
X126078000Y-81086452D01*
X126078000Y-81007734D01*
X126077663Y-81001215D01*
X126075410Y-80979503D01*
X126088275Y-80909681D01*
X126136847Y-80857900D01*
X126200737Y-80840500D01*
X128986808Y-80840500D01*
X129054929Y-80860502D01*
X129101422Y-80914158D01*
X129111526Y-80984432D01*
X129103717Y-81013493D01*
X129092344Y-81041783D01*
X129046787Y-81261767D01*
X129043500Y-81318775D01*
X129043500Y-84721500D01*
X129023498Y-84789621D01*
X128969842Y-84836114D01*
X128917500Y-84847500D01*
X126557477Y-84847500D01*
X126489356Y-84827498D01*
X126468382Y-84810595D01*
X124115143Y-82457355D01*
X123358054Y-81700266D01*
X124112000Y-81700266D01*
X124112337Y-81706782D01*
X124122075Y-81800632D01*
X124124968Y-81814028D01*
X124175488Y-81965453D01*
X124181653Y-81978615D01*
X124265426Y-82113992D01*
X124274460Y-82125390D01*
X124387129Y-82237863D01*
X124398540Y-82246875D01*
X124534063Y-82330412D01*
X124547241Y-82336556D01*
X124698766Y-82386815D01*
X124712132Y-82389681D01*
X124804770Y-82399172D01*
X124811185Y-82399500D01*
X124822885Y-82399500D01*
X124838124Y-82395025D01*
X124839329Y-82393635D01*
X124841000Y-82385952D01*
X124841000Y-82381385D01*
X125349000Y-82381385D01*
X125353475Y-82396624D01*
X125354865Y-82397829D01*
X125362548Y-82399500D01*
X125378766Y-82399500D01*
X125385282Y-82399163D01*
X125479132Y-82389425D01*
X125492528Y-82386532D01*
X125643953Y-82336012D01*
X125657115Y-82329847D01*
X125792492Y-82246074D01*
X125803890Y-82237040D01*
X125916363Y-82124371D01*
X125925375Y-82112960D01*
X126008912Y-81977437D01*
X126015056Y-81964259D01*
X126065315Y-81812734D01*
X126068181Y-81799368D01*
X126077672Y-81706730D01*
X126078000Y-81700315D01*
X126078000Y-81626115D01*
X126073525Y-81610876D01*
X126072135Y-81609671D01*
X126064452Y-81608000D01*
X125367115Y-81608000D01*
X125351876Y-81612475D01*
X125350671Y-81613865D01*
X125349000Y-81621548D01*
X125349000Y-82381385D01*
X124841000Y-82381385D01*
X124841000Y-81626115D01*
X124836525Y-81610876D01*
X124835135Y-81609671D01*
X124827452Y-81608000D01*
X124130115Y-81608000D01*
X124114876Y-81612475D01*
X124113671Y-81613865D01*
X124112000Y-81621548D01*
X124112000Y-81700266D01*
X123358054Y-81700266D01*
X121731525Y-80073737D01*
X121720657Y-80061346D01*
X121710533Y-80048152D01*
X121707123Y-80043708D01*
X121646826Y-79988842D01*
X121642531Y-79984743D01*
X121626590Y-79968802D01*
X121624440Y-79967004D01*
X121606577Y-79952068D01*
X121602602Y-79948600D01*
X121545112Y-79896288D01*
X121545103Y-79896281D01*
X121540964Y-79892515D01*
X121525773Y-79882986D01*
X121511907Y-79872911D01*
X121502451Y-79865004D01*
X121502441Y-79864997D01*
X121498146Y-79861406D01*
X121425752Y-79820113D01*
X121421232Y-79817408D01*
X121355404Y-79776114D01*
X121355401Y-79776112D01*
X121350656Y-79773136D01*
X121345451Y-79771043D01*
X121345448Y-79771042D01*
X121334021Y-79766448D01*
X121318589Y-79758988D01*
X121307881Y-79752880D01*
X121307872Y-79752876D01*
X121303007Y-79750101D01*
X121297730Y-79748232D01*
X121297725Y-79748230D01*
X121224458Y-79722285D01*
X121219522Y-79720420D01*
X121147416Y-79691434D01*
X121142217Y-79689344D01*
X121136730Y-79688208D01*
X121136728Y-79688207D01*
X121124651Y-79685706D01*
X121108156Y-79681101D01*
X121091241Y-79675111D01*
X121008990Y-79661641D01*
X121003820Y-79660683D01*
X120922233Y-79643787D01*
X120917621Y-79643521D01*
X120917620Y-79643521D01*
X120894452Y-79642185D01*
X120881347Y-79640738D01*
X120875090Y-79639714D01*
X120875086Y-79639714D01*
X120869543Y-79638806D01*
X120863930Y-79638894D01*
X120863928Y-79638894D01*
X120762736Y-79640484D01*
X120760757Y-79640500D01*
X120465348Y-79640500D01*
X120397227Y-79620498D01*
X120350734Y-79566842D01*
X120340630Y-79496568D01*
X120369537Y-79432669D01*
X120461000Y-79325581D01*
X120466792Y-79317608D01*
X120595927Y-79106879D01*
X120600408Y-79098085D01*
X120694984Y-78869758D01*
X120698033Y-78860373D01*
X120755728Y-78620060D01*
X120757271Y-78610313D01*
X120776662Y-78363930D01*
X120776662Y-78354070D01*
X120757271Y-78107687D01*
X120755728Y-78097940D01*
X120698033Y-77857627D01*
X120694984Y-77848242D01*
X120600408Y-77619915D01*
X120595927Y-77611121D01*
X120469660Y-77405072D01*
X120461599Y-77399810D01*
X120451393Y-77405817D01*
X119228095Y-78629115D01*
X119165783Y-78663141D01*
X119094968Y-78658076D01*
X119049905Y-78629115D01*
X117828066Y-77407276D01*
X117814529Y-77399884D01*
X117809260Y-77403570D01*
X117682073Y-77611121D01*
X117677592Y-77619915D01*
X117583016Y-77848242D01*
X117579967Y-77857627D01*
X117522272Y-78097940D01*
X117520729Y-78107687D01*
X117501338Y-78354070D01*
X117501338Y-78363930D01*
X117520729Y-78610313D01*
X117522272Y-78620060D01*
X117579967Y-78860373D01*
X117583016Y-78869758D01*
X117677592Y-79098085D01*
X117682073Y-79106879D01*
X117811208Y-79317608D01*
X117817000Y-79325581D01*
X117908463Y-79432669D01*
X117937494Y-79497459D01*
X117926889Y-79567659D01*
X117880015Y-79620981D01*
X117812652Y-79640500D01*
X117687182Y-79640500D01*
X117619061Y-79620498D01*
X117605352Y-79610311D01*
X117565881Y-79576599D01*
X117565876Y-79576596D01*
X117562116Y-79573384D01*
X117342887Y-79439040D01*
X117338317Y-79437147D01*
X117338313Y-79437145D01*
X117109913Y-79342539D01*
X117109911Y-79342538D01*
X117105340Y-79340645D01*
X116996147Y-79314430D01*
X116860139Y-79281777D01*
X116860133Y-79281776D01*
X116855326Y-79280622D01*
X116599000Y-79260449D01*
X116342674Y-79280622D01*
X116337867Y-79281776D01*
X116337861Y-79281777D01*
X116201853Y-79314430D01*
X116092660Y-79340645D01*
X116088089Y-79342538D01*
X116088087Y-79342539D01*
X115859687Y-79437145D01*
X115859683Y-79437147D01*
X115855113Y-79439040D01*
X115635884Y-79573384D01*
X115440369Y-79740369D01*
X115273384Y-79935884D01*
X115139040Y-80155113D01*
X115137147Y-80159683D01*
X115137145Y-80159687D01*
X115043150Y-80386613D01*
X115040645Y-80392660D01*
X115039490Y-80397472D01*
X114985023Y-80624343D01*
X114980622Y-80642674D01*
X114960449Y-80899000D01*
X112014500Y-80899000D01*
X112014500Y-79683471D01*
X113099884Y-79683471D01*
X113103570Y-79688740D01*
X113311121Y-79815927D01*
X113319915Y-79820408D01*
X113548242Y-79914984D01*
X113557627Y-79918033D01*
X113797940Y-79975728D01*
X113807687Y-79977271D01*
X114054070Y-79996662D01*
X114063930Y-79996662D01*
X114310313Y-79977271D01*
X114320060Y-79975728D01*
X114560373Y-79918033D01*
X114569758Y-79914984D01*
X114798085Y-79820408D01*
X114806879Y-79815927D01*
X115012928Y-79689660D01*
X115018190Y-79681599D01*
X115012183Y-79671393D01*
X114071812Y-78731022D01*
X114057868Y-78723408D01*
X114056035Y-78723539D01*
X114049420Y-78727790D01*
X113107276Y-79669934D01*
X113099884Y-79683471D01*
X112014500Y-79683471D01*
X112014500Y-78363930D01*
X112421338Y-78363930D01*
X112440729Y-78610313D01*
X112442272Y-78620060D01*
X112499967Y-78860373D01*
X112503016Y-78869758D01*
X112597592Y-79098085D01*
X112602073Y-79106879D01*
X112728340Y-79312928D01*
X112736401Y-79318190D01*
X112746607Y-79312183D01*
X113686978Y-78371812D01*
X113693356Y-78360132D01*
X114423408Y-78360132D01*
X114423539Y-78361965D01*
X114427790Y-78368580D01*
X115369934Y-79310724D01*
X115383471Y-79318116D01*
X115388740Y-79314430D01*
X115515927Y-79106879D01*
X115520408Y-79098085D01*
X115614984Y-78869758D01*
X115618033Y-78860373D01*
X115675728Y-78620060D01*
X115677271Y-78610313D01*
X115696662Y-78363930D01*
X115696662Y-78354070D01*
X115677271Y-78107687D01*
X115675728Y-78097940D01*
X115618033Y-77857627D01*
X115614984Y-77848242D01*
X115520408Y-77619915D01*
X115515927Y-77611121D01*
X115389660Y-77405072D01*
X115381599Y-77399810D01*
X115371393Y-77405817D01*
X114431022Y-78346188D01*
X114423408Y-78360132D01*
X113693356Y-78360132D01*
X113694592Y-78357868D01*
X113694461Y-78356035D01*
X113690210Y-78349420D01*
X112748066Y-77407276D01*
X112734529Y-77399884D01*
X112729260Y-77403570D01*
X112602073Y-77611121D01*
X112597592Y-77619915D01*
X112503016Y-77848242D01*
X112499967Y-77857627D01*
X112442272Y-78097940D01*
X112440729Y-78107687D01*
X112421338Y-78354070D01*
X112421338Y-78363930D01*
X112014500Y-78363930D01*
X112014500Y-77036401D01*
X113099810Y-77036401D01*
X113105817Y-77046607D01*
X114046188Y-77986978D01*
X114060132Y-77994592D01*
X114061965Y-77994461D01*
X114068580Y-77990210D01*
X115010724Y-77048066D01*
X115017094Y-77036401D01*
X118179810Y-77036401D01*
X118185817Y-77046607D01*
X119126188Y-77986978D01*
X119140132Y-77994592D01*
X119141965Y-77994461D01*
X119148580Y-77990210D01*
X120090724Y-77048066D01*
X120098116Y-77034529D01*
X120094430Y-77029260D01*
X119886879Y-76902073D01*
X119878085Y-76897592D01*
X119649758Y-76803016D01*
X119640373Y-76799967D01*
X119400060Y-76742272D01*
X119390313Y-76740729D01*
X119143930Y-76721338D01*
X119134070Y-76721338D01*
X118887687Y-76740729D01*
X118877940Y-76742272D01*
X118637627Y-76799967D01*
X118628242Y-76803016D01*
X118399915Y-76897592D01*
X118391121Y-76902073D01*
X118185072Y-77028340D01*
X118179810Y-77036401D01*
X115017094Y-77036401D01*
X115018116Y-77034529D01*
X115014430Y-77029260D01*
X114806879Y-76902073D01*
X114798085Y-76897592D01*
X114569758Y-76803016D01*
X114560373Y-76799967D01*
X114320060Y-76742272D01*
X114310313Y-76740729D01*
X114063930Y-76721338D01*
X114054070Y-76721338D01*
X113807687Y-76740729D01*
X113797940Y-76742272D01*
X113557627Y-76799967D01*
X113548242Y-76803016D01*
X113319915Y-76897592D01*
X113311121Y-76902073D01*
X113105072Y-77028340D01*
X113099810Y-77036401D01*
X112014500Y-77036401D01*
X112014500Y-72403966D01*
X129351257Y-72403966D01*
X129381565Y-72538446D01*
X129384645Y-72548275D01*
X129464770Y-72745603D01*
X129469413Y-72754794D01*
X129580694Y-72936388D01*
X129586777Y-72944699D01*
X129726213Y-73105667D01*
X129733580Y-73112883D01*
X129897434Y-73248916D01*
X129905881Y-73254831D01*
X130089756Y-73362279D01*
X130099042Y-73366729D01*
X130298001Y-73442703D01*
X130307899Y-73445579D01*
X130411250Y-73466606D01*
X130425299Y-73465410D01*
X130429000Y-73455065D01*
X130429000Y-72408115D01*
X130424525Y-72392876D01*
X130423135Y-72391671D01*
X130415452Y-72390000D01*
X129366225Y-72390000D01*
X129352694Y-72393973D01*
X129351257Y-72403966D01*
X112014500Y-72403966D01*
X112014500Y-71870183D01*
X129347389Y-71870183D01*
X129348912Y-71878607D01*
X129361292Y-71882000D01*
X130410885Y-71882000D01*
X130426124Y-71877525D01*
X130427329Y-71876135D01*
X130429000Y-71868452D01*
X130429000Y-70819102D01*
X130425082Y-70805758D01*
X130410806Y-70803771D01*
X130372324Y-70809660D01*
X130362288Y-70812051D01*
X130159868Y-70878212D01*
X130150359Y-70882209D01*
X129961463Y-70980542D01*
X129952738Y-70986036D01*
X129782433Y-71113905D01*
X129774726Y-71120748D01*
X129627590Y-71274717D01*
X129621104Y-71282727D01*
X129501098Y-71458649D01*
X129496000Y-71467623D01*
X129406338Y-71660783D01*
X129402775Y-71670470D01*
X129347389Y-71870183D01*
X112014500Y-71870183D01*
X112014500Y-68706500D01*
X112034502Y-68638379D01*
X112088158Y-68591886D01*
X112140500Y-68580500D01*
X155321500Y-68580500D01*
X155389621Y-68600502D01*
G37*
G04 #@! TD.AperFunction*
M02*
