G04 #@! TF.GenerationSoftware,KiCad,Pcbnew,6.0.11+dfsg-1*
G04 #@! TF.CreationDate,2024-04-10T12:01:03+02:00*
G04 #@! TF.ProjectId,Nehari_Chauveliere_aase_dephaseur,4e656861-7269-45f4-9368-617576656c69,rev?*
G04 #@! TF.SameCoordinates,Original*
G04 #@! TF.FileFunction,Legend,Top*
G04 #@! TF.FilePolarity,Positive*
%FSLAX46Y46*%
G04 Gerber Fmt 4.6, Leading zero omitted, Abs format (unit mm)*
G04 Created by KiCad (PCBNEW 6.0.11+dfsg-1) date 2024-04-10 12:01:03*
%MOMM*%
%LPD*%
G01*
G04 APERTURE LIST*
G04 Aperture macros list*
%AMRoundRect*
0 Rectangle with rounded corners*
0 $1 Rounding radius*
0 $2 $3 $4 $5 $6 $7 $8 $9 X,Y pos of 4 corners*
0 Add a 4 corners polygon primitive as box body*
4,1,4,$2,$3,$4,$5,$6,$7,$8,$9,$2,$3,0*
0 Add four circle primitives for the rounded corners*
1,1,$1+$1,$2,$3*
1,1,$1+$1,$4,$5*
1,1,$1+$1,$6,$7*
1,1,$1+$1,$8,$9*
0 Add four rect primitives between the rounded corners*
20,1,$1+$1,$2,$3,$4,$5,0*
20,1,$1+$1,$4,$5,$6,$7,0*
20,1,$1+$1,$6,$7,$8,$9,0*
20,1,$1+$1,$8,$9,$2,$3,0*%
G04 Aperture macros list end*
%ADD10C,0.150000*%
%ADD11C,0.120000*%
%ADD12RoundRect,0.237500X-0.250000X-0.237500X0.250000X-0.237500X0.250000X0.237500X-0.250000X0.237500X0*%
%ADD13RoundRect,0.237500X0.287500X0.237500X-0.287500X0.237500X-0.287500X-0.237500X0.287500X-0.237500X0*%
%ADD14C,2.250000*%
%ADD15R,1.500000X0.400000*%
%ADD16RoundRect,0.237500X0.237500X-0.250000X0.237500X0.250000X-0.237500X0.250000X-0.237500X-0.250000X0*%
%ADD17R,1.700000X1.700000*%
%ADD18O,1.700000X1.700000*%
%ADD19RoundRect,0.237500X-0.237500X0.300000X-0.237500X-0.300000X0.237500X-0.300000X0.237500X0.300000X0*%
G04 APERTURE END LIST*
D10*
X113681619Y-72461380D02*
X113681619Y-71461380D01*
X114014952Y-72175666D01*
X114348285Y-71461380D01*
X114348285Y-72461380D01*
X115253047Y-72461380D02*
X115253047Y-71937571D01*
X115205428Y-71842333D01*
X115110190Y-71794714D01*
X114919714Y-71794714D01*
X114824476Y-71842333D01*
X115253047Y-72413761D02*
X115157809Y-72461380D01*
X114919714Y-72461380D01*
X114824476Y-72413761D01*
X114776857Y-72318523D01*
X114776857Y-72223285D01*
X114824476Y-72128047D01*
X114919714Y-72080428D01*
X115157809Y-72080428D01*
X115253047Y-72032809D01*
X115729238Y-72461380D02*
X115729238Y-71461380D01*
X116157809Y-72461380D02*
X116157809Y-71937571D01*
X116110190Y-71842333D01*
X116014952Y-71794714D01*
X115872095Y-71794714D01*
X115776857Y-71842333D01*
X115729238Y-71889952D01*
X117062571Y-72461380D02*
X117062571Y-71937571D01*
X117014952Y-71842333D01*
X116919714Y-71794714D01*
X116729238Y-71794714D01*
X116634000Y-71842333D01*
X117062571Y-72413761D02*
X116967333Y-72461380D01*
X116729238Y-72461380D01*
X116634000Y-72413761D01*
X116586380Y-72318523D01*
X116586380Y-72223285D01*
X116634000Y-72128047D01*
X116729238Y-72080428D01*
X116967333Y-72080428D01*
X117062571Y-72032809D01*
X118300666Y-72461380D02*
X118300666Y-71461380D01*
X118538761Y-71461380D01*
X118681619Y-71509000D01*
X118776857Y-71604238D01*
X118824476Y-71699476D01*
X118872095Y-71889952D01*
X118872095Y-72032809D01*
X118824476Y-72223285D01*
X118776857Y-72318523D01*
X118681619Y-72413761D01*
X118538761Y-72461380D01*
X118300666Y-72461380D01*
X119681619Y-72413761D02*
X119586380Y-72461380D01*
X119395904Y-72461380D01*
X119300666Y-72413761D01*
X119253047Y-72318523D01*
X119253047Y-71937571D01*
X119300666Y-71842333D01*
X119395904Y-71794714D01*
X119586380Y-71794714D01*
X119681619Y-71842333D01*
X119729238Y-71937571D01*
X119729238Y-72032809D01*
X119253047Y-72128047D01*
X120157809Y-71794714D02*
X120157809Y-72794714D01*
X120157809Y-71842333D02*
X120253047Y-71794714D01*
X120443523Y-71794714D01*
X120538761Y-71842333D01*
X120586380Y-71889952D01*
X120634000Y-71985190D01*
X120634000Y-72270904D01*
X120586380Y-72366142D01*
X120538761Y-72413761D01*
X120443523Y-72461380D01*
X120253047Y-72461380D01*
X120157809Y-72413761D01*
X121062571Y-72461380D02*
X121062571Y-71461380D01*
X121491142Y-72461380D02*
X121491142Y-71937571D01*
X121443523Y-71842333D01*
X121348285Y-71794714D01*
X121205428Y-71794714D01*
X121110190Y-71842333D01*
X121062571Y-71889952D01*
X122395904Y-72461380D02*
X122395904Y-71937571D01*
X122348285Y-71842333D01*
X122253047Y-71794714D01*
X122062571Y-71794714D01*
X121967333Y-71842333D01*
X122395904Y-72413761D02*
X122300666Y-72461380D01*
X122062571Y-72461380D01*
X121967333Y-72413761D01*
X121919714Y-72318523D01*
X121919714Y-72223285D01*
X121967333Y-72128047D01*
X122062571Y-72080428D01*
X122300666Y-72080428D01*
X122395904Y-72032809D01*
X122824476Y-72413761D02*
X122919714Y-72461380D01*
X123110190Y-72461380D01*
X123205428Y-72413761D01*
X123253047Y-72318523D01*
X123253047Y-72270904D01*
X123205428Y-72175666D01*
X123110190Y-72128047D01*
X122967333Y-72128047D01*
X122872095Y-72080428D01*
X122824476Y-71985190D01*
X122824476Y-71937571D01*
X122872095Y-71842333D01*
X122967333Y-71794714D01*
X123110190Y-71794714D01*
X123205428Y-71842333D01*
X124062571Y-72413761D02*
X123967333Y-72461380D01*
X123776857Y-72461380D01*
X123681619Y-72413761D01*
X123634000Y-72318523D01*
X123634000Y-71937571D01*
X123681619Y-71842333D01*
X123776857Y-71794714D01*
X123967333Y-71794714D01*
X124062571Y-71842333D01*
X124110190Y-71937571D01*
X124110190Y-72032809D01*
X123634000Y-72128047D01*
X124967333Y-71794714D02*
X124967333Y-72461380D01*
X124538761Y-71794714D02*
X124538761Y-72318523D01*
X124586380Y-72413761D01*
X124681619Y-72461380D01*
X124824476Y-72461380D01*
X124919714Y-72413761D01*
X124967333Y-72366142D01*
X125443523Y-72461380D02*
X125443523Y-71794714D01*
X125443523Y-71985190D02*
X125491142Y-71889952D01*
X125538761Y-71842333D01*
X125634000Y-71794714D01*
X125729238Y-71794714D01*
X143827833Y-71158380D02*
X143494500Y-70682190D01*
X143256404Y-71158380D02*
X143256404Y-70158380D01*
X143637357Y-70158380D01*
X143732595Y-70206000D01*
X143780214Y-70253619D01*
X143827833Y-70348857D01*
X143827833Y-70491714D01*
X143780214Y-70586952D01*
X143732595Y-70634571D01*
X143637357Y-70682190D01*
X143256404Y-70682190D01*
X144684976Y-70491714D02*
X144684976Y-71158380D01*
X144446880Y-70110761D02*
X144208785Y-70825047D01*
X144827833Y-70825047D01*
X149502904Y-74018380D02*
X149502904Y-73018380D01*
X149741000Y-73018380D01*
X149883857Y-73066000D01*
X149979095Y-73161238D01*
X150026714Y-73256476D01*
X150074333Y-73446952D01*
X150074333Y-73589809D01*
X150026714Y-73780285D01*
X149979095Y-73875523D01*
X149883857Y-73970761D01*
X149741000Y-74018380D01*
X149502904Y-74018380D01*
X151026714Y-74018380D02*
X150455285Y-74018380D01*
X150741000Y-74018380D02*
X150741000Y-73018380D01*
X150645761Y-73161238D01*
X150550523Y-73256476D01*
X150455285Y-73304095D01*
X150542666Y-85939380D02*
X150542666Y-86653666D01*
X150495047Y-86796523D01*
X150399809Y-86891761D01*
X150256952Y-86939380D01*
X150161714Y-86939380D01*
X150923619Y-85939380D02*
X151542666Y-85939380D01*
X151209333Y-86320333D01*
X151352190Y-86320333D01*
X151447428Y-86367952D01*
X151495047Y-86415571D01*
X151542666Y-86510809D01*
X151542666Y-86748904D01*
X151495047Y-86844142D01*
X151447428Y-86891761D01*
X151352190Y-86939380D01*
X151066476Y-86939380D01*
X150971238Y-86891761D01*
X150923619Y-86844142D01*
X116252666Y-85939380D02*
X116252666Y-86653666D01*
X116205047Y-86796523D01*
X116109809Y-86891761D01*
X115966952Y-86939380D01*
X115871714Y-86939380D01*
X116681238Y-86034619D02*
X116728857Y-85987000D01*
X116824095Y-85939380D01*
X117062190Y-85939380D01*
X117157428Y-85987000D01*
X117205047Y-86034619D01*
X117252666Y-86129857D01*
X117252666Y-86225095D01*
X117205047Y-86367952D01*
X116633619Y-86939380D01*
X117252666Y-86939380D01*
X135890095Y-77557380D02*
X135890095Y-78366904D01*
X135937714Y-78462142D01*
X135985333Y-78509761D01*
X136080571Y-78557380D01*
X136271047Y-78557380D01*
X136366285Y-78509761D01*
X136413904Y-78462142D01*
X136461523Y-78366904D01*
X136461523Y-77557380D01*
X137461523Y-78557380D02*
X136890095Y-78557380D01*
X137175809Y-78557380D02*
X137175809Y-77557380D01*
X137080571Y-77700238D01*
X136985333Y-77795476D01*
X136890095Y-77843095D01*
X139025333Y-88463380D02*
X138692000Y-87987190D01*
X138453904Y-88463380D02*
X138453904Y-87463380D01*
X138834857Y-87463380D01*
X138930095Y-87511000D01*
X138977714Y-87558619D01*
X139025333Y-87653857D01*
X139025333Y-87796714D01*
X138977714Y-87891952D01*
X138930095Y-87939571D01*
X138834857Y-87987190D01*
X138453904Y-87987190D01*
X139358666Y-87463380D02*
X139977714Y-87463380D01*
X139644380Y-87844333D01*
X139787238Y-87844333D01*
X139882476Y-87891952D01*
X139930095Y-87939571D01*
X139977714Y-88034809D01*
X139977714Y-88272904D01*
X139930095Y-88368142D01*
X139882476Y-88415761D01*
X139787238Y-88463380D01*
X139501523Y-88463380D01*
X139406285Y-88415761D01*
X139358666Y-88368142D01*
X131278333Y-88336380D02*
X130945000Y-87860190D01*
X130706904Y-88336380D02*
X130706904Y-87336380D01*
X131087857Y-87336380D01*
X131183095Y-87384000D01*
X131230714Y-87431619D01*
X131278333Y-87526857D01*
X131278333Y-87669714D01*
X131230714Y-87764952D01*
X131183095Y-87812571D01*
X131087857Y-87860190D01*
X130706904Y-87860190D01*
X131659285Y-87431619D02*
X131706904Y-87384000D01*
X131802142Y-87336380D01*
X132040238Y-87336380D01*
X132135476Y-87384000D01*
X132183095Y-87431619D01*
X132230714Y-87526857D01*
X132230714Y-87622095D01*
X132183095Y-87764952D01*
X131611666Y-88336380D01*
X132230714Y-88336380D01*
X132659380Y-81065666D02*
X132183190Y-81399000D01*
X132659380Y-81637095D02*
X131659380Y-81637095D01*
X131659380Y-81256142D01*
X131707000Y-81160904D01*
X131754619Y-81113285D01*
X131849857Y-81065666D01*
X131992714Y-81065666D01*
X132087952Y-81113285D01*
X132135571Y-81160904D01*
X132183190Y-81256142D01*
X132183190Y-81637095D01*
X132659380Y-80113285D02*
X132659380Y-80684714D01*
X132659380Y-80399000D02*
X131659380Y-80399000D01*
X131802238Y-80494238D01*
X131897476Y-80589476D01*
X131945095Y-80684714D01*
X137545380Y-72469333D02*
X138259666Y-72469333D01*
X138402523Y-72516952D01*
X138497761Y-72612190D01*
X138545380Y-72755047D01*
X138545380Y-72850285D01*
X138545380Y-71469333D02*
X138545380Y-72040761D01*
X138545380Y-71755047D02*
X137545380Y-71755047D01*
X137688238Y-71850285D01*
X137783476Y-71945523D01*
X137831095Y-72040761D01*
X123420142Y-79160666D02*
X123467761Y-79208285D01*
X123515380Y-79351142D01*
X123515380Y-79446380D01*
X123467761Y-79589238D01*
X123372523Y-79684476D01*
X123277285Y-79732095D01*
X123086809Y-79779714D01*
X122943952Y-79779714D01*
X122753476Y-79732095D01*
X122658238Y-79684476D01*
X122563000Y-79589238D01*
X122515380Y-79446380D01*
X122515380Y-79351142D01*
X122563000Y-79208285D01*
X122610619Y-79160666D01*
X123515380Y-78208285D02*
X123515380Y-78779714D01*
X123515380Y-78494000D02*
X122515380Y-78494000D01*
X122658238Y-78589238D01*
X122753476Y-78684476D01*
X122801095Y-78779714D01*
D11*
X143739776Y-71613500D02*
X144249224Y-71613500D01*
X143739776Y-72658500D02*
X144249224Y-72658500D01*
X149441000Y-72871000D02*
X151901000Y-72871000D01*
X151901000Y-71401000D02*
X149441000Y-71401000D01*
X151901000Y-72871000D02*
X151901000Y-71401000D01*
X152476000Y-84499000D02*
X149276000Y-84499000D01*
X152476000Y-77299000D02*
X149276000Y-77299000D01*
X154556000Y-79099000D02*
X154556000Y-82699000D01*
X147676000Y-79599000D02*
X147676000Y-82199000D01*
X119799000Y-82199000D02*
X119799000Y-79599000D01*
X112919000Y-82699000D02*
X112919000Y-79099000D01*
X114999000Y-84499000D02*
X118199000Y-84499000D01*
X114999000Y-77299000D02*
X118199000Y-77299000D01*
X138366090Y-81403737D02*
X139766090Y-81403737D01*
X139766090Y-79083737D02*
X137866090Y-79083737D01*
X138786776Y-85583500D02*
X139296224Y-85583500D01*
X138786776Y-86628500D02*
X139296224Y-86628500D01*
X130959776Y-85583500D02*
X131469224Y-85583500D01*
X130959776Y-86628500D02*
X131469224Y-86628500D01*
X129779500Y-80749224D02*
X129779500Y-80239776D01*
X130824500Y-80749224D02*
X130824500Y-80239776D01*
X129353000Y-70806000D02*
X129353000Y-73466000D01*
X134493000Y-70806000D02*
X129353000Y-70806000D01*
X135763000Y-70806000D02*
X137093000Y-70806000D01*
X134493000Y-73466000D02*
X129353000Y-73466000D01*
X137093000Y-70806000D02*
X137093000Y-72136000D01*
X134493000Y-70806000D02*
X134493000Y-73466000D01*
X125605000Y-80345233D02*
X125605000Y-80637767D01*
X124585000Y-80345233D02*
X124585000Y-80637767D01*
%LPC*%
D12*
X143082000Y-72136000D03*
X144907000Y-72136000D03*
D13*
X151116000Y-72136000D03*
X149366000Y-72136000D03*
D14*
X150876000Y-80899000D03*
X148336000Y-78359000D03*
X153416000Y-83439000D03*
X153416000Y-78359000D03*
X148336000Y-83439000D03*
X119139000Y-78359000D03*
X114059000Y-83439000D03*
X114059000Y-78359000D03*
X119139000Y-83439000D03*
X116599000Y-80899000D03*
D15*
X137736090Y-79593737D03*
X137736090Y-80243737D03*
X137736090Y-80893737D03*
X140396090Y-80893737D03*
X140396090Y-79593737D03*
D12*
X138129000Y-86106000D03*
X139954000Y-86106000D03*
X130302000Y-86106000D03*
X132127000Y-86106000D03*
D16*
X130302000Y-81407000D03*
X130302000Y-79582000D03*
D17*
X135763000Y-72136000D03*
D18*
X133223000Y-72136000D03*
X130683000Y-72136000D03*
D19*
X125095000Y-79629000D03*
X125095000Y-81354000D03*
M02*
