%TF.GenerationSoftware,KiCad,Pcbnew,6.0.11+dfsg-1*%
%TF.CreationDate,2024-04-10T12:01:10+02:00*%
%TF.ProjectId,Nehari_Chauveliere_aase_dephaseur,4e656861-7269-45f4-9368-617576656c69,rev?*%
%TF.SameCoordinates,Original*%
%TF.FileFunction,Drillmap*%
%TF.FilePolarity,Positive*%
%FSLAX45Y45*%
G04 Gerber Fmt 4.5, Leading zero omitted, Abs format (unit mm)*
G04 Created by KiCad (PCBNEW 6.0.11+dfsg-1) date 2024-04-10 12:01:10*
%MOMM*%
%LPD*%
G01*
G04 APERTURE LIST*
%ADD10C,0.100000*%
%ADD11C,0.200000*%
G04 APERTURE END LIST*
D10*
X11150600Y-6807200D02*
X15595600Y-6807200D01*
X15595600Y-6807200D02*
X15595600Y-9182100D01*
X15595600Y-9182100D02*
X11150600Y-9182100D01*
X11150600Y-9182100D02*
X11150600Y-6807200D01*
D11*
X11403219Y-9497576D02*
X11403219Y-9297576D01*
X11450838Y-9297576D01*
X11479409Y-9307100D01*
X11498457Y-9326148D01*
X11507981Y-9345195D01*
X11517505Y-9383290D01*
X11517505Y-9411862D01*
X11507981Y-9449957D01*
X11498457Y-9469005D01*
X11479409Y-9488052D01*
X11450838Y-9497576D01*
X11403219Y-9497576D01*
X11603219Y-9497576D02*
X11603219Y-9364243D01*
X11603219Y-9402338D02*
X11612743Y-9383290D01*
X11622267Y-9373767D01*
X11641314Y-9364243D01*
X11660362Y-9364243D01*
X11727028Y-9497576D02*
X11727028Y-9364243D01*
X11727028Y-9297576D02*
X11717505Y-9307100D01*
X11727028Y-9316624D01*
X11736552Y-9307100D01*
X11727028Y-9297576D01*
X11727028Y-9316624D01*
X11850838Y-9497576D02*
X11831790Y-9488052D01*
X11822267Y-9469005D01*
X11822267Y-9297576D01*
X11955600Y-9497576D02*
X11936552Y-9488052D01*
X11927028Y-9469005D01*
X11927028Y-9297576D01*
X12184171Y-9497576D02*
X12184171Y-9297576D01*
X12250838Y-9440433D01*
X12317505Y-9297576D01*
X12317505Y-9497576D01*
X12498457Y-9497576D02*
X12498457Y-9392814D01*
X12488933Y-9373767D01*
X12469886Y-9364243D01*
X12431790Y-9364243D01*
X12412743Y-9373767D01*
X12498457Y-9488052D02*
X12479409Y-9497576D01*
X12431790Y-9497576D01*
X12412743Y-9488052D01*
X12403219Y-9469005D01*
X12403219Y-9449957D01*
X12412743Y-9430910D01*
X12431790Y-9421386D01*
X12479409Y-9421386D01*
X12498457Y-9411862D01*
X12593695Y-9364243D02*
X12593695Y-9564243D01*
X12593695Y-9373767D02*
X12612743Y-9364243D01*
X12650838Y-9364243D01*
X12669886Y-9373767D01*
X12679409Y-9383290D01*
X12688933Y-9402338D01*
X12688933Y-9459481D01*
X12679409Y-9478529D01*
X12669886Y-9488052D01*
X12650838Y-9497576D01*
X12612743Y-9497576D01*
X12593695Y-9488052D01*
X12774648Y-9478529D02*
X12784171Y-9488052D01*
X12774648Y-9497576D01*
X12765124Y-9488052D01*
X12774648Y-9478529D01*
X12774648Y-9497576D01*
X12774648Y-9373767D02*
X12784171Y-9383290D01*
X12774648Y-9392814D01*
X12765124Y-9383290D01*
X12774648Y-9373767D01*
X12774648Y-9392814D01*
M02*
